<svg xmlns="http://www.w3.org/2000/svg" width="199.246" height="56.031" viewBox="0 0 199.246 56.031">
  <g id="Grupo_909309" data-name="Grupo 909309" transform="translate(327.246 10082.694)">
    <path id="Trazado_622688" data-name="Trazado 622688" d="M5,0H192.965a5,5,0,0,1,5,5V50.706a5,5,0,0,1-5,5H5a5,5,0,0,1-5-5V5A5,5,0,0,1,5,0Z" transform="translate(-325.965 -10082.369)" fill="#108691"/>
    <g id="Trazado_622689" data-name="Trazado 622689" transform="translate(-327.246 -10082.694)" fill="#fff">
      <path d="M 31.19005584716797 55.20632171630859 L 4.999996185302734 55.20632171630859 C 2.518686056137085 55.20632171630859 0.4999960064888 53.18762969970703 0.4999960064888 50.70632171630859 L 0.4999960064888 5.000000953674316 C 0.4999960064888 2.518690824508667 2.518686056137085 0.5000008344650269 4.999996185302734 0.5000008344650269 L 31.19005584716797 0.5000008344650269 C 33.67136764526367 0.5000008344650269 35.69005584716797 2.518690824508667 35.69005584716797 5.000000953674316 L 35.69005584716797 50.70632171630859 C 35.69005584716797 53.18762969970703 33.67136764526367 55.20632171630859 31.19005584716797 55.20632171630859 Z" stroke="none"/>
      <path d="M 4.999996185302734 1 C 2.794387817382812 1 0.9999961853027344 2.794391632080078 0.9999961853027344 5 L 0.9999961853027344 50.70632171630859 C 0.9999961853027344 52.91193008422852 2.794387817382812 54.70632171630859 4.999996185302734 54.70632171630859 L 31.19005584716797 54.70632171630859 C 33.39566802978516 54.70632171630859 35.19005584716797 52.91193008422852 35.19005584716797 50.70632171630859 L 35.19005584716797 5 C 35.19005584716797 2.794391632080078 33.39566802978516 1 31.19005584716797 1 L 4.999996185302734 1 M 4.999996185302734 0 L 31.19005584716797 0 C 33.95147705078125 0 36.19005584716797 2.238571166992188 36.19005584716797 5 L 36.19005584716797 50.70632171630859 C 36.19005584716797 53.46773910522461 33.95147705078125 55.70632171630859 31.19005584716797 55.70632171630859 L 4.999996185302734 55.70632171630859 C 2.238574981689453 55.70632171630859 -3.814697265625e-06 53.46773910522461 -3.814697265625e-06 50.70632171630859 L -3.814697265625e-06 5 C -3.814697265625e-06 2.238571166992188 2.238574981689453 0 4.999996185302734 0 Z" stroke="none" fill="#108691"/>
    </g>
    <path id="Trazado_622690" data-name="Trazado 622690" d="M-62.23-2.344H-66.34L-67.121,0h-2.492l4.234-11.375h2.172L-58.949,0h-2.492Zm-3.477-1.9h2.844L-64.293-8.5ZM-54.52-1.664A1.481,1.481,0,0,0-53.5-2.008a1.2,1.2,0,0,0,.406-.914h2.117a2.9,2.9,0,0,1-.469,1.574A3.093,3.093,0,0,1-52.711-.238a3.949,3.949,0,0,1-1.77.395A3.67,3.67,0,0,1-57.34-1,4.56,4.56,0,0,1-58.387-4.18v-.148a4.508,4.508,0,0,1,1.039-3.117A3.627,3.627,0,0,1-54.5-8.609a3.555,3.555,0,0,1,2.543.9,3.2,3.2,0,0,1,.973,2.4H-53.1A1.551,1.551,0,0,0-53.5-6.377a1.354,1.354,0,0,0-1.031-.412,1.36,1.36,0,0,0-1.191.575,3.333,3.333,0,0,0-.4,1.866v.235a3.375,3.375,0,0,0,.4,1.878A1.377,1.377,0,0,0-54.52-1.664Zm8.344,0a1.481,1.481,0,0,0,1.016-.344,1.2,1.2,0,0,0,.406-.914h2.117a2.9,2.9,0,0,1-.469,1.574A3.093,3.093,0,0,1-44.367-.238a3.949,3.949,0,0,1-1.77.395A3.67,3.67,0,0,1-49-1,4.56,4.56,0,0,1-50.043-4.18v-.148A4.508,4.508,0,0,1-49-7.445a3.627,3.627,0,0,1,2.852-1.164,3.555,3.555,0,0,1,2.543.9,3.2,3.2,0,0,1,.973,2.4h-2.117a1.551,1.551,0,0,0-.406-1.072,1.354,1.354,0,0,0-1.031-.412,1.36,1.36,0,0,0-1.191.575,3.333,3.333,0,0,0-.4,1.866v.235a3.375,3.375,0,0,0,.4,1.878A1.377,1.377,0,0,0-46.176-1.664ZM-38.965,0H-41.23V-8.453h2.266Zm-2.4-10.641a1.112,1.112,0,0,1,.34-.836A1.277,1.277,0,0,1-40.1-11.8a1.28,1.28,0,0,1,.922.328,1.105,1.105,0,0,1,.344.836,1.108,1.108,0,0,1-.348.844,1.283,1.283,0,0,1-.918.328,1.283,1.283,0,0,1-.918-.328A1.108,1.108,0,0,1-41.363-10.641ZM-37.457-4.3a5.013,5.013,0,0,1,.484-2.242A3.546,3.546,0,0,1-35.578-8.07a4.069,4.069,0,0,1,2.113-.539,3.849,3.849,0,0,1,2.793,1.047,4.2,4.2,0,0,1,1.207,2.844l.016.578A4.418,4.418,0,0,1-30.535-1.02,3.775,3.775,0,0,1-33.449.156a3.793,3.793,0,0,1-2.918-1.172A4.5,4.5,0,0,1-37.457-4.2Zm2.258.16A3.16,3.16,0,0,0-34.746-2.3a1.5,1.5,0,0,0,1.3.638,1.5,1.5,0,0,0,1.281-.63,3.457,3.457,0,0,0,.461-2.015,3.128,3.128,0,0,0-.461-1.831,1.5,1.5,0,0,0-1.3-.649,1.474,1.474,0,0,0-1.281.646A3.516,3.516,0,0,0-35.2-4.144Zm9.219-4.309.07.977a2.951,2.951,0,0,1,2.43-1.133,2.453,2.453,0,0,1,2,.789,3.682,3.682,0,0,1,.672,2.359V0h-2.258V-5.419a1.47,1.47,0,0,0-.312-1.045,1.4,1.4,0,0,0-1.039-.325,1.553,1.553,0,0,0-1.43.814V0h-2.258V-8.453ZM-14.2,0a2.507,2.507,0,0,1-.227-.758,2.732,2.732,0,0,1-2.133.914,3,3,0,0,1-2.059-.719,2.312,2.312,0,0,1-.816-1.812,2.389,2.389,0,0,1,1-2.062,4.915,4.915,0,0,1,2.879-.727h1.039v-.484a1.393,1.393,0,0,0-.3-.937,1.183,1.183,0,0,0-.949-.352,1.345,1.345,0,0,0-.895.273.929.929,0,0,0-.324.75h-2.258a2.268,2.268,0,0,1,.453-1.359,3,3,0,0,1,1.281-.98,4.669,4.669,0,0,1,1.859-.355,3.689,3.689,0,0,1,2.48.785,2.747,2.747,0,0,1,.918,2.207v3.664a4.041,4.041,0,0,0,.336,1.82V0Zm-1.867-1.57a1.945,1.945,0,0,0,.922-.223,1.462,1.462,0,0,0,.625-.6V-3.844h-.844q-1.7,0-1.8,1.172l-.008.133a.9.9,0,0,0,.3.7A1.153,1.153,0,0,0-16.066-1.57Zm10.3-4.766A6.134,6.134,0,0,0-6.582-6.4a1.654,1.654,0,0,0-1.68.867V0H-10.52V-8.453h2.133l.063,1.008A2.092,2.092,0,0,1-6.441-8.609a2.366,2.366,0,0,1,.7.1ZM1.684,0H-.582V-12H1.684ZM8.441,0a2.507,2.507,0,0,1-.227-.758A2.732,2.732,0,0,1,6.082.156,3,3,0,0,1,4.023-.562a2.312,2.312,0,0,1-.816-1.812,2.389,2.389,0,0,1,1-2.062,4.915,4.915,0,0,1,2.879-.727H8.121v-.484a1.393,1.393,0,0,0-.3-.937,1.183,1.183,0,0,0-.949-.352,1.345,1.345,0,0,0-.895.273.929.929,0,0,0-.324.75H3.395a2.268,2.268,0,0,1,.453-1.359,3,3,0,0,1,1.281-.98,4.669,4.669,0,0,1,1.859-.355,3.689,3.689,0,0,1,2.48.785,2.747,2.747,0,0,1,.918,2.207v3.664a4.041,4.041,0,0,0,.336,1.82V0ZM6.574-1.57A1.945,1.945,0,0,0,7.5-1.793a1.462,1.462,0,0,0,.625-.6V-3.844H7.277q-1.7,0-1.8,1.172l-.008.133a.9.9,0,0,0,.3.7A1.153,1.153,0,0,0,6.574-1.57Zm13.047-.094a1.481,1.481,0,0,0,1.016-.344,1.2,1.2,0,0,0,.406-.914H23.16a2.9,2.9,0,0,1-.469,1.574A3.093,3.093,0,0,1,21.43-.238a3.949,3.949,0,0,1-1.77.395A3.67,3.67,0,0,1,16.8-1,4.56,4.56,0,0,1,15.754-4.18v-.148a4.508,4.508,0,0,1,1.039-3.117,3.627,3.627,0,0,1,2.852-1.164,3.555,3.555,0,0,1,2.543.9,3.2,3.2,0,0,1,.973,2.4H21.043a1.551,1.551,0,0,0-.406-1.072,1.354,1.354,0,0,0-1.031-.412,1.36,1.36,0,0,0-1.191.575,3.333,3.333,0,0,0-.4,1.866v.235a3.375,3.375,0,0,0,.4,1.878A1.377,1.377,0,0,0,19.621-1.664ZM24.1-4.3a5.013,5.013,0,0,1,.484-2.242A3.546,3.546,0,0,1,25.977-8.07a4.069,4.069,0,0,1,2.113-.539,3.849,3.849,0,0,1,2.793,1.047A4.2,4.2,0,0,1,32.09-4.719l.016.578A4.418,4.418,0,0,1,31.02-1.02,3.775,3.775,0,0,1,28.105.156a3.793,3.793,0,0,1-2.918-1.172A4.5,4.5,0,0,1,24.1-4.2Zm2.258.16A3.16,3.16,0,0,0,26.809-2.3a1.5,1.5,0,0,0,1.3.638,1.5,1.5,0,0,0,1.281-.63,3.457,3.457,0,0,0,.461-2.015,3.128,3.128,0,0,0-.461-1.831,1.5,1.5,0,0,0-1.3-.649,1.474,1.474,0,0,0-1.281.646A3.516,3.516,0,0,0,26.355-4.144Zm9.258-4.309.07.945a2.971,2.971,0,0,1,2.43-1.1A2.255,2.255,0,0,1,40.355-7.32a2.9,2.9,0,0,1,2.539-1.289,2.521,2.521,0,0,1,2.047.8,3.681,3.681,0,0,1,.672,2.41V0H43.348V-5.4a1.616,1.616,0,0,0-.281-1.053,1.245,1.245,0,0,0-.992-.333,1.409,1.409,0,0,0-1.406.971L40.676,0H38.418V-5.4a1.6,1.6,0,0,0-.289-1.065,1.257,1.257,0,0,0-.984-.329,1.463,1.463,0,0,0-1.391.8V0H33.5V-8.453Zm19.344,4.3A5.07,5.07,0,0,1,54.07-1.02,2.843,2.843,0,0,1,51.676.156a2.633,2.633,0,0,1-2.07-.891V3.25H47.348v-11.7h2.094l.078.828a2.654,2.654,0,0,1,2.141-.984,2.862,2.862,0,0,1,2.43,1.156,5.207,5.207,0,0,1,.867,3.188ZM52.7-4.321a3.345,3.345,0,0,0-.418-1.826,1.36,1.36,0,0,0-1.215-.643,1.478,1.478,0,0,0-1.461.815V-2.5a1.5,1.5,0,0,0,1.477.839Q52.7-1.664,52.7-4.321Zm8.406-2.015a6.134,6.134,0,0,0-.812-.062,1.654,1.654,0,0,0-1.68.867V0H56.355V-8.453h2.133l.063,1.008a2.092,2.092,0,0,1,1.883-1.164,2.366,2.366,0,0,1,.7.1ZM66.855,0a2.507,2.507,0,0,1-.227-.758A2.732,2.732,0,0,1,64.5.156a3,3,0,0,1-2.059-.719,2.312,2.312,0,0,1-.816-1.812,2.389,2.389,0,0,1,1-2.062A4.915,4.915,0,0,1,65.5-5.164h1.039v-.484a1.393,1.393,0,0,0-.3-.937,1.183,1.183,0,0,0-.949-.352,1.345,1.345,0,0,0-.895.273.929.929,0,0,0-.324.75H61.809a2.268,2.268,0,0,1,.453-1.359,3,3,0,0,1,1.281-.98A4.669,4.669,0,0,1,65.4-8.609a3.689,3.689,0,0,1,2.48.785A2.747,2.747,0,0,1,68.8-5.617v3.664a4.041,4.041,0,0,0,.336,1.82V0ZM64.988-1.57a1.945,1.945,0,0,0,.922-.223,1.462,1.462,0,0,0,.625-.6V-3.844h-.844q-1.7,0-1.8,1.172l-.008.133a.9.9,0,0,0,.3.7A1.153,1.153,0,0,0,64.988-1.57Z" transform="translate(-210.279 -10049.834)" fill="#fff"/>
    <path id="Trazado_622691" data-name="Trazado 622691" d="M2.954-3.369H-2.954L-4.077,0H-7.659l6.087-16.352H1.55L7.67,0H4.088Zm-5-2.729H2.044L-.011-12.219Z" transform="translate(-309.885 -10049.14)" fill="#12263f"/>
  </g>
</svg>
