<svg xmlns="http://www.w3.org/2000/svg" width="338.378" height="326.524" viewBox="0 0 338.378 326.524">
  <g id="Grupo_909299" data-name="Grupo 909299" transform="translate(-215.5 -395.93)">
    <rect id="Rectángulo_304565" data-name="Rectángulo 304565" width="338.378" height="283.057" transform="translate(215.5 408.033)" fill="#fff7ee"/>
    <g id="Grupo_908750" data-name="Grupo 908750" transform="translate(191.714 372.044)">
      <g id="Background_Complete" data-name="Background Complete" transform="translate(42.504 23.886)">
        <g id="Grupo_908641" data-name="Grupo 908641" transform="translate(39.555 24.859)">
          <path id="Trazado_622330" data-name="Trazado 622330" d="M127.12,108h0a25.072,25.072,0,0,1-25.073-25.073h0A25.072,25.072,0,0,1,127.12,57.853h0a25.073,25.073,0,0,1,25.073,25.073h0A25.073,25.073,0,0,1,127.12,108Z" transform="translate(-102.047 -57.853)" fill="#ebebeb"/>
          <g id="Grupo_908640" data-name="Grupo 908640" transform="translate(13.205 11.102)">
            <g id="Grupo_908639" data-name="Grupo 908639">
              <rect id="Rectángulo_304559" data-name="Rectángulo 304559" width="5.189" height="16.764" transform="translate(0.499 8.382)" fill="#fff"/>
              <path id="Trazado_622331" data-name="Trazado 622331" d="M123.159,79.209a3.094,3.094,0,1,0-3.069-3.094A3.081,3.081,0,0,0,123.159,79.209Z" transform="translate(-120.09 -73.022)" fill="#fff"/>
            </g>
            <path id="Trazado_622332" data-name="Trazado 622332" d="M137.372,92.252c0-2.357,1.085-3.761,3.162-3.761,1.908,0,2.825,1.348,2.825,3.761v8.8h5.165V90.437c0-4.491-2.545-6.661-6.1-6.661a5.845,5.845,0,0,0-5.052,2.769V84.288H132.4v16.764h4.977Z" transform="translate(-123.39 -75.906)" fill="#fff"/>
          </g>
        </g>
        <path id="Trazado_622333" data-name="Trazado 622333" d="M178.662,23.886l3.433,6.278,6.278,3.433L182.1,37.03l-3.433,6.278-3.433-6.278L168.951,33.6l6.278-3.433Z" transform="translate(-80.433 -23.886)" fill="#f5f5f5"/>
        <path id="Trazado_622334" data-name="Trazado 622334" d="M375.2,256.273l2.575,4.708,4.708,2.575-4.708,2.575-2.575,4.708-2.575-4.708-4.708-2.575,4.708-2.575Z" transform="translate(-133.785 -86.2)" fill="#ebebeb"/>
        <path id="Trazado_622335" data-name="Trazado 622335" d="M386.618,224.508l1.162,2.124,2.124,1.162-2.124,1.162-1.162,2.124-1.162-2.124-2.124-1.162,2.124-1.162Z" transform="translate(-137.918 -77.682)" fill="#e0e0e0"/>
        <path id="Trazado_622336" data-name="Trazado 622336" d="M147.51,27.112l1.162,2.124L150.8,30.4l-2.124,1.162-1.162,2.124-1.162-2.124L144.223,30.4l2.124-1.162Z" transform="translate(-73.802 -24.751)" fill="#e0e0e0"/>
        <g id="Grupo_908643" data-name="Grupo 908643" transform="translate(0 185.09)">
          <g id="Grupo_908642" data-name="Grupo 908642">
            <path id="Trazado_622337" data-name="Trazado 622337" d="M63.466,291.4a7.591,7.591,0,0,0,4.432-7.08,7.133,7.133,0,1,0-14.237.119,7.577,7.577,0,0,0,4.628,7.028c-10.932,1.792-10.282,13.691-10.282,13.691l25.9-.216S74.346,292.9,63.466,291.4Z" transform="translate(-48 -276.792)" fill="#e0e0e0"/>
          </g>
        </g>
        <g id="Grupo_908644" data-name="Grupo 908644" transform="translate(247.957 274.887)">
          <path id="Trazado_622338" data-name="Trazado 622338" d="M402.783,402.745a4.032,4.032,0,0,0-7.952.236,4.032,4.032,0,0,0-7.954-.167,5.443,5.443,0,0,0,.977,3.927,16.2,16.2,0,0,0,2.843,3.005c1.448,1.288,2.785,2.5,4.233,3.787,1.436-1.3,2.657-2.523,4.093-3.824a16.127,16.127,0,0,0,2.817-3.031A5.442,5.442,0,0,0,402.783,402.745Z" transform="translate(-386.806 -399.49)" fill="#ebebeb"/>
        </g>
        <g id="Grupo_908647" data-name="Grupo 908647" transform="translate(272.556 108.082)">
          <g id="Grupo_908645" data-name="Grupo 908645" transform="translate(8.248)">
            <path id="Trazado_622339" data-name="Trazado 622339" d="M431.688,187.363l2.775-.55,4.384-9.643-1.1-5.541s4.238-1.115,5.172,6.241,1.114,5.4,1.114,5.4,9.117-1.771,10.031-1.13c.664.465,2.708,9.465,3.776,14.354a5.417,5.417,0,0,1-2.7,6.1,4.079,4.079,0,0,1-.954.326c-2.272.451-14.248.905-14.248.905l-4.794.951Z" transform="translate(-431.688 -171.569)" fill="#e0e0e0"/>
          </g>
          <g id="Grupo_908646" data-name="Grupo 908646" transform="translate(0 14.95)">
            <path id="Trazado_622340" data-name="Trazado 622340" d="M420.418,192.9l5.472,18.646,4.754-.943L426.955,192Z" transform="translate(-420.418 -191.997)" fill="#e0e0e0"/>
          </g>
        </g>
      </g>
      <g id="Floor" transform="translate(27.503 349.691)">
        <g id="Grupo_908648" data-name="Grupo 908648">
          <path id="Trazado_622341" data-name="Trazado 622341" d="M351.69,469.253c0,.105-72.577.19-162.085.19-89.539,0-162.1-.085-162.1-.19s72.562-.19,162.1-.19C279.112,469.063,351.69,469.148,351.69,469.253Z" transform="translate(-27.503 -469.063)" fill="#263238"/>
        </g>
      </g>
      <g id="Icons" transform="translate(42.696 83.962)">
        <g id="Grupo_908649" data-name="Grupo 908649" transform="translate(209.866 0)">
          <path id="Trazado_622342" data-name="Trazado 622342" d="M377.77,162.455h0a29.735,29.735,0,0,1-39.746-13.735h0a29.735,29.735,0,0,1,13.735-39.746h0a29.736,29.736,0,0,1,39.746,13.735h0A29.736,29.736,0,0,1,377.77,162.455Z" transform="translate(-335.022 -105.973)" fill="#26aab7"/>
          <path id="Trazado_622343" data-name="Trazado 622343" d="M362.6,146.768a.7.7,0,0,0,.692-.9c-.072-.36-.266-1.265-.34-1.645-.1-.518-.225-.654-.757-.888a5.858,5.858,0,0,1-2.943-2.993,9.607,9.607,0,0,1,4.732-13.105c4.9-2.382,9.046-.7,10.99,3.3,2.558,5.259,2.39,10.83-1.066,12.511a3.14,3.14,0,0,1-4.589-2.112c-.574-2.579-.726-5.589-1.538-7.258-.726-1.493-2.133-2.349-3.792-1.542-1.951.949-2.537,3.73-1.222,6.433a7.809,7.809,0,0,0,1.987,2.6s2.118,9.431,2.488,11.082a22.722,22.722,0,0,0,3.317,6.958.27.27,0,0,0,.485-.105,21.633,21.633,0,0,0,.389-7.572c-.17-.92-1.154-5.638-1.154-5.638a5.815,5.815,0,0,0,5.561.106c5.865-2.853,7.243-10.133,3.763-17.289-2.632-5.411-9.665-8.222-16.631-4.834-8.667,4.215-10.015,12.555-7.495,17.737C357,144.754,359.542,146.968,362.6,146.768Z" transform="translate(-340.202 -110.379)" fill="#fff"/>
        </g>
        <g id="Grupo_908651" data-name="Grupo 908651" transform="translate(269.119 100.685)">
          <path id="Trazado_622344" data-name="Trazado 622344" d="M429.179,283.22h0a20.509,20.509,0,0,1-11.838-26.478h0A20.509,20.509,0,0,1,443.819,244.9h0a20.509,20.509,0,0,1,11.838,26.478h0A20.508,20.508,0,0,1,429.179,283.22Z" transform="translate(-415.985 -243.548)" fill="#d2e1f1"/>
          <g id="Grupo_908650" data-name="Grupo 908650" transform="translate(5.99 9.342)">
            <path id="Trazado_622345" data-name="Trazado 622345" d="M449.4,270.967a11.047,11.047,0,0,0-20.548-8.067c-.061.148-.124.3-.181.446a10.881,10.881,0,0,0-.543,5.853l-3.959,4.781,6.408.367a11.059,11.059,0,0,0,18.727-3.118C449.337,271.142,449.371,271.055,449.4,270.967Zm-13.7,4.928a9.25,9.25,0,0,1-4.228-3.248l-3.738-.211,2.3-2.785a9.122,9.122,0,0,1,.277-5.678,8.541,8.541,0,0,1,.362-.819,9.29,9.29,0,0,1,17.215,6.766c-.066.23-.141.455-.228.682A9.26,9.26,0,0,1,435.7,275.894Z" transform="translate(-424.169 -256.312)" fill="#fff" fill-rule="evenodd"/>
            <path id="Trazado_622346" data-name="Trazado 622346" d="M446.751,272.962c-.208-.223-1.217-1.306-1.418-1.477s-.353-.279-.618-.092-.969.565-1.177.674-.366.075-.574-.148a7.342,7.342,0,0,1-1.557-2.023,8.041,8.041,0,0,1-.743-2.272c-.049-.306.133-.392.307-.469s.364-.2.55-.293l.138-.086a2.955,2.955,0,0,0,.274-.239.484.484,0,0,0,.149-.446c-.015-.15-.05-1.58-.07-2.163s-.261-.576-.411-.634-.3-.143-.474-.209a1,1,0,0,0-.8.056,3.008,3.008,0,0,0-1.685,1.759,3.419,3.419,0,0,0-.2.905,6.091,6.091,0,0,0,.239,2.084,11.108,11.108,0,0,0,2.869,5.441c2.193,1.984,2.32,1.65,2.8,1.784a2.7,2.7,0,0,0,2.161-.542,2.216,2.216,0,0,0,.605-1.136C447.1,273.311,446.954,273.184,446.751,272.962Z" transform="translate(-427.994 -258.113)" fill="#fff" fill-rule="evenodd"/>
          </g>
        </g>
        <g id="Grupo_908652" data-name="Grupo 908652" transform="translate(0 14.294)">
          <path id="Trazado_622347" data-name="Trazado 622347" d="M63.9,156.781h0a15.639,15.639,0,0,1-15.638-15.639h0A15.638,15.638,0,0,1,63.9,125.5h0A15.639,15.639,0,0,1,79.54,141.142h0A15.639,15.639,0,0,1,63.9,156.781Z" transform="translate(-48.263 -125.504)" fill="#1565c0"/>
          <path id="Trazado_622348" data-name="Trazado 622348" d="M58.246,149.627A9.723,9.723,0,0,0,73.2,140.992a6.93,6.93,0,0,0,1.706-1.77,6.828,6.828,0,0,1-1.964.538,3.427,3.427,0,0,0,1.5-1.891,6.869,6.869,0,0,1-2.171.83,3.421,3.421,0,0,0-5.826,3.118,9.7,9.7,0,0,1-7.046-3.573,3.424,3.424,0,0,0,1.058,4.565,3.4,3.4,0,0,1-1.549-.428,3.422,3.422,0,0,0,2.742,3.4,3.422,3.422,0,0,1-1.543.059,3.42,3.42,0,0,0,3.193,2.374A6.869,6.869,0,0,1,58.246,149.627Z" transform="translate(-50.94 -128.753)" fill="#fff"/>
        </g>
        <g id="Grupo_908654" data-name="Grupo 908654" transform="translate(10.559 167.615)">
          <path id="Trazado_622349" data-name="Trazado 622349" d="M95.874,388.142h0A26.935,26.935,0,0,1,63.43,368.183h0a26.935,26.935,0,0,1,19.96-32.444h0a26.935,26.935,0,0,1,32.444,19.96h0A26.934,26.934,0,0,1,95.874,388.142Z" transform="translate(-62.691 -335)" fill="#455a64"/>
          <g id="Grupo_908653" data-name="Grupo 908653" transform="translate(11.001 11.001)">
            <path id="Trazado_622350" data-name="Trazado 622350" d="M90.857,354.193c3.836-.913,4.294-1.007,5.825-1.3a8.185,8.185,0,0,1,2.786-.141,4.892,4.892,0,0,1,3.376,2.077,8.2,8.2,0,0,1,1.13,2.55c.43,1.5.553,1.95,1.467,5.785s1.007,4.294,1.3,5.826a8.187,8.187,0,0,1,.141,2.785,4.888,4.888,0,0,1-2.077,3.375,8.168,8.168,0,0,1-2.55,1.131c-1.5.43-1.949.553-5.785,1.467s-4.295,1.007-5.826,1.3a8.157,8.157,0,0,1-2.785.14,4.888,4.888,0,0,1-3.376-2.076,8.181,8.181,0,0,1-1.13-2.55c-.43-1.5-.553-1.95-1.467-5.785s-1.008-4.294-1.3-5.826a8.181,8.181,0,0,1-.141-2.785,4.892,4.892,0,0,1,2.077-3.376,8.184,8.184,0,0,1,2.55-1.13c1.5-.43,1.95-.553,5.785-1.467m-.616-2.588c-3.9.929-4.387,1.063-5.9,1.5a10.828,10.828,0,0,0-3.328,1.5,7.545,7.545,0,0,0-3.2,5.2,10.821,10.821,0,0,0,.162,3.646c.295,1.549.4,2.042,1.325,5.943s1.063,4.387,1.5,5.9a10.827,10.827,0,0,0,1.5,3.328,7.549,7.549,0,0,0,5.2,3.2,10.866,10.866,0,0,0,3.647-.163c1.549-.295,2.042-.4,5.943-1.325s4.387-1.063,5.9-1.5a10.834,10.834,0,0,0,3.328-1.5,7.549,7.549,0,0,0,3.2-5.2,10.863,10.863,0,0,0-.163-3.646c-.295-1.549-.4-2.042-1.325-5.943s-1.063-4.387-1.5-5.9a10.835,10.835,0,0,0-1.5-3.328,7.549,7.549,0,0,0-5.2-3.2,10.864,10.864,0,0,0-3.646.163c-1.549.295-2.042.4-5.943,1.325" transform="translate(-77.722 -350.031)" fill="#fff"/>
            <path id="Trazado_622351" data-name="Trazado 622351" d="M94.967,361.656a7.583,7.583,0,1,0,9.134,5.62,7.583,7.583,0,0,0-9.134-5.62m2.9,12.166a4.923,4.923,0,1,1,3.648-5.929,4.922,4.922,0,0,1-3.648,5.929" transform="translate(-80.783 -353.092)" fill="#fff"/>
            <path id="Trazado_622352" data-name="Trazado 622352" d="M108.56,357.777a1.772,1.772,0,1,1-2.135-1.314,1.773,1.773,0,0,1,2.135,1.314" transform="translate(-85.053 -351.743)" fill="#fff"/>
          </g>
        </g>
        <g id="Grupo_908655" data-name="Grupo 908655" transform="translate(235.204 171.929)">
          <path id="Trazado_622353" data-name="Trazado 622353" d="M382.2,366.017h0a12.561,12.561,0,0,1-12.561-12.562h0A12.561,12.561,0,0,1,382.2,340.895h0a12.561,12.561,0,0,1,12.561,12.561h0A12.561,12.561,0,0,1,382.2,366.017Z" transform="translate(-369.644 -340.895)" fill="#455a64"/>
          <path id="Trazado_622354" data-name="Trazado 622354" d="M383.608,362.869h3.058v-7.657H388.8l.228-2.564h-2.361v-1.46c0-.6.122-.843.706-.843h1.655v-2.661H386.91c-2.275,0-3.3,1-3.3,2.92v2.044h-1.59v2.6h1.59Z" transform="translate(-372.962 -342.715)" fill="#fff"/>
        </g>
      </g>
      <g id="Device" transform="translate(124.739 53.395)">
        <g id="Grupo_908721" data-name="Grupo 908721">
          <g id="Grupo_908720" data-name="Grupo 908720">
            <g id="Grupo_908715" data-name="Grupo 908715">
              <g id="Grupo_908663" data-name="Grupo 908663">
                <g id="Grupo_908662" data-name="Grupo 908662">
                  <g id="Grupo_908658" data-name="Grupo 908658">
                    <g id="Grupo_908657" data-name="Grupo 908657">
                      <g id="Grupo_908656" data-name="Grupo 908656">
                        <path id="Trazado_622355" data-name="Trazado 622355" d="M283.247,361.222l-100.913-.059a21.982,21.982,0,0,1-21.969-21.986l.05-252.991a21.982,21.982,0,0,1,21.994-21.978l100.914.06a21.982,21.982,0,0,1,21.969,21.986l-.05,252.992A21.98,21.98,0,0,1,283.247,361.222Z" transform="translate(-160.365 -64.207)" fill="#263238"/>
                      </g>
                    </g>
                  </g>
                  <g id="Grupo_908661" data-name="Grupo 908661" transform="translate(6.687 8.949)">
                    <g id="Grupo_908660" data-name="Grupo 908660">
                      <g id="Grupo_908659" data-name="Grupo 908659">
                        <path id="Trazado_622356" data-name="Trazado 622356" d="M285.666,76.494,266.1,76.483a4.86,4.86,0,0,0-4.751,4.963V85a4.86,4.86,0,0,1-4.751,4.963l-38.138-.023a4.864,4.864,0,0,1-4.75-4.969V81.418a4.864,4.864,0,0,0-4.75-4.969l-6.881,0-17.124-.01a15.394,15.394,0,0,0-15.4,15.392L169.5,338.765a15.4,15.4,0,0,0,15.386,15.4l100.712.059A15.4,15.4,0,0,0,301,338.83l.048-246.939A15.4,15.4,0,0,0,285.666,76.494Z" transform="translate(-169.502 -76.435)" fill="#fff"/>
                      </g>
                    </g>
                  </g>
                </g>
              </g>
              <g id="Grupo_908673" data-name="Grupo 908673" transform="translate(112.957 28.987)">
                <g id="Grupo_908666" data-name="Grupo 908666">
                  <g id="Grupo_908665" data-name="Grupo 908665">
                    <g id="Grupo_908664" data-name="Grupo 908664">
                      <path id="Trazado_622357" data-name="Trazado 622357" d="M326.075,103.9c0,.066-2.543.141-5.682.167s-5.684-.007-5.684-.073,2.543-.141,5.683-.167S326.075,103.83,326.075,103.9Z" transform="translate(-314.709 -103.815)" fill="#263238"/>
                    </g>
                  </g>
                </g>
                <g id="Grupo_908669" data-name="Grupo 908669" transform="translate(0.024 2.908)">
                  <g id="Grupo_908668" data-name="Grupo 908668">
                    <g id="Grupo_908667" data-name="Grupo 908667">
                      <path id="Trazado_622358" data-name="Trazado 622358" d="M326.108,107.871c0,.066-2.544.141-5.682.167s-5.684-.007-5.684-.073,2.543-.141,5.682-.167S326.108,107.8,326.108,107.871Z" transform="translate(-314.742 -107.789)" fill="#263238"/>
                    </g>
                  </g>
                </g>
                <g id="Grupo_908672" data-name="Grupo 908672" transform="translate(0.048 5.816)">
                  <g id="Grupo_908671" data-name="Grupo 908671">
                    <g id="Grupo_908670" data-name="Grupo 908670">
                      <path id="Trazado_622359" data-name="Trazado 622359" d="M326.141,111.844c0,.067-2.544.141-5.682.167s-5.684-.007-5.684-.072,2.543-.141,5.682-.167S326.141,111.778,326.141,111.844Z" transform="translate(-314.775 -111.763)" fill="#263238"/>
                    </g>
                  </g>
                </g>
              </g>
              <g id="Grupo_908676" data-name="Grupo 908676" transform="translate(17.159 25.731)">
                <g id="Grupo_908675" data-name="Grupo 908675">
                  <g id="Grupo_908674" data-name="Grupo 908674">
                    <path id="Trazado_622360" data-name="Trazado 622360" d="M183.963,111.357a2.335,2.335,0,0,1,.3-.02l.828-.027,3.059-.073-.085.086q-.016-1.018-.036-2.218c0-.412-.035-.8,0-1.277a1.176,1.176,0,0,1,1.027-.943c.493-.01.927-.032,1.461-.007a1.188,1.188,0,0,1,1,1.181c.012,1.034.024,2.114.037,3.235l-.142-.139,3.858-.04-.146.149c-.014-1.554-.029-3.161-.043-4.808q0-.616-.01-1.224a1.247,1.247,0,0,0-.542-.912l-1.687-1.663q-.829-.817-1.627-1.606l-.789-.779c-.271-.261-.484-.531-.8-.6a1.039,1.039,0,0,0-.886.169c-.233.2-.482.477-.718.706l-1.385,1.4c-.871.9-1.778,1.731-2.437,2.512a2.728,2.728,0,0,0-.194,1.44q0,.718,0,1.36-.008,1.25-.014,2.19c-.007.559-.012,1.022-.015,1.4a4.972,4.972,0,0,1-.019.5,3.679,3.679,0,0,1-.026-.464c-.01-.373-.023-.828-.039-1.379q-.021-.946-.05-2.207-.012-.655-.026-1.387-.005-.37-.012-.758a1.6,1.6,0,0,1,.213-.808c.714-.875,1.565-1.649,2.443-2.58l1.374-1.407c.247-.243.45-.484.745-.738a1.311,1.311,0,0,1,1.118-.22,2.083,2.083,0,0,1,.927.662l.792.776,1.633,1.6,1.69,1.659a3.215,3.215,0,0,1,.431.467,1.264,1.264,0,0,1,.2.651q.005.611.011,1.23c.012,1.647.025,3.254.037,4.808v.148h-.148l-3.859.025h-.141V111.3c-.006-1.12-.011-2.2-.017-3.235a.931.931,0,0,0-.779-.937c-.444-.023-.967-.008-1.4,0a.947.947,0,0,0-.832.75c-.037.388-.009.84-.017,1.233q0,1.2,0,2.218v.086h-.085l-3.11-.022-.809-.014A1.518,1.518,0,0,1,183.963,111.357Z" transform="translate(-183.811 -99.366)" fill="#263238"/>
                  </g>
                </g>
              </g>
              <g id="Grupo_908695" data-name="Grupo 908695" transform="translate(14.718 221.716)">
                <g id="Grupo_908681" data-name="Grupo 908681" transform="translate(42.254 8.773)">
                  <g id="Grupo_908680" data-name="Grupo 908680">
                    <g id="Grupo_908677" data-name="Grupo 908677">
                      <path id="Trazado_622361" data-name="Trazado 622361" d="M265.121,379.336a5.611,5.611,0,0,1-1.058.075l-2.883.061c-2.435.034-5.8.056-9.513.056s-7.08-.021-9.514-.056l-2.884-.061a5.612,5.612,0,0,1-1.058-.075,5.654,5.654,0,0,1,1.058-.074l2.884-.061c2.434-.034,5.8-.056,9.514-.056s7.078.021,9.513.056l2.883.061A5.654,5.654,0,0,1,265.121,379.336Z" transform="translate(-238.211 -379.146)" fill="#455a64"/>
                    </g>
                    <g id="Grupo_908678" data-name="Grupo 908678" transform="translate(0 6.62)">
                      <path id="Trazado_622362" data-name="Trazado 622362" d="M307.415,388.382c0,.105-15.493.19-34.6.19s-34.6-.085-34.6-.19,15.49-.19,34.6-.19S307.415,388.277,307.415,388.382Z" transform="translate(-238.211 -388.192)" fill="#455a64"/>
                    </g>
                    <g id="Grupo_908679" data-name="Grupo 908679" transform="translate(0 12.848)">
                      <path id="Trazado_622363" data-name="Trazado 622363" d="M285.789,396.892c0,.1-10.651.19-23.787.19s-23.79-.086-23.79-.19S248.86,396.7,262,396.7,285.789,396.787,285.789,396.892Z" transform="translate(-238.211 -396.701)" fill="#455a64"/>
                    </g>
                  </g>
                </g>
                <g id="Grupo_908682" data-name="Grupo 908682" transform="translate(108.629 27.647)">
                  <path id="Trazado_622364" data-name="Trazado 622364" d="M333.1,411.222l-2.15-2.157-2.047,2.042.01-6.173,4.2.007Zm-2.149-2.425.067.067,1.893,1.9.009-5.633-3.817-.006-.009,5.525Z" transform="translate(-328.905 -404.934)" fill="#263238"/>
                </g>
                <g id="Grupo_908683" data-name="Grupo 908683" transform="translate(51.706 28.877)">
                  <path id="Trazado_622365" data-name="Trazado 622365" d="M254.992,410.87l-.758-.338a2.079,2.079,0,1,1,1.108-1.826,2.1,2.1,0,0,1-.525,1.405Zm-1.773-4.11a1.963,1.963,0,0,0,.031,3.926,2.026,2.026,0,0,0,.945-.3l.031-.018.56.25-.127-.55.026-.028a1.96,1.96,0,0,0-1.466-3.282Z" transform="translate(-251.126 -406.616)" fill="#263238"/>
                </g>
                <g id="Grupo_908684" data-name="Grupo 908684" transform="translate(57.95 29.166)">
                  <path id="Trazado_622366" data-name="Trazado 622366" d="M262.158,410.65l-.87-2.122-1.631-1.486,3.956-.031Zm-2.131-3.467,1.389,1.275.741,1.808,1.243-3.11Z" transform="translate(-259.657 -407.01)" fill="#263238"/>
                </g>
                <g id="Grupo_908685" data-name="Grupo 908685" transform="translate(59.67 29.165)">
                  <rect id="Rectángulo_304560" data-name="Rectángulo 304560" width="2.573" height="0.145" transform="translate(0 1.403) rotate(-33.054)" fill="#263238"/>
                </g>
                <g id="Grupo_908686" data-name="Grupo 908686" transform="translate(44.501 28.658)">
                  <path id="Trazado_622367" data-name="Trazado 622367" d="M246.128,407.3a2.709,2.709,0,0,1-3.594-.963,1.264,1.264,0,0,0-1.232,1,1.651,1.651,0,0,0,.3,1.191,4.914,4.914,0,0,0,.866.908c.441.389.848.755,1.289,1.145.434-.4.8-.768,1.238-1.165a4.864,4.864,0,0,0,.852-.922A1.656,1.656,0,0,0,246.128,407.3Z" transform="translate(-241.281 -406.316)" fill="#e8505b"/>
                </g>
                <g id="Grupo_908687" data-name="Grupo 908687">
                  <path id="Trazado_622368" data-name="Trazado 622368" d="M297.709,406.554s-.009-.237-.013-.689-.007-1.126-.013-2c-.007-1.766-.018-4.363-.031-7.727-.016-6.726-.04-16.512-.069-28.787l.126.126-117.036.065h-.007l.191-.191c0,13.625,0,26.841-.007,39.205l-.184-.184,83.749.086,24.448.051,6.561.024,1.7.012c.383,0,.585.012.585.012s-.186.007-.562.012l-1.679.012-6.521.023-24.406.052-83.876.086h-.184v-.184c0-12.364,0-25.581-.006-39.205v-.19h.2l117.036.065h.126v.125c-.029,12.308-.053,22.119-.069,28.863-.013,3.352-.023,5.939-.031,7.7q-.009,1.3-.013,1.98C297.717,406.333,297.709,406.554,297.709,406.554Z" transform="translate(-180.475 -367.158)" fill="#263238"/>
                </g>
                <g id="Grupo_908694" data-name="Grupo 908694" transform="translate(4.717 6.569)">
                  <g id="Grupo_908691" data-name="Grupo 908691">
                    <g id="Grupo_908690" data-name="Grupo 908690">
                      <g id="Grupo_908689" data-name="Grupo 908689">
                        <rect id="Rectángulo_304561" data-name="Rectángulo 304561" width="25.92" height="32.421" transform="matrix(0.006, -1, 1, 0.006, 0.194, 26.091)" fill="#ebebeb"/>
                        <g id="Grupo_908688" data-name="Grupo 908688">
                          <path id="Trazado_622369" data-name="Trazado 622369" d="M219.681,376.49a1.27,1.27,0,0,1-.162.009l-.46.007-1.77.01-6.647.007-23.382-.048.171-.17c-.038,7.717-.081,16.56-.127,25.917.04.045-.355-.361-.184-.19h.553l.561,0,1.118.007,2.219.013,4.368.026,8.411.054,15.184.11-.16.157c.078-7.783.143-14.24.189-18.773.031-2.254.054-4.029.071-5.262q.016-.894.026-1.394c.008-.317.021-.489.021-.489s.011.149.015.455q0,.491.01,1.364c0,1.224.007,2.988.012,5.227-.007,4.557-.015,11.049-.026,18.874v.158h-.16L204.35,402.5l-8.412-.041-4.368-.023-2.219-.012-1.118-.006-.561,0-.28,0h-.273c.167.171-.238-.232-.2-.194.061-9.358.118-18.2.168-25.916v-.171h.171l23.492.219,6.609.083,1.736.03.441.012A.63.63,0,0,1,219.681,376.49Z" transform="translate(-186.92 -376.134)" fill="#263238"/>
                        </g>
                      </g>
                    </g>
                  </g>
                  <rect id="Rectángulo_304562" data-name="Rectángulo 304562" width="22.656" height="30.143" transform="matrix(0.006, -1, 1, 0.006, 1.321, 24.466)" fill="#e0e0e0"/>
                  <path id="Trazado_622370" data-name="Trazado 622370" d="M188.725,404.426,199.333,390.4l6.472,8.848,4.45-4.685,8.613,10.031Z" transform="translate(-187.404 -379.96)" fill="#f5f5f5"/>
                  <g id="Grupo_908693" data-name="Grupo 908693" transform="translate(16.482 6.384)">
                    <g id="Grupo_908692" data-name="Grupo 908692">
                      <path id="Trazado_622371" data-name="Trazado 622371" d="M214.188,387.244a2.373,2.373,0,1,1-2.36-2.387A2.375,2.375,0,0,1,214.188,387.244Z" transform="translate(-209.441 -384.857)" fill="#f5f5f5"/>
                    </g>
                  </g>
                </g>
              </g>
              <g id="Grupo_908710" data-name="Grupo 908710" transform="translate(19.418 55.218)">
                <g id="Grupo_908705" data-name="Grupo 908705">
                  <g id="Grupo_908698" data-name="Grupo 908698" transform="translate(20.952 5.091)">
                    <g id="Grupo_908697" data-name="Grupo 908697">
                      <g id="Grupo_908696" data-name="Grupo 908696">
                        <path id="Trazado_622372" data-name="Trazado 622372" d="M249.6,146.8a1.2,1.2,0,0,1-.346.039l-.992.036-3.651.06c-3.083.035-7.343.056-12.047.056s-8.965-.021-12.049-.056l-3.65-.06-.993-.036a1.2,1.2,0,0,1-.346-.039,1.218,1.218,0,0,1,.346-.038l.993-.036,3.65-.061c3.083-.034,7.343-.056,12.049-.056s8.964.021,12.047.056l3.651.061.992.036A1.217,1.217,0,0,1,249.6,146.8Z" transform="translate(-215.527 -146.612)" fill="#263238"/>
                      </g>
                    </g>
                  </g>
                  <g id="Grupo_908704" data-name="Grupo 908704" transform="translate(0 138.792)">
                    <g id="Grupo_908699" data-name="Grupo 908699" transform="translate(96.686 0.428)">
                      <path id="Trazado_622373" data-name="Trazado 622373" d="M325.247,339.229l-3.195-3.2-3.043,3.034.015-9.174,6.238.01Zm-3.194-3.6.1.1,2.813,2.823.013-8.371-5.673-.009-.013,8.211Z" transform="translate(-319.009 -329.885)" fill="#1565c0"/>
                    </g>
                    <g id="Grupo_908700" data-name="Grupo 908700" transform="translate(14.182 0.433)">
                      <path id="Trazado_622374" data-name="Trazado 622374" d="M213.886,338.266l-1.494-.666a4.091,4.091,0,1,1,2.182-3.593,4.134,4.134,0,0,1-1.033,2.766Zm-3.492-8.09a3.864,3.864,0,1,0,.062,7.728,3.982,3.982,0,0,0,1.861-.587l.061-.034,1.1.491-.249-1.082.05-.055a3.86,3.86,0,0,0-2.886-6.462Z" transform="translate(-206.277 -329.892)" fill="#1565c0"/>
                    </g>
                    <g id="Grupo_908701" data-name="Grupo 908701" transform="translate(26.472 1.001)">
                      <path id="Trazado_622375" data-name="Trazado 622375" d="M227.991,337.834l-1.712-4.178-3.21-2.925,7.785-.062Zm-4.195-6.825,2.734,2.51,1.458,3.559,2.446-6.122Z" transform="translate(-223.069 -330.668)" fill="#1565c0"/>
                    </g>
                    <g id="Grupo_908702" data-name="Grupo 908702" transform="translate(29.857 1)">
                      <rect id="Rectángulo_304563" data-name="Rectángulo 304563" width="5.065" height="0.284" transform="matrix(0.838, -0.545, 0.545, 0.838, 0, 2.762)" fill="#1565c0"/>
                    </g>
                    <g id="Grupo_908703" data-name="Grupo 908703">
                      <path id="Trazado_622376" data-name="Trazado 622376" d="M196.438,331.236a2.408,2.408,0,0,0-4.749.159,2.408,2.408,0,0,0-4.75-.082,3.249,3.249,0,0,0,.592,2.343,9.617,9.617,0,0,0,1.7,1.789c.867.766,1.669,1.487,2.536,2.253.855-.78,1.582-1.513,2.437-2.293a9.653,9.653,0,0,0,1.676-1.816A3.25,3.25,0,0,0,196.438,331.236Z" transform="translate(-186.898 -329.301)" fill="#1565c0"/>
                    </g>
                  </g>
                  <circle id="Elipse_8352" data-name="Elipse 8352" cx="5.281" cy="5.281" r="5.281" transform="translate(3.549)" fill="#ebebeb"/>
                </g>
                <g id="Grupo_908709" data-name="Grupo 908709" transform="translate(2.009 109.839)">
                  <g id="Grupo_908706" data-name="Grupo 908706" transform="translate(0 8.237)">
                    <path id="Trazado_622377" data-name="Trazado 622377" d="M288.563,301.185c0,.105-22.146.19-49.458.19s-49.462-.085-49.462-.19,22.141-.191,49.462-.191S288.563,301.08,288.563,301.185Z" transform="translate(-189.643 -300.994)" fill="#455a64"/>
                  </g>
                  <g id="Grupo_908707" data-name="Grupo 908707" transform="translate(0 0)">
                    <path id="Trazado_622378" data-name="Trazado 622378" d="M288.563,289.929c0,.105-22.146.191-49.458.191s-49.462-.086-49.462-.191,22.141-.19,49.462-.19S288.563,289.824,288.563,289.929Z" transform="translate(-189.643 -289.739)" fill="#455a64"/>
                  </g>
                  <g id="Grupo_908708" data-name="Grupo 908708" transform="translate(0 16.585)">
                    <path id="Trazado_622379" data-name="Trazado 622379" d="M243.486,312.59c0,.105-12.054.191-26.921.191s-26.923-.086-26.923-.191,12.051-.19,26.923-.19S243.486,312.486,243.486,312.59Z" transform="translate(-189.643 -312.4)" fill="#455a64"/>
                  </g>
                </g>
              </g>
              <g id="Grupo_908714" data-name="Grupo 908714" transform="translate(64.423 269.437)">
                <g id="Grupo_908711" data-name="Grupo 908711">
                  <path id="Trazado_622380" data-name="Trazado 622380" d="M252.6,434.505a2.1,2.1,0,1,1-2.092-2.142A2.116,2.116,0,0,1,252.6,434.505Z" transform="translate(-248.392 -432.363)" fill="#263238"/>
                </g>
                <g id="Grupo_908712" data-name="Grupo 908712" transform="translate(6.512 0.03)">
                  <path id="Trazado_622381" data-name="Trazado 622381" d="M261.493,434.546A2.1,2.1,0,1,1,259.4,432.4,2.116,2.116,0,0,1,261.493,434.546Z" transform="translate(-257.29 -432.404)" fill="#263238"/>
                </g>
                <g id="Grupo_908713" data-name="Grupo 908713" transform="translate(13.024 0.06)">
                  <path id="Trazado_622382" data-name="Trazado 622382" d="M270.391,434.587a2.1,2.1,0,1,1-2.092-2.142A2.115,2.115,0,0,1,270.391,434.587Z" transform="translate(-266.188 -432.445)" fill="#263238"/>
                </g>
              </g>
            </g>
            <g id="Grupo_908718" data-name="Grupo 908718" transform="translate(15.609 70.951)">
              <rect id="Rectángulo_304564" data-name="Rectángulo 304564" width="117.043" height="71.578" fill="#e0e0e0"/>
              <path id="Trazado_622383" data-name="Trazado 622383" d="M196.457,242.528,230,197.637l20.792,28.073L264.881,210.7l27.639,31.8Z" transform="translate(-185.652 -170.937)" fill="#f5f5f5"/>
              <g id="Grupo_908717" data-name="Grupo 908717" transform="translate(58.822 13.632)">
                <g id="Grupo_908716" data-name="Grupo 908716">
                  <path id="Trazado_622384" data-name="Trazado 622384" d="M277.2,187.343a7.564,7.564,0,1,1-7.567-7.562A7.564,7.564,0,0,1,277.2,187.343Z" transform="translate(-262.067 -179.781)" fill="#f5f5f5"/>
                </g>
              </g>
            </g>
            <g id="Grupo_908719" data-name="Grupo 908719" transform="translate(15.104 46.946)">
              <path id="Trazado_622385" data-name="Trazado 622385" d="M298.237,290.459c0-1.531-.071-66.193-.173-161.915l.173.173-117.029.018h-.013l.19-.191c-.013,60.553-.026,116.592-.036,161.915l-.154-.155,117.043.155-117.043.155h-.155v-.155c-.01-45.323-.023-101.363-.036-161.915v-.19h.2l117.029.018h.173v.173c-.035,47.909-.064,88.405-.086,116.931-.02,14.242-.035,25.494-.046,33.191-.009,3.838-.016,6.789-.021,8.784q-.007,1.486-.01,2.253C298.243,290.208,298.237,290.459,298.237,290.459Z" transform="translate(-181.003 -128.353)" fill="#263238"/>
            </g>
          </g>
        </g>
      </g>
      <g id="Megaphone" transform="translate(76.906 96.464)">
        <g id="Grupo_908748" data-name="Grupo 908748">
          <g id="Grupo_908742" data-name="Grupo 908742">
            <g id="Grupo_908740" data-name="Grupo 908740">
              <g id="Grupo_908722" data-name="Grupo 908722" transform="translate(77.756 146.336)">
                <path id="Trazado_622386" data-name="Trazado 622386" d="M248.67,362.74l2.589-8.7c.452-1.887,1.052-4.112,1.859-6.652a17.949,17.949,0,0,1,4.286-6.408c2.643-2.688,3.9-2.706,5.677-4.133.162-.1.342-.252.495-.335a2.8,2.8,0,0,0,.864-.747c1.531-1.656.061-4.219-3.048-3.975-2.341.184-6.159.853-12.365,7.257-.078.1-.159.179-.235.278-3.258,4.234-6.317-7.854-6.869-12.354a4.715,4.715,0,0,0-6.374-3.658l-15.121,7.073a7.057,7.057,0,0,0-4.414.149,4.494,4.494,0,0,0-2.881,5.334l6.133,24.481-18.013,59.934h38.824Z" transform="translate(-201.252 -323.009)" fill="#ffbe9d"/>
              </g>
              <g id="Grupo_908738" data-name="Grupo 908738">
                <g id="Grupo_908730" data-name="Grupo 908730">
                  <g id="Grupo_908724" data-name="Grupo 908724" transform="translate(86.862 122.561)">
                    <g id="Grupo_908723" data-name="Grupo 908723">
                      <path id="Trazado_622387" data-name="Trazado 622387" d="M281.831,298.984l-12,23.517-6-1.667L233.666,345.37a6.11,6.11,0,0,1-8.487-.755L213.694,331.27s23.157-9.976,27.439-18.233-.666-10.13-.666-10.13l10.9-12.385Z" transform="translate(-213.694 -290.522)" fill="#727997"/>
                    </g>
                  </g>
                  <g id="Grupo_908725" data-name="Grupo 908725">
                    <path id="Trazado_622388" data-name="Trazado 622388" d="M234.44,206.039s-17.567-3.885-42.289-27.658-36.337-55.341-39.363-55.187-16.238-5.98-41.367,48.683S96.19,239.234,101.19,239.131s38.954-9.565,60.162-7.154,48.467,13.464,48.467,13.464Z" transform="translate(-95.007 -123.056)" fill="#fb8c00"/>
                  </g>
                  <g id="Grupo_908726" data-name="Grupo 908726" transform="translate(111.036 72.682)">
                    <path id="Trazado_622389" data-name="Trazado 622389" d="M312.442,262.464l-5.993,11.395-2.685,5.1a14.871,14.871,0,0,1-19.385,6.586L246.725,272.43l21.929-50.062,37.619,20.048A14.873,14.873,0,0,1,312.442,262.464Z" transform="translate(-246.725 -222.368)" fill="#12263f"/>
                  </g>
                  <g id="Grupo_908728" data-name="Grupo 908728" transform="translate(3.291 1.253)">
                    <path id="Trazado_622391" data-name="Trazado 622391" d="M114.657,173.331c-13.373,29.611-18.94,56-12.434,58.937s22.622-18.685,36-48.3,18.94-56,12.434-58.936S128.031,143.72,114.657,173.331Z" transform="translate(-99.503 -124.769)" fill="#c46f03"/>
                  </g>
                </g>
                <g id="Grupo_908731" data-name="Grupo 908731" transform="translate(169.778 114.029)">
                  <path id="Trazado_622393" data-name="Trazado 622393" d="M337.2,294.078l-10.206-3.205,6.315-12.008,7.654,4.758Z" transform="translate(-326.991 -278.865)" fill="#b0c0d2"/>
                </g>
                <g id="Grupo_908732" data-name="Grupo 908732" transform="translate(169.778 114.029)" opacity="0.6">
                  <path id="Trazado_622394" data-name="Trazado 622394" d="M333.306,278.865l-6.315,12.008,2.1.659,5.134-12.1Z" transform="translate(-326.991 -278.865)"/>
                </g>
                <g id="Grupo_908733" data-name="Grupo 908733" transform="translate(146.846 106.725)">
                  <path id="Trazado_622395" data-name="Trazado 622395" d="M317.872,278.959c-.15.33-5.244-1.65-11.375-4.422s-10.987-5.288-10.837-5.617,5.241,1.65,11.376,4.423S318.02,278.629,317.872,278.959Z" transform="translate(-295.656 -268.884)" fill="#fb8c31"/>
                </g>
                <g id="Grupo_908734" data-name="Grupo 908734" transform="translate(152.186 99.757)">
                  <path id="Trazado_622396" data-name="Trazado 622396" d="M322.967,269.254c-.161.326-4.769-1.617-10.295-4.338s-9.876-5.191-9.715-5.517,4.767,1.619,10.294,4.341S323.126,268.929,322.967,269.254Z" transform="translate(-302.952 -259.364)" fill="#fb8c31"/>
                </g>
                <g id="Grupo_908735" data-name="Grupo 908735" transform="translate(144.851 115.262)">
                  <path id="Trazado_622397" data-name="Trazado 622397" d="M313.182,289.588c-.054.174-1.266-.106-3.2-.7-.966-.3-2.111-.676-3.378-1.115-1.258-.456-2.564-1.117-3.964-1.751-5.583-2.592-9.846-5.13-9.707-5.43.165-.355,4.722,1.672,10.253,4.239,1.388.629,2.675,1.321,3.888,1.828s2.31.952,3.222,1.357C312.123,288.824,313.234,289.415,313.182,289.588Z" transform="translate(-292.929 -280.549)" fill="#fb8c31"/>
                </g>
                <g id="Grupo_908736" data-name="Grupo 908736" transform="translate(19.68 41.062)">
                  <path id="Trazado_622398" data-name="Trazado 622398" d="M147.928,181.331s-15.269-9.468-23.623,11.161,7.711,24.021,7.711,24.021A137.443,137.443,0,0,0,147.928,181.331Z" transform="translate(-121.897 -179.163)" fill="#fb8c31"/>
                </g>
                <g id="Grupo_908737" data-name="Grupo 908737" transform="translate(18.202 18.645)" opacity="0.5">
                  <path id="Trazado_622399" data-name="Trazado 622399" d="M163.624,148.533a23,23,0,0,1-.6,3.941c-.483,2.521-1.166,6.181-2.145,10.673-.645,2.213-1.351,4.629-2.108,7.219q-.574,1.947-1.186,4.021-.307,1.037-.623,2.1c-.228.7-.525,1.4-.791,2.108l-3.449,8.9q-.45,1.158-.909,2.335c-.3.788-.717,1.53-1.074,2.305q-1.12,2.309-2.269,4.679t-2.277,4.678c-.389.76-.714,1.549-1.149,2.271l-1.273,2.158-4.865,8.216c-.4.649-.755,1.31-1.169,1.925s-.851,1.2-1.269,1.793l-2.431,3.424-4.377,6.126c-2.919,3.538-5.368,6.328-7.05,8.266a23.193,23.193,0,0,1-2.731,2.909,23.272,23.272,0,0,1,2.337-3.234l6.726-8.528,4.213-6.174q1.139-1.661,2.355-3.429l1.233-1.791c.4-.616.752-1.278,1.138-1.927l4.767-8.2,1.254-2.149c.43-.717.749-1.5,1.134-2.258q1.111-2.293,2.253-4.648l2.259-4.644c.356-.769.776-1.505,1.074-2.286L151.54,187c1.212-3.055,2.382-6,3.5-8.813.272-.7.575-1.388.811-2.084q.327-1.055.646-2.08.639-2.05,1.241-3.977c.807-2.56,1.56-4.948,2.25-7.135l2.54-10.537A23.57,23.57,0,0,1,163.624,148.533Z" transform="translate(-119.877 -148.533)"/>
                </g>
              </g>
              <g id="Grupo_908739" data-name="Grupo 908739" transform="translate(90.52 140.756)" opacity="0.4">
                <path id="Trazado_622400" data-name="Trazado 622400" d="M218.693,336.3a29.732,29.732,0,0,0,4.876,7.117,10.039,10.039,0,0,0,7.764,3.163c2.873-.289,5.594-2.675,5.624-5.561,1.379,1.036,3.492.475,4.633-.818a8.106,8.106,0,0,0,1.65-4.806c1.872,1.1,4.476.228,5.725-1.55a7.4,7.4,0,0,0,.722-6.262,21.928,21.928,0,0,0-3.006-5.757,7.962,7.962,0,0,0,4.258-.437c1.29-.654,2.161-2.359,1.408-3.595a3.582,3.582,0,0,0-2.1-1.339c-2.259-.707-3.844-1.273-6.2-1-.547.006.941,6.2-13.82,14.68A124.031,124.031,0,0,1,218.693,336.3Z" transform="translate(-218.693 -315.383)"/>
              </g>
            </g>
            <g id="Grupo_908741" data-name="Grupo 908741" transform="translate(108.766 170.276)">
              <path id="Trazado_622401" data-name="Trazado 622401" d="M258.619,356.069c-.01.068-.992-.121-2.585-.078a14.614,14.614,0,0,0-10.849,5.2c-1.03,1.215-1.5,2.1-1.558,2.064a2.261,2.261,0,0,1,.289-.64,11.69,11.69,0,0,1,1.06-1.594,13.827,13.827,0,0,1,11.055-5.3,11.785,11.785,0,0,1,1.907.171A2.252,2.252,0,0,1,258.619,356.069Z" transform="translate(-243.624 -355.72)" fill="#eb996e"/>
            </g>
            <path id="Trazado_622402" data-name="Trazado 622402" d="M220.008,333.83c2.378,2.284,4,4.806,6.5,7.106,1.133,1.045,2.894,3.026,4.413,3.289s2.492.061,3.094-1.358c.487-1.15-.388-2.721-.992-3.669-1.589-2.492-3.108-4.441-4.3-6.379-.558-.908.164-1.095.427-.675,1.145,1.186,2.851,2.215,3.877,3.506,1.4,1.769,1.658,4.111,5.332,3.37a3.312,3.312,0,0,0,1.363-.566,3.673,3.673,0,0,0,.858-4.372,11.966,11.966,0,0,0-2.045-3.094c1.563,1.765,3.27,3.624,5.756,3.825a3.424,3.424,0,0,0,3.481-1.884c.736-1.67-.319-3.285-1.377-4.59a47.808,47.808,0,0,0-6.242-6.377,4.749,4.749,0,0,0-3.034-1.125c-1.285-.009-2.894.233-3.689,1.352a4.991,4.991,0,0,0-1,3.825s-3.225-1.635-5.815.075a8.217,8.217,0,0,0-3.232,4.649Z" transform="translate(-128.525 -176.09)" fill="#ffbe9d"/>
            <path id="Trazado_622403" data-name="Trazado 622403" d="M243.117,317.317a3.862,3.862,0,0,1-.456-4.362c.548-1.074,1.24-2.119,1.942-2.356,3.067-1.035,16.468,1.284,16.346,4.259-.125,3.054-1.1,4.4-8.374,3.348-1.279-.184-3.287-.437-3.287-.437l-1.755,2.635Z" transform="translate(-134.476 -173.278)" fill="#ffbe9d"/>
          </g>
          <g id="Grupo_908743" data-name="Grupo 908743" transform="translate(103.655 149.791)">
            <path id="Trazado_622404" data-name="Trazado 622404" d="M244.026,334.431a17.593,17.593,0,0,0-7.384-6.7,4.283,4.283,0,0,1,1.418.5,12.728,12.728,0,0,1,5.33,4.832A4.282,4.282,0,0,1,244.026,334.431Z" transform="translate(-236.641 -327.729)" fill="#eb996e"/>
          </g>
          <g id="Grupo_908744" data-name="Grupo 908744" transform="translate(108.877 144.739)">
            <path id="Trazado_622405" data-name="Trazado 622405" d="M248.195,323.441c-.067.062-.951-.659-2.158-1.4a15.165,15.165,0,0,0-1.573-.867c-.414-.195-.689-.248-.688-.305s.315-.088.781.053a7.2,7.2,0,0,1,1.68.8A5.187,5.187,0,0,1,248.195,323.441Z" transform="translate(-243.776 -320.826)" fill="#eb996e"/>
          </g>
          <g id="Grupo_908745" data-name="Grupo 908745" transform="translate(110.823 142.823)">
            <path id="Trazado_622406" data-name="Trazado 622406" d="M251.157,319.974a5.79,5.79,0,0,1-2.581-.291,4.718,4.718,0,0,1-1.652-.866c-.368-.313-.521-.574-.485-.606a10.8,10.8,0,0,0,2.25,1.107A19.247,19.247,0,0,1,251.157,319.974Z" transform="translate(-246.434 -318.208)" fill="#eb996e"/>
          </g>
          <g id="Grupo_908746" data-name="Grupo 908746" transform="translate(91.873 153.499)">
            <path id="Trazado_622407" data-name="Trazado 622407" d="M231.19,339.472a9.334,9.334,0,0,1-1.221-1.588,14.41,14.41,0,0,0-3.129-3.555,6.306,6.306,0,0,0-4.431-1.174,8.055,8.055,0,0,0-1.866.594c-.013-.017.127-.153.427-.338a4.17,4.17,0,0,1,1.4-.521,6.225,6.225,0,0,1,4.7,1.13,12.732,12.732,0,0,1,3.131,3.716A11.906,11.906,0,0,1,231.19,339.472Z" transform="translate(-220.542 -332.796)" fill="#eb996e"/>
          </g>
          <g id="Grupo_908747" data-name="Grupo 908747" transform="translate(101.777 189.786)">
            <path id="Trazado_622408" data-name="Trazado 622408" d="M245.071,382.407a40.269,40.269,0,0,1-5.478.787,40.29,40.29,0,0,1-5.519.408,40.249,40.249,0,0,1,5.478-.787A40.307,40.307,0,0,1,245.071,382.407Z" transform="translate(-234.074 -382.378)" fill="#eb996e"/>
          </g>
        </g>
      </g>
      <g id="Stars" transform="translate(43.024 42.883)">
        <g id="Grupo_908749" data-name="Grupo 908749">
          <path id="Trazado_622409" data-name="Trazado 622409" d="M405.775,49.844l.826,1.511,1.511.826-1.511.826-.826,1.511-.826-1.511-1.511-.826,1.511-.826Z" transform="translate(-143.829 -49.844)" fill="#fb8c00"/>
          <path id="Trazado_622410" data-name="Trazado 622410" d="M429.38,101.014l.826,1.511,1.511.826-1.511.826-.826,1.511-.826-1.511-1.511-.826,1.511-.826Z" transform="translate(-150.159 -63.565)" fill="#fb8c00"/>
          <path id="Trazado_622411" data-name="Trazado 622411" d="M51.047,237.533l.826,1.511,1.511.826-1.511.826-.826,1.511-.826-1.511-1.511-.826,1.511-.826Z" transform="translate(-48.711 -100.172)" fill="#1565c0"/>
          <path id="Trazado_622412" data-name="Trazado 622412" d="M373.685,62.562l1.908,3.488,3.488,1.908-3.488,1.908-1.908,3.488-1.908-3.488-3.488-1.908,3.488-1.908Z" transform="translate(-134.404 -53.254)" fill="#fb8c00"/>
          <path id="Trazado_622413" data-name="Trazado 622413" d="M71.088,205.1l1.9,3.481,3.481,1.9-3.481,1.9-1.9,3.481-1.9-3.481-3.481-1.9,3.481-1.9Z" transform="translate(-53.267 -91.474)" fill="#1565c0"/>
          <path id="Trazado_622414" data-name="Trazado 622414" d="M434.685,318.565l1.9,3.481,3.481,1.9-3.481,1.9-1.9,3.481-1.9-3.481-3.481-1.9,3.481-1.9Z" transform="translate(-150.764 -121.9)" fill="#1565c0"/>
        </g>
      </g>
    </g>
  </g>
</svg>
