<svg xmlns="http://www.w3.org/2000/svg" xmlns:xlink="http://www.w3.org/1999/xlink" width="821.688" height="368.559" viewBox="0 0 821.688 368.559">
  <defs>
    <linearGradient id="linear-gradient" x1="0.5" x2="0.5" y2="1" gradientUnits="objectBoundingBox">
      <stop offset="0" stop-color="#fff"/>
      <stop offset="1" stop-color="#d2e6ee"/>
    </linearGradient>
    <clipPath id="clip-path">
      <path id="Trazado_196578" data-name="Trazado 196578" d="M2949.488,989.423c-16.3,0-29.507,13.855-29.507,30.946a32.532,32.532,0,0,0,.5,5.672,12.416,12.416,0,0,0-11.257,12.623c0,6.987,5.4,12.651,12.063,12.651h158.658c15.342-.457,12.112-24.022-3.461-23.707.8-18.408-14.614-39.756-42.161-33.036a46.938,46.938,0,0,0-5.479-17.27c-7.246-12.924-20.64-21.6-35.969-21.6-19.792,0-36.364,14.459-40.636,33.854-.906-.088-1.822-.135-2.749-.135" transform="translate(-2909.221 -955.703)" fill="#12263f" clip-rule="evenodd"/>
    </clipPath>
    <clipPath id="clip-path-2">
      <path id="Trazado_620293" data-name="Trazado 620293" d="M3012.207,989.423c-16.3,0-29.507,13.855-29.507,30.946a32.58,32.58,0,0,0,.5,5.672,12.416,12.416,0,0,0-11.257,12.623c0,6.987,5.4,12.651,12.063,12.651H3142.66c15.342-.457,12.113-24.022-3.46-23.707.8-18.408-14.615-39.756-42.161-33.036a46.944,46.944,0,0,0-5.479-17.27c-7.246-12.924-20.639-21.6-35.969-21.6-19.792,0-36.364,14.459-40.637,33.854-.905-.088-1.821-.135-2.749-.135" transform="translate(-2971.94 -955.703)" fill="none" clip-rule="evenodd"/>
    </clipPath>
    <linearGradient id="linear-gradient-68" x1="0.5" x2="0.5" y2="1" gradientUnits="objectBoundingBox">
      <stop offset="0" stop-color="#4dd0e1"/>
      <stop offset="1" stop-color="#039be5"/>
    </linearGradient>
  </defs>
  <g id="Grupo_909307" data-name="Grupo 909307" transform="translate(9664.281 9549.018)">
    <path id="Trazado_619880" data-name="Trazado 619880" d="M-10430.943-6917.625h56.741v65.545h39.24" transform="translate(1053.955 -2437.891)" fill="none" stroke="#12263f" stroke-width="5"/>
    <path id="Trazado_619885" data-name="Trazado 619885" d="M-10410.1-6917.625h35.9v65.545h39.24" transform="translate(1224.103 -2437.891)" fill="none" stroke="#12263f" stroke-width="5"/>
    <path id="Trazado_619886" data-name="Trazado 619886" d="M-10410.1-6917.625h35.9v65.545h39.24" transform="translate(1396.519 -2437.891)" fill="none" stroke="#12263f" stroke-width="5"/>
    <path id="Trazado_619876" data-name="Trazado 619876" d="M3125.648-8516.166h-49.273" transform="translate(-12641.059 -839.349)" fill="none" stroke="#12263f" stroke-width="5"/>
    <path id="Trazado_619877" data-name="Trazado 619877" d="M3094.957-8516.166h-18.582" transform="translate(-12641.059 -950.903)" fill="none" stroke="#12263f" stroke-width="5"/>
    <path id="Trazado_619878" data-name="Trazado 619878" d="M3094.957-8516.166h-18.582" transform="translate(-12641.059 -727.795)" fill="none" stroke="#12263f" stroke-width="5"/>
    <path id="Trazado_619879" data-name="Trazado 619879" d="M225.991,0H0" transform="translate(-9546.846 -9242.521) rotate(-90)" fill="none" stroke="#12263f" stroke-width="5"/>
    <path id="Trazado_622667" data-name="Trazado 622667" d="M-20.629-3.492l.016.047A5.523,5.523,0,0,1-22.152-.8a3.968,3.968,0,0,1-2.781.969A3.257,3.257,0,0,1-27.691-1.27a4.215,4.215,0,0,1-.633-3.473l.406-2.031a6.71,6.71,0,0,1,1.684-3.512,4.119,4.119,0,0,1,3.051-1.254,3.411,3.411,0,0,1,2.656,1.074A3.3,3.3,0,0,1-19.762-7.7l-.016.039h-1.461a2.911,2.911,0,0,0-.445-1.949,1.933,1.933,0,0,0-1.672-.715,2.44,2.44,0,0,0-1.91,1A5.606,5.606,0,0,0-26.4-6.792l-.414,2.045a3.813,3.813,0,0,0,.254,2.666A1.921,1.921,0,0,0-24.77-1.047a2.29,2.29,0,0,0,1.66-.592,4.567,4.567,0,0,0,1.035-1.853Zm3.047,2.281h4.977L-12.848,0h-6.484l2.273-11.375h1.508ZM-9.621,0h-1.516l2.273-11.375h1.516ZM.5-5.273H-4.316l-.812,4.063H.426L.184,0H-6.879l2.273-11.375H2.371l-.242,1.211H-3.34l-.734,3.68H.738ZM9.941,0H8.426L5.2-8.687l-.047.008L3.418,0H1.91L4.184-11.375H5.691L8.918-2.7l.047-.008L10.7-11.375h1.516ZM21.59-10.164H18.223L16.191,0H14.684l2.031-10.164H13.355l.242-1.211h8.234Zm5.7,7.55a1.608,1.608,0,0,0-.262-1.419,4.36,4.36,0,0,0-1.777-1.014,5.2,5.2,0,0,1-2.34-1.363,2.652,2.652,0,0,1-.395-2.34,3.127,3.127,0,0,1,1.309-2.074,4.39,4.39,0,0,1,2.543-.715,3.5,3.5,0,0,1,2.6.934,2.611,2.611,0,0,1,.574,2.551l-.016.039H28.074a1.9,1.9,0,0,0-.32-1.68,2,2,0,0,0-1.625-.633,2.221,2.221,0,0,0-1.371.449,1.812,1.812,0,0,0-.73,1.113,1.641,1.641,0,0,0,.2,1.43,4.79,4.79,0,0,0,1.813,1.008,5.606,5.606,0,0,1,2.363,1.4,2.6,2.6,0,0,1,.395,2.3A3.082,3.082,0,0,1,27.457-.52a4.77,4.77,0,0,1-2.633.684,4.545,4.545,0,0,1-2.809-.848,2.354,2.354,0,0,1-.73-2.621l.016-.047h1.445A1.621,1.621,0,0,0,23.2-1.557a3.152,3.152,0,0,0,1.871.51A2.487,2.487,0,0,0,26.5-1.491,1.779,1.779,0,0,0,27.293-2.614Z" transform="translate(-9606 -9294.915)" fill="#12263f"/>
    <path id="Trazado_622668" data-name="Trazado 622668" d="M-19.507,0H-22l-4.848-7.952V0h-2.49V-12.086h2.49l4.856,7.969v-7.969h2.482Zm4.823,0h-2.49V-12.086h2.49Zm6.773-3,2.739-9.089H-2.4L-6.607,0h-2.6L-13.4-12.086h2.764ZM6.01-5.254H1.229V-2H6.84V0h-8.1V-12.086H6.823v2.017H1.229v2.88H6.01ZM10.791-2h5.288V0H8.3V-12.086h2.49ZM27.31,0h-2.4V-9.26l-2.864.884V-10.31L27.052-12.1h.257ZM-17.141,15.29l.017.05a5.868,5.868,0,0,1-1.635,2.806,4.216,4.216,0,0,1-2.955,1.029,3.461,3.461,0,0,1-2.93-1.523,4.479,4.479,0,0,1-.672-3.69l.432-2.158A7.13,7.13,0,0,1-23.1,8.072,4.377,4.377,0,0,1-19.855,6.74a3.624,3.624,0,0,1,2.822,1.141,3.5,3.5,0,0,1,.813,2.934l-.017.042h-1.552a3.093,3.093,0,0,0-.473-2.071,2.054,2.054,0,0,0-1.776-.76,2.593,2.593,0,0,0-2.03,1.066,5.956,5.956,0,0,0-1.208,2.691l-.44,2.173a4.051,4.051,0,0,0,.27,2.832,2.041,2.041,0,0,0,1.905,1.1,2.433,2.433,0,0,0,1.764-.629,4.852,4.852,0,0,0,1.1-1.969Zm3.237,2.424h5.288L-8.874,19h-6.89l2.416-12.086h1.6ZM-5.445,19h-1.61L-4.64,6.914h1.61ZM5.3,13.4H.191l-.863,4.316h5.9L4.972,19h-7.5L-.116,6.914H7.3L7.039,8.2H1.229l-.78,3.91H5.562ZM15.34,19h-1.61L10.3,9.77l-.05.008L8.409,19h-1.6L9.222,6.914h1.6l3.428,9.214.05-.008,1.843-9.206h1.61ZM27.716,8.2H24.139L21.98,19h-1.6L22.537,8.2H18.967l.257-1.287h8.749Z" transform="translate(-9605 -9536.915)" fill="#12263f"/>
    <path id="Trazado_622669" data-name="Trazado 622669" d="M-18.359,0H-20.7l-4.562-7.484V0h-2.344V-11.375h2.344l4.57,7.5v-7.5h2.336Zm4.539,0h-2.344V-11.375h2.344Zm6.375-2.82,2.578-8.555h2.609L-6.219,0H-8.664l-3.945-11.375h2.6Zm13.1-2.125h-4.5v3.063H6.438V0H-1.187V-11.375H6.422v1.9H1.156v2.711h4.5Zm4.5,3.063h4.977V0H7.813V-11.375h2.344ZM28.016,0h-7.8V-1.547L23.9-5.469A9.078,9.078,0,0,0,25.02-6.914a2.322,2.322,0,0,0,.363-1.172A1.738,1.738,0,0,0,25-9.277a1.382,1.382,0,0,0-1.094-.434,1.49,1.49,0,0,0-1.207.527A2.089,2.089,0,0,0,22.258-7.8H19.992a3.729,3.729,0,0,1,.5-1.9,3.5,3.5,0,0,1,1.4-1.348,4.262,4.262,0,0,1,2.055-.488,4.036,4.036,0,0,1,2.73.844A2.985,2.985,0,0,1,27.648-8.3a3.825,3.825,0,0,1-.437,1.719,9.551,9.551,0,0,1-1.5,2.039L23.125-1.82h4.891ZM-51.016,12.93a7.053,7.053,0,0,1-2.809-1.363,2.6,2.6,0,0,1-.879-2,2.752,2.752,0,0,1,1.074-2.223,4.269,4.269,0,0,1,2.793-.879,4.66,4.66,0,0,1,2.09.453,3.436,3.436,0,0,1,1.422,1.25,3.2,3.2,0,0,1,.5,1.742h-1.508a2.08,2.08,0,0,0-.656-1.627A2.669,2.669,0,0,0-50.836,7.7a2.732,2.732,0,0,0-1.73.489,1.632,1.632,0,0,0-.621,1.358,1.468,1.468,0,0,0,.59,1.178,5.785,5.785,0,0,0,2.008.88,9.316,9.316,0,0,1,2.219.88A3.367,3.367,0,0,1-47.184,13.6a2.861,2.861,0,0,1,.387,1.508,2.658,2.658,0,0,1-1.078,2.215,4.6,4.6,0,0,1-2.883.832,5.347,5.347,0,0,1-2.187-.449,3.681,3.681,0,0,1-1.566-1.23,3,3,0,0,1-.551-1.773h1.508a1.959,1.959,0,0,0,.762,1.629,3.207,3.207,0,0,0,2.035.6,2.948,2.948,0,0,0,1.82-.484,1.573,1.573,0,0,0,.633-1.32,1.545,1.545,0,0,0-.586-1.293A6.755,6.755,0,0,0-51.016,12.93Zm12.57-.187h-4.93v4.031h5.727V18h-7.227V6.625h7.148V7.852h-5.648v3.664h4.93Zm6.836.656h-2.672V18h-1.508V6.625h3.766a4.457,4.457,0,0,1,2.957.875,3.148,3.148,0,0,1,1.035,2.547,3.062,3.062,0,0,1-.574,1.852,3.428,3.428,0,0,1-1.6,1.18l2.672,4.828V18h-1.609Zm-2.672-1.227h2.3a2.6,2.6,0,0,0,1.777-.579,1.959,1.959,0,0,0,.66-1.55,2.062,2.062,0,0,0-.629-1.62,2.663,2.663,0,0,0-1.816-.571h-2.3Zm11.969,3.836,3.25-9.383h1.641L-21.641,18h-1.328L-27.18,6.625h1.633ZM-14.289,18h-1.5V6.625h1.5Zm2.742,0V6.625h3.211a5.169,5.169,0,0,1,2.625.656A4.438,4.438,0,0,1-3.949,9.148,6.078,6.078,0,0,1-3.32,11.93v.727a6.1,6.1,0,0,1-.621,2.82,4.369,4.369,0,0,1-1.773,1.859A5.5,5.5,0,0,1-8.4,18Zm1.5-10.148v8.922h1.578a3.434,3.434,0,0,0,2.7-1.079A4.458,4.458,0,0,0-4.8,12.621v-.665a4.529,4.529,0,0,0-.91-3.014A3.239,3.239,0,0,0-8.3,7.852ZM7.7,12.68A7.037,7.037,0,0,1,7.133,15.6a4.261,4.261,0,0,1-1.594,1.9,4.385,4.385,0,0,1-2.406.656A4.348,4.348,0,0,1,.75,17.5,4.363,4.363,0,0,1-.863,15.613a6.752,6.752,0,0,1-.59-2.832v-.82a6.953,6.953,0,0,1,.57-2.9A4.347,4.347,0,0,1,.73,7.137a4.329,4.329,0,0,1,2.387-.668,4.41,4.41,0,0,1,2.41.66A4.253,4.253,0,0,1,7.133,9.043,7.071,7.071,0,0,1,7.7,11.961ZM6.2,11.945A5.1,5.1,0,0,0,5.391,8.84,2.68,2.68,0,0,0,3.117,7.758,2.651,2.651,0,0,0,.879,8.84a5,5,0,0,0-.84,3v.836a5.107,5.107,0,0,0,.824,3.082,2.662,2.662,0,0,0,2.27,1.121,2.652,2.652,0,0,0,2.25-1.059,5.079,5.079,0,0,0,.82-3.035ZM14.117,13.4H11.445V18H9.938V6.625H13.7A4.457,4.457,0,0,1,16.66,7.5,3.148,3.148,0,0,1,17.7,10.047a3.062,3.062,0,0,1-.574,1.852,3.428,3.428,0,0,1-1.6,1.18L18.2,17.906V18H16.586Zm-2.672-1.227h2.3a2.6,2.6,0,0,0,1.777-.579,1.959,1.959,0,0,0,.66-1.55,2.062,2.062,0,0,0-.629-1.62,2.663,2.663,0,0,0-1.816-.571h-2.3Zm14.766,2.242.219,1.5.32-1.352L29,6.625h1.266l2.2,7.938.313,1.375.242-1.531,1.766-7.781h1.508L33.531,18H32.164L29.82,9.711l-.18-.867-.18.867L27.031,18H25.664L22.914,6.625h1.5Zm18.172-1.672h-4.93v4.031H45.18V18H37.953V6.625H45.1V7.852H39.453v3.664h4.93ZM47.047,18V6.625h3.719a4.317,4.317,0,0,1,2.785.766,2.759,2.759,0,0,1,.934,2.266,2.31,2.31,0,0,1-.453,1.41,2.937,2.937,0,0,1-1.234.949,2.638,2.638,0,0,1,1.457.98,2.814,2.814,0,0,1,.535,1.723,3.042,3.042,0,0,1-.992,2.406,4.1,4.1,0,0,1-2.8.875Zm1.5-5.32v4.094h2.477a2.385,2.385,0,0,0,1.652-.543,1.907,1.907,0,0,0,.605-1.5q0-2.055-2.234-2.055Zm0-1.2h2.266a2.375,2.375,0,0,0,1.574-.493,1.654,1.654,0,0,0,.59-1.339,1.626,1.626,0,0,0-.547-1.366,2.686,2.686,0,0,0-1.664-.427H48.547Z" transform="translate(-9238 -9458.915)" fill="#12263f"/>
    <path id="Trazado_622670" data-name="Trazado 622670" d="M-21.121-2.614a1.608,1.608,0,0,0-.262-1.419A4.36,4.36,0,0,0-23.16-5.047,5.2,5.2,0,0,1-25.5-6.41a2.652,2.652,0,0,1-.395-2.34,3.127,3.127,0,0,1,1.309-2.074,4.39,4.39,0,0,1,2.543-.715,3.5,3.5,0,0,1,2.6.934,2.611,2.611,0,0,1,.574,2.551l-.016.039H-20.34a1.9,1.9,0,0,0-.32-1.68,2,2,0,0,0-1.625-.633,2.221,2.221,0,0,0-1.371.449,1.812,1.812,0,0,0-.73,1.113,1.641,1.641,0,0,0,.2,1.43,4.79,4.79,0,0,0,1.813,1.008,5.606,5.606,0,0,1,2.363,1.4,2.6,2.6,0,0,1,.395,2.3A3.082,3.082,0,0,1-20.957-.52,4.77,4.77,0,0,1-23.59.164,4.545,4.545,0,0,1-26.4-.684a2.354,2.354,0,0,1-.73-2.621l.016-.047h1.445a1.621,1.621,0,0,0,.449,1.795,3.152,3.152,0,0,0,1.871.51,2.487,2.487,0,0,0,1.438-.444A1.779,1.779,0,0,0-21.121-2.614Zm10.242-2.659h-4.812L-16.5-1.211h5.555L-11.191,0h-7.062l2.273-11.375H-9l-.242,1.211h-5.469l-.734,3.68h4.813Zm3.914.344L-7.949,0H-9.465l2.273-11.367h3.867A3.2,3.2,0,0,1-.9-10.523,2.566,2.566,0,0,1-.4-8.133a3.4,3.4,0,0,1-.746,1.578,3.763,3.763,0,0,1-1.457,1A1.8,1.8,0,0,1-1.566-4.547,2.915,2.915,0,0,1-1.48-2.9l-.211,1.07a3.5,3.5,0,0,0-.086.965,1.236,1.236,0,0,0,.242.676L-1.574,0H-3.129A1.057,1.057,0,0,1-3.34-.773,6.793,6.793,0,0,1-3.2-1.844l.211-1.039A1.951,1.951,0,0,0-3.16-4.395,1.337,1.337,0,0,0-4.348-4.93Zm.242-1.211h2.2a2.79,2.79,0,0,0,1.754-.511A2.427,2.427,0,0,0-1.9-8.145,1.828,1.828,0,0,0-2.09-9.657a1.793,1.793,0,0,0-1.477-.5H-5.918ZM4.129-2.828l.1.852.047.008.375-.859L8.7-11.375h1.633L4.582,0H3.293l-2.1-11.375H2.816ZM17.355-5.273H12.543L11.73-1.211h5.555L17.043,0H9.98l2.273-11.375H19.23l-.242,1.211H13.52l-.734,3.68H17.6Zm3.914.344L20.285,0H18.77l2.273-11.367H24.91a3.2,3.2,0,0,1,2.426.844,2.566,2.566,0,0,1,.5,2.391,3.4,3.4,0,0,1-.746,1.578,3.763,3.763,0,0,1-1.457,1,1.8,1.8,0,0,1,1.039,1.008A2.915,2.915,0,0,1,26.754-2.9l-.211,1.07a3.5,3.5,0,0,0-.086.965,1.236,1.236,0,0,0,.242.676L26.66,0H25.105a1.057,1.057,0,0,1-.211-.773,6.793,6.793,0,0,1,.141-1.07l.211-1.039a1.951,1.951,0,0,0-.172-1.512,1.337,1.337,0,0,0-1.187-.535Zm.242-1.211h2.2a2.79,2.79,0,0,0,1.754-.511,2.427,2.427,0,0,0,.863-1.493,1.828,1.828,0,0,0-.187-1.513,1.793,1.793,0,0,0-1.477-.5H22.316Z" transform="translate(-9237 -9234.915)" fill="#12263f"/>
    <path id="Trazado_622671" data-name="Trazado 622671" d="M-21.121-2.614a1.608,1.608,0,0,0-.262-1.419A4.36,4.36,0,0,0-23.16-5.047,5.2,5.2,0,0,1-25.5-6.41a2.652,2.652,0,0,1-.395-2.34,3.127,3.127,0,0,1,1.309-2.074,4.39,4.39,0,0,1,2.543-.715,3.5,3.5,0,0,1,2.6.934,2.611,2.611,0,0,1,.574,2.551l-.016.039H-20.34a1.9,1.9,0,0,0-.32-1.68,2,2,0,0,0-1.625-.633,2.221,2.221,0,0,0-1.371.449,1.812,1.812,0,0,0-.73,1.113,1.641,1.641,0,0,0,.2,1.43,4.79,4.79,0,0,0,1.813,1.008,5.606,5.606,0,0,1,2.363,1.4,2.6,2.6,0,0,1,.395,2.3A3.082,3.082,0,0,1-20.957-.52,4.77,4.77,0,0,1-23.59.164,4.545,4.545,0,0,1-26.4-.684a2.354,2.354,0,0,1-.73-2.621l.016-.047h1.445a1.621,1.621,0,0,0,.449,1.795,3.152,3.152,0,0,0,1.871.51,2.487,2.487,0,0,0,1.438-.444A1.779,1.779,0,0,0-21.121-2.614Zm10.242-2.659h-4.812L-16.5-1.211h5.555L-11.191,0h-7.062l2.273-11.375H-9l-.242,1.211h-5.469l-.734,3.68h4.813Zm3.914.344L-7.949,0H-9.465l2.273-11.367h3.867A3.2,3.2,0,0,1-.9-10.523,2.566,2.566,0,0,1-.4-8.133a3.4,3.4,0,0,1-.746,1.578,3.763,3.763,0,0,1-1.457,1A1.8,1.8,0,0,1-1.566-4.547,2.915,2.915,0,0,1-1.48-2.9l-.211,1.07a3.5,3.5,0,0,0-.086.965,1.236,1.236,0,0,0,.242.676L-1.574,0H-3.129A1.057,1.057,0,0,1-3.34-.773,6.793,6.793,0,0,1-3.2-1.844l.211-1.039A1.951,1.951,0,0,0-3.16-4.395,1.337,1.337,0,0,0-4.348-4.93Zm.242-1.211h2.2a2.79,2.79,0,0,0,1.754-.511A2.427,2.427,0,0,0-1.9-8.145,1.828,1.828,0,0,0-2.09-9.657a1.793,1.793,0,0,0-1.477-.5H-5.918ZM4.129-2.828l.1.852.047.008.375-.859L8.7-11.375h1.633L4.582,0H3.293l-2.1-11.375H2.816ZM17.355-5.273H12.543L11.73-1.211h5.555L17.043,0H9.98l2.273-11.375H19.23l-.242,1.211H13.52l-.734,3.68H17.6Zm3.914.344L20.285,0H18.77l2.273-11.367H24.91a3.2,3.2,0,0,1,2.426.844,2.566,2.566,0,0,1,.5,2.391,3.4,3.4,0,0,1-.746,1.578,3.763,3.763,0,0,1-1.457,1,1.8,1.8,0,0,1,1.039,1.008A2.915,2.915,0,0,1,26.754-2.9l-.211,1.07a3.5,3.5,0,0,0-.086.965,1.236,1.236,0,0,0,.242.676L26.66,0H25.105a1.057,1.057,0,0,1-.211-.773,6.793,6.793,0,0,1,.141-1.07l.211-1.039a1.951,1.951,0,0,0-.172-1.512,1.337,1.337,0,0,0-1.187-.535Zm.242-1.211h2.2a2.79,2.79,0,0,0,1.754-.511,2.427,2.427,0,0,0,.863-1.493,1.828,1.828,0,0,0-.187-1.513,1.793,1.793,0,0,0-1.477-.5H22.316Z" transform="translate(-9070 -9234.915)" fill="#12263f"/>
    <path id="Trazado_622672" data-name="Trazado 622672" d="M-21.121-2.614a1.608,1.608,0,0,0-.262-1.419A4.36,4.36,0,0,0-23.16-5.047,5.2,5.2,0,0,1-25.5-6.41a2.652,2.652,0,0,1-.395-2.34,3.127,3.127,0,0,1,1.309-2.074,4.39,4.39,0,0,1,2.543-.715,3.5,3.5,0,0,1,2.6.934,2.611,2.611,0,0,1,.574,2.551l-.016.039H-20.34a1.9,1.9,0,0,0-.32-1.68,2,2,0,0,0-1.625-.633,2.221,2.221,0,0,0-1.371.449,1.812,1.812,0,0,0-.73,1.113,1.641,1.641,0,0,0,.2,1.43,4.79,4.79,0,0,0,1.813,1.008,5.606,5.606,0,0,1,2.363,1.4,2.6,2.6,0,0,1,.395,2.3A3.082,3.082,0,0,1-20.957-.52,4.77,4.77,0,0,1-23.59.164,4.545,4.545,0,0,1-26.4-.684a2.354,2.354,0,0,1-.73-2.621l.016-.047h1.445a1.621,1.621,0,0,0,.449,1.795,3.152,3.152,0,0,0,1.871.51,2.487,2.487,0,0,0,1.438-.444A1.779,1.779,0,0,0-21.121-2.614Zm10.242-2.659h-4.812L-16.5-1.211h5.555L-11.191,0h-7.062l2.273-11.375H-9l-.242,1.211h-5.469l-.734,3.68h4.813Zm3.914.344L-7.949,0H-9.465l2.273-11.367h3.867A3.2,3.2,0,0,1-.9-10.523,2.566,2.566,0,0,1-.4-8.133a3.4,3.4,0,0,1-.746,1.578,3.763,3.763,0,0,1-1.457,1A1.8,1.8,0,0,1-1.566-4.547,2.915,2.915,0,0,1-1.48-2.9l-.211,1.07a3.5,3.5,0,0,0-.086.965,1.236,1.236,0,0,0,.242.676L-1.574,0H-3.129A1.057,1.057,0,0,1-3.34-.773,6.793,6.793,0,0,1-3.2-1.844l.211-1.039A1.951,1.951,0,0,0-3.16-4.395,1.337,1.337,0,0,0-4.348-4.93Zm.242-1.211h2.2a2.79,2.79,0,0,0,1.754-.511A2.427,2.427,0,0,0-1.9-8.145,1.828,1.828,0,0,0-2.09-9.657a1.793,1.793,0,0,0-1.477-.5H-5.918ZM4.129-2.828l.1.852.047.008.375-.859L8.7-11.375h1.633L4.582,0H3.293l-2.1-11.375H2.816ZM17.355-5.273H12.543L11.73-1.211h5.555L17.043,0H9.98l2.273-11.375H19.23l-.242,1.211H13.52l-.734,3.68H17.6Zm3.914.344L20.285,0H18.77l2.273-11.367H24.91a3.2,3.2,0,0,1,2.426.844,2.566,2.566,0,0,1,.5,2.391,3.4,3.4,0,0,1-.746,1.578,3.763,3.763,0,0,1-1.457,1,1.8,1.8,0,0,1,1.039,1.008A2.915,2.915,0,0,1,26.754-2.9l-.211,1.07a3.5,3.5,0,0,0-.086.965,1.236,1.236,0,0,0,.242.676L26.66,0H25.105a1.057,1.057,0,0,1-.211-.773,6.793,6.793,0,0,1,.141-1.07l.211-1.039a1.951,1.951,0,0,0-.172-1.512,1.337,1.337,0,0,0-1.187-.535Zm.242-1.211h2.2a2.79,2.79,0,0,0,1.754-.511,2.427,2.427,0,0,0,.863-1.493,1.828,1.828,0,0,0-.187-1.513,1.793,1.793,0,0,0-1.477-.5H22.316Z" transform="translate(-8897 -9234.915)" fill="#12263f"/>
    <path id="Trazado_622673" data-name="Trazado 622673" d="M-18.359,0H-20.7l-4.562-7.484V0h-2.344V-11.375h2.344l4.57,7.5v-7.5h2.336Zm4.539,0h-2.344V-11.375h2.344Zm6.375-2.82,2.578-8.555h2.609L-6.219,0H-8.664l-3.945-11.375h2.6Zm13.1-2.125h-4.5v3.063H6.438V0H-1.187V-11.375H6.422v1.9H1.156v2.711h4.5Zm4.5,3.063h4.977V0H7.813V-11.375h2.344ZM28.016,0h-7.8V-1.547L23.9-5.469A9.078,9.078,0,0,0,25.02-6.914a2.322,2.322,0,0,0,.363-1.172A1.738,1.738,0,0,0,25-9.277a1.382,1.382,0,0,0-1.094-.434,1.49,1.49,0,0,0-1.207.527A2.089,2.089,0,0,0,22.258-7.8H19.992a3.729,3.729,0,0,1,.5-1.9,3.5,3.5,0,0,1,1.4-1.348,4.262,4.262,0,0,1,2.055-.488,4.036,4.036,0,0,1,2.73.844A2.985,2.985,0,0,1,27.648-8.3a3.825,3.825,0,0,1-.437,1.719,9.551,9.551,0,0,1-1.5,2.039L23.125-1.82h4.891ZM-44.617,12.93a7.053,7.053,0,0,1-2.809-1.363,2.6,2.6,0,0,1-.879-2A2.752,2.752,0,0,1-47.23,7.348a4.269,4.269,0,0,1,2.793-.879,4.66,4.66,0,0,1,2.09.453,3.436,3.436,0,0,1,1.422,1.25,3.2,3.2,0,0,1,.5,1.742H-41.93a2.08,2.08,0,0,0-.656-1.627A2.669,2.669,0,0,0-44.437,7.7a2.732,2.732,0,0,0-1.73.489,1.632,1.632,0,0,0-.621,1.358,1.468,1.468,0,0,0,.59,1.178,5.785,5.785,0,0,0,2.008.88,9.316,9.316,0,0,1,2.219.88A3.367,3.367,0,0,1-40.785,13.6a2.861,2.861,0,0,1,.387,1.508,2.658,2.658,0,0,1-1.078,2.215,4.6,4.6,0,0,1-2.883.832,5.347,5.347,0,0,1-2.187-.449,3.681,3.681,0,0,1-1.566-1.23,3,3,0,0,1-.551-1.773h1.508a1.959,1.959,0,0,0,.762,1.629,3.207,3.207,0,0,0,2.035.6,2.948,2.948,0,0,0,1.82-.484,1.573,1.573,0,0,0,.633-1.32,1.545,1.545,0,0,0-.586-1.293A6.755,6.755,0,0,0-44.617,12.93Zm12.57-.187h-4.93v4.031h5.727V18h-7.227V6.625h7.148V7.852h-5.648v3.664h4.93Zm6.836.656h-2.672V18h-1.508V6.625h3.766a4.457,4.457,0,0,1,2.957.875,3.148,3.148,0,0,1,1.035,2.547,3.062,3.062,0,0,1-.574,1.852,3.428,3.428,0,0,1-1.6,1.18l2.672,4.828V18h-1.609Zm-2.672-1.227h2.3a2.6,2.6,0,0,0,1.777-.579,1.959,1.959,0,0,0,.66-1.55,2.062,2.062,0,0,0-.629-1.62,2.663,2.663,0,0,0-1.816-.571h-2.3Zm11.969,3.836,3.25-9.383h1.641L-15.242,18H-16.57L-20.781,6.625h1.633ZM-7.891,18h-1.5V6.625h1.5Zm2.742,0V6.625h3.211a5.169,5.169,0,0,1,2.625.656A4.438,4.438,0,0,1,2.449,9.148a6.078,6.078,0,0,1,.629,2.781v.727a6.1,6.1,0,0,1-.621,2.82A4.369,4.369,0,0,1,.684,17.336,5.5,5.5,0,0,1-2,18Zm1.5-10.148v8.922H-2.07a3.434,3.434,0,0,0,2.7-1.079,4.458,4.458,0,0,0,.965-3.073v-.665a4.529,4.529,0,0,0-.91-3.014A3.239,3.239,0,0,0-1.9,7.852ZM14.094,12.68a7.037,7.037,0,0,1-.562,2.918,4.261,4.261,0,0,1-1.594,1.9,4.385,4.385,0,0,1-2.406.656,4.244,4.244,0,0,1-4-2.543,6.752,6.752,0,0,1-.59-2.832v-.82a6.953,6.953,0,0,1,.57-2.9,4.218,4.218,0,0,1,4-2.594,4.41,4.41,0,0,1,2.41.66,4.253,4.253,0,0,1,1.605,1.914,7.071,7.071,0,0,1,.563,2.918ZM12.6,11.945a5.1,5.1,0,0,0-.812-3.105A2.68,2.68,0,0,0,9.516,7.758,2.651,2.651,0,0,0,7.277,8.84a5,5,0,0,0-.84,3v.836a5.107,5.107,0,0,0,.824,3.082,2.662,2.662,0,0,0,2.27,1.121,2.652,2.652,0,0,0,2.25-1.059,5.079,5.079,0,0,0,.82-3.035ZM20.516,13.4H17.844V18H16.336V6.625H20.1a4.457,4.457,0,0,1,2.957.875,3.148,3.148,0,0,1,1.035,2.547A3.062,3.062,0,0,1,23.52,11.9a3.428,3.428,0,0,1-1.6,1.18l2.672,4.828V18H22.984Zm-2.672-1.227h2.3a2.6,2.6,0,0,0,1.777-.579,1.959,1.959,0,0,0,.66-1.55,2.062,2.062,0,0,0-.629-1.62,2.663,2.663,0,0,0-1.816-.571h-2.3ZM30.156,18V6.625h3.719a4.317,4.317,0,0,1,2.785.766,2.759,2.759,0,0,1,.934,2.266,2.31,2.31,0,0,1-.453,1.41,2.937,2.937,0,0,1-1.234.949,2.638,2.638,0,0,1,1.457.98,2.814,2.814,0,0,1,.535,1.723,3.042,3.042,0,0,1-.992,2.406A4.1,4.1,0,0,1,34.1,18Zm1.5-5.32v4.094h2.477a2.385,2.385,0,0,0,1.652-.543,1.907,1.907,0,0,0,.605-1.5q0-2.055-2.234-2.055Zm0-1.2h2.266a2.375,2.375,0,0,0,1.574-.493,1.654,1.654,0,0,0,.59-1.339,1.626,1.626,0,0,0-.547-1.366,2.686,2.686,0,0,0-1.664-.427H31.656ZM40.117,18V6.625h3.211a5.169,5.169,0,0,1,2.625.656,4.438,4.438,0,0,1,1.762,1.867,6.078,6.078,0,0,1,.629,2.781v.727a6.1,6.1,0,0,1-.621,2.82,4.369,4.369,0,0,1-1.773,1.859A5.5,5.5,0,0,1,43.266,18Zm1.5-10.148v8.922H43.2a3.434,3.434,0,0,0,2.7-1.079,4.458,4.458,0,0,0,.965-3.073v-.665a4.529,4.529,0,0,0-.91-3.014,3.239,3.239,0,0,0-2.582-1.091Z" transform="translate(-9075 -9458.915)" fill="#12263f"/>
    <path id="Trazado_622674" data-name="Trazado 622674" d="M-18.359,0H-20.7l-4.562-7.484V0h-2.344V-11.375h2.344l4.57,7.5v-7.5h2.336Zm4.539,0h-2.344V-11.375h2.344Zm6.375-2.82,2.578-8.555h2.609L-6.219,0H-8.664l-3.945-11.375h2.6Zm13.1-2.125h-4.5v3.063H6.438V0H-1.187V-11.375H6.422v1.9H1.156v2.711h4.5Zm4.5,3.063h4.977V0H7.813V-11.375h2.344ZM28.016,0h-7.8V-1.547L23.9-5.469A9.078,9.078,0,0,0,25.02-6.914a2.322,2.322,0,0,0,.363-1.172A1.738,1.738,0,0,0,25-9.277a1.382,1.382,0,0,0-1.094-.434,1.49,1.49,0,0,0-1.207.527A2.089,2.089,0,0,0,22.258-7.8H19.992a3.729,3.729,0,0,1,.5-1.9,3.5,3.5,0,0,1,1.4-1.348,4.262,4.262,0,0,1,2.055-.488,4.036,4.036,0,0,1,2.73.844A2.985,2.985,0,0,1,27.648-8.3a3.825,3.825,0,0,1-.437,1.719,9.551,9.551,0,0,1-1.5,2.039L23.125-1.82h4.891Zm-72.2,12.93a7.053,7.053,0,0,1-2.809-1.363,2.6,2.6,0,0,1-.879-2A2.752,2.752,0,0,1-46.8,7.348,4.269,4.269,0,0,1-44,6.469a4.66,4.66,0,0,1,2.09.453,3.436,3.436,0,0,1,1.422,1.25,3.2,3.2,0,0,1,.5,1.742H-41.5a2.08,2.08,0,0,0-.656-1.627A2.669,2.669,0,0,0-44,7.7a2.732,2.732,0,0,0-1.73.489,1.632,1.632,0,0,0-.621,1.358,1.468,1.468,0,0,0,.59,1.178,5.785,5.785,0,0,0,2.008.88,9.316,9.316,0,0,1,2.219.88A3.367,3.367,0,0,1-40.352,13.6a2.861,2.861,0,0,1,.387,1.508,2.658,2.658,0,0,1-1.078,2.215,4.6,4.6,0,0,1-2.883.832,5.347,5.347,0,0,1-2.187-.449,3.681,3.681,0,0,1-1.566-1.23A3,3,0,0,1-48.23,14.7h1.508a1.959,1.959,0,0,0,.762,1.629,3.207,3.207,0,0,0,2.035.6,2.948,2.948,0,0,0,1.82-.484,1.573,1.573,0,0,0,.633-1.32,1.545,1.545,0,0,0-.586-1.293A6.755,6.755,0,0,0-44.184,12.93Zm12.57-.187h-4.93v4.031h5.727V18h-7.227V6.625h7.148V7.852h-5.648v3.664h4.93Zm6.836.656h-2.672V18h-1.508V6.625h3.766a4.457,4.457,0,0,1,2.957.875A3.148,3.148,0,0,1-21.2,10.047a3.062,3.062,0,0,1-.574,1.852,3.428,3.428,0,0,1-1.6,1.18l2.672,4.828V18h-1.609Zm-2.672-1.227h2.3a2.6,2.6,0,0,0,1.777-.579,1.959,1.959,0,0,0,.66-1.55,2.062,2.062,0,0,0-.629-1.62,2.663,2.663,0,0,0-1.816-.571h-2.3Zm11.969,3.836,3.25-9.383h1.641L-14.809,18h-1.328L-20.348,6.625h1.633ZM-7.457,18h-1.5V6.625h1.5Zm2.742,0V6.625H-1.5a5.169,5.169,0,0,1,2.625.656A4.438,4.438,0,0,1,2.883,9.148a6.078,6.078,0,0,1,.629,2.781v.727a6.1,6.1,0,0,1-.621,2.82,4.369,4.369,0,0,1-1.773,1.859A5.5,5.5,0,0,1-1.566,18Zm1.5-10.148v8.922h1.578a3.434,3.434,0,0,0,2.7-1.079,4.458,4.458,0,0,0,.965-3.073v-.665a4.529,4.529,0,0,0-.91-3.014A3.239,3.239,0,0,0-1.465,7.852ZM14.527,12.68a7.037,7.037,0,0,1-.562,2.918,4.261,4.261,0,0,1-1.594,1.9,4.385,4.385,0,0,1-2.406.656,4.244,4.244,0,0,1-4-2.543,6.752,6.752,0,0,1-.59-2.832v-.82a6.953,6.953,0,0,1,.57-2.9,4.218,4.218,0,0,1,4-2.594,4.41,4.41,0,0,1,2.41.66,4.253,4.253,0,0,1,1.605,1.914,7.071,7.071,0,0,1,.563,2.918Zm-1.492-.734a5.1,5.1,0,0,0-.812-3.105A2.68,2.68,0,0,0,9.949,7.758,2.651,2.651,0,0,0,7.711,8.84a5,5,0,0,0-.84,3v.836A5.107,5.107,0,0,0,7.7,15.762a2.662,2.662,0,0,0,2.27,1.121,2.652,2.652,0,0,0,2.25-1.059,5.079,5.079,0,0,0,.82-3.035ZM20.949,13.4H18.277V18H16.77V6.625h3.766a4.457,4.457,0,0,1,2.957.875,3.148,3.148,0,0,1,1.035,2.547,3.062,3.062,0,0,1-.574,1.852,3.428,3.428,0,0,1-1.6,1.18l2.672,4.828V18H23.418Zm-2.672-1.227h2.3a2.6,2.6,0,0,0,1.777-.579,1.959,1.959,0,0,0,.66-1.55,2.062,2.062,0,0,0-.629-1.62,2.663,2.663,0,0,0-1.816-.571h-2.3ZM30.59,18V6.625H33.8a5.169,5.169,0,0,1,2.625.656,4.438,4.438,0,0,1,1.762,1.867,6.078,6.078,0,0,1,.629,2.781v.727a6.1,6.1,0,0,1-.621,2.82,4.369,4.369,0,0,1-1.773,1.859A5.5,5.5,0,0,1,33.738,18Zm1.5-10.148v8.922h1.578a3.434,3.434,0,0,0,2.7-1.079,4.458,4.458,0,0,0,.965-3.073v-.665a4.529,4.529,0,0,0-.91-3.014A3.239,3.239,0,0,0,33.84,7.852Zm15.422,4.891h-4.93v4.031h5.727V18H41.082V6.625H48.23V7.852H42.582v3.664h4.93ZM-47.406,33.023h-4.766L-53.242,36h-1.547l4.344-11.375h1.313L-44.781,36H-46.32ZM-51.719,31.8h3.867l-1.937-5.32Zm9.969-.25V36h-1.5V24.625h4.2a4.215,4.215,0,0,1,2.926.953A3.231,3.231,0,0,1-35.07,28.1a3.189,3.189,0,0,1-1.035,2.551,4.4,4.4,0,0,1-2.965.895Zm0-1.227h2.7a2.7,2.7,0,0,0,1.844-.567,2.075,2.075,0,0,0,.641-1.64,2.143,2.143,0,0,0-.641-1.628,2.525,2.525,0,0,0-1.758-.634H-41.75Zm10.1,4.453h5.391V36h-6.9V24.625h1.508ZM-22.937,36h-1.5V24.625h1.5Zm11.109-3.609a4.185,4.185,0,0,1-1.332,2.785,4.365,4.365,0,0,1-2.98.98,4.008,4.008,0,0,1-3.23-1.445,5.815,5.815,0,0,1-1.215-3.867V29.75a6.481,6.481,0,0,1,.566-2.789,4.231,4.231,0,0,1,1.605-1.848,4.47,4.47,0,0,1,2.406-.645A4.11,4.11,0,0,1-13.1,25.48a4.235,4.235,0,0,1,1.273,2.8h-1.508a3.268,3.268,0,0,0-.848-1.975,2.565,2.565,0,0,0-1.824-.611,2.684,2.684,0,0,0-2.254,1.063,4.882,4.882,0,0,0-.816,3.026v1.1a5.018,5.018,0,0,0,.773,2.948,2.5,2.5,0,0,0,2.164,1.095,2.886,2.886,0,0,0,1.918-.566,3.143,3.143,0,0,0,.887-1.973Zm8.328.633H-8.266L-9.336,36h-1.547l4.344-11.375h1.313L-.875,36H-2.414ZM-7.812,31.8h3.867l-1.937-5.32Zm16.75.594a4.185,4.185,0,0,1-1.332,2.785,4.365,4.365,0,0,1-2.98.98,4.008,4.008,0,0,1-3.23-1.445A5.815,5.815,0,0,1,.18,30.844V29.75a6.481,6.481,0,0,1,.566-2.789,4.231,4.231,0,0,1,1.605-1.848,4.47,4.47,0,0,1,2.406-.645A4.11,4.11,0,0,1,7.664,25.48a4.235,4.235,0,0,1,1.273,2.8H7.43a3.268,3.268,0,0,0-.848-1.975A2.565,2.565,0,0,0,4.758,25.7,2.684,2.684,0,0,0,2.5,26.759a4.882,4.882,0,0,0-.816,3.026v1.1a5.018,5.018,0,0,0,.773,2.948A2.5,2.5,0,0,0,4.625,34.93a2.886,2.886,0,0,0,1.918-.566,3.143,3.143,0,0,0,.887-1.973ZM12.594,36h-1.5V24.625h1.5Zm11.492-5.32a7.037,7.037,0,0,1-.562,2.918,4.261,4.261,0,0,1-1.594,1.9,4.4,4.4,0,0,1-6.4-1.887,6.752,6.752,0,0,1-.59-2.832v-.82a6.953,6.953,0,0,1,.57-2.9,4.218,4.218,0,0,1,4-2.594,4.41,4.41,0,0,1,2.41.66,4.253,4.253,0,0,1,1.605,1.914,7.071,7.071,0,0,1,.563,2.918Zm-1.492-.734a5.1,5.1,0,0,0-.812-3.105,2.68,2.68,0,0,0-2.273-1.082A2.651,2.651,0,0,0,17.27,26.84a5,5,0,0,0-.84,3v.836a5.107,5.107,0,0,0,.824,3.082,2.662,2.662,0,0,0,2.27,1.121,2.652,2.652,0,0,0,2.25-1.059,5.079,5.079,0,0,0,.82-3.035ZM35.078,36H33.57l-5.727-8.766V36H26.336V24.625h1.508l5.742,8.8v-8.8h1.492Zm9.094-5.258h-4.93v4.031h5.727V36H37.742V24.625h7.148v1.227H39.242v3.664h4.93Zm6.016.188a7.053,7.053,0,0,1-2.809-1.363,2.6,2.6,0,0,1-.879-2,2.751,2.751,0,0,1,1.074-2.223,4.269,4.269,0,0,1,2.793-.879,4.66,4.66,0,0,1,2.09.453,3.436,3.436,0,0,1,1.422,1.25,3.2,3.2,0,0,1,.5,1.742H52.875a2.08,2.08,0,0,0-.656-1.627,2.669,2.669,0,0,0-1.852-.592,2.732,2.732,0,0,0-1.73.489,1.632,1.632,0,0,0-.621,1.358,1.468,1.468,0,0,0,.59,1.178,5.786,5.786,0,0,0,2.008.88,9.316,9.316,0,0,1,2.219.88A3.367,3.367,0,0,1,54.02,31.6a2.861,2.861,0,0,1,.387,1.508,2.658,2.658,0,0,1-1.078,2.215,4.6,4.6,0,0,1-2.883.832,5.347,5.347,0,0,1-2.187-.449,3.681,3.681,0,0,1-1.566-1.23,3,3,0,0,1-.551-1.773h1.508a1.959,1.959,0,0,0,.762,1.629,3.207,3.207,0,0,0,2.035.6,2.948,2.948,0,0,0,1.82-.484,1.573,1.573,0,0,0,.633-1.32,1.545,1.545,0,0,0-.586-1.293A6.755,6.755,0,0,0,50.188,30.93Z" transform="translate(-8897 -9469.915)" fill="#12263f"/>
    <g id="Grupo_155360" data-name="Grupo 155360" transform="translate(-9287.714 -9429.208)">
      <g id="Grupo_57153" data-name="Grupo 57153" transform="translate(0 -0.001)">
        <g id="Grupo_57145" data-name="Grupo 57145" transform="translate(43.637 155.73)">
          <path id="Trazado_124086" data-name="Trazado 124086" d="M1763.938,1064.087l-4.229,2.441v-8.979l4.229-2.442Z" transform="translate(-1755.48 -1052.666)" fill="#00223d"/>
          <path id="Trazado_124087" data-name="Trazado 124087" d="M1741.134,1066.528l-4.229-2.441v-8.98l4.229,2.441Z" transform="translate(-1736.905 -1052.666)" fill="url(#linear-gradient)"/>
          <path id="Trazado_124088" data-name="Trazado 124088" d="M1745.363,1044.382l-4.229,2.442-4.229-2.442,4.229-2.442Z" transform="translate(-1736.905 -1041.941)" fill="#b8d4f5"/>
        </g>
        <g id="Grupo_57146" data-name="Grupo 57146" transform="translate(92.203 130.794)">
          <path id="Trazado_124089" data-name="Trazado 124089" d="M2025.832,929.622l-4.229,2.442v-8.98l4.229-2.442Z" transform="translate(-2017.373 -918.201)" fill="#12263f"/>
          <path id="Trazado_124090" data-name="Trazado 124090" d="M2003.026,932.064l-4.229-2.442v-8.98l4.229,2.442Z" transform="translate(-1998.797 -918.201)" fill="#b8d4f5"/>
          <path id="Trazado_124091" data-name="Trazado 124091" d="M2007.255,909.917l-4.229,2.442-4.229-2.442,4.229-2.442Z" transform="translate(-1998.797 -907.476)" fill="#b8d4f5"/>
        </g>
        <g id="Grupo_57147" data-name="Grupo 57147" transform="translate(2.576 132.015)">
          <path id="Trazado_124092" data-name="Trazado 124092" d="M1542.521,936.2l-4.229,2.442v-8.98l4.229-2.442Z" transform="translate(-1534.063 -924.781)" fill="#00223d"/>
          <path id="Trazado_124093" data-name="Trazado 124093" d="M1519.716,938.644l-4.229-2.442v-8.98l4.229,2.442Z" transform="translate(-1515.487 -924.781)" fill="url(#linear-gradient)"/>
          <path id="Trazado_124094" data-name="Trazado 124094" d="M1523.945,916.5l-4.229,2.442-4.229-2.442,4.229-2.442Z" transform="translate(-1515.487 -914.057)" fill="#b8d4f5"/>
        </g>
        <path id="Trazado_124095" data-name="Trazado 124095" d="M1826.7,468.494l-50.857,29.362V389.868l50.857-29.362Z" transform="translate(-1724.983 -331.143)" fill="url(#linear-gradient)"/>
        <path id="Trazado_124096" data-name="Trazado 124096" d="M1552.452,497.856l-50.857-29.362V360.5l50.857,29.362Z" transform="translate(-1501.595 -331.143)" fill="url(#linear-gradient)"/>
        <path id="Trazado_124097" data-name="Trazado 124097" d="M1603.309,231.532l-50.857,29.362-50.857-29.362,50.857-29.362Z" transform="translate(-1501.595 -202.17)" fill="url(#linear-gradient)"/>
        <path id="Trazado_124098" data-name="Trazado 124098" d="M1636.49,256.337l-41.076,23.715-41.076-23.715,41.076-23.715Z" transform="translate(-1544.558 -226.975)" fill="#00223d"/>
        <g id="Grupo_57148" data-name="Grupo 57148" transform="translate(2.991 36.355)">
          <path id="Trazado_124099" data-name="Trazado 124099" d="M1562.6,433.529l-44.874-25.908v-9.4l44.874,25.908Z" transform="translate(-1517.726 -398.216)" fill="#00223d"/>
          <path id="Trazado_124100" data-name="Trazado 124100" d="M1562.6,483.913,1517.726,458v-1.951l44.874,25.908Z" transform="translate(-1517.726 -445.328)" fill="#00223d"/>
          <path id="Trazado_124101" data-name="Trazado 124101" d="M1562.6,501.557l-44.874-25.908V473.7l44.874,25.908Z" transform="translate(-1517.726 -459.7)" fill="#00223d"/>
          <path id="Trazado_124102" data-name="Trazado 124102" d="M1744.524,567.881c0,.606-.426.851-.95.549a2.1,2.1,0,0,1-.95-1.645c0-.606.425-.851.95-.548A2.1,2.1,0,0,1,1744.524,567.881Z" transform="translate(-1700.918 -534.972)" fill="url(#linear-gradient)"/>
          <path id="Trazado_124103" data-name="Trazado 124103" d="M1744.524,552.671c0,.606-.426.851-.95.548a2.1,2.1,0,0,1-.95-1.645c0-.606.425-.851.95-.548A2.1,2.1,0,0,1,1744.524,552.671Z" transform="translate(-1700.918 -522.582)" fill="url(#linear-gradient)"/>
          <path id="Trazado_124104" data-name="Trazado 124104" d="M1744.524,537.461c0,.606-.426.851-.95.548a2.1,2.1,0,0,1-.95-1.645c0-.606.425-.851.95-.548A2.1,2.1,0,0,1,1744.524,537.461Z" transform="translate(-1700.918 -510.193)" fill="url(#linear-gradient)"/>
        </g>
        <g id="Grupo_57149" data-name="Grupo 57149" transform="translate(2.991 57.284)">
          <path id="Trazado_124105" data-name="Trazado 124105" d="M1562.6,546.386l-44.874-25.908v-9.4l44.874,25.908Z" transform="translate(-1517.726 -511.073)" fill="#00223d"/>
          <path id="Trazado_124106" data-name="Trazado 124106" d="M1562.6,596.769l-44.874-25.908v-1.951l44.874,25.908Z" transform="translate(-1517.726 -558.184)" fill="#00223d"/>
          <path id="Trazado_124107" data-name="Trazado 124107" d="M1562.6,614.413l-44.874-25.908v-1.951l44.874,25.908Z" transform="translate(-1517.726 -572.556)" fill="#00223d"/>
          <path id="Trazado_124108" data-name="Trazado 124108" d="M1744.524,680.738c0,.606-.426.851-.95.548a2.1,2.1,0,0,1-.95-1.645c0-.606.425-.851.95-.548A2.1,2.1,0,0,1,1744.524,680.738Z" transform="translate(-1700.918 -647.828)" fill="url(#linear-gradient)"/>
          <path id="Trazado_124109" data-name="Trazado 124109" d="M1744.524,665.527c0,.606-.426.851-.95.548a2.1,2.1,0,0,1-.95-1.646c0-.606.425-.851.95-.548A2.1,2.1,0,0,1,1744.524,665.527Z" transform="translate(-1700.918 -635.438)" fill="url(#linear-gradient)"/>
          <path id="Trazado_124110" data-name="Trazado 124110" d="M1744.524,650.317c0,.606-.426.851-.95.548a2.1,2.1,0,0,1-.95-1.645c0-.606.425-.851.95-.548A2.1,2.1,0,0,1,1744.524,650.317Z" transform="translate(-1700.918 -623.049)" fill="url(#linear-gradient)"/>
        </g>
        <g id="Grupo_57150" data-name="Grupo 57150" transform="translate(2.991 78.212)">
          <path id="Trazado_124111" data-name="Trazado 124111" d="M1562.6,659.242l-44.874-25.908v-9.4l44.874,25.908Z" transform="translate(-1517.726 -623.929)" fill="#00223d"/>
          <path id="Trazado_124112" data-name="Trazado 124112" d="M1562.6,709.625l-44.874-25.908v-1.951l44.874,25.908Z" transform="translate(-1517.726 -671.04)" fill="#00223d"/>
          <path id="Trazado_124113" data-name="Trazado 124113" d="M1562.6,727.269l-44.874-25.908V699.41l44.874,25.908Z" transform="translate(-1517.726 -685.413)" fill="#00223d"/>
          <path id="Trazado_124114" data-name="Trazado 124114" d="M1744.524,793.594c0,.606-.426.851-.95.549a2.1,2.1,0,0,1-.95-1.646c0-.606.425-.851.95-.549A2.1,2.1,0,0,1,1744.524,793.594Z" transform="translate(-1700.918 -760.684)" fill="url(#linear-gradient)"/>
          <path id="Trazado_124115" data-name="Trazado 124115" d="M1744.524,778.384c0,.606-.426.852-.95.548a2.1,2.1,0,0,1-.95-1.645c0-.606.425-.851.95-.549A2.1,2.1,0,0,1,1744.524,778.384Z" transform="translate(-1700.918 -748.295)" fill="url(#linear-gradient)"/>
          <path id="Trazado_124116" data-name="Trazado 124116" d="M1744.524,763.173c0,.606-.426.851-.95.548a2.1,2.1,0,0,1-.95-1.645c0-.606.425-.852.95-.548A2.1,2.1,0,0,1,1744.524,763.173Z" transform="translate(-1700.918 -735.905)" fill="url(#linear-gradient)"/>
        </g>
        <g id="Grupo_57151" data-name="Grupo 57151" transform="translate(2.991 99.141)">
          <path id="Trazado_124117" data-name="Trazado 124117" d="M1562.6,772.1l-44.874-25.908v-9.4l44.874,25.908Z" transform="translate(-1517.726 -736.785)" fill="#00223d"/>
          <path id="Trazado_124118" data-name="Trazado 124118" d="M1562.6,822.482l-44.874-25.908v-1.952L1562.6,820.53Z" transform="translate(-1517.726 -783.897)" fill="#00223d"/>
          <path id="Trazado_124119" data-name="Trazado 124119" d="M1562.6,840.126l-44.874-25.908v-1.951l44.874,25.908Z" transform="translate(-1517.726 -798.269)" fill="#00223d"/>
          <path id="Trazado_124120" data-name="Trazado 124120" d="M1744.524,906.45c0,.606-.426.852-.95.549a2.1,2.1,0,0,1-.95-1.646c0-.606.425-.851.95-.548A2.1,2.1,0,0,1,1744.524,906.45Z" transform="translate(-1700.918 -873.541)" fill="url(#linear-gradient)"/>
          <path id="Trazado_124121" data-name="Trazado 124121" d="M1744.524,891.24c0,.606-.426.851-.95.548a2.1,2.1,0,0,1-.95-1.645c0-.606.425-.851.95-.548A2.1,2.1,0,0,1,1744.524,891.24Z" transform="translate(-1700.918 -861.152)" fill="url(#linear-gradient)"/>
          <path id="Trazado_124122" data-name="Trazado 124122" d="M1744.524,876.03c0,.606-.426.851-.95.548a2.1,2.1,0,0,1-.95-1.645c0-.606.425-.852.95-.549A2.1,2.1,0,0,1,1744.524,876.03Z" transform="translate(-1700.918 -848.762)" fill="url(#linear-gradient)"/>
        </g>
        <g id="Grupo_57152" data-name="Grupo 57152" transform="translate(2.991 120.069)">
          <path id="Trazado_124123" data-name="Trazado 124123" d="M1562.6,884.955l-44.874-25.908v-9.4L1562.6,875.55Z" transform="translate(-1517.726 -849.642)" fill="#00223d"/>
          <path id="Trazado_124124" data-name="Trazado 124124" d="M1562.6,935.338l-44.874-25.908v-1.951l44.874,25.908Z" transform="translate(-1517.726 -896.753)" fill="#00223d"/>
          <path id="Trazado_124125" data-name="Trazado 124125" d="M1562.6,952.982l-44.874-25.908v-1.952l44.874,25.908Z" transform="translate(-1517.726 -911.125)" fill="#00223d"/>
          <path id="Trazado_124126" data-name="Trazado 124126" d="M1744.524,1019.307c0,.606-.426.851-.95.548a2.1,2.1,0,0,1-.95-1.645c0-.606.425-.851.95-.549A2.1,2.1,0,0,1,1744.524,1019.307Z" transform="translate(-1700.918 -986.397)" fill="url(#linear-gradient)"/>
          <path id="Trazado_124127" data-name="Trazado 124127" d="M1744.524,1004.1c0,.606-.426.851-.95.548a2.1,2.1,0,0,1-.95-1.645c0-.606.425-.851.95-.548A2.1,2.1,0,0,1,1744.524,1004.1Z" transform="translate(-1700.918 -974.008)" fill="url(#linear-gradient)"/>
          <path id="Trazado_124128" data-name="Trazado 124128" d="M1744.524,988.886c0,.606-.426.852-.95.549a2.1,2.1,0,0,1-.95-1.645c0-.606.425-.851.95-.548A2.1,2.1,0,0,1,1744.524,988.886Z" transform="translate(-1700.918 -961.618)" fill="url(#linear-gradient)"/>
        </g>
      </g>
    </g>
    <g id="Grupo_900140" data-name="Grupo 900140" transform="translate(-9117.568 -9429.208)">
      <g id="Grupo_57153-2" data-name="Grupo 57153" transform="translate(0 -0.001)">
        <g id="Grupo_57145-2" data-name="Grupo 57145" transform="translate(43.637 155.73)">
          <path id="Trazado_124086-2" data-name="Trazado 124086" d="M1763.938,1064.087l-4.229,2.441v-8.979l4.229-2.442Z" transform="translate(-1755.48 -1052.666)" fill="#00223d"/>
          <path id="Trazado_124087-2" data-name="Trazado 124087" d="M1741.134,1066.528l-4.229-2.441v-8.98l4.229,2.441Z" transform="translate(-1736.905 -1052.666)" fill="url(#linear-gradient)"/>
          <path id="Trazado_124088-2" data-name="Trazado 124088" d="M1745.363,1044.382l-4.229,2.442-4.229-2.442,4.229-2.442Z" transform="translate(-1736.905 -1041.941)" fill="#b8d4f5"/>
        </g>
        <g id="Grupo_57146-2" data-name="Grupo 57146" transform="translate(92.203 130.794)">
          <path id="Trazado_124089-2" data-name="Trazado 124089" d="M2025.832,929.622l-4.229,2.442v-8.98l4.229-2.442Z" transform="translate(-2017.373 -918.201)" fill="#12263f"/>
          <path id="Trazado_124090-2" data-name="Trazado 124090" d="M2003.026,932.064l-4.229-2.442v-8.98l4.229,2.442Z" transform="translate(-1998.797 -918.201)" fill="#b8d4f5"/>
          <path id="Trazado_124091-2" data-name="Trazado 124091" d="M2007.255,909.917l-4.229,2.442-4.229-2.442,4.229-2.442Z" transform="translate(-1998.797 -907.476)" fill="#b8d4f5"/>
        </g>
        <g id="Grupo_57147-2" data-name="Grupo 57147" transform="translate(2.576 132.015)">
          <path id="Trazado_124092-2" data-name="Trazado 124092" d="M1542.521,936.2l-4.229,2.442v-8.98l4.229-2.442Z" transform="translate(-1534.063 -924.781)" fill="#00223d"/>
          <path id="Trazado_124093-2" data-name="Trazado 124093" d="M1519.716,938.644l-4.229-2.442v-8.98l4.229,2.442Z" transform="translate(-1515.487 -924.781)" fill="url(#linear-gradient)"/>
          <path id="Trazado_124094-2" data-name="Trazado 124094" d="M1523.945,916.5l-4.229,2.442-4.229-2.442,4.229-2.442Z" transform="translate(-1515.487 -914.057)" fill="#b8d4f5"/>
        </g>
        <path id="Trazado_124095-2" data-name="Trazado 124095" d="M1826.7,468.494l-50.857,29.362V389.868l50.857-29.362Z" transform="translate(-1724.983 -331.143)" fill="url(#linear-gradient)"/>
        <path id="Trazado_124096-2" data-name="Trazado 124096" d="M1552.452,497.856l-50.857-29.362V360.5l50.857,29.362Z" transform="translate(-1501.595 -331.143)" fill="url(#linear-gradient)"/>
        <path id="Trazado_124097-2" data-name="Trazado 124097" d="M1603.309,231.532l-50.857,29.362-50.857-29.362,50.857-29.362Z" transform="translate(-1501.595 -202.17)" fill="url(#linear-gradient)"/>
        <path id="Trazado_124098-2" data-name="Trazado 124098" d="M1636.49,256.337l-41.076,23.715-41.076-23.715,41.076-23.715Z" transform="translate(-1544.558 -226.975)" fill="#00223d"/>
        <g id="Grupo_57148-2" data-name="Grupo 57148" transform="translate(2.991 36.355)">
          <path id="Trazado_124099-2" data-name="Trazado 124099" d="M1562.6,433.529l-44.874-25.908v-9.4l44.874,25.908Z" transform="translate(-1517.726 -398.216)" fill="#00223d"/>
          <path id="Trazado_124100-2" data-name="Trazado 124100" d="M1562.6,483.913,1517.726,458v-1.951l44.874,25.908Z" transform="translate(-1517.726 -445.328)" fill="#00223d"/>
          <path id="Trazado_124101-2" data-name="Trazado 124101" d="M1562.6,501.557l-44.874-25.908V473.7l44.874,25.908Z" transform="translate(-1517.726 -459.7)" fill="#00223d"/>
          <path id="Trazado_124102-2" data-name="Trazado 124102" d="M1744.524,567.881c0,.606-.426.851-.95.549a2.1,2.1,0,0,1-.95-1.645c0-.606.425-.851.95-.548A2.1,2.1,0,0,1,1744.524,567.881Z" transform="translate(-1700.918 -534.972)" fill="url(#linear-gradient)"/>
          <path id="Trazado_124103-2" data-name="Trazado 124103" d="M1744.524,552.671c0,.606-.426.851-.95.548a2.1,2.1,0,0,1-.95-1.645c0-.606.425-.851.95-.548A2.1,2.1,0,0,1,1744.524,552.671Z" transform="translate(-1700.918 -522.582)" fill="url(#linear-gradient)"/>
          <path id="Trazado_124104-2" data-name="Trazado 124104" d="M1744.524,537.461c0,.606-.426.851-.95.548a2.1,2.1,0,0,1-.95-1.645c0-.606.425-.851.95-.548A2.1,2.1,0,0,1,1744.524,537.461Z" transform="translate(-1700.918 -510.193)" fill="url(#linear-gradient)"/>
        </g>
        <g id="Grupo_57149-2" data-name="Grupo 57149" transform="translate(2.991 57.284)">
          <path id="Trazado_124105-2" data-name="Trazado 124105" d="M1562.6,546.386l-44.874-25.908v-9.4l44.874,25.908Z" transform="translate(-1517.726 -511.073)" fill="#00223d"/>
          <path id="Trazado_124106-2" data-name="Trazado 124106" d="M1562.6,596.769l-44.874-25.908v-1.951l44.874,25.908Z" transform="translate(-1517.726 -558.184)" fill="#00223d"/>
          <path id="Trazado_124107-2" data-name="Trazado 124107" d="M1562.6,614.413l-44.874-25.908v-1.951l44.874,25.908Z" transform="translate(-1517.726 -572.556)" fill="#00223d"/>
          <path id="Trazado_124108-2" data-name="Trazado 124108" d="M1744.524,680.738c0,.606-.426.851-.95.548a2.1,2.1,0,0,1-.95-1.645c0-.606.425-.851.95-.548A2.1,2.1,0,0,1,1744.524,680.738Z" transform="translate(-1700.918 -647.828)" fill="url(#linear-gradient)"/>
          <path id="Trazado_124109-2" data-name="Trazado 124109" d="M1744.524,665.527c0,.606-.426.851-.95.548a2.1,2.1,0,0,1-.95-1.646c0-.606.425-.851.95-.548A2.1,2.1,0,0,1,1744.524,665.527Z" transform="translate(-1700.918 -635.438)" fill="url(#linear-gradient)"/>
          <path id="Trazado_124110-2" data-name="Trazado 124110" d="M1744.524,650.317c0,.606-.426.851-.95.548a2.1,2.1,0,0,1-.95-1.645c0-.606.425-.851.95-.548A2.1,2.1,0,0,1,1744.524,650.317Z" transform="translate(-1700.918 -623.049)" fill="url(#linear-gradient)"/>
        </g>
        <g id="Grupo_57150-2" data-name="Grupo 57150" transform="translate(2.991 78.212)">
          <path id="Trazado_124111-2" data-name="Trazado 124111" d="M1562.6,659.242l-44.874-25.908v-9.4l44.874,25.908Z" transform="translate(-1517.726 -623.929)" fill="#00223d"/>
          <path id="Trazado_124112-2" data-name="Trazado 124112" d="M1562.6,709.625l-44.874-25.908v-1.951l44.874,25.908Z" transform="translate(-1517.726 -671.04)" fill="#00223d"/>
          <path id="Trazado_124113-2" data-name="Trazado 124113" d="M1562.6,727.269l-44.874-25.908V699.41l44.874,25.908Z" transform="translate(-1517.726 -685.413)" fill="#00223d"/>
          <path id="Trazado_124114-2" data-name="Trazado 124114" d="M1744.524,793.594c0,.606-.426.851-.95.549a2.1,2.1,0,0,1-.95-1.646c0-.606.425-.851.95-.549A2.1,2.1,0,0,1,1744.524,793.594Z" transform="translate(-1700.918 -760.684)" fill="url(#linear-gradient)"/>
          <path id="Trazado_124115-2" data-name="Trazado 124115" d="M1744.524,778.384c0,.606-.426.852-.95.548a2.1,2.1,0,0,1-.95-1.645c0-.606.425-.851.95-.549A2.1,2.1,0,0,1,1744.524,778.384Z" transform="translate(-1700.918 -748.295)" fill="url(#linear-gradient)"/>
          <path id="Trazado_124116-2" data-name="Trazado 124116" d="M1744.524,763.173c0,.606-.426.851-.95.548a2.1,2.1,0,0,1-.95-1.645c0-.606.425-.852.95-.548A2.1,2.1,0,0,1,1744.524,763.173Z" transform="translate(-1700.918 -735.905)" fill="url(#linear-gradient)"/>
        </g>
        <g id="Grupo_57151-2" data-name="Grupo 57151" transform="translate(2.991 99.141)">
          <path id="Trazado_124117-2" data-name="Trazado 124117" d="M1562.6,772.1l-44.874-25.908v-9.4l44.874,25.908Z" transform="translate(-1517.726 -736.785)" fill="#00223d"/>
          <path id="Trazado_124118-2" data-name="Trazado 124118" d="M1562.6,822.482l-44.874-25.908v-1.952L1562.6,820.53Z" transform="translate(-1517.726 -783.897)" fill="#00223d"/>
          <path id="Trazado_124119-2" data-name="Trazado 124119" d="M1562.6,840.126l-44.874-25.908v-1.951l44.874,25.908Z" transform="translate(-1517.726 -798.269)" fill="#00223d"/>
          <path id="Trazado_124120-2" data-name="Trazado 124120" d="M1744.524,906.45c0,.606-.426.852-.95.549a2.1,2.1,0,0,1-.95-1.646c0-.606.425-.851.95-.548A2.1,2.1,0,0,1,1744.524,906.45Z" transform="translate(-1700.918 -873.541)" fill="url(#linear-gradient)"/>
          <path id="Trazado_124121-2" data-name="Trazado 124121" d="M1744.524,891.24c0,.606-.426.851-.95.548a2.1,2.1,0,0,1-.95-1.645c0-.606.425-.851.95-.548A2.1,2.1,0,0,1,1744.524,891.24Z" transform="translate(-1700.918 -861.152)" fill="url(#linear-gradient)"/>
          <path id="Trazado_124122-2" data-name="Trazado 124122" d="M1744.524,876.03c0,.606-.426.851-.95.548a2.1,2.1,0,0,1-.95-1.645c0-.606.425-.852.95-.549A2.1,2.1,0,0,1,1744.524,876.03Z" transform="translate(-1700.918 -848.762)" fill="url(#linear-gradient)"/>
        </g>
        <g id="Grupo_57152-2" data-name="Grupo 57152" transform="translate(2.991 120.069)">
          <path id="Trazado_124123-2" data-name="Trazado 124123" d="M1562.6,884.955l-44.874-25.908v-9.4L1562.6,875.55Z" transform="translate(-1517.726 -849.642)" fill="#00223d"/>
          <path id="Trazado_124124-2" data-name="Trazado 124124" d="M1562.6,935.338l-44.874-25.908v-1.951l44.874,25.908Z" transform="translate(-1517.726 -896.753)" fill="#00223d"/>
          <path id="Trazado_124125-2" data-name="Trazado 124125" d="M1562.6,952.982l-44.874-25.908v-1.952l44.874,25.908Z" transform="translate(-1517.726 -911.125)" fill="#00223d"/>
          <path id="Trazado_124126-2" data-name="Trazado 124126" d="M1744.524,1019.307c0,.606-.426.851-.95.548a2.1,2.1,0,0,1-.95-1.645c0-.606.425-.851.95-.549A2.1,2.1,0,0,1,1744.524,1019.307Z" transform="translate(-1700.918 -986.397)" fill="url(#linear-gradient)"/>
          <path id="Trazado_124127-2" data-name="Trazado 124127" d="M1744.524,1004.1c0,.606-.426.851-.95.548a2.1,2.1,0,0,1-.95-1.645c0-.606.425-.851.95-.548A2.1,2.1,0,0,1,1744.524,1004.1Z" transform="translate(-1700.918 -974.008)" fill="url(#linear-gradient)"/>
          <path id="Trazado_124128-2" data-name="Trazado 124128" d="M1744.524,988.886c0,.606-.426.852-.95.549a2.1,2.1,0,0,1-.95-1.645c0-.606.425-.851.95-.548A2.1,2.1,0,0,1,1744.524,988.886Z" transform="translate(-1700.918 -961.618)" fill="url(#linear-gradient)"/>
        </g>
      </g>
    </g>
    <g id="Grupo_900141" data-name="Grupo 900141" transform="translate(-8945.152 -9429.208)">
      <g id="Grupo_57153-3" data-name="Grupo 57153" transform="translate(0 -0.001)">
        <g id="Grupo_57145-3" data-name="Grupo 57145" transform="translate(43.637 155.73)">
          <path id="Trazado_124086-3" data-name="Trazado 124086" d="M1763.938,1064.087l-4.229,2.441v-8.979l4.229-2.442Z" transform="translate(-1755.48 -1052.666)" fill="#00223d"/>
          <path id="Trazado_124087-3" data-name="Trazado 124087" d="M1741.134,1066.528l-4.229-2.441v-8.98l4.229,2.441Z" transform="translate(-1736.905 -1052.666)" fill="url(#linear-gradient)"/>
          <path id="Trazado_124088-3" data-name="Trazado 124088" d="M1745.363,1044.382l-4.229,2.442-4.229-2.442,4.229-2.442Z" transform="translate(-1736.905 -1041.941)" fill="#b8d4f5"/>
        </g>
        <g id="Grupo_57146-3" data-name="Grupo 57146" transform="translate(92.203 130.794)">
          <path id="Trazado_124089-3" data-name="Trazado 124089" d="M2025.832,929.622l-4.229,2.442v-8.98l4.229-2.442Z" transform="translate(-2017.373 -918.201)" fill="#12263f"/>
          <path id="Trazado_124090-3" data-name="Trazado 124090" d="M2003.026,932.064l-4.229-2.442v-8.98l4.229,2.442Z" transform="translate(-1998.797 -918.201)" fill="#b8d4f5"/>
          <path id="Trazado_124091-3" data-name="Trazado 124091" d="M2007.255,909.917l-4.229,2.442-4.229-2.442,4.229-2.442Z" transform="translate(-1998.797 -907.476)" fill="#b8d4f5"/>
        </g>
        <g id="Grupo_57147-3" data-name="Grupo 57147" transform="translate(2.576 132.015)">
          <path id="Trazado_124092-3" data-name="Trazado 124092" d="M1542.521,936.2l-4.229,2.442v-8.98l4.229-2.442Z" transform="translate(-1534.063 -924.781)" fill="#00223d"/>
          <path id="Trazado_124093-3" data-name="Trazado 124093" d="M1519.716,938.644l-4.229-2.442v-8.98l4.229,2.442Z" transform="translate(-1515.487 -924.781)" fill="url(#linear-gradient)"/>
          <path id="Trazado_124094-3" data-name="Trazado 124094" d="M1523.945,916.5l-4.229,2.442-4.229-2.442,4.229-2.442Z" transform="translate(-1515.487 -914.057)" fill="#b8d4f5"/>
        </g>
        <path id="Trazado_124095-3" data-name="Trazado 124095" d="M1826.7,468.494l-50.857,29.362V389.868l50.857-29.362Z" transform="translate(-1724.983 -331.143)" fill="url(#linear-gradient)"/>
        <path id="Trazado_124096-3" data-name="Trazado 124096" d="M1552.452,497.856l-50.857-29.362V360.5l50.857,29.362Z" transform="translate(-1501.595 -331.143)" fill="url(#linear-gradient)"/>
        <path id="Trazado_124097-3" data-name="Trazado 124097" d="M1603.309,231.532l-50.857,29.362-50.857-29.362,50.857-29.362Z" transform="translate(-1501.595 -202.17)" fill="url(#linear-gradient)"/>
        <path id="Trazado_124098-3" data-name="Trazado 124098" d="M1636.49,256.337l-41.076,23.715-41.076-23.715,41.076-23.715Z" transform="translate(-1544.558 -226.975)" fill="#00223d"/>
        <g id="Grupo_57148-3" data-name="Grupo 57148" transform="translate(2.991 36.355)">
          <path id="Trazado_124099-3" data-name="Trazado 124099" d="M1562.6,433.529l-44.874-25.908v-9.4l44.874,25.908Z" transform="translate(-1517.726 -398.216)" fill="#00223d"/>
          <path id="Trazado_124100-3" data-name="Trazado 124100" d="M1562.6,483.913,1517.726,458v-1.951l44.874,25.908Z" transform="translate(-1517.726 -445.328)" fill="#00223d"/>
          <path id="Trazado_124101-3" data-name="Trazado 124101" d="M1562.6,501.557l-44.874-25.908V473.7l44.874,25.908Z" transform="translate(-1517.726 -459.7)" fill="#00223d"/>
          <path id="Trazado_124102-3" data-name="Trazado 124102" d="M1744.524,567.881c0,.606-.426.851-.95.549a2.1,2.1,0,0,1-.95-1.645c0-.606.425-.851.95-.548A2.1,2.1,0,0,1,1744.524,567.881Z" transform="translate(-1700.918 -534.972)" fill="url(#linear-gradient)"/>
          <path id="Trazado_124103-3" data-name="Trazado 124103" d="M1744.524,552.671c0,.606-.426.851-.95.548a2.1,2.1,0,0,1-.95-1.645c0-.606.425-.851.95-.548A2.1,2.1,0,0,1,1744.524,552.671Z" transform="translate(-1700.918 -522.582)" fill="url(#linear-gradient)"/>
          <path id="Trazado_124104-3" data-name="Trazado 124104" d="M1744.524,537.461c0,.606-.426.851-.95.548a2.1,2.1,0,0,1-.95-1.645c0-.606.425-.851.95-.548A2.1,2.1,0,0,1,1744.524,537.461Z" transform="translate(-1700.918 -510.193)" fill="url(#linear-gradient)"/>
        </g>
        <g id="Grupo_57149-3" data-name="Grupo 57149" transform="translate(2.991 57.284)">
          <path id="Trazado_124105-3" data-name="Trazado 124105" d="M1562.6,546.386l-44.874-25.908v-9.4l44.874,25.908Z" transform="translate(-1517.726 -511.073)" fill="#00223d"/>
          <path id="Trazado_124106-3" data-name="Trazado 124106" d="M1562.6,596.769l-44.874-25.908v-1.951l44.874,25.908Z" transform="translate(-1517.726 -558.184)" fill="#00223d"/>
          <path id="Trazado_124107-3" data-name="Trazado 124107" d="M1562.6,614.413l-44.874-25.908v-1.951l44.874,25.908Z" transform="translate(-1517.726 -572.556)" fill="#00223d"/>
          <path id="Trazado_124108-3" data-name="Trazado 124108" d="M1744.524,680.738c0,.606-.426.851-.95.548a2.1,2.1,0,0,1-.95-1.645c0-.606.425-.851.95-.548A2.1,2.1,0,0,1,1744.524,680.738Z" transform="translate(-1700.918 -647.828)" fill="url(#linear-gradient)"/>
          <path id="Trazado_124109-3" data-name="Trazado 124109" d="M1744.524,665.527c0,.606-.426.851-.95.548a2.1,2.1,0,0,1-.95-1.646c0-.606.425-.851.95-.548A2.1,2.1,0,0,1,1744.524,665.527Z" transform="translate(-1700.918 -635.438)" fill="url(#linear-gradient)"/>
          <path id="Trazado_124110-3" data-name="Trazado 124110" d="M1744.524,650.317c0,.606-.426.851-.95.548a2.1,2.1,0,0,1-.95-1.645c0-.606.425-.851.95-.548A2.1,2.1,0,0,1,1744.524,650.317Z" transform="translate(-1700.918 -623.049)" fill="url(#linear-gradient)"/>
        </g>
        <g id="Grupo_57150-3" data-name="Grupo 57150" transform="translate(2.991 78.212)">
          <path id="Trazado_124111-3" data-name="Trazado 124111" d="M1562.6,659.242l-44.874-25.908v-9.4l44.874,25.908Z" transform="translate(-1517.726 -623.929)" fill="#00223d"/>
          <path id="Trazado_124112-3" data-name="Trazado 124112" d="M1562.6,709.625l-44.874-25.908v-1.951l44.874,25.908Z" transform="translate(-1517.726 -671.04)" fill="#00223d"/>
          <path id="Trazado_124113-3" data-name="Trazado 124113" d="M1562.6,727.269l-44.874-25.908V699.41l44.874,25.908Z" transform="translate(-1517.726 -685.413)" fill="#00223d"/>
          <path id="Trazado_124114-3" data-name="Trazado 124114" d="M1744.524,793.594c0,.606-.426.851-.95.549a2.1,2.1,0,0,1-.95-1.646c0-.606.425-.851.95-.549A2.1,2.1,0,0,1,1744.524,793.594Z" transform="translate(-1700.918 -760.684)" fill="url(#linear-gradient)"/>
          <path id="Trazado_124115-3" data-name="Trazado 124115" d="M1744.524,778.384c0,.606-.426.852-.95.548a2.1,2.1,0,0,1-.95-1.645c0-.606.425-.851.95-.549A2.1,2.1,0,0,1,1744.524,778.384Z" transform="translate(-1700.918 -748.295)" fill="url(#linear-gradient)"/>
          <path id="Trazado_124116-3" data-name="Trazado 124116" d="M1744.524,763.173c0,.606-.426.851-.95.548a2.1,2.1,0,0,1-.95-1.645c0-.606.425-.852.95-.548A2.1,2.1,0,0,1,1744.524,763.173Z" transform="translate(-1700.918 -735.905)" fill="url(#linear-gradient)"/>
        </g>
        <g id="Grupo_57151-3" data-name="Grupo 57151" transform="translate(2.991 99.141)">
          <path id="Trazado_124117-3" data-name="Trazado 124117" d="M1562.6,772.1l-44.874-25.908v-9.4l44.874,25.908Z" transform="translate(-1517.726 -736.785)" fill="#00223d"/>
          <path id="Trazado_124118-3" data-name="Trazado 124118" d="M1562.6,822.482l-44.874-25.908v-1.952L1562.6,820.53Z" transform="translate(-1517.726 -783.897)" fill="#00223d"/>
          <path id="Trazado_124119-3" data-name="Trazado 124119" d="M1562.6,840.126l-44.874-25.908v-1.951l44.874,25.908Z" transform="translate(-1517.726 -798.269)" fill="#00223d"/>
          <path id="Trazado_124120-3" data-name="Trazado 124120" d="M1744.524,906.45c0,.606-.426.852-.95.549a2.1,2.1,0,0,1-.95-1.646c0-.606.425-.851.95-.548A2.1,2.1,0,0,1,1744.524,906.45Z" transform="translate(-1700.918 -873.541)" fill="url(#linear-gradient)"/>
          <path id="Trazado_124121-3" data-name="Trazado 124121" d="M1744.524,891.24c0,.606-.426.851-.95.548a2.1,2.1,0,0,1-.95-1.645c0-.606.425-.851.95-.548A2.1,2.1,0,0,1,1744.524,891.24Z" transform="translate(-1700.918 -861.152)" fill="url(#linear-gradient)"/>
          <path id="Trazado_124122-3" data-name="Trazado 124122" d="M1744.524,876.03c0,.606-.426.851-.95.548a2.1,2.1,0,0,1-.95-1.645c0-.606.425-.852.95-.549A2.1,2.1,0,0,1,1744.524,876.03Z" transform="translate(-1700.918 -848.762)" fill="url(#linear-gradient)"/>
        </g>
        <g id="Grupo_57152-3" data-name="Grupo 57152" transform="translate(2.991 120.069)">
          <path id="Trazado_124123-3" data-name="Trazado 124123" d="M1562.6,884.955l-44.874-25.908v-9.4L1562.6,875.55Z" transform="translate(-1517.726 -849.642)" fill="#00223d"/>
          <path id="Trazado_124124-3" data-name="Trazado 124124" d="M1562.6,935.338l-44.874-25.908v-1.951l44.874,25.908Z" transform="translate(-1517.726 -896.753)" fill="#00223d"/>
          <path id="Trazado_124125-3" data-name="Trazado 124125" d="M1562.6,952.982l-44.874-25.908v-1.952l44.874,25.908Z" transform="translate(-1517.726 -911.125)" fill="#00223d"/>
          <path id="Trazado_124126-3" data-name="Trazado 124126" d="M1744.524,1019.307c0,.606-.426.851-.95.548a2.1,2.1,0,0,1-.95-1.645c0-.606.425-.851.95-.549A2.1,2.1,0,0,1,1744.524,1019.307Z" transform="translate(-1700.918 -986.397)" fill="url(#linear-gradient)"/>
          <path id="Trazado_124127-3" data-name="Trazado 124127" d="M1744.524,1004.1c0,.606-.426.851-.95.548a2.1,2.1,0,0,1-.95-1.645c0-.606.425-.851.95-.548A2.1,2.1,0,0,1,1744.524,1004.1Z" transform="translate(-1700.918 -974.008)" fill="url(#linear-gradient)"/>
          <path id="Trazado_124128-3" data-name="Trazado 124128" d="M1744.524,988.886c0,.606-.426.852-.95.549a2.1,2.1,0,0,1-.95-1.645c0-.606.425-.851.95-.548A2.1,2.1,0,0,1,1744.524,988.886Z" transform="translate(-1700.918 -961.618)" fill="url(#linear-gradient)"/>
        </g>
      </g>
    </g>
    <g id="GRdzHB" transform="translate(-9174.624 -9397.896)">
      <g id="Grupo_900139" data-name="Grupo 900139" transform="translate(0 0)">
        <path id="Trazado_619882" data-name="Trazado 619882" d="M333.533,1355.335c-3.9,0-7.8.024-11.7-.006a9.511,9.511,0,0,1-3.646-18.3,1.325,1.325,0,0,0,.971-1.279c.533-5.943,5.179-9.634,11.1-8.972a1.816,1.816,0,0,0,1.242-.6,10.676,10.676,0,0,1,10.621-3.323,10.436,10.436,0,0,1,8.06,7.8c.3,1.066.213,2.233.42,3.332a2.477,2.477,0,0,0,.736,1.436c3.583,2.732,5.322,6.3,4.549,10.761a10.3,10.3,0,0,1-8.6,8.9,23.394,23.394,0,0,1-4.519.244c-3.077.033-6.155.01-9.232.01Zm-11.212-16.5a2.8,2.8,0,0,1-.375.094c-4.126.243-7.084,3.235-6.97,7.05.116,3.854,3.188,6.7,7.3,6.713q11.313.028,22.627,0a8.323,8.323,0,0,0,8.26-6.4,8.182,8.182,0,0,0-5.018-9.463,7.753,7.753,0,0,1-.733-.412c1.109-4.774-.413-8.493-4.13-10.311a8.147,8.147,0,0,0-5.433-.646,8.5,8.5,0,0,0-5.822,4.773c-2.81-1.345-5.408-1.182-7.728.777C321.828,1333.1,321.4,1335.791,322.321,1338.831Z" transform="translate(-312.27 -1322.535)" fill="#12263f"/>
        <path id="Trazado_619883" data-name="Trazado 619883" d="M389.3,1380.662h-2.621l4.042-5.477,4.029,5.367-2.618.173c-.279,3.549-1.917,6.172-5.244,7.527a7.956,7.956,0,0,1-7.431-.731l1.526-2.052C385.782,1386.857,389.324,1384.859,389.3,1380.662Z" transform="translate(-361.976 -1361.488)" fill="#12263f"/>
        <path id="Trazado_619884" data-name="Trazado 619884" d="M370.112,1365.963a9.3,9.3,0,0,0-.706,1.011c-.483.938-1.068,1.019-2.076.653a5.332,5.332,0,0,0-7.018,5.187h2.626l-4.057,5.434-3.989-5.3h2.545c.343-3.815,2.031-6.591,5.647-7.871A7.529,7.529,0,0,1,370.112,1365.963Z" transform="translate(-343.803 -1353.638)" fill="#12263f"/>
      </g>
    </g>
    <g id="GRdzHB-2" data-name="GRdzHB" transform="translate(-9002.208 -9397.896)">
      <g id="Grupo_900139-2" data-name="Grupo 900139" transform="translate(0 0)">
        <path id="Trazado_619882-2" data-name="Trazado 619882" d="M333.533,1355.335c-3.9,0-7.8.024-11.7-.006a9.511,9.511,0,0,1-3.646-18.3,1.325,1.325,0,0,0,.971-1.279c.533-5.943,5.179-9.634,11.1-8.972a1.816,1.816,0,0,0,1.242-.6,10.676,10.676,0,0,1,10.621-3.323,10.436,10.436,0,0,1,8.06,7.8c.3,1.066.213,2.233.42,3.332a2.477,2.477,0,0,0,.736,1.436c3.583,2.732,5.322,6.3,4.549,10.761a10.3,10.3,0,0,1-8.6,8.9,23.394,23.394,0,0,1-4.519.244c-3.077.033-6.155.01-9.232.01Zm-11.212-16.5a2.8,2.8,0,0,1-.375.094c-4.126.243-7.084,3.235-6.97,7.05.116,3.854,3.188,6.7,7.3,6.713q11.313.028,22.627,0a8.323,8.323,0,0,0,8.26-6.4,8.182,8.182,0,0,0-5.018-9.463,7.753,7.753,0,0,1-.733-.412c1.109-4.774-.413-8.493-4.13-10.311a8.147,8.147,0,0,0-5.433-.646,8.5,8.5,0,0,0-5.822,4.773c-2.81-1.345-5.408-1.182-7.728.777C321.828,1333.1,321.4,1335.791,322.321,1338.831Z" transform="translate(-312.27 -1322.535)" fill="#12263f"/>
        <path id="Trazado_619883-2" data-name="Trazado 619883" d="M389.3,1380.662h-2.621l4.042-5.477,4.029,5.367-2.618.173c-.279,3.549-1.917,6.172-5.244,7.527a7.956,7.956,0,0,1-7.431-.731l1.526-2.052C385.782,1386.857,389.324,1384.859,389.3,1380.662Z" transform="translate(-361.976 -1361.488)" fill="#12263f"/>
        <path id="Trazado_619884-2" data-name="Trazado 619884" d="M370.112,1365.963a9.3,9.3,0,0,0-.706,1.011c-.483.938-1.068,1.019-2.076.653a5.332,5.332,0,0,0-7.018,5.187h2.626l-4.057,5.434-3.989-5.3h2.545c.343-3.815,2.031-6.591,5.647-7.871A7.529,7.529,0,0,1,370.112,1365.963Z" transform="translate(-343.803 -1353.638)" fill="#12263f"/>
      </g>
    </g>
    <g id="Grupo_900360" data-name="Grupo 900360" transform="translate(-9664.281 -9382.985)">
      <path id="Trazado_95367" data-name="Trazado 95367" d="M235.444,303.457v-.206a1.438,1.438,0,0,0-.85-1.2l-53.136-30.678a4.547,4.547,0,0,0-4.114,0l-31.327,18.086a1.442,1.442,0,0,0-.851,1.2v.448a.148.148,0,0,0,0,.017v.058a.159.159,0,0,0,0,.017v.8a.146.146,0,0,0,0,.017v1.437a1.439,1.439,0,0,0,.851,1.2l53.136,30.678a4.551,4.551,0,0,0,4.114,0l31.327-18.087a1.438,1.438,0,0,0,.85-1.2v-2.59Z" transform="translate(-145.165 -270.883)" fill="#00223d"/>
      <path id="Trazado_95368" data-name="Trazado 95368" d="M234.593,302.053a1.254,1.254,0,0,1,0,2.376l-31.326,18.086a4.547,4.547,0,0,1-4.114,0l-53.136-30.677a1.255,1.255,0,0,1,0-2.377l31.327-18.086a4.548,4.548,0,0,1,4.114,0Z" transform="translate(-145.164 -270.883)" fill="url(#linear-gradient)"/>
      <path id="Trazado_95369" data-name="Trazado 95369" d="M227.206,302.054a.992.992,0,0,1,0,1.88l-24.8,14.318a3.607,3.607,0,0,1-3.257,0l-39.3-22.692a.992.992,0,0,1,0-1.88l24.8-14.317a3.6,3.6,0,0,1,3.257,0Z" transform="translate(-150.13 -273.75)" fill="#00223d"/>
      <path id="Trazado_95370" data-name="Trazado 95370" d="M226.291,302.74c.853.492.872,1.281.041,1.763l-22.938,13.243a3.376,3.376,0,0,1-3.052-.021l-37.293-21.533c-.854-.493-.87-1.281-.039-1.762l22.937-13.243a3.375,3.375,0,0,1,3.052.023Z" transform="translate(-151.271 -274.409)" fill="#a6e4ff"/>
      <path id="Trazado_95371" data-name="Trazado 95371" d="M163.048,297.877l3.757,2.169q7.221-7.224,14.434-14.456L163.01,296.115C162.178,296.6,162.194,297.384,163.048,297.877Z" transform="translate(-151.271 -276.095)" fill="#bfecff"/>
      <path id="Trazado_95372" data-name="Trazado 95372" d="M221.27,297.637l-6.8-3.924-19,19,6.8,3.924Z" transform="translate(-162.995 -278.974)" fill="#bfecff"/>
      <path id="Trazado_95373" data-name="Trazado 95373" d="M221.862,327.153l18.5-18.5-3.821-2.206-19,19,2.344,1.354A3.346,3.346,0,0,0,221.862,327.153Z" transform="translate(-170.814 -283.488)" fill="#bfecff"/>
      <path id="Trazado_95374" data-name="Trazado 95374" d="M201.809,286.39l-2.087-1.205q-9.47,9.519-18.962,19.017l2.052,1.185Q192.311,295.888,201.809,286.39Z" transform="translate(-157.779 -275.952)" fill="#bfecff"/>
      <path id="Trazado_95375" data-name="Trazado 95375" d="M178.1,283.6a.553.553,0,0,1,0,1.048l-9.086,5.247a2.014,2.014,0,0,1-1.819,0h0a.554.554,0,0,1,0-1.049l9.087-5.247a2,2,0,0,1,1.818,0Z" transform="translate(-152.839 -275.314)" fill="#00223d"/>
      <path id="Trazado_95376" data-name="Trazado 95376" d="M252.782,329.752c1.561.9,1.561,2.363,0,3.265a6.255,6.255,0,0,1-5.655,0c-1.561-.9-1.561-2.363,0-3.265A6.253,6.253,0,0,1,252.782,329.752Z" transform="translate(-180.885 -291.507)" fill="#fff"/>
      <path id="Trazado_95377" data-name="Trazado 95377" d="M252.542,330.855a1.068,1.068,0,0,1,0,2.023,3.871,3.871,0,0,1-3.5,0,1.068,1.068,0,0,1,0-2.023A3.879,3.879,0,0,1,252.542,330.855Z" transform="translate(-181.72 -291.989)" fill="#66797a"/>
      <path id="Trazado_95378" data-name="Trazado 95378" d="M239.149,337.156a.432.432,0,0,1,0,.817l-7.472,4.313a1.56,1.56,0,0,1-1.413,0h0a.43.43,0,0,1,0-.815l7.472-4.315a1.563,1.563,0,0,1,1.414,0Z" transform="translate(-175.219 -294.31)" fill="#00223d"/>
      <path id="Trazado_95379" data-name="Trazado 95379" d="M268.838,320.014a.432.432,0,0,1,0,.817l-7.471,4.314a1.57,1.57,0,0,1-1.415,0h0a.43.43,0,0,1,0-.815l7.472-4.315a1.563,1.563,0,0,1,1.414,0Z" transform="translate(-185.741 -288.235)" fill="#00223d"/>
    </g>
    <g id="Grupo_900361" data-name="Grupo 900361" transform="translate(-9617.632 -9287.945)">
      <path id="Trazado_95352" data-name="Trazado 95352" d="M326.755,167.722l-17.9,10.332V134.539l17.9-10.332Z" transform="translate(-270.123 -101.993)" fill="url(#linear-gradient)"/>
      <path id="Trazado_95353" data-name="Trazado 95353" d="M326.755,142.324l-17.9,10.332v-1.08l17.9-10.332Z" transform="translate(-270.123 -111.551)" fill="#00223d"/>
      <path id="Trazado_95354" data-name="Trazado 95354" d="M326.755,162.364l-17.9,10.332v-1.08l17.9-10.332Z" transform="translate(-270.123 -122.793)" fill="#00223d"/>
      <path id="Trazado_95355" data-name="Trazado 95355" d="M326.755,182.4l-17.9,10.332v-1.08l17.9-10.333Z" transform="translate(-270.123 -134.035)" fill="#00223d"/>
      <path id="Trazado_95356" data-name="Trazado 95356" d="M326.755,202.446l-17.9,10.332V211.7l17.9-10.333Z" transform="translate(-270.123 -145.277)" fill="#00223d"/>
      <path id="Trazado_95357" data-name="Trazado 95357" d="M328.9,222.541a2.727,2.727,0,0,1-1.234,2.136c-.681.393-1.234.075-1.234-.712a2.726,2.726,0,0,1,1.234-2.136C328.345,221.435,328.9,221.753,328.9,222.541Z" transform="translate(-279.98 -156.661)" fill="#00223d"/>
      <g id="Grupo_41937" data-name="Grupo 41937" transform="translate(41.733 62.102)">
        <path id="Trazado_95358" data-name="Trazado 95358" d="M316.92,228.031a2.729,2.729,0,0,0-1.234,2.136c0,.787.553,1.106,1.234.712a2.722,2.722,0,0,0,1.234-2.136C318.153,227.957,317.6,227.637,316.92,228.031Z" transform="translate(-315.686 -222.243)" fill="#2ec49f"/>
        <path id="Trazado_95359" data-name="Trazado 95359" d="M339.09,215.23a2.73,2.73,0,0,0-1.234,2.137c0,.786.553,1.105,1.234.712a2.726,2.726,0,0,0,1.234-2.137C340.324,215.156,339.772,214.838,339.09,215.23Z" transform="translate(-328.123 -215.062)" fill="#e2c140"/>
      </g>
      <path id="Trazado_95360" data-name="Trazado 95360" d="M259.364,162.682l-38.735-22.364V96.8l38.735,22.364Z" transform="translate(-220.629 -86.62)" fill="url(#linear-gradient)"/>
      <path id="Trazado_95361" data-name="Trazado 95361" d="M259.364,106.307,220.629,83.943l17.9-10.333,38.735,22.364Z" transform="translate(-220.629 -73.611)" fill="#d2e1f1"/>
      <path id="Trazado_95362" data-name="Trazado 95362" d="M259.364,137.284,220.629,114.92v-1.08L259.364,136.2Z" transform="translate(-220.629 -96.178)" fill="#21587b"/>
      <path id="Trazado_95363" data-name="Trazado 95363" d="M259.365,157.324,220.629,134.96v-1.08l38.735,22.364Z" transform="translate(-220.629 -107.42)" fill="#21587b"/>
      <path id="Trazado_95364" data-name="Trazado 95364" d="M259.365,177.365,220.629,155v-1.08l38.735,22.364Z" transform="translate(-220.629 -118.662)" fill="#21587b"/>
      <path id="Trazado_95365" data-name="Trazado 95365" d="M259.364,197.406l-38.735-22.364v-1.08l38.735,22.364Z" transform="translate(-220.629 -129.904)" fill="#21587b"/>
    </g>
    <g id="Grupo_900359" data-name="Grupo 900359" transform="translate(-9662.871 -9266.783)">
      <path id="Trazado_95436" data-name="Trazado 95436" d="M337.963,218.8l-52.084,29.5a1.255,1.255,0,0,0,0,2.379l2.854,2.161a1.256,1.256,0,0,1,0-2.379L339.392,221.2c1.138-.657,1.66-.221,2.4-.7,0,0,.426-.131.082-.852C341.3,218.444,339.1,218.138,337.963,218.8Z" transform="translate(-284.921 -218.457)" fill="#00223d"/>
      <path id="Trazado_95437" data-name="Trazado 95437" d="M287.512,323.006V288.23c0-1.314.922-1.847,2.061-1.19l-2.716-2.08c-1.138-.657-2.061-.125-2.061,1.189v34.775a4.3,4.3,0,0,0,2.061,3.57c2,.954,1.3.24,1.3.24C288.494,324.735,288.184,324.1,287.512,323.006Z" transform="translate(-284.796 -254.696)" fill="#00223d"/>
      <path id="Trazado_95438" data-name="Trazado 95438" d="M344.986,256.357a4.555,4.555,0,0,1-2.061,3.57l-50.659,29.248c-1.139.657-2.061.125-2.061-1.19V253.21a4.555,4.555,0,0,1,2.061-3.57l50.659-29.248c1.138-.657,2.061-.124,2.061,1.19Z" transform="translate(-287.755 -219.362)" fill="url(#linear-gradient)"/>
      <path id="Trazado_95439" data-name="Trazado 95439" d="M345.422,259.722a4.107,4.107,0,0,1-1.9,3.188l-46.789,27.014c-1.051.607-1.9.164-1.9-.991V258.408a4.112,4.112,0,0,1,1.9-3.188l46.79-27.013c1.05-.607,1.9-.164,1.9.99Z" transform="translate(-290.284 -223.644)" fill="#1e2729"/>
      <path id="Trazado_95440" data-name="Trazado 95440" d="M297.626,287.718l-.378.218a4.06,4.06,0,0,0-1.475,1.635Z" transform="translate(-290.803 -256.359)" fill="#2b383b"/>
      <path id="Trazado_95441" data-name="Trazado 95441" d="M294.827,274.778v6.108l35.405-35.406-14.451,8.343Z" transform="translate(-290.285 -233.245)" fill="#2b383b"/>
      <path id="Trazado_95442" data-name="Trazado 95442" d="M345.423,230.386v-.318a1.775,1.775,0,0,0-.077-.541q-25.259,25.261-50.519,50.52v.935Z" transform="translate(-290.285 -224.515)" fill="#2b383b"/>
      <path id="Trazado_95443" data-name="Trazado 95443" d="M295.2,299.078a3.157,3.157,0,0,1-.374.316v.988a1.215,1.215,0,0,0,.546,1.148l50.051-50.049v-2.625Z" transform="translate(-290.285 -235.092)" fill="#2b383b"/>
      <path id="Trazado_95444" data-name="Trazado 95444" d="M366.865,275v-2.909l-32.857,32.856,6.885-3.975Q353.879,287.982,366.865,275Z" transform="translate(-311.727 -247.805)" fill="#2b383b"/>
      <g id="Grupo_41950" data-name="Grupo 41950" transform="translate(4.776 39.365)">
        <path id="Trazado_95445" data-name="Trazado 95445" d="M372.441,321.179v-2.19a1.446,1.446,0,0,0-.854-1.2l-20.6-11.9a4.555,4.555,0,0,0-4.122,0L296.2,335.144a1.44,1.44,0,0,0-.853,1.2v2.433a1.443,1.443,0,0,0,.853,1.2l20.606,11.9a4.557,4.557,0,0,0,4.122,0l50.659-29.248a1.444,1.444,0,0,0,.854-1.2v-.242Z" transform="translate(-295.347 -305.402)" fill="#00223d"/>
        <path id="Trazado_95446" data-name="Trazado 95446" d="M371.586,317.791a1.256,1.256,0,0,1,0,2.38l-50.659,29.248a4.555,4.555,0,0,1-4.122,0l-20.605-11.9a1.256,1.256,0,0,1,0-2.38l50.66-29.249a4.555,4.555,0,0,1,4.122,0Z" transform="translate(-295.346 -305.402)" fill="url(#linear-gradient)"/>
        <path id="Trazado_95447" data-name="Trazado 95447" d="M310.348,371.494a.251.251,0,0,1,0,.475l-3,1.733a.906.906,0,0,1-.824,0l-3-1.733a.251.251,0,0,1,0-.476l3-1.733a.907.907,0,0,1,.824,0Z" transform="translate(-299.724 -340.567)" fill="#00223d"/>
        <g id="Grupo_41946" data-name="Grupo 41946" transform="translate(11.609 2.58)">
          <path id="Trazado_95448" data-name="Trazado 95448" d="M324.16,359.575l-3,1.734a.251.251,0,0,0,0,.476l3,1.734a.909.909,0,0,0,.824,0l3-1.734a.251.251,0,0,0,0-.476l-3-1.733A.909.909,0,0,0,324.16,359.575Z" transform="translate(-320.986 -337.573)" fill="#00223d"/>
          <path id="Trazado_95449" data-name="Trazado 95449" d="M334.634,353.527l-3,1.734a.251.251,0,0,0,0,.475l3,1.734a.912.912,0,0,0,.825,0l3-1.734a.251.251,0,0,0,0-.475l-3-1.734A.908.908,0,0,0,334.634,353.527Z" transform="translate(-326.718 -334.264)" fill="#00223d"/>
          <path id="Trazado_95450" data-name="Trazado 95450" d="M345.108,347.481l-3,1.734a.251.251,0,0,0,0,.475l3,1.735a.909.909,0,0,0,.824,0l3-1.735a.251.251,0,0,0,0-.475l-3-1.734A.912.912,0,0,0,345.108,347.481Z" transform="translate(-332.45 -330.955)" fill="#00223d"/>
          <path id="Trazado_95451" data-name="Trazado 95451" d="M355.583,341.435l-3,1.733a.252.252,0,0,0,0,.477l3,1.733a.913.913,0,0,0,.824,0l3-1.733a.252.252,0,0,0,0-.477l-3-1.733A.909.909,0,0,0,355.583,341.435Z" transform="translate(-338.182 -327.647)" fill="#00223d"/>
          <path id="Trazado_95452" data-name="Trazado 95452" d="M366.056,335.386l-3,1.734a.251.251,0,0,0,0,.475l3,1.734a.914.914,0,0,0,.824,0l3-1.734a.251.251,0,0,0,0-.475l-3-1.735A.91.91,0,0,0,366.056,335.386Z" transform="translate(-343.914 -324.337)" fill="#00223d"/>
          <path id="Trazado_95453" data-name="Trazado 95453" d="M376.53,329.34l-3,1.734a.251.251,0,0,0,0,.476l3,1.734a.906.906,0,0,0,.824,0l3-1.734a.251.251,0,0,0,0-.476l-3-1.734A.913.913,0,0,0,376.53,329.34Z" transform="translate(-349.645 -321.028)" fill="#00223d"/>
          <path id="Trazado_95454" data-name="Trazado 95454" d="M387,323.292l-3,1.734a.251.251,0,0,0,0,.476l3,1.733a.912.912,0,0,0,.824,0l3-1.733a.252.252,0,0,0,0-.476l-3-1.734A.912.912,0,0,0,387,323.292Z" transform="translate(-355.377 -317.718)" fill="#00223d"/>
          <path id="Trazado_95455" data-name="Trazado 95455" d="M397.477,317.245l-3,1.734a.251.251,0,0,0,0,.476l3,1.735a.912.912,0,0,0,.824,0l3-1.735a.251.251,0,0,0,0-.476l-3-1.734A.911.911,0,0,0,397.477,317.245Z" transform="translate(-361.109 -314.409)" fill="#00223d"/>
          <path id="Trazado_95456" data-name="Trazado 95456" d="M407.95,311.2l-3,1.734a.251.251,0,0,0,0,.476l3,1.734a.915.915,0,0,0,.824,0l3-1.734a.251.251,0,0,0,0-.476l-3-1.734A.912.912,0,0,0,407.95,311.2Z" transform="translate(-366.84 -311.101)" fill="#00223d"/>
        </g>
        <g id="Grupo_41947" data-name="Grupo 41947" transform="translate(8.284 5.389)">
          <path id="Trazado_95457" data-name="Trazado 95457" d="M325.008,365.781l-11.2,6.464a.251.251,0,0,0,0,.476l3,1.734a.913.913,0,0,0,.825,0l11.195-6.464a.251.251,0,0,0,0-.475l-3-1.734A.912.912,0,0,0,325.008,365.781Z" transform="translate(-313.642 -343.779)" fill="#00223d"/>
          <path id="Trazado_95458" data-name="Trazado 95458" d="M345.384,359.734l-3,1.734a.251.251,0,0,0,0,.476l3,1.733a.906.906,0,0,0,.825,0l3-1.733a.251.251,0,0,0,0-.476l-3-1.734A.913.913,0,0,0,345.384,359.734Z" transform="translate(-329.275 -340.47)" fill="#00223d"/>
          <path id="Trazado_95459" data-name="Trazado 95459" d="M355.858,353.686l-3,1.734a.251.251,0,0,0,0,.475l3,1.735a.912.912,0,0,0,.825,0l3-1.735a.251.251,0,0,0,0-.475l-3-1.734A.915.915,0,0,0,355.858,353.686Z" transform="translate(-335.007 -337.161)" fill="#00223d"/>
          <path id="Trazado_95460" data-name="Trazado 95460" d="M366.331,347.64l-3,1.734a.251.251,0,0,0,0,.476l3,1.734a.911.911,0,0,0,.824,0l3-1.734a.251.251,0,0,0,0-.476l-3-1.734A.908.908,0,0,0,366.331,347.64Z" transform="translate(-340.738 -333.852)" fill="#00223d"/>
          <path id="Trazado_95461" data-name="Trazado 95461" d="M376.805,341.594l-3,1.733a.251.251,0,0,0,0,.476l3,1.734a.911.911,0,0,0,.824,0l3-1.734a.252.252,0,0,0,0-.476l-3-1.733A.908.908,0,0,0,376.805,341.594Z" transform="translate(-346.47 -330.543)" fill="#00223d"/>
          <path id="Trazado_95462" data-name="Trazado 95462" d="M387.279,335.546l-3,1.733a.251.251,0,0,0,0,.476l3,1.734a.913.913,0,0,0,.825,0l3-1.733a.251.251,0,0,0,0-.476l-3-1.734A.912.912,0,0,0,387.279,335.546Z" transform="translate(-352.202 -327.233)" fill="#00223d"/>
          <path id="Trazado_95463" data-name="Trazado 95463" d="M397.753,329.5l-3,1.734a.251.251,0,0,0,0,.476l3,1.734a.911.911,0,0,0,.824,0l3-1.734a.251.251,0,0,0,0-.476l-3-1.734A.909.909,0,0,0,397.753,329.5Z" transform="translate(-357.934 -323.924)" fill="#00223d"/>
          <path id="Trazado_95464" data-name="Trazado 95464" d="M408.228,323.452l-3,1.733a.252.252,0,0,0,0,.476l3,1.734a.911.911,0,0,0,.824,0l3-1.734a.251.251,0,0,0,0-.476l-3-1.734A.911.911,0,0,0,408.228,323.452Z" transform="translate(-363.667 -320.615)" fill="#00223d"/>
          <path id="Trazado_95465" data-name="Trazado 95465" d="M418.7,317.4l-3,1.734a.251.251,0,0,0,0,.476l3,1.733a.906.906,0,0,0,.824,0l3-1.733a.251.251,0,0,0,0-.476l-3-1.734A.91.91,0,0,0,418.7,317.4Z" transform="translate(-369.398 -317.305)" fill="#00223d"/>
        </g>
        <g id="Grupo_41948" data-name="Grupo 41948" transform="translate(18.411 11.236)">
          <path id="Trazado_95466" data-name="Trazado 95466" d="M347.377,378.7l-11.2,6.464a.251.251,0,0,0,0,.476l3,1.735a.91.91,0,0,0,.824,0l11.2-6.465a.251.251,0,0,0,0-.476l-3-1.734A.908.908,0,0,0,347.377,378.7Z" transform="translate(-336.011 -356.694)" fill="#00223d"/>
          <path id="Trazado_95467" data-name="Trazado 95467" d="M367.752,372.649l-3,1.734a.251.251,0,0,0,0,.475l3,1.734a.912.912,0,0,0,.824,0l3-1.734a.251.251,0,0,0,0-.475l-3-1.734A.912.912,0,0,0,367.752,372.649Z" transform="translate(-351.644 -353.385)" fill="#00223d"/>
          <path id="Trazado_95468" data-name="Trazado 95468" d="M392.452,348.461l-17.229,9.947a.251.251,0,0,0,0,.476l3,1.734a.911.911,0,0,0,.824,0l17.229-9.947a.252.252,0,0,0,0-.476l-3-1.733A.91.91,0,0,0,392.452,348.461Z" transform="translate(-357.376 -340.148)" fill="#00223d"/>
          <path id="Trazado_95469" data-name="Trazado 95469" d="M420.121,342.413l-3,1.734a.251.251,0,0,0,0,.476l3,1.733a.906.906,0,0,0,.823,0l3-1.733a.252.252,0,0,0,0-.476l-3-1.734A.91.91,0,0,0,420.121,342.413Z" transform="translate(-380.302 -336.839)" fill="#00223d"/>
          <path id="Trazado_95470" data-name="Trazado 95470" d="M435.336,330.319l-7.744,4.471a.251.251,0,0,0,0,.476l3,1.733a.908.908,0,0,0,.824,0l7.744-4.471a.251.251,0,0,0,0-.475l-3-1.734A.911.911,0,0,0,435.336,330.319Z" transform="translate(-386.034 -330.22)" fill="#00223d"/>
        </g>
        <g id="Grupo_41949" data-name="Grupo 41949" transform="translate(13.284 8.277)">
          <path id="Trazado_95471" data-name="Trazado 95471" d="M331.281,378.242l-6.425,3.71a.251.251,0,0,0,0,.475l3,1.734a.909.909,0,0,0,.824,0l6.423-3.709a.251.251,0,0,0,0-.476l-3-1.734A.914.914,0,0,0,331.281,378.242Z" transform="translate(-324.686 -353.486)" fill="#00223d"/>
          <path id="Trazado_95472" data-name="Trazado 95472" d="M356.429,366.112l-3,1.734a.251.251,0,0,0,0,.475l3,1.734a.912.912,0,0,0,.825,0l3-1.734a.251.251,0,0,0,0-.475l-3-1.734A.909.909,0,0,0,356.429,366.112Z" transform="translate(-340.321 -346.848)" fill="#00223d"/>
          <path id="Trazado_95473" data-name="Trazado 95473" d="M345.956,372.158l-3,1.734a.251.251,0,0,0,0,.476l3,1.734a.911.911,0,0,0,.824,0l3-1.734a.251.251,0,0,0,0-.476l-3-1.734A.908.908,0,0,0,345.956,372.158Z" transform="translate(-334.589 -350.156)" fill="#00223d"/>
          <path id="Trazado_95474" data-name="Trazado 95474" d="M366.9,360.065l-3,1.733a.252.252,0,0,0,0,.476l3,1.734a.913.913,0,0,0,.825,0l3-1.734a.251.251,0,0,0,0-.476l-3-1.733A.913.913,0,0,0,366.9,360.065Z" transform="translate(-346.052 -343.539)" fill="#00223d"/>
          <path id="Trazado_95475" data-name="Trazado 95475" d="M377.376,354.017l-3,1.734a.251.251,0,0,0,0,.476l3,1.734a.909.909,0,0,0,.824,0l3-1.734a.251.251,0,0,0,0-.476l-3-1.734A.913.913,0,0,0,377.376,354.017Z" transform="translate(-351.784 -340.229)" fill="#00223d"/>
          <path id="Trazado_95476" data-name="Trazado 95476" d="M387.851,347.97l-3,1.734a.252.252,0,0,0,0,.476l3,1.734a.911.911,0,0,0,.824,0l3-1.734a.251.251,0,0,0,0-.476l-3-1.734A.914.914,0,0,0,387.851,347.97Z" transform="translate(-357.516 -336.92)" fill="#00223d"/>
          <path id="Trazado_95477" data-name="Trazado 95477" d="M398.324,341.923l-3,1.734a.251.251,0,0,0,0,.476l3,1.733a.908.908,0,0,0,.824,0l3-1.733a.251.251,0,0,0,0-.476l-3-1.734A.911.911,0,0,0,398.324,341.923Z" transform="translate(-363.247 -333.611)" fill="#00223d"/>
          <path id="Trazado_95478" data-name="Trazado 95478" d="M408.8,335.876l-3,1.734a.251.251,0,0,0,0,.476l3,1.734a.912.912,0,0,0,.824,0l3-1.734a.251.251,0,0,0,0-.476l-3-1.734A.91.91,0,0,0,408.8,335.876Z" transform="translate(-368.979 -330.301)" fill="#00223d"/>
          <path id="Trazado_95479" data-name="Trazado 95479" d="M419.272,329.829l-3,1.734a.251.251,0,0,0,0,.476l3,1.734a.912.912,0,0,0,.824,0l3-1.734a.251.251,0,0,0,0-.476l-3-1.734A.912.912,0,0,0,419.272,329.829Z" transform="translate(-374.711 -326.992)" fill="#00223d"/>
          <path id="Trazado_95480" data-name="Trazado 95480" d="M429.746,323.782l-3,1.733a.251.251,0,0,0,0,.476l3,1.734a.908.908,0,0,0,.824,0l3-1.734a.251.251,0,0,0,0-.476l-3-1.733A.909.909,0,0,0,429.746,323.782Z" transform="translate(-380.442 -323.683)" fill="#00223d"/>
        </g>
      </g>
    </g>
    <g id="Grupo_900362" data-name="Grupo 900362" transform="translate(-9648.871 -9511.674)">
      <path id="Trazado_95436-2" data-name="Trazado 95436" d="M337.963,218.8l-52.084,29.5a1.255,1.255,0,0,0,0,2.379l2.854,2.161a1.256,1.256,0,0,1,0-2.379L339.392,221.2c1.138-.657,1.66-.221,2.4-.7,0,0,.426-.131.082-.852C341.3,218.444,339.1,218.138,337.963,218.8Z" transform="translate(-284.921 -218.457)" fill="#00223d"/>
      <path id="Trazado_95437-2" data-name="Trazado 95437" d="M287.512,323.006V288.23c0-1.314.922-1.847,2.061-1.19l-2.716-2.08c-1.138-.657-2.061-.125-2.061,1.189v34.775a4.3,4.3,0,0,0,2.061,3.57c2,.954,1.3.24,1.3.24C288.494,324.735,288.184,324.1,287.512,323.006Z" transform="translate(-284.796 -254.696)" fill="#00223d"/>
      <path id="Trazado_95438-2" data-name="Trazado 95438" d="M344.986,256.357a4.555,4.555,0,0,1-2.061,3.57l-50.659,29.248c-1.139.657-2.061.125-2.061-1.19V253.21a4.555,4.555,0,0,1,2.061-3.57l50.659-29.248c1.138-.657,2.061-.124,2.061,1.19Z" transform="translate(-287.755 -219.362)" fill="url(#linear-gradient)"/>
      <path id="Trazado_95439-2" data-name="Trazado 95439" d="M345.422,259.722a4.107,4.107,0,0,1-1.9,3.188l-46.789,27.014c-1.051.607-1.9.164-1.9-.991V258.408a4.112,4.112,0,0,1,1.9-3.188l46.79-27.013c1.05-.607,1.9-.164,1.9.99Z" transform="translate(-290.284 -223.644)" fill="#1e2729"/>
      <path id="Trazado_95440-2" data-name="Trazado 95440" d="M297.626,287.718l-.378.218a4.06,4.06,0,0,0-1.475,1.635Z" transform="translate(-290.803 -256.359)" fill="#2b383b"/>
      <path id="Trazado_95441-2" data-name="Trazado 95441" d="M294.827,274.778v6.108l35.405-35.406-14.451,8.343Z" transform="translate(-290.285 -233.245)" fill="#2b383b"/>
      <path id="Trazado_95442-2" data-name="Trazado 95442" d="M345.423,230.386v-.318a1.775,1.775,0,0,0-.077-.541q-25.259,25.261-50.519,50.52v.935Z" transform="translate(-290.285 -224.515)" fill="#2b383b"/>
      <path id="Trazado_95443-2" data-name="Trazado 95443" d="M295.2,299.078a3.157,3.157,0,0,1-.374.316v.988a1.215,1.215,0,0,0,.546,1.148l50.051-50.049v-2.625Z" transform="translate(-290.285 -235.092)" fill="#2b383b"/>
      <path id="Trazado_95444-2" data-name="Trazado 95444" d="M366.865,275v-2.909l-32.857,32.856,6.885-3.975Q353.879,287.982,366.865,275Z" transform="translate(-311.727 -247.805)" fill="#2b383b"/>
      <g id="Grupo_41950-2" data-name="Grupo 41950" transform="translate(4.776 39.365)">
        <path id="Trazado_95445-2" data-name="Trazado 95445" d="M372.441,321.179v-2.19a1.446,1.446,0,0,0-.854-1.2l-20.6-11.9a4.555,4.555,0,0,0-4.122,0L296.2,335.144a1.44,1.44,0,0,0-.853,1.2v2.433a1.443,1.443,0,0,0,.853,1.2l20.606,11.9a4.557,4.557,0,0,0,4.122,0l50.659-29.248a1.444,1.444,0,0,0,.854-1.2v-.242Z" transform="translate(-295.347 -305.402)" fill="#00223d"/>
        <path id="Trazado_95446-2" data-name="Trazado 95446" d="M371.586,317.791a1.256,1.256,0,0,1,0,2.38l-50.659,29.248a4.555,4.555,0,0,1-4.122,0l-20.605-11.9a1.256,1.256,0,0,1,0-2.38l50.66-29.249a4.555,4.555,0,0,1,4.122,0Z" transform="translate(-295.346 -305.402)" fill="url(#linear-gradient)"/>
        <path id="Trazado_95447-2" data-name="Trazado 95447" d="M310.348,371.494a.251.251,0,0,1,0,.475l-3,1.733a.906.906,0,0,1-.824,0l-3-1.733a.251.251,0,0,1,0-.476l3-1.733a.907.907,0,0,1,.824,0Z" transform="translate(-299.724 -340.567)" fill="#00223d"/>
        <g id="Grupo_41946-2" data-name="Grupo 41946" transform="translate(11.609 2.58)">
          <path id="Trazado_95448-2" data-name="Trazado 95448" d="M324.16,359.575l-3,1.734a.251.251,0,0,0,0,.476l3,1.734a.909.909,0,0,0,.824,0l3-1.734a.251.251,0,0,0,0-.476l-3-1.733A.909.909,0,0,0,324.16,359.575Z" transform="translate(-320.986 -337.573)" fill="#00223d"/>
          <path id="Trazado_95449-2" data-name="Trazado 95449" d="M334.634,353.527l-3,1.734a.251.251,0,0,0,0,.475l3,1.734a.912.912,0,0,0,.825,0l3-1.734a.251.251,0,0,0,0-.475l-3-1.734A.908.908,0,0,0,334.634,353.527Z" transform="translate(-326.718 -334.264)" fill="#00223d"/>
          <path id="Trazado_95450-2" data-name="Trazado 95450" d="M345.108,347.481l-3,1.734a.251.251,0,0,0,0,.475l3,1.735a.909.909,0,0,0,.824,0l3-1.735a.251.251,0,0,0,0-.475l-3-1.734A.912.912,0,0,0,345.108,347.481Z" transform="translate(-332.45 -330.955)" fill="#00223d"/>
          <path id="Trazado_95451-2" data-name="Trazado 95451" d="M355.583,341.435l-3,1.733a.252.252,0,0,0,0,.477l3,1.733a.913.913,0,0,0,.824,0l3-1.733a.252.252,0,0,0,0-.477l-3-1.733A.909.909,0,0,0,355.583,341.435Z" transform="translate(-338.182 -327.647)" fill="#00223d"/>
          <path id="Trazado_95452-2" data-name="Trazado 95452" d="M366.056,335.386l-3,1.734a.251.251,0,0,0,0,.475l3,1.734a.914.914,0,0,0,.824,0l3-1.734a.251.251,0,0,0,0-.475l-3-1.735A.91.91,0,0,0,366.056,335.386Z" transform="translate(-343.914 -324.337)" fill="#00223d"/>
          <path id="Trazado_95453-2" data-name="Trazado 95453" d="M376.53,329.34l-3,1.734a.251.251,0,0,0,0,.476l3,1.734a.906.906,0,0,0,.824,0l3-1.734a.251.251,0,0,0,0-.476l-3-1.734A.913.913,0,0,0,376.53,329.34Z" transform="translate(-349.645 -321.028)" fill="#00223d"/>
          <path id="Trazado_95454-2" data-name="Trazado 95454" d="M387,323.292l-3,1.734a.251.251,0,0,0,0,.476l3,1.733a.912.912,0,0,0,.824,0l3-1.733a.252.252,0,0,0,0-.476l-3-1.734A.912.912,0,0,0,387,323.292Z" transform="translate(-355.377 -317.718)" fill="#00223d"/>
          <path id="Trazado_95455-2" data-name="Trazado 95455" d="M397.477,317.245l-3,1.734a.251.251,0,0,0,0,.476l3,1.735a.912.912,0,0,0,.824,0l3-1.735a.251.251,0,0,0,0-.476l-3-1.734A.911.911,0,0,0,397.477,317.245Z" transform="translate(-361.109 -314.409)" fill="#00223d"/>
          <path id="Trazado_95456-2" data-name="Trazado 95456" d="M407.95,311.2l-3,1.734a.251.251,0,0,0,0,.476l3,1.734a.915.915,0,0,0,.824,0l3-1.734a.251.251,0,0,0,0-.476l-3-1.734A.912.912,0,0,0,407.95,311.2Z" transform="translate(-366.84 -311.101)" fill="#00223d"/>
        </g>
        <g id="Grupo_41947-2" data-name="Grupo 41947" transform="translate(8.284 5.389)">
          <path id="Trazado_95457-2" data-name="Trazado 95457" d="M325.008,365.781l-11.2,6.464a.251.251,0,0,0,0,.476l3,1.734a.913.913,0,0,0,.825,0l11.195-6.464a.251.251,0,0,0,0-.475l-3-1.734A.912.912,0,0,0,325.008,365.781Z" transform="translate(-313.642 -343.779)" fill="#00223d"/>
          <path id="Trazado_95458-2" data-name="Trazado 95458" d="M345.384,359.734l-3,1.734a.251.251,0,0,0,0,.476l3,1.733a.906.906,0,0,0,.825,0l3-1.733a.251.251,0,0,0,0-.476l-3-1.734A.913.913,0,0,0,345.384,359.734Z" transform="translate(-329.275 -340.47)" fill="#00223d"/>
          <path id="Trazado_95459-2" data-name="Trazado 95459" d="M355.858,353.686l-3,1.734a.251.251,0,0,0,0,.475l3,1.735a.912.912,0,0,0,.825,0l3-1.735a.251.251,0,0,0,0-.475l-3-1.734A.915.915,0,0,0,355.858,353.686Z" transform="translate(-335.007 -337.161)" fill="#00223d"/>
          <path id="Trazado_95460-2" data-name="Trazado 95460" d="M366.331,347.64l-3,1.734a.251.251,0,0,0,0,.476l3,1.734a.911.911,0,0,0,.824,0l3-1.734a.251.251,0,0,0,0-.476l-3-1.734A.908.908,0,0,0,366.331,347.64Z" transform="translate(-340.738 -333.852)" fill="#00223d"/>
          <path id="Trazado_95461-2" data-name="Trazado 95461" d="M376.805,341.594l-3,1.733a.251.251,0,0,0,0,.476l3,1.734a.911.911,0,0,0,.824,0l3-1.734a.252.252,0,0,0,0-.476l-3-1.733A.908.908,0,0,0,376.805,341.594Z" transform="translate(-346.47 -330.543)" fill="#00223d"/>
          <path id="Trazado_95462-2" data-name="Trazado 95462" d="M387.279,335.546l-3,1.733a.251.251,0,0,0,0,.476l3,1.734a.913.913,0,0,0,.825,0l3-1.733a.251.251,0,0,0,0-.476l-3-1.734A.912.912,0,0,0,387.279,335.546Z" transform="translate(-352.202 -327.233)" fill="#00223d"/>
          <path id="Trazado_95463-2" data-name="Trazado 95463" d="M397.753,329.5l-3,1.734a.251.251,0,0,0,0,.476l3,1.734a.911.911,0,0,0,.824,0l3-1.734a.251.251,0,0,0,0-.476l-3-1.734A.909.909,0,0,0,397.753,329.5Z" transform="translate(-357.934 -323.924)" fill="#00223d"/>
          <path id="Trazado_95464-2" data-name="Trazado 95464" d="M408.228,323.452l-3,1.733a.252.252,0,0,0,0,.476l3,1.734a.911.911,0,0,0,.824,0l3-1.734a.251.251,0,0,0,0-.476l-3-1.734A.911.911,0,0,0,408.228,323.452Z" transform="translate(-363.667 -320.615)" fill="#00223d"/>
          <path id="Trazado_95465-2" data-name="Trazado 95465" d="M418.7,317.4l-3,1.734a.251.251,0,0,0,0,.476l3,1.733a.906.906,0,0,0,.824,0l3-1.733a.251.251,0,0,0,0-.476l-3-1.734A.91.91,0,0,0,418.7,317.4Z" transform="translate(-369.398 -317.305)" fill="#00223d"/>
        </g>
        <g id="Grupo_41948-2" data-name="Grupo 41948" transform="translate(18.411 11.236)">
          <path id="Trazado_95466-2" data-name="Trazado 95466" d="M347.377,378.7l-11.2,6.464a.251.251,0,0,0,0,.476l3,1.735a.91.91,0,0,0,.824,0l11.2-6.465a.251.251,0,0,0,0-.476l-3-1.734A.908.908,0,0,0,347.377,378.7Z" transform="translate(-336.011 -356.694)" fill="#00223d"/>
          <path id="Trazado_95467-2" data-name="Trazado 95467" d="M367.752,372.649l-3,1.734a.251.251,0,0,0,0,.475l3,1.734a.912.912,0,0,0,.824,0l3-1.734a.251.251,0,0,0,0-.475l-3-1.734A.912.912,0,0,0,367.752,372.649Z" transform="translate(-351.644 -353.385)" fill="#00223d"/>
          <path id="Trazado_95468-2" data-name="Trazado 95468" d="M392.452,348.461l-17.229,9.947a.251.251,0,0,0,0,.476l3,1.734a.911.911,0,0,0,.824,0l17.229-9.947a.252.252,0,0,0,0-.476l-3-1.733A.91.91,0,0,0,392.452,348.461Z" transform="translate(-357.376 -340.148)" fill="#00223d"/>
          <path id="Trazado_95469-2" data-name="Trazado 95469" d="M420.121,342.413l-3,1.734a.251.251,0,0,0,0,.476l3,1.733a.906.906,0,0,0,.823,0l3-1.733a.252.252,0,0,0,0-.476l-3-1.734A.91.91,0,0,0,420.121,342.413Z" transform="translate(-380.302 -336.839)" fill="#00223d"/>
          <path id="Trazado_95470-2" data-name="Trazado 95470" d="M435.336,330.319l-7.744,4.471a.251.251,0,0,0,0,.476l3,1.733a.908.908,0,0,0,.824,0l7.744-4.471a.251.251,0,0,0,0-.475l-3-1.734A.911.911,0,0,0,435.336,330.319Z" transform="translate(-386.034 -330.22)" fill="#00223d"/>
        </g>
        <g id="Grupo_41949-2" data-name="Grupo 41949" transform="translate(13.284 8.277)">
          <path id="Trazado_95471-2" data-name="Trazado 95471" d="M331.281,378.242l-6.425,3.71a.251.251,0,0,0,0,.475l3,1.734a.909.909,0,0,0,.824,0l6.423-3.709a.251.251,0,0,0,0-.476l-3-1.734A.914.914,0,0,0,331.281,378.242Z" transform="translate(-324.686 -353.486)" fill="#00223d"/>
          <path id="Trazado_95472-2" data-name="Trazado 95472" d="M356.429,366.112l-3,1.734a.251.251,0,0,0,0,.475l3,1.734a.912.912,0,0,0,.825,0l3-1.734a.251.251,0,0,0,0-.475l-3-1.734A.909.909,0,0,0,356.429,366.112Z" transform="translate(-340.321 -346.848)" fill="#00223d"/>
          <path id="Trazado_95473-2" data-name="Trazado 95473" d="M345.956,372.158l-3,1.734a.251.251,0,0,0,0,.476l3,1.734a.911.911,0,0,0,.824,0l3-1.734a.251.251,0,0,0,0-.476l-3-1.734A.908.908,0,0,0,345.956,372.158Z" transform="translate(-334.589 -350.156)" fill="#00223d"/>
          <path id="Trazado_95474-2" data-name="Trazado 95474" d="M366.9,360.065l-3,1.733a.252.252,0,0,0,0,.476l3,1.734a.913.913,0,0,0,.825,0l3-1.734a.251.251,0,0,0,0-.476l-3-1.733A.913.913,0,0,0,366.9,360.065Z" transform="translate(-346.052 -343.539)" fill="#00223d"/>
          <path id="Trazado_95475-2" data-name="Trazado 95475" d="M377.376,354.017l-3,1.734a.251.251,0,0,0,0,.476l3,1.734a.909.909,0,0,0,.824,0l3-1.734a.251.251,0,0,0,0-.476l-3-1.734A.913.913,0,0,0,377.376,354.017Z" transform="translate(-351.784 -340.229)" fill="#00223d"/>
          <path id="Trazado_95476-2" data-name="Trazado 95476" d="M387.851,347.97l-3,1.734a.252.252,0,0,0,0,.476l3,1.734a.911.911,0,0,0,.824,0l3-1.734a.251.251,0,0,0,0-.476l-3-1.734A.914.914,0,0,0,387.851,347.97Z" transform="translate(-357.516 -336.92)" fill="#00223d"/>
          <path id="Trazado_95477-2" data-name="Trazado 95477" d="M398.324,341.923l-3,1.734a.251.251,0,0,0,0,.476l3,1.733a.908.908,0,0,0,.824,0l3-1.733a.251.251,0,0,0,0-.476l-3-1.734A.911.911,0,0,0,398.324,341.923Z" transform="translate(-363.247 -333.611)" fill="#00223d"/>
          <path id="Trazado_95478-2" data-name="Trazado 95478" d="M408.8,335.876l-3,1.734a.251.251,0,0,0,0,.476l3,1.734a.912.912,0,0,0,.824,0l3-1.734a.251.251,0,0,0,0-.476l-3-1.734A.91.91,0,0,0,408.8,335.876Z" transform="translate(-368.979 -330.301)" fill="#00223d"/>
          <path id="Trazado_95479-2" data-name="Trazado 95479" d="M419.272,329.829l-3,1.734a.251.251,0,0,0,0,.476l3,1.734a.912.912,0,0,0,.824,0l3-1.734a.251.251,0,0,0,0-.476l-3-1.734A.912.912,0,0,0,419.272,329.829Z" transform="translate(-374.711 -326.992)" fill="#00223d"/>
          <path id="Trazado_95480-2" data-name="Trazado 95480" d="M429.746,323.782l-3,1.733a.251.251,0,0,0,0,.476l3,1.734a.908.908,0,0,0,.824,0l3-1.734a.251.251,0,0,0,0-.476l-3-1.733A.909.909,0,0,0,429.746,323.782Z" transform="translate(-380.442 -323.683)" fill="#00223d"/>
        </g>
      </g>
    </g>
    <g id="Grupo_900363" data-name="Grupo 900363" transform="translate(-9537.279 -9422.669)">
      <g id="Grupo_154570" data-name="Grupo 154570" transform="translate(0 0)" clip-path="url(#clip-path)">
        <path id="Trazado_196638" data-name="Trazado 196638" d="M0,0H186.063V95.612H0Z" transform="translate(0 0)" fill="#12263f"/>
      </g>
    </g>
    <g id="Grupo_900364" data-name="Grupo 900364" transform="translate(-9524.718 -9422.669)" clip-path="url(#clip-path-2)">
      <path id="Trazado_620292" data-name="Trazado 620292" d="M0,0H186.062V95.612H0Z" transform="translate(0 0)" fill="url(#linear-gradient-68)"/>
    </g>
    <path id="Trazado_622675" data-name="Trazado 622675" d="M-40.482,0h-2.783V-13.508h2.783Zm13.563,0H-29.7l-5.418-8.888V0H-37.9V-13.508h2.783L-29.692-4.6v-8.906h2.774Zm12.33-11.253h-4.138V0H-21.51V-11.253h-4.082v-2.254h11Zm9.713,5.381h-5.344v3.637h6.271V0H-13V-13.508h9.036v2.254h-6.253v3.219h5.344Zm7.561.928H.469V0H-2.315V-13.508H2.7A5.674,5.674,0,0,1,6.4-12.441,3.682,3.682,0,0,1,7.7-9.426,4.156,4.156,0,0,1,7.1-7.12,4.081,4.081,0,0,1,5.283-5.65L8.206-.13V0H5.219ZM.469-7.2H2.714a2.3,2.3,0,0,0,1.624-.533A1.907,1.907,0,0,0,4.912-9.2a2.041,2.041,0,0,0-.543-1.5A2.255,2.255,0,0,0,2.7-11.253H.469ZM20.8,0H18.012L12.594-8.888V0H9.811V-13.508h2.783L18.021-4.6v-8.906H20.8ZM31.353-5.873H26.009v3.637h6.271V0H23.226V-13.508h9.036v2.254H26.009v3.219h5.344Zm12.914-5.381H40.129V0H37.346V-11.253H33.264v-2.254h11Z" transform="translate(-9444.92 -9356.863)" fill="#12263f"/>
  </g>
</svg>
