<svg xmlns="http://www.w3.org/2000/svg" xmlns:xlink="http://www.w3.org/1999/xlink" width="296.5" height="223.308" viewBox="0 0 296.5 223.308">
  <defs>
    <linearGradient id="linear-gradient" x1="0.5" x2="0.5" y2="1" gradientUnits="objectBoundingBox">
      <stop offset="0" stop-color="#fff"/>
      <stop offset="1" stop-color="#d2e6ee"/>
    </linearGradient>
    <linearGradient id="linear-gradient-17" x1="0.5" x2="0.5" y2="1" gradientUnits="objectBoundingBox">
      <stop offset="0" stop-color="#f5f5f5"/>
      <stop offset="0.25" stop-color="#f5f5f5"/>
      <stop offset="1" stop-color="#a7b3cf"/>
    </linearGradient>
  </defs>
  <g id="Grupo_909286" data-name="Grupo 909286" transform="translate(-1125 -4936.122)">
    <rect id="Rectángulo_304166" data-name="Rectángulo 304166" width="254.008" height="173.012" transform="translate(1125 4953.629)" fill="#f5fafe"/>
    <g id="Grupo_900198" data-name="Grupo 900198" transform="translate(153.389 -7733.611)">
      <g id="Grupo_900200" data-name="Grupo 900200" transform="translate(973.323 12669.733)">
        <g id="Grupo_151144" data-name="Grupo 151144" transform="translate(16.855 49.369)" opacity="0.158">
          <path id="Trazado_183874" data-name="Trazado 183874" d="M525.651,143.533l-21.217-12.25,21.217-12.251,21.218,12.251Zm-19.715-12.25,19.715,11.383,19.716-11.383L525.651,119.9Z" transform="translate(-299.767 -119.031)" fill="#173d7a"/>
          <path id="Trazado_183875" data-name="Trazado 183875" d="M465.3,143.533,444.08,131.282l21.217-12.25.187.109,21.031,12.142Zm-19.716-12.251L465.3,142.665l19.715-11.383L465.3,119.9Z" transform="translate(-280.346 -119.031)" fill="#173d7a"/>
          <path id="Trazado_183876" data-name="Trazado 183876" d="M495.475,160.956l-21.218-12.25,21.218-12.251,21.217,12.251Zm-19.716-12.25,19.716,11.383,19.715-11.383-19.715-11.383Z" transform="translate(-290.056 -124.637)" fill="#173d7a"/>
          <path id="Trazado_183877" data-name="Trazado 183877" d="M525.652,178.379l-.187-.108-21.031-12.141,21.217-12.251.188.109,21.031,12.142Zm-19.716-12.25,19.716,11.383,19.716-11.383-19.716-11.383Z" transform="translate(-299.767 -130.243)" fill="#173d7a"/>
          <path id="Trazado_183878" data-name="Trazado 183878" d="M404.943,143.532l-.187-.109-21.031-12.141,21.217-12.251.188.109,21.031,12.141Zm-19.716-12.25,19.716,11.383,19.716-11.383L404.942,119.9Z" transform="translate(-260.925 -119.03)" fill="#173d7a"/>
          <path id="Trazado_183879" data-name="Trazado 183879" d="M435.121,160.955l-.187-.109L413.9,148.7l21.217-12.251,21.218,12.251ZM415.405,148.7l19.716,11.383,19.715-11.382L435.12,137.322Z" transform="translate(-270.635 -124.637)" fill="#173d7a"/>
          <path id="Trazado_183880" data-name="Trazado 183880" d="M465.3,178.378l-.187-.109-21.031-12.141,21.217-12.25,21.217,12.251Zm-19.716-12.25L465.3,177.511l19.715-11.382L465.3,154.745Z" transform="translate(-280.346 -130.243)" fill="#173d7a"/>
          <path id="Trazado_183881" data-name="Trazado 183881" d="M495.476,195.8,474.258,183.55,495.475,171.3l.187.109,21.031,12.141ZM475.76,183.55l19.716,11.384,19.715-11.383-19.716-11.383Z" transform="translate(-290.056 -135.85)" fill="#173d7a"/>
          <path id="Trazado_183882" data-name="Trazado 183882" d="M525.653,213.225l-.187-.109-21.031-12.142,21.217-12.25.188.108,21.031,12.141Zm-19.716-12.251,19.716,11.383,19.716-11.383-19.717-11.383Z" transform="translate(-299.767 -141.456)" fill="#173d7a"/>
          <path id="Trazado_183883" data-name="Trazado 183883" d="M344.589,143.532l-21.218-12.251,21.217-12.25.187.109,21.031,12.141Zm-19.716-12.251,19.716,11.383L364.3,131.282,344.588,119.9Z" transform="translate(-241.504 -119.03)" fill="#173d7a"/>
          <path id="Trazado_183884" data-name="Trazado 183884" d="M374.767,160.955l-.188-.109L353.548,148.7l21.218-12.251.187.109L395.984,148.7ZM355.05,148.7l19.717,11.383L394.482,148.7l-19.716-11.383Z" transform="translate(-251.214 -124.637)" fill="#173d7a"/>
          <path id="Trazado_183885" data-name="Trazado 183885" d="M404.944,178.378l-.187-.109-21.031-12.141,21.217-12.251.188.109,21.031,12.142Zm-19.716-12.25,19.716,11.383,19.716-11.383-19.717-11.383Z" transform="translate(-260.925 -130.243)" fill="#173d7a"/>
          <path id="Trazado_183886" data-name="Trazado 183886" d="M435.122,195.8l-.187-.108L413.9,183.55l21.217-12.25.188.109,21.03,12.141ZM415.406,183.55l19.716,11.383,19.715-11.383-19.716-11.383Z" transform="translate(-270.636 -135.849)" fill="#173d7a"/>
          <path id="Trazado_183887" data-name="Trazado 183887" d="M465.3,213.224l-21.217-12.251,21.217-12.25,21.217,12.251Zm-19.715-12.251L465.3,212.356l19.715-11.382L465.3,189.59Z" transform="translate(-280.346 -141.456)" fill="#173d7a"/>
          <path id="Trazado_183888" data-name="Trazado 183888" d="M495.477,230.648,474.258,218.4l21.218-12.249.187.109L516.694,218.4ZM475.76,218.4l19.716,11.383L515.192,218.4l-19.716-11.383Z" transform="translate(-290.056 -147.063)" fill="#173d7a"/>
          <path id="Trazado_183889" data-name="Trazado 183889" d="M525.654,248.07l-.187-.108L504.436,235.82l21.217-12.251.188.109,21.031,12.141Zm-19.716-12.25L525.654,247.2,545.37,235.82l-19.716-11.383Z" transform="translate(-299.767 -152.669)" fill="#173d7a"/>
          <path id="Trazado_183890" data-name="Trazado 183890" d="M284.234,143.531l-.187-.109-21.031-12.141,21.217-12.251.188.109,21.031,12.141Zm-19.716-12.25,19.716,11.383,19.716-11.383L284.233,119.9Z" transform="translate(-222.083 -119.03)" fill="#173d7a"/>
          <path id="Trazado_183891" data-name="Trazado 183891" d="M314.412,160.954l-.187-.109L293.194,148.7l21.217-12.251L335.629,148.7ZM294.7,148.7l19.716,11.383L334.127,148.7l-19.716-11.383Z" transform="translate(-231.793 -124.636)" fill="#173d7a"/>
          <path id="Trazado_183892" data-name="Trazado 183892" d="M344.59,178.377l-.187-.109-21.031-12.141,21.217-12.25.187.109,21.031,12.142Zm-19.716-12.25L344.59,177.51l19.715-11.382-19.716-11.383Z" transform="translate(-241.504 -130.243)" fill="#173d7a"/>
          <path id="Trazado_183893" data-name="Trazado 183893" d="M374.768,195.8l-21.219-12.251L374.767,171.3l.187.109,21.031,12.141Zm-19.716-12.251,19.716,11.384,19.715-11.383-19.716-11.383Z" transform="translate(-251.215 -135.849)" fill="#173d7a"/>
          <path id="Trazado_183894" data-name="Trazado 183894" d="M404.945,213.224l-.187-.109-21.031-12.142,21.217-12.25.188.109,21.031,12.141Zm-19.716-12.251,19.716,11.383,19.716-11.383L404.944,189.59Z" transform="translate(-260.925 -141.456)" fill="#173d7a"/>
          <path id="Trazado_183895" data-name="Trazado 183895" d="M435.122,230.647,413.9,218.4l21.217-12.25L456.34,218.4ZM415.407,218.4l19.715,11.383L454.837,218.4l-19.715-11.383Z" transform="translate(-270.636 -147.062)" fill="#173d7a"/>
          <path id="Trazado_183896" data-name="Trazado 183896" d="M465.3,248.069l-.188-.109-21.03-12.141L465.3,223.568l21.218,12.251Zm-19.716-12.25L465.3,247.2l19.715-11.382L465.3,224.436Z" transform="translate(-280.346 -152.668)" fill="#173d7a"/>
          <path id="Trazado_183897" data-name="Trazado 183897" d="M495.478,265.492l-.188-.109-21.031-12.141,21.218-12.25.187.109L516.7,253.243Zm-19.717-12.25,19.717,11.383,19.715-11.382L495.477,241.86Z" transform="translate(-290.057 -158.275)" fill="#173d7a"/>
          <path id="Trazado_183898" data-name="Trazado 183898" d="M525.655,282.916l-21.218-12.251,21.217-12.25.188.108,21.03,12.142Zm-19.716-12.251,19.716,11.383,19.716-11.383-19.716-11.383Z" transform="translate(-299.767 -163.882)" fill="#173d7a"/>
          <path id="Trazado_183899" data-name="Trazado 183899" d="M223.88,143.53l-.187-.109L202.662,131.28l21.217-12.25.187.109L245.1,131.281Zm-19.716-12.25,19.716,11.383L243.6,131.281,223.879,119.9Z" transform="translate(-202.662 -119.03)" fill="#173d7a"/>
          <path id="Trazado_183900" data-name="Trazado 183900" d="M254.058,160.954,232.84,148.7l21.217-12.25.187.109L275.275,148.7ZM234.342,148.7l19.716,11.383L273.773,148.7l-19.716-11.383Z" transform="translate(-212.373 -124.636)" fill="#173d7a"/>
          <path id="Trazado_183901" data-name="Trazado 183901" d="M284.235,178.377l-.187-.109-21.031-12.141,21.217-12.251.188.109,21.031,12.142Zm-19.716-12.25,19.716,11.383,19.716-11.383-19.716-11.383Z" transform="translate(-222.083 -130.243)" fill="#173d7a"/>
          <path id="Trazado_183902" data-name="Trazado 183902" d="M314.413,195.8l-.187-.109L293.2,183.549l21.217-12.25.188.109,21.03,12.141ZM294.7,183.549l19.716,11.383,19.715-11.383-19.716-11.383Z" transform="translate(-231.794 -135.849)" fill="#173d7a"/>
          <path id="Trazado_183903" data-name="Trazado 183903" d="M344.591,213.223l-.188-.109-21.03-12.142,21.217-12.25,21.218,12.251Zm-19.716-12.251,19.716,11.383,19.715-11.383L344.59,189.589Z" transform="translate(-241.505 -141.456)" fill="#173d7a"/>
          <path id="Trazado_183904" data-name="Trazado 183904" d="M374.769,230.646l-.188-.109L353.55,218.4l21.218-12.249.187.108L395.986,218.4ZM355.052,218.4l19.716,11.383L394.484,218.4l-19.716-11.383Z" transform="translate(-251.215 -147.062)" fill="#173d7a"/>
          <path id="Trazado_183905" data-name="Trazado 183905" d="M404.946,248.069l-21.218-12.251,21.217-12.25,21.218,12.251ZM385.23,235.818,404.946,247.2l19.715-11.383-19.716-11.383Z" transform="translate(-260.926 -152.668)" fill="#173d7a"/>
          <path id="Trazado_183906" data-name="Trazado 183906" d="M435.123,265.492l-21.217-12.25,21.217-12.251.187.109,21.031,12.142Zm-19.715-12.25,19.715,11.383,19.715-11.383-19.716-11.383Z" transform="translate(-270.636 -158.275)" fill="#173d7a"/>
          <path id="Trazado_183907" data-name="Trazado 183907" d="M465.3,282.915l-.188-.109-21.03-12.141L465.3,258.414l.187.109,21.031,12.142Zm-19.716-12.25L465.3,282.047l19.715-11.383L465.3,259.281Z" transform="translate(-280.347 -163.881)" fill="#173d7a"/>
          <path id="Trazado_183908" data-name="Trazado 183908" d="M495.479,300.338l-.188-.109L474.26,288.087l21.218-12.25L516.7,288.088Zm-19.717-12.251,19.717,11.383,19.715-11.383L495.478,276.7Z" transform="translate(-290.057 -169.488)" fill="#173d7a"/>
          <path id="Trazado_183909" data-name="Trazado 183909" d="M525.656,317.762,504.438,305.51l21.217-12.249.188.109,21.03,12.141ZM505.94,305.51l19.716,11.383,19.716-11.383-19.716-11.383Z" transform="translate(-299.768 -175.094)" fill="#173d7a"/>
          <path id="Trazado_183910" data-name="Trazado 183910" d="M223.881,178.376l-.187-.109-21.031-12.141,21.217-12.251L245.1,166.126Zm-19.716-12.25,19.716,11.383L243.6,166.126,223.88,154.742Z" transform="translate(-202.662 -130.242)" fill="#173d7a"/>
          <path id="Trazado_183911" data-name="Trazado 183911" d="M254.059,195.8,232.84,183.548,254.058,171.3l.187.109,21.031,12.141Zm-19.716-12.251,19.716,11.384,19.715-11.383-19.716-11.383Z" transform="translate(-212.373 -135.849)" fill="#173d7a"/>
          <path id="Trazado_183912" data-name="Trazado 183912" d="M284.236,213.223l-.187-.109-21.031-12.142,21.217-12.25.188.109,21.031,12.141ZM264.52,200.972l19.716,11.383,19.716-11.383-19.716-11.383Z" transform="translate(-222.083 -141.456)" fill="#173d7a"/>
          <path id="Trazado_183913" data-name="Trazado 183913" d="M314.414,230.646l-.187-.108L293.2,218.4l21.217-12.25.187.109L335.631,218.4ZM294.7,218.4l19.716,11.383L334.129,218.4l-19.716-11.383Z" transform="translate(-231.794 -147.062)" fill="#173d7a"/>
          <path id="Trazado_183914" data-name="Trazado 183914" d="M344.592,248.069l-.188-.109-21.03-12.141,21.217-12.25.187.109,21.031,12.141Zm-19.716-12.251L344.592,247.2l19.715-11.383-19.716-11.383Z" transform="translate(-241.505 -152.668)" fill="#173d7a"/>
          <path id="Trazado_183915" data-name="Trazado 183915" d="M374.77,265.491l-.188-.108-21.031-12.141,21.218-12.251,21.218,12.251Zm-19.716-12.25,19.716,11.383,19.715-11.382-19.716-11.383Z" transform="translate(-251.215 -158.274)" fill="#173d7a"/>
          <path id="Trazado_183916" data-name="Trazado 183916" d="M404.946,282.915l-21.217-12.251,21.217-12.25,21.218,12.251Zm-19.715-12.251,19.715,11.383,19.716-11.383-19.716-11.383Z" transform="translate(-260.926 -163.881)" fill="#173d7a"/>
          <path id="Trazado_183917" data-name="Trazado 183917" d="M435.124,300.338l-.187-.109-21.031-12.142,21.217-12.25.187.109,21.031,12.141Zm-19.716-12.251,19.716,11.383,19.715-11.383L435.123,276.7Z" transform="translate(-270.636 -169.488)" fill="#173d7a"/>
          <path id="Trazado_183918" data-name="Trazado 183918" d="M465.3,317.761l-.188-.109-21.03-12.142L465.3,293.26l.187.109L486.52,305.51ZM445.586,305.51,465.3,316.893l19.715-11.383L465.3,294.128Z" transform="translate(-280.347 -175.094)" fill="#173d7a"/>
          <path id="Trazado_183919" data-name="Trazado 183919" d="M495.48,335.184l-.188-.109-21.031-12.142,21.218-12.25L516.7,322.934Zm-19.717-12.251,19.717,11.383,19.715-11.382L495.479,311.55Z" transform="translate(-290.057 -180.7)" fill="#173d7a"/>
          <path id="Trazado_183920" data-name="Trazado 183920" d="M525.657,352.607l-.187-.109-21.031-12.141,21.217-12.25.188.109,21.03,12.141Zm-19.716-12.251,19.716,11.383,19.716-11.382-19.716-11.383Z" transform="translate(-299.768 -186.307)" fill="#173d7a"/>
          <path id="Trazado_183921" data-name="Trazado 183921" d="M223.882,213.222l-.187-.109-21.031-12.142,21.217-12.25L245.1,200.972Zm-19.716-12.251,19.716,11.383L243.6,200.972l-19.716-11.383Z" transform="translate(-202.663 -141.455)" fill="#173d7a"/>
          <path id="Trazado_183922" data-name="Trazado 183922" d="M254.06,230.645l-.188-.109-21.031-12.142,21.218-12.249.187.109L275.277,218.4Zm-19.716-12.251,19.716,11.383L273.775,218.4l-19.716-11.383Z" transform="translate(-212.373 -147.062)" fill="#173d7a"/>
          <path id="Trazado_183923" data-name="Trazado 183923" d="M284.237,248.069l-21.218-12.251,21.217-12.249.188.109,21.031,12.141Zm-19.716-12.251L284.237,247.2l19.716-11.383-19.716-11.383Z" transform="translate(-222.084 -152.668)" fill="#173d7a"/>
          <path id="Trazado_183924" data-name="Trazado 183924" d="M314.415,265.491l-.187-.108L293.2,253.241l21.217-12.251.187.109,21.031,12.142ZM294.7,253.241l19.716,11.383,19.715-11.383-19.716-11.383Z" transform="translate(-231.794 -158.274)" fill="#173d7a"/>
          <path id="Trazado_183925" data-name="Trazado 183925" d="M344.593,282.914l-.188-.108-21.03-12.141,21.217-12.251.187.109,21.031,12.142Zm-19.716-12.25,19.716,11.383,19.715-11.383-19.716-11.383Z" transform="translate(-241.505 -163.881)" fill="#173d7a"/>
          <path id="Trazado_183926" data-name="Trazado 183926" d="M374.77,300.337l-21.218-12.25,21.218-12.251,21.217,12.251Zm-19.716-12.25,19.716,11.383,19.715-11.383L374.77,276.7Z" transform="translate(-251.216 -169.487)" fill="#173d7a"/>
          <path id="Trazado_183927" data-name="Trazado 183927" d="M404.947,317.76l-.187-.108-21.031-12.142,21.217-12.249.188.109,21.03,12.141Zm-19.716-12.251,19.716,11.383,19.716-11.383-19.717-11.382Z" transform="translate(-260.926 -175.094)" fill="#173d7a"/>
          <path id="Trazado_183928" data-name="Trazado 183928" d="M435.125,335.184l-21.218-12.251,21.217-12.249.187.108,21.031,12.142Zm-19.716-12.251,19.716,11.383,19.715-11.383L435.124,311.55Z" transform="translate(-270.637 -180.7)" fill="#173d7a"/>
          <path id="Trazado_183929" data-name="Trazado 183929" d="M465.3,352.607l-.188-.109-21.03-12.141,21.217-12.25.187.109,21.031,12.141Zm-19.716-12.251L465.3,351.739l19.715-11.383L465.3,328.974Z" transform="translate(-280.347 -186.307)" fill="#173d7a"/>
          <path id="Trazado_183930" data-name="Trazado 183930" d="M223.883,248.068l-.188-.109-21.03-12.141,21.217-12.25.187.109L245.1,235.817Zm-19.716-12.251L223.883,247.2,243.6,235.817l-19.716-11.383Z" transform="translate(-202.663 -152.668)" fill="#173d7a"/>
          <path id="Trazado_183931" data-name="Trazado 183931" d="M254.061,265.49l-.188-.108L232.842,253.24l21.218-12.251,21.218,12.251Zm-19.717-12.25,19.717,11.383,19.715-11.382L254.06,241.857Z" transform="translate(-212.373 -158.274)" fill="#173d7a"/>
          <path id="Trazado_183932" data-name="Trazado 183932" d="M284.238,282.914,263.02,270.663l21.217-12.25.188.109,21.031,12.142Zm-19.716-12.251,19.716,11.383,19.716-11.383-19.716-11.383Z" transform="translate(-222.084 -163.881)" fill="#173d7a"/>
          <path id="Trazado_183933" data-name="Trazado 183933" d="M314.416,300.337l-.187-.108L293.2,288.087l21.217-12.251.187.109,21.031,12.142ZM294.7,288.087l19.716,11.383,19.715-11.383L314.415,276.7Z" transform="translate(-231.795 -169.487)" fill="#173d7a"/>
          <path id="Trazado_183934" data-name="Trazado 183934" d="M344.594,317.76l-.188-.108-21.03-12.142,21.217-12.25,21.217,12.25Zm-19.717-12.251,19.717,11.383,19.714-11.383-19.715-11.383Z" transform="translate(-241.506 -175.094)" fill="#173d7a"/>
          <path id="Trazado_183935" data-name="Trazado 183935" d="M374.771,335.183l-21.218-12.251,21.217-12.25.187.108,21.031,12.141Zm-19.716-12.251,19.716,11.383,19.715-11.383L374.77,311.549Z" transform="translate(-251.216 -180.7)" fill="#173d7a"/>
          <path id="Trazado_183936" data-name="Trazado 183936" d="M404.948,352.606l-.187-.109L383.73,340.355l21.217-12.25,21.218,12.251Zm-19.716-12.251,19.716,11.383,19.716-11.382-19.716-11.383Z" transform="translate(-260.926 -186.306)" fill="#173d7a"/>
          <path id="Trazado_183937" data-name="Trazado 183937" d="M223.884,282.913l-.188-.108-21.03-12.141,21.217-12.251.187.109L245.1,270.663Zm-19.716-12.25,19.716,11.383L243.6,270.663,223.883,259.28Z" transform="translate(-202.663 -163.88)" fill="#173d7a"/>
          <path id="Trazado_183938" data-name="Trazado 183938" d="M254.062,300.336l-.188-.108-21.031-12.141,21.218-12.251,21.218,12.251Zm-19.716-12.25,19.716,11.383,19.715-11.382L254.061,276.7Z" transform="translate(-212.374 -169.487)" fill="#173d7a"/>
          <path id="Trazado_183939" data-name="Trazado 183939" d="M284.239,317.759l-.187-.109-21.031-12.142,21.217-12.249.188.109,21.03,12.141Zm-19.716-12.251,19.716,11.383,19.716-11.383-19.716-11.383Z" transform="translate(-222.084 -175.094)" fill="#173d7a"/>
          <path id="Trazado_183940" data-name="Trazado 183940" d="M314.417,335.183,293.2,322.931l21.217-12.249.187.108,21.031,12.141ZM294.7,322.931l19.716,11.383,19.715-11.383-19.716-11.383Z" transform="translate(-231.795 -180.7)" fill="#173d7a"/>
          <path id="Trazado_183941" data-name="Trazado 183941" d="M344.594,352.606l-21.217-12.251,21.217-12.25,21.217,12.25Zm-19.716-12.251,19.716,11.383,19.715-11.383-19.715-11.383Z" transform="translate(-241.506 -186.306)" fill="#173d7a"/>
          <path id="Trazado_183942" data-name="Trazado 183942" d="M223.885,317.759l-.188-.108-21.03-12.142,21.217-12.25.187.109L245.1,305.508Zm-19.717-12.251,19.717,11.383L243.6,305.508l-19.716-11.383Z" transform="translate(-202.664 -175.093)" fill="#173d7a"/>
          <path id="Trazado_183943" data-name="Trazado 183943" d="M254.063,335.182l-.188-.109-21.031-12.142,21.218-12.25.187.109,21.031,12.141Zm-19.716-12.251,19.716,11.383,19.715-11.383-19.716-11.383Z" transform="translate(-212.374 -180.7)" fill="#173d7a"/>
          <path id="Trazado_183944" data-name="Trazado 183944" d="M284.24,352.6l-.187-.109-21.031-12.141,21.217-12.25,21.218,12.251Zm-19.716-12.251,19.716,11.383,19.716-11.382-19.716-11.383Z" transform="translate(-222.085 -186.306)" fill="#173d7a"/>
          <path id="Trazado_183945" data-name="Trazado 183945" d="M223.886,352.6l-.188-.109-21.03-12.141,21.217-12.25.187.109L245.1,340.354ZM204.17,340.354l19.717,11.383L243.6,340.354l-19.716-11.383Z" transform="translate(-202.664 -186.306)" fill="#173d7a"/>
        </g>
        <g id="Grupo_41977" data-name="Grupo 41977">
          <path id="Trazado_95347" data-name="Trazado 95347" d="M310.1,202.551l19.025-10.984a13.942,13.942,0,0,1,12.614,0l8.188,4.966,66.081,38.153c3.484,2.01,3.484,5.271,0,7.282L358.3,275.287" transform="translate(-125.335 -114.88)" fill="none" stroke="#00223d" stroke-linecap="round" stroke-linejoin="round" stroke-width="3"/>
          <path id="Trazado_95348" data-name="Trazado 95348" d="M118.68,174.41l36.958-21.338a13.943,13.943,0,0,1,12.613,0l8.189,4.967L218.2,182.147" transform="translate(-57.496 -101.237)" fill="none" stroke="#00223d" stroke-linecap="round" stroke-linejoin="round" stroke-width="3"/>
          <path id="Trazado_95349" data-name="Trazado 95349" d="M94.878,309.651,37.956,276.787c-3.484-2.012-3.484-5.273,0-7.283l61.618-35.576" transform="translate(-27.961 -130.427)" fill="none" stroke="#00223d" stroke-linecap="round" stroke-linejoin="round" stroke-width="3"/>
          <line id="Línea_335" data-name="Línea 335" x1="43.88" y2="25.948" transform="translate(61.184 145.706)" fill="none" stroke="#00223d" stroke-linecap="round" stroke-linejoin="round" stroke-width="3"/>
          <line id="Línea_336" data-name="Línea 336" x1="72.526" y2="42.117" transform="translate(105.198 98.521)" fill="none" stroke="#00223d" stroke-linecap="round" stroke-linejoin="round" stroke-width="3"/>
          <path id="Trazado_95350" data-name="Trazado 95350" d="M256.85,351.661,189.69,390.436a13.944,13.944,0,0,1-12.614,0l-53.442-30.855" transform="translate(-59.252 -172.151)" fill="none" stroke="#00223d" stroke-linecap="round" stroke-linejoin="round" stroke-width="3"/>
          <path id="Trazado_95351" data-name="Trazado 95351" d="M303.854,204.672l-56.961-32.886a1.062,1.062,0,0,0-1.064,0l-26.317,15.194a1.064,1.064,0,0,0,0,1.843l56.961,32.886a1.059,1.059,0,0,0,1.064,0l26.317-15.193a1.064,1.064,0,0,0,0-1.843Z" transform="translate(-93.042 -108.353)" opacity="0.2" style="mix-blend-mode: multiply;isolation: isolate"/>
          <g id="Grupo_41938" data-name="Grupo 41938" transform="translate(127.003 0)">
            <path id="Trazado_95352" data-name="Trazado 95352" d="M335.175,188.2,308.858,203.39V139.4l26.316-15.194Z" transform="translate(-251.897 -91.542)" fill="url(#linear-gradient)"/>
            <path id="Trazado_95353" data-name="Trazado 95353" d="M335.175,142.832l-26.316,15.193v-1.588l26.316-15.194Z" transform="translate(-251.897 -97.58)" fill="#00223d"/>
            <path id="Trazado_95354" data-name="Trazado 95354" d="M335.175,162.872l-26.316,15.194v-1.588l26.316-15.194Z" transform="translate(-251.897 -104.682)" fill="#00223d"/>
            <path id="Trazado_95355" data-name="Trazado 95355" d="M335.175,182.913l-26.316,15.194v-1.588l26.316-15.194Z" transform="translate(-251.897 -111.785)" fill="#00223d"/>
            <path id="Trazado_95356" data-name="Trazado 95356" d="M335.175,202.954l-26.316,15.194V216.56l26.316-15.194Z" transform="translate(-251.897 -118.887)" fill="#00223d"/>
            <path id="Trazado_95357" data-name="Trazado 95357" d="M330.058,222.955a4.01,4.01,0,0,1-1.814,3.141c-1,.578-1.814.11-1.814-1.047a4.008,4.008,0,0,1,1.814-3.141C329.246,221.329,330.059,221.8,330.058,222.955Z" transform="translate(-258.125 -126.079)" fill="#00223d"/>
            <g id="Grupo_41937" data-name="Grupo 41937" transform="translate(61.369 91.321)">
              <path id="Trazado_95358" data-name="Trazado 95358" d="M317.5,228.11a4.013,4.013,0,0,0-1.814,3.141c0,1.157.813,1.626,1.814,1.047a4,4,0,0,0,1.815-3.141C319.314,228,318.5,227.532,317.5,228.11Z" transform="translate(-315.686 -219.599)" fill="#2ec49f"/>
              <path id="Trazado_95359" data-name="Trazado 95359" d="M339.671,215.309a4.015,4.015,0,0,0-1.815,3.143c0,1.156.813,1.626,1.815,1.047a4.008,4.008,0,0,0,1.814-3.143C341.485,215.2,340.673,214.732,339.671,215.309Z" transform="translate(-323.543 -215.062)" fill="#e2c140"/>
            </g>
            <path id="Trazado_95360" data-name="Trazado 95360" d="M277.589,193.678l-56.96-32.886V96.8l56.961,32.886Z" transform="translate(-220.629 -81.83)" fill="url(#linear-gradient)"/>
            <path id="Trazado_95361" data-name="Trazado 95361" d="M277.589,121.691,220.629,88.8l26.317-15.194,56.96,32.887Z" transform="translate(-220.629 -73.611)" fill="#d2e1f1"/>
            <path id="Trazado_95362" data-name="Trazado 95362" d="M277.589,148.314l-56.96-32.886V113.84l56.96,32.886Z" transform="translate(-220.629 -87.868)" fill="#21587b"/>
            <path id="Trazado_95363" data-name="Trazado 95363" d="M277.59,168.354l-56.961-32.886V133.88l56.961,32.886Z" transform="translate(-220.629 -94.97)" fill="#21587b"/>
            <path id="Trazado_95364" data-name="Trazado 95364" d="M277.59,188.395l-56.961-32.886v-1.588l56.961,32.886Z" transform="translate(-220.629 -102.073)" fill="#21587b"/>
            <path id="Trazado_95365" data-name="Trazado 95365" d="M277.589,208.436l-56.96-32.887v-1.588l56.961,32.886Z" transform="translate(-220.629 -109.175)" fill="#21587b"/>
          </g>
          <path id="Trazado_95366" data-name="Trazado 95366" d="M234.539,305.786,181.4,275.107a5.643,5.643,0,0,0-5.222,0l-31.326,18.086a2.342,2.342,0,0,0,0,4.293l53.136,30.679a5.642,5.642,0,0,0,5.222,0l31.327-18.087a2.342,2.342,0,0,0,0-4.293Z" transform="translate(-66.274 -144.794)" opacity="0.2" style="mix-blend-mode: multiply;isolation: isolate"/>
          <g id="Grupo_41939" data-name="Grupo 41939" transform="translate(78.283 127.359)">
            <path id="Trazado_95367" data-name="Trazado 95367" d="M235.444,303.457v-.206a1.438,1.438,0,0,0-.85-1.2l-53.136-30.678a4.547,4.547,0,0,0-4.114,0l-31.327,18.086a1.442,1.442,0,0,0-.851,1.2v.448a.148.148,0,0,0,0,.017v.058a.159.159,0,0,0,0,.017v.8a.146.146,0,0,0,0,.017v1.437a1.439,1.439,0,0,0,.851,1.2l53.136,30.678a4.551,4.551,0,0,0,4.114,0l31.327-18.087a1.438,1.438,0,0,0,.85-1.2v-2.59Z" transform="translate(-145.165 -270.883)" fill="#00223d"/>
            <path id="Trazado_95368" data-name="Trazado 95368" d="M234.593,302.053a1.254,1.254,0,0,1,0,2.376l-31.326,18.086a4.547,4.547,0,0,1-4.114,0l-53.136-30.677a1.255,1.255,0,0,1,0-2.377l31.327-18.086a4.548,4.548,0,0,1,4.114,0Z" transform="translate(-145.164 -270.883)" fill="url(#linear-gradient)"/>
            <path id="Trazado_95369" data-name="Trazado 95369" d="M227.206,302.054a.992.992,0,0,1,0,1.88l-24.8,14.318a3.607,3.607,0,0,1-3.257,0l-39.3-22.692a.992.992,0,0,1,0-1.88l24.8-14.317a3.6,3.6,0,0,1,3.257,0Z" transform="translate(-150.13 -273.75)" fill="#00223d"/>
            <path id="Trazado_95370" data-name="Trazado 95370" d="M226.291,302.74c.853.492.872,1.281.041,1.763l-22.938,13.243a3.376,3.376,0,0,1-3.052-.021l-37.293-21.533c-.854-.493-.87-1.281-.039-1.762l22.937-13.243a3.375,3.375,0,0,1,3.052.023Z" transform="translate(-151.271 -274.409)" fill="#a6e4ff"/>
            <path id="Trazado_95371" data-name="Trazado 95371" d="M163.048,297.877l3.757,2.169q7.221-7.224,14.434-14.456L163.01,296.115C162.178,296.6,162.194,297.384,163.048,297.877Z" transform="translate(-151.271 -276.095)" fill="#bfecff"/>
            <path id="Trazado_95372" data-name="Trazado 95372" d="M221.27,297.637l-6.8-3.924-19,19,6.8,3.924Z" transform="translate(-162.995 -278.974)" fill="#bfecff"/>
            <path id="Trazado_95373" data-name="Trazado 95373" d="M221.862,327.153l18.5-18.5-3.821-2.206-19,19,2.344,1.354A3.346,3.346,0,0,0,221.862,327.153Z" transform="translate(-170.814 -283.488)" fill="#bfecff"/>
            <path id="Trazado_95374" data-name="Trazado 95374" d="M201.809,286.39l-2.087-1.205q-9.47,9.519-18.962,19.017l2.052,1.185Q192.311,295.888,201.809,286.39Z" transform="translate(-157.779 -275.952)" fill="#bfecff"/>
            <path id="Trazado_95375" data-name="Trazado 95375" d="M178.1,283.6a.553.553,0,0,1,0,1.048l-9.086,5.247a2.014,2.014,0,0,1-1.819,0h0a.554.554,0,0,1,0-1.049l9.087-5.247a2,2,0,0,1,1.818,0Z" transform="translate(-152.839 -275.314)" fill="#00223d"/>
            <path id="Trazado_95376" data-name="Trazado 95376" d="M252.782,329.752c1.561.9,1.561,2.363,0,3.265a6.255,6.255,0,0,1-5.655,0c-1.561-.9-1.561-2.363,0-3.265A6.253,6.253,0,0,1,252.782,329.752Z" transform="translate(-180.885 -291.507)" fill="#fff"/>
            <path id="Trazado_95377" data-name="Trazado 95377" d="M252.542,330.855a1.068,1.068,0,0,1,0,2.023,3.871,3.871,0,0,1-3.5,0,1.068,1.068,0,0,1,0-2.023A3.879,3.879,0,0,1,252.542,330.855Z" transform="translate(-181.72 -291.989)" fill="#66797a"/>
            <path id="Trazado_95378" data-name="Trazado 95378" d="M239.149,337.156a.432.432,0,0,1,0,.817l-7.472,4.313a1.56,1.56,0,0,1-1.413,0h0a.43.43,0,0,1,0-.815l7.472-4.315a1.563,1.563,0,0,1,1.414,0Z" transform="translate(-175.219 -294.31)" fill="#00223d"/>
            <path id="Trazado_95379" data-name="Trazado 95379" d="M268.838,320.014a.432.432,0,0,1,0,.817l-7.471,4.314a1.57,1.57,0,0,1-1.415,0h0a.43.43,0,0,1,0-.815l7.472-4.315a1.563,1.563,0,0,1,1.414,0Z" transform="translate(-185.741 -288.235)" fill="#00223d"/>
          </g>
          <path id="Trazado_95380" data-name="Trazado 95380" d="M144.358,183.7,98.6,157.28a8.846,8.846,0,0,0-4.3-1.139,5.727,5.727,0,0,0-2.856.677L25.6,194.836a3.179,3.179,0,0,0-1.693,2.77,4.355,4.355,0,0,0,2.493,3.6l45.754,26.415a8.842,8.842,0,0,0,4.3,1.139,5.723,5.723,0,0,0,2.857-.679l65.847-38.016a3.178,3.178,0,0,0,1.694-2.77A4.353,4.353,0,0,0,144.358,183.7Z" transform="translate(-23.909 -102.859)" opacity="0.2" style="mix-blend-mode: multiply;isolation: isolate"/>
          <g id="Grupo_41940" data-name="Grupo 41940" transform="translate(1.942 51.855)">
            <path id="Trazado_95381" data-name="Trazado 95381" d="M145.971,184.463c0-.008,0-.016,0-.023s0-.016,0-.024,0-.015,0-.024,0-.016,0-.024,0-.016,0-.025,0-.015,0-.023V184.3c0-.008,0-.016,0-.024s0-.016,0-.024,0-.015,0-.023,0-.016,0-.025,0-.016,0-.023,0-.016,0-.024,0-.016,0-.024,0-.015,0-.024,0-.015,0-.023,0-.017,0-.024,0-.016,0-.024,0-.016,0-.023,0-.016,0-.025,0-.016,0-.024,0-.015,0-.022v-.025c0-.008,0-.016,0-.024s0-.016,0-.024,0-.016,0-.023,0-.016,0-.025,0-.016,0-.023,0-.016,0-.024,0-.016,0-.024,0-.015,0-.024,0-.015,0-.024,0-.016,0-.023,0-.016,0-.024,0-.016,0-.024,0-.015,0-.024,0-.016,0-.024,0-.015,0-.023,0-.016,0-.024,0-.016,0-.024,0-.015,0-.021,0-.019,0-.028,0-.014,0-.021,0-.016,0-.024,0-.016,0-.024,0-.016,0-.024,0-.016,0-.023,0-.016,0-.024,0-.016,0-.025,0-.016,0-.023,0-.03,0-.045c.049-.652-.48-1.4-1.519-2.005L98.7,154.811c-1.659-.958-3.993-1.165-5.211-.462L27.64,192.367a1.275,1.275,0,0,0-.72,1.027c0,.024,0,.048,0,.072s0,.017,0,.026,0,.015,0,.024,0,.016,0,.023,0,.016,0,.024,0,.016,0,.024,0,.016,0,.024,0,.016,0,.025,0,.015,0,.022,0,.017,0,.025,0,.016,0,.024,0,.016,0,.024,0,.016,0,.024,0,.015,0,.023,0,.016,0,.024,0,.016,0,.024,0,.016,0,.024,0,.016,0,.024,0,.016,0,.023,0,.016,0,.025,0,.015,0,.023,0,.017,0,.025,0,.015,0,.023,0,.016,0,.025,0,.015,0,.024,0,.016,0,.023,0,.016,0,.024,0,.015,0,.023,0,.017,0,.025,0,.016,0,.023,0,.016,0,.024,0,.016,0,.023,0,.017,0,.025,0,.016,0,.024,0,.015,0,.024,0,.015,0,.023,0,.016,0,.025,0,.016,0,.023,0,.016,0,.024,0,.016,0,.024,0,.016,0,.024,0,.016,0,.025,0,.015,0,.021,0,.017,0,.025,0,.016,0,.024,0,.016,0,.023,0,.016,0,.024,0,.016,0,.024,0,.016,0,.025,0,.016,0,.024,0,.015,0,.023,0,.016,0,.024,0,.016,0,.024,0,.016,0,.024,0,.015,0,.024,0,.016,0,.024,0,.015,0,.023,0,.017,0,.024,0,.016,0,.024,0,.016,0,.024,0,.016,0,.023,0,.016,0,.025,0,.015,0,.024,0,.016,0,.023,0,.016,0,.024,0,.016,0,.025,0,.015,0,.023,0,.016,0,.023,0,.017,0,.025,0,.016,0,.024,0,.015,0,.023,0,.016,0,.025,0,.016,0,.023,0,.016,0,.024,0,.016,0,.024,0,.016,0,.024,0,.016,0,.024,0,.015,0,.023,0,.016,0,.024,0,.016,0,.024,0,.016,0,.024,0,.016,0,.024,0,.016,0,.024,0,.016,0,.024,0,.015,0,.023,0,.016,0,.024,0,.016,0,.024,0,.016,0,.023,0,.016,0,.025,0,.016,0,.023,0,.016,0,.024,0,.016,0,.024,0,.015,0,.024,0,.016,0,.024,0,.015,0,.023,0,.016,0,.024,0,.016,0,.024,0,.016,0,.024,0,.015,0,.024,0,.015,0,.024,0,.016,0,.024,0,.015,0,.023,0,.016,0,.024,0,.015,0,.024,0,.016,0,.023,0,.017,0,.024,0,.016,0,.024,0,.016,0,.024,0,.015,0,.023,0,.016,0,.024,0,.016,0,.024,0,.016,0,.024,0,.016,0,.024,0,.015,0,.024,0,.016,0,.024,0,.016,0,.023,0,.016,0,.025,0,.016,0,.024,0,.015,0,.023,0,.016,0,.024,0,.016,0,.023,0,.017,0,.024,0,.016,0,.024,0,.016,0,.024,0,.016,0,.023,0,.016,0,.024,0,.016,0,.025,0,.015,0,.023,0,.016,0,.024,0,.015,0,.023,0,.016,0,.025,0,.015,0,.024,0,.016,0,.024,0,.015,0,.023,0,.015,0,.024,0,.016,0,.024,0,.016,0,.023,0,.017,0,.024,0,.016,0,.024,0,.016,0,.024,0,.016,0,.023,0,.016,0,.024,0,.016,0,.024,0,.016,0,.024,0,.016,0,.024,0,.015,0,.024,0,.015,0,.023,0,.017,0,.025c-.048.651.48,1.4,1.518,2l45.754,26.415c1.659.958,3.992,1.165,5.211.462l65.847-38.018a1.276,1.276,0,0,0,.72-1.03c0-.008,0-.016,0-.024s0-.016,0-.023,0-.016,0-.025,0-.016,0-.024,0-.015,0-.023,0-.016,0-.025,0-.015,0-.023,0-.017,0-.024,0-.016,0-.024,0-.016,0-.024,0-.015,0-.024,0-.016,0-.024,0-.016,0-.023,0-.016,0-.025,0-.015,0-.023,0-.016,0-.024,0-.016,0-.023,0-.016,0-.025,0-.016,0-.024,0-.016,0-.023,0-.016,0-.024,0-.016,0-.024,0-.015,0-.024,0-.016,0-.023,0-.016,0-.024,0-.016,0-.024,0-.016,0-.024,0-.015,0-.024,0-.016,0-.023,0-.016,0-.025,0-.015,0-.023,0-.016,0-.024,0-.016,0-.024,0-.016,0-.023,0-.016,0-.025,0-.016,0-.023,0-.016,0-.024,0-.016,0-.024,0-.015,0-.024,0-.015,0-.023,0-.016,0-.024,0-.016,0-.024,0-.016,0-.024,0-.015,0-.024,0-.015,0-.024,0-.016,0-.023,0-.016,0-.024,0-.016,0-.024,0-.016,0-.024,0-.016,0-.024,0-.015,0-.023,0-.016,0-.025,0-.015,0-.023,0-.016,0-.024,0-.016,0-.024,0-.016,0-.024,0-.015,0-.023,0-.016,0-.024,0-.016,0-.024,0-.016,0-.024,0-.015,0-.024,0-.016,0-.023,0-.016,0-.024,0-.016,0-.024,0-.016,0-.023,0-.016,0-.024,0-.016,0-.024,0-.016,0-.024,0-.016,0-.024,0-.016,0-.024,0-.016,0-.024,0-.016,0-.023,0-.016,0-.024,0-.016,0-.024,0-.016,0-.024,0-.016,0-.024,0-.015,0-.023,0-.017,0-.026,0-.016,0-.023,0-.016,0-.023,0-.015,0-.023,0-.017,0-.025,0-.016,0-.025,0-.015,0-.022,0-.016,0-.024,0-.016,0-.023,0-.016,0-.025,0-.016,0-.023,0-.016,0-.024,0-.016,0-.024,0-.015,0-.024,0-.016,0-.024,0-.015,0-.023,0-.016,0-.024,0-.016,0-.025,0-.016,0-.023,0-.015,0-.023S145.971,184.471,145.971,184.463Z" transform="translate(-26.917 -153.932)" fill="#00223d"/>
            <path id="Trazado_95382" data-name="Trazado 95382" d="M79.4,222.252c-1.219.7-3.552.5-5.211-.462L28.439,195.376c-1.659-.959-2.017-2.305-.8-3.009l65.847-38.018c1.218-.7,3.552-.5,5.211.462l45.753,26.415c1.66.959,2.018,2.305.8,3.009Z" transform="translate(-26.917 -153.932)" fill="url(#linear-gradient)"/>
            <path id="Trazado_95383" data-name="Trazado 95383" d="M92.489,218.04a5.339,5.339,0,0,1-4.73-.374l-40.945-23.64c-1.484-.857-1.775-2.079-.648-2.731l50.9-29.387a5.337,5.337,0,0,1,4.73.374l40.945,23.64c1.485.857,1.775,2.079.648,2.73Z" transform="translate(-33.496 -156.618)" fill="#00223d"/>
            <path id="Trazado_95384" data-name="Trazado 95384" d="M93.668,217.267a4.974,4.974,0,0,1-4.424-.317L51.369,195.081c-1.373-.793-1.62-1.936-.551-2.554L99.2,164.593a4.973,4.973,0,0,1,4.424.318L141.5,186.779c1.374.793,1.62,1.937.551,2.554Z" transform="translate(-35.152 -157.574)" fill="#1e2729"/>
            <path id="Trazado_95385" data-name="Trazado 95385" d="M51.369,207.828l.4.229,7.882-7.881-8.829,5.1C49.748,205.891,50,207.035,51.369,207.828Z" transform="translate(-35.152 -170.321)" fill="#2b383b"/>
            <path id="Trazado_95386" data-name="Trazado 95386" d="M105.835,164.233a3.825,3.825,0,0,0-2.163.362l-15.185,8.767-25.72,25.72,5.21,3.008Z" transform="translate(-39.622 -157.576)" fill="#2b383b"/>
            <path id="Trazado_95387" data-name="Trazado 95387" d="M139.248,181.041l-6.042-3.489L94.951,215.806l6.042,3.488Z" transform="translate(-51.028 -162.303)" fill="#2b383b"/>
            <path id="Trazado_95388" data-name="Trazado 95388" d="M158.071,191.683l-5-2.888L115.523,226.34a3.193,3.193,0,0,0,1.313-.36l16.417-9.478Z" transform="translate(-58.319 -166.287)" fill="#2b383b"/>
            <path id="Trazado_95389" data-name="Trazado 95389" d="M187.777,199.147l-.067-.039q-3.488,3.49-6.979,6.979l7.6-4.386C189.4,201.084,189.151,199.94,187.777,199.147Z" transform="translate(-81.429 -169.942)" fill="#2b383b"/>
            <path id="Trazado_95390" data-name="Trazado 95390" d="M121.714,170.917l-2.509-1.448L80.951,207.723l2.509,1.448Z" transform="translate(-46.067 -159.438)" fill="#2b383b"/>
            <path id="Trazado_95391" data-name="Trazado 95391" d="M171.469,179.734a2.151,2.151,0,0,1-1.949,0l-9.745-5.626a.594.594,0,0,1,0-1.125h0a2.154,2.154,0,0,1,1.949,0l9.745,5.626a.593.593,0,0,1,0,1.125Z" transform="translate(-73.859 -160.601)" fill="#324245"/>
            <path id="Trazado_95392" data-name="Trazado 95392" d="M72.849,234.667a6.7,6.7,0,0,1-6.063,0c-1.675-.966-1.675-2.535,0-3.5a6.7,6.7,0,0,1,6.063,0C74.523,232.133,74.523,233.7,72.849,234.667Z" transform="translate(-40.601 -181.047)" fill="#00223d"/>
            <path id="Trazado_95393" data-name="Trazado 95393" d="M72.591,234.519a4.155,4.155,0,0,1-3.757,0,1.145,1.145,0,0,1,0-2.169,4.149,4.149,0,0,1,3.756,0A1.145,1.145,0,0,1,72.591,234.519Z" transform="translate(-41.497 -181.564)" fill="#4b6366"/>
            <path id="Trazado_95394" data-name="Trazado 95394" d="M55.275,224.522a1.676,1.676,0,0,1-1.517,0l-13.183-7.61c-.57-.329-.692-.791-.274-1.034h0a2.031,2.031,0,0,1,1.79.158l13.183,7.612a.462.462,0,0,1,0,.875Z" transform="translate(-31.572 -175.834)" fill="#00223d"/>
            <path id="Trazado_95395" data-name="Trazado 95395" d="M95.511,247.751a2.031,2.031,0,0,1-1.79-.158l-13.184-7.612a.462.462,0,0,1,0-.875h0a1.677,1.677,0,0,1,1.516,0l13.183,7.612c.571.329.693.792.275,1.033Z" transform="translate(-45.809 -184.053)" fill="#00223d"/>
          </g>
          <path id="Trazado_95396" data-name="Trazado 95396" d="M403.927,327.353,374.545,310.39a7.8,7.8,0,0,0-7.2,0L295.107,352.1a3.093,3.093,0,0,0,0,5.69l29.383,16.964a7.806,7.806,0,0,0,7.2,0l72.235-41.706a3.092,3.092,0,0,0,0-5.691Z" transform="translate(-119.355 -157.213)" opacity="0.2" style="mix-blend-mode: multiply;isolation: isolate"/>
          <path id="Trazado_95397" data-name="Trazado 95397" d="M184.266,397.4a7.634,7.634,0,0,1-6.908,0c-1.908-1.1-1.908-2.886,0-3.988a7.63,7.63,0,0,1,6.908,0C186.174,394.511,186.174,396.3,184.266,397.4Z" transform="translate(-77.784 -186.654)" fill="#00223d"/>
          <path id="Trazado_95398" data-name="Trazado 95398" d="M76.054,321.1a7.634,7.634,0,0,1-6.908,0c-1.908-1.1-1.908-2.886,0-3.987a7.626,7.626,0,0,1,6.908,0C77.961,318.211,77.961,320,76.054,321.1Z" transform="translate(-39.434 -159.613)" fill="#00223d"/>
          <path id="Trazado_95399" data-name="Trazado 95399" d="M144.863,324.684a7.634,7.634,0,0,1-6.908,0c-1.908-1.1-1.908-2.887,0-3.988a7.63,7.63,0,0,1,6.908,0C146.771,321.8,146.771,323.583,144.863,324.684Z" transform="translate(-63.82 -160.885)" fill="#00223d"/>
          <path id="Trazado_95400" data-name="Trazado 95400" d="M257.208,250.874a7.633,7.633,0,0,1-6.907,0c-1.908-1.1-1.908-2.887,0-3.988a7.629,7.629,0,0,1,6.907,0C259.115,247.987,259.115,249.772,257.208,250.874Z" transform="translate(-103.635 -134.726)" fill="#00223d"/>
          <path id="Trazado_95401" data-name="Trazado 95401" d="M410.567,222.089a7.634,7.634,0,0,1-6.908,0c-1.907-1.1-1.907-2.886,0-3.988a7.63,7.63,0,0,1,6.908,0C412.475,219.2,412.475,220.988,410.567,222.089Z" transform="translate(-157.985 -124.525)" fill="#00223d"/>
          <path id="Trazado_95402" data-name="Trazado 95402" d="M178.684,154.377a7.636,7.636,0,0,1-6.909,0c-1.908-1.1-1.908-2.886,0-3.988a7.635,7.635,0,0,1,6.909,0C180.592,151.491,180.592,153.277,178.684,154.377Z" transform="translate(-75.806 -100.528)" fill="#00223d"/>
          <path id="Trazado_95403" data-name="Trazado 95403" d="M132.334,366.132,96.345,345.355a7.35,7.35,0,0,0-6.77,0L53.586,366.134a2.814,2.814,0,0,0,0,5.193l35.99,20.779a7.35,7.35,0,0,0,6.769,0l35.989-20.779a2.816,2.816,0,0,0,0-5.2Z" transform="translate(-33.814 -169.624)" opacity="0.2" style="mix-blend-mode: multiply;isolation: isolate"/>
          <g id="Grupo_41943" data-name="Grupo 41943" transform="translate(19.157 144.529)">
            <path id="Trazado_95404" data-name="Trazado 95404" d="M92.4,387.295,56.41,366.516a5.716,5.716,0,0,1-1.914-1.969,2.34,2.34,0,0,1-.914.268V372.1A6.254,6.254,0,0,0,56.41,377L92.4,397.779c1.562.9,2.828-.272,2.828-2.075V385.663C95.227,387.465,93.961,388.2,92.4,387.295Z" transform="translate(-53.582 -321.248)" fill="url(#linear-gradient)"/>
            <path id="Trazado_95405" data-name="Trazado 95405" d="M154.581,364.935h-.775a5.8,5.8,0,0,1-2.03,2.167l-35.99,19.535c-1.562.9-2.828,1.415-2.828-.389v10.035c0,1.8,1.266,2.533,2.828,1.633l35.99-20.779a6.253,6.253,0,0,0,2.828-4.9v-7.306Z" transform="translate(-74.624 -321.384)" fill="#e1eef2"/>
            <path id="Trazado_95406" data-name="Trazado 95406" d="M151.925,379.356l-29.772,17.189v-5.293l29.771-17.189Z" transform="translate(-77.884 -324.62)" fill="#00223d"/>
            <g id="Grupo_41941" data-name="Grupo 41941" transform="translate(45.254 50.811)">
              <path id="Trazado_95407" data-name="Trazado 95407" d="M123.678,403.228l.8-.463.062.625,1.168-.672.062-.7.8-.464V398.21l-2.9,1.673Z" transform="translate(-123.678 -383.989)" fill="url(#linear-gradient)"/>
              <path id="Trazado_95408" data-name="Trazado 95408" d="M130.037,399.559l.8-.464.062.627,1.167-.674.063-.7.8-.463V394.54l-2.9,1.671Z" transform="translate(-125.932 -382.688)" fill="url(#linear-gradient)"/>
              <path id="Trazado_95409" data-name="Trazado 95409" d="M136.4,395.887l.8-.463.063.626,1.167-.674.062-.7.8-.463v-3.346l-2.9,1.673Z" transform="translate(-128.185 -381.387)" fill="url(#linear-gradient)"/>
              <path id="Trazado_95410" data-name="Trazado 95410" d="M142.754,392.215l.8-.463.063.626,1.166-.674.063-.7.8-.464V387.2l-2.9,1.673Z" transform="translate(-130.439 -380.086)" fill="url(#linear-gradient)"/>
              <path id="Trazado_95411" data-name="Trazado 95411" d="M149.113,388.544l.8-.464.062.627,1.167-.673.062-.7.8-.463v-3.347l-2.9,1.673Z" transform="translate(-132.692 -378.784)" fill="url(#linear-gradient)"/>
              <path id="Trazado_95412" data-name="Trazado 95412" d="M155.471,384.874l.8-.463.062.625,1.167-.673.062-.7.8-.464v-3.346l-2.9,1.673Z" transform="translate(-134.946 -377.484)" fill="url(#linear-gradient)"/>
              <path id="Trazado_95413" data-name="Trazado 95413" d="M161.83,377.855V381.2l.8-.463.062.626,1.168-.673.062-.7.8-.464v-3.347Z" transform="translate(-137.199 -376.183)" fill="url(#linear-gradient)"/>
            </g>
            <path id="Trazado_95414" data-name="Trazado 95414" d="M64.012,330.5l-3.642-14.12c-.1-.377-.61-.589-1.149-.491s-.945.478-.9.865l1.58,14.5a4.061,4.061,0,0,0,.145.713l2.564,14.051a2.076,2.076,0,0,0,4.085-.746l-2.564-14.051A4.2,4.2,0,0,0,64.012,330.5Z" transform="translate(-55.26 -303.996)" fill="url(#linear-gradient)"/>
            <g id="Grupo_41942" data-name="Grupo 41942" transform="translate(4.615 26.368)">
              <path id="Trazado_95415" data-name="Trazado 95415" d="M67.23,339.12a4.132,4.132,0,0,0-.11-.661l-.036-.138Z" transform="translate(-62.982 -338.321)" fill="#cfdade"/>
              <path id="Trazado_95416" data-name="Trazado 95416" d="M67.549,353.585l-1.657-9.078a2.075,2.075,0,0,1-4.088.711l-1.074-5.887.025.236a4.058,4.058,0,0,0,.145.713l2.564,14.051a2.076,2.076,0,0,0,4.085-.746Z" transform="translate(-60.73 -338.679)" fill="#cfdade"/>
            </g>
            <path id="Trazado_95417" data-name="Trazado 95417" d="M75.413,316.206l-4.355-18.03a1.058,1.058,0,0,0-2.051.374L71.3,316.955a6.613,6.613,0,0,0,.18.91l3.265,17.892a2.137,2.137,0,1,0,4.085-.746l-3.265-17.893A6.735,6.735,0,0,0,75.413,316.206Z" transform="translate(-59.046 -297.479)" fill="url(#linear-gradient)"/>
            <path id="Trazado_95418" data-name="Trazado 95418" d="M80,344.981l-1.612-8.832a2.25,2.25,0,0,1-1.617,2.362,2.411,2.411,0,0,1-2.517-2.229L72.31,325.608l.164,1.316a6.614,6.614,0,0,0,.18.91l3.265,17.892A2.137,2.137,0,1,0,80,344.981Z" transform="translate(-60.219 -307.448)" fill="#cfdade"/>
            <path id="Trazado_95419" data-name="Trazado 95419" d="M90.01,323.972l-3.642-14.119c-.1-.378-.611-.589-1.15-.491s-.944.478-.9.866l1.58,14.495a4.159,4.159,0,0,0,.145.713l2.564,14.05a2.076,2.076,0,1,0,4.085-.745L90.126,324.69A4.179,4.179,0,0,0,90.01,323.972Z" transform="translate(-64.473 -301.682)" fill="url(#linear-gradient)"/>
            <path id="Trazado_95420" data-name="Trazado 95420" d="M93.472,346.382l-2.279-12.489a2.071,2.071,0,0,1-4.1.159l-.575-3.153.159,1.465a4.159,4.159,0,0,0,.145.713l2.564,14.05a2.076,2.076,0,1,0,4.085-.745Z" transform="translate(-65.255 -309.323)" fill="#cfdade"/>
            <path id="Trazado_95421" data-name="Trazado 95421" d="M96.4,374.37a6.251,6.251,0,0,1-5.655,0l-35.99-20.779c-1.562-.9-1.562-2.364,0-3.265l35.99-20.779a6.249,6.249,0,0,1,5.655,0l35.989,20.778c1.563.9,1.563,2.364,0,3.266Z" transform="translate(-53.582 -308.604)" fill="url(#linear-gradient)"/>
            <path id="Trazado_95422" data-name="Trazado 95422" d="M98.294,371.094a5.639,5.639,0,0,1-5.1,0l-32.424-18.72c-1.407-.812-1.407-2.13,0-2.943L93.2,330.71a5.637,5.637,0,0,1,5.1,0l32.424,18.72c1.407.813,1.407,2.13,0,2.942Z" transform="translate(-55.757 -309.04)" fill="#e1eef2"/>
            <path id="Trazado_95423" data-name="Trazado 95423" d="M60.774,354.684l5.186,2.994q10.492-10.537,21-21.056L60.773,351.742C59.366,352.555,59.367,353.872,60.774,354.684Z" transform="translate(-55.757 -311.351)" fill="#e6f3f7"/>
            <path id="Trazado_95424" data-name="Trazado 95424" d="M113.417,336.245l-5-2.89q-13.729,13.73-27.434,27.487l4.971,2.87Z" transform="translate(-63.291 -310.193)" fill="#e6f3f7"/>
            <path id="Trazado_95425" data-name="Trazado 95425" d="M132.754,347.419l-5.007-2.89L100.28,372l5.006,2.89Z" transform="translate(-70.132 -314.153)" fill="#e6f3f7"/>
            <path id="Trazado_95426" data-name="Trazado 95426" d="M155.935,358.5l-4.85-2.8-20.213,20.213,25.064-14.471C157.342,360.634,157.342,359.317,155.935,358.5Z" transform="translate(-80.973 -318.114)" fill="#e6f3f7"/>
          </g>
          <g id="Grupo_41945" data-name="Grupo 41945" transform="translate(112.43 48.692)">
            <path id="Trazado_95427" data-name="Trazado 95427" d="M211.051,201.3l-12.993-7.5c.029,16.688,5.339,29.4,13.725,35.681l7.426,4.287Z" transform="translate(-198.057 -164.899)" fill="#12263f"/>
            <path id="Trazado_95428" data-name="Trazado 95428" d="M252.932,151.988l-5.121-2.956c-.5.313-1.007.624-1.516.917-8.484,4.9-16.421,6.442-23.2,5.073-6.775,9.193-14.711,16.813-23.2,21.712-.618.358-1.234.691-1.846,1.013v.054c0,.045,0,.09,0,.135l12.993,7.5Z" transform="translate(-198.056 -149.032)" fill="#12263f"/>
            <path id="Trazado_95429" data-name="Trazado 95429" d="M249.75,165.509l16.93-13.521-5.121-2.956c-.5.313-1.007.624-1.516.917-8.484,4.9-16.421,6.442-23.2,5.073l4.79,3.114Z" transform="translate(-211.803 -149.032)" fill="#12263f"/>
            <path id="Trazado_95430" data-name="Trazado 95430" d="M253.715,154.661c-8.484,4.9-16.421,6.442-23.2,5.074-6.776,9.192-14.712,16.813-23.2,21.712-.618.357-1.234.691-1.846,1.013,0,.018,0,.035,0,.054,0,23.446,10.134,37.978,25.044,39.756,14.909-18.994,25.043-45.228,25.043-68.674v-.053C254.949,153.928,254.334,154.3,253.715,154.661Z" transform="translate(-200.685 -150.63)" fill="#f59d36"/>
            <g id="Grupo_41944" data-name="Grupo 41944" transform="translate(14.08 16.176)">
              <path id="Trazado_95431" data-name="Trazado 95431" d="M227.975,206.712l-8.109-4.682c.018,10.415,3.331,18.347,8.565,22.269l4.634,2.675Z" transform="translate(-219.865 -183.991)" fill="#205173"/>
              <path id="Trazado_95432" data-name="Trazado 95432" d="M254.113,175.933l-3.2-1.845c-.314.2-.629.39-.945.573-5.3,3.057-10.25,4.02-14.478,3.165a49.232,49.232,0,0,1-14.478,13.551c-.386.223-.77.431-1.152.633v.033c0,.028,0,.056,0,.084l8.109,4.682Z" transform="translate(-219.865 -174.088)" fill="#3d7293"/>
              <path id="Trazado_95433" data-name="Trazado 95433" d="M253.158,183.547l9.534-7.614-3.2-1.845c-.314.2-.629.39-.945.573-5.3,3.057-10.25,4.02-14.478,3.165l2.988,1.944Z" transform="translate(-228.445 -174.088)" fill="#21587b"/>
              <path id="Trazado_95434" data-name="Trazado 95434" d="M254.6,177.6c-5.3,3.058-10.248,4.02-14.478,3.167a49.234,49.234,0,0,1-14.477,13.55c-.385.223-.77.432-1.152.632v.034c0,14.633,6.326,23.7,15.629,24.812,9.306-11.855,15.63-28.227,15.63-42.86V176.9C255.371,177.144,254.988,177.379,254.6,177.6Z" transform="translate(-221.506 -175.086)" fill="url(#linear-gradient-17)"/>
              <path id="Trazado_95435" data-name="Trazado 95435" d="M248.7,219.8c9.306-11.855,15.63-28.227,15.63-42.86V176.9c-.382.24-.766.475-1.152.7-5.3,3.058-10.248,4.02-14.478,3.167C248.7,180.769,253.4,195.337,248.7,219.8Z" transform="translate(-230.085 -175.086)" fill="#3d7293"/>
            </g>
          </g>
          <g id="Grupo_41951" data-name="Grupo 41951" transform="translate(168.429 93.513)">
            <path id="Trazado_95436" data-name="Trazado 95436" d="M360.511,218.94,286.242,261c-1.624.936-1.624,2.455,0,3.392l4.07,3.081c-1.622-.936-1.622-2.457,0-3.393l72.236-41.707c1.622-.937,2.367-.316,3.424-1,0,0,.608-.187.117-1.215C365.27,218.439,362.133,218,360.511,218.94Z" transform="translate(-284.877 -218.457)" fill="#00223d"/>
            <path id="Trazado_95437" data-name="Trazado 95437" d="M288.669,339.33V289.742c0-1.874,1.315-2.634,2.939-1.7l-3.873-2.965c-1.623-.937-2.939-.178-2.939,1.7v49.587a6.135,6.135,0,0,0,2.939,5.091c2.854,1.36,1.852.343,1.852.343C290.069,341.8,289.626,340.894,288.669,339.33Z" transform="translate(-284.796 -241.926)" fill="#00223d"/>
            <path id="Trazado_95438" data-name="Trazado 95438" d="M368.319,271.8a6.5,6.5,0,0,1-2.94,5.091l-72.236,41.705c-1.624.937-2.939.178-2.939-1.7V267.307a6.5,6.5,0,0,1,2.939-5.09l72.236-41.706c1.623-.937,2.94-.177,2.94,1.7Z" transform="translate(-286.713 -219.043)" fill="url(#linear-gradient)"/>
            <path id="Trazado_95439" data-name="Trazado 95439" d="M366.973,273.261a5.856,5.856,0,0,1-2.716,4.546l-66.718,38.52c-1.5.865-2.715.234-2.714-1.413l0-43.526a5.863,5.863,0,0,1,2.715-4.546l66.719-38.519c1.5-.866,2.714-.234,2.714,1.411Z" transform="translate(-288.35 -221.816)" fill="#1e2729"/>
            <path id="Trazado_95440" data-name="Trazado 95440" d="M298.415,287.718l-.539.311a5.789,5.789,0,0,0-2.1,2.331Z" transform="translate(-288.686 -243.003)" fill="#2b383b"/>
            <path id="Trazado_95441" data-name="Trazado 95441" d="M294.827,287.257v8.709l50.485-50.486-20.606,11.9Z" transform="translate(-288.351 -228.034)" fill="#2b383b"/>
            <path id="Trazado_95442" data-name="Trazado 95442" d="M366.974,230.752V230.3a2.53,2.53,0,0,0-.11-.771q-36.018,36.02-72.036,72.038V302.9Z" transform="translate(-288.351 -222.38)" fill="#2b383b"/>
            <path id="Trazado_95443" data-name="Trazado 95443" d="M295.36,320.469a4.5,4.5,0,0,1-.533.451v1.409a1.733,1.733,0,0,0,.778,1.637q35.686-35.683,71.369-71.367v-3.743Z" transform="translate(-288.351 -229.23)" fill="#2b383b"/>
            <path id="Trazado_95444" data-name="Trazado 95444" d="M380.859,276.235v-4.149l-46.851,46.85,9.817-5.668Q362.343,294.753,380.859,276.235Z" transform="translate(-302.237 -237.463)" fill="#2b383b"/>
            <g id="Grupo_41950" data-name="Grupo 41950" transform="translate(6.811 56.132)">
              <path id="Trazado_95445" data-name="Trazado 95445" d="M405.277,327.9v-3.122a2.062,2.062,0,0,0-1.218-1.709l-29.381-16.963a6.5,6.5,0,0,0-5.878,0l-72.237,41.707a2.054,2.054,0,0,0-1.216,1.708v3.469a2.057,2.057,0,0,0,1.216,1.708l29.382,16.964a6.5,6.5,0,0,0,5.878,0l72.236-41.706a2.06,2.06,0,0,0,1.218-1.71V327.9Z" transform="translate(-295.346 -305.402)" fill="#00223d"/>
              <path id="Trazado_95446" data-name="Trazado 95446" d="M404.059,323.068c1.624.937,1.624,2.457,0,3.394l-72.236,41.705a6.5,6.5,0,0,1-5.878,0L296.563,351.2c-1.623-.937-1.623-2.457,0-3.393L368.8,306.105a6.5,6.5,0,0,1,5.878,0Z" transform="translate(-295.346 -305.402)" fill="url(#linear-gradient)"/>
              <path id="Trazado_95447" data-name="Trazado 95447" d="M313.33,372.274a.358.358,0,0,1,0,.678l-4.283,2.471a1.293,1.293,0,0,1-1.176,0l-4.281-2.471a.358.358,0,0,1,0-.678l4.281-2.471a1.293,1.293,0,0,1,1.176,0Z" transform="translate(-298.181 -328.175)" fill="#00223d"/>
              <g id="Grupo_41946" data-name="Grupo 41946" transform="translate(16.554 3.679)">
                <path id="Trazado_95448" data-name="Trazado 95448" d="M325.512,359.617l-4.282,2.472a.358.358,0,0,0,0,.679l4.282,2.472a1.3,1.3,0,0,0,1.175,0l4.282-2.472a.359.359,0,0,0,0-.679l-4.282-2.471A1.3,1.3,0,0,0,325.512,359.617Z" transform="translate(-320.986 -328.245)" fill="#00223d"/>
                <path id="Trazado_95449" data-name="Trazado 95449" d="M335.986,353.569l-4.282,2.473a.358.358,0,0,0,0,.678l4.281,2.473a1.3,1.3,0,0,0,1.176,0l4.282-2.473a.358.358,0,0,0,0-.678l-4.282-2.473A1.3,1.3,0,0,0,335.986,353.569Z" transform="translate(-324.698 -326.101)" fill="#00223d"/>
                <path id="Trazado_95450" data-name="Trazado 95450" d="M346.46,347.523l-4.282,2.472a.358.358,0,0,0,0,.678l4.282,2.473a1.3,1.3,0,0,0,1.176,0l4.282-2.473a.358.358,0,0,0,0-.678l-4.282-2.472A1.3,1.3,0,0,0,346.46,347.523Z" transform="translate(-328.41 -323.959)" fill="#00223d"/>
                <path id="Trazado_95451" data-name="Trazado 95451" d="M356.934,341.477l-4.283,2.471a.359.359,0,0,0,0,.68l4.282,2.471a1.3,1.3,0,0,0,1.175,0l4.282-2.471a.359.359,0,0,0,0-.68l-4.282-2.471A1.3,1.3,0,0,0,356.934,341.477Z" transform="translate(-332.122 -321.816)" fill="#00223d"/>
                <path id="Trazado_95452" data-name="Trazado 95452" d="M367.408,335.429l-4.282,2.473a.358.358,0,0,0,0,.678l4.282,2.473a1.3,1.3,0,0,0,1.175,0l4.282-2.473a.358.358,0,0,0,0-.678l-4.283-2.473A1.3,1.3,0,0,0,367.408,335.429Z" transform="translate(-335.834 -319.672)" fill="#00223d"/>
                <path id="Trazado_95453" data-name="Trazado 95453" d="M377.881,329.382l-4.282,2.472a.358.358,0,0,0,0,.678L377.881,335a1.293,1.293,0,0,0,1.176,0l4.281-2.472a.358.358,0,0,0,0-.678l-4.281-2.472A1.3,1.3,0,0,0,377.881,329.382Z" transform="translate(-339.546 -317.53)" fill="#00223d"/>
                <path id="Trazado_95454" data-name="Trazado 95454" d="M388.355,323.334l-4.282,2.473a.359.359,0,0,0,0,.679l4.282,2.471a1.3,1.3,0,0,0,1.176,0l4.282-2.471a.359.359,0,0,0,0-.679l-4.282-2.473A1.3,1.3,0,0,0,388.355,323.334Z" transform="translate(-343.258 -315.386)" fill="#00223d"/>
                <path id="Trazado_95455" data-name="Trazado 95455" d="M398.828,317.287l-4.282,2.472a.359.359,0,0,0,0,.679l4.282,2.473a1.3,1.3,0,0,0,1.176,0l4.283-2.473a.358.358,0,0,0,0-.679L400,317.287A1.3,1.3,0,0,0,398.828,317.287Z" transform="translate(-346.97 -313.243)" fill="#00223d"/>
                <path id="Trazado_95456" data-name="Trazado 95456" d="M409.3,311.241l-4.282,2.472a.358.358,0,0,0,0,.678l4.282,2.473a1.3,1.3,0,0,0,1.176,0l4.282-2.473a.358.358,0,0,0,0-.678l-4.282-2.472A1.3,1.3,0,0,0,409.3,311.241Z" transform="translate(-350.681 -311.1)" fill="#00223d"/>
              </g>
              <g id="Grupo_41947" data-name="Grupo 41947" transform="translate(11.812 7.685)">
                <path id="Trazado_95457" data-name="Trazado 95457" d="M329.849,365.823l-15.964,9.217a.358.358,0,0,0,0,.679l4.281,2.473a1.3,1.3,0,0,0,1.176,0l15.963-9.218a.357.357,0,0,0,0-.678l-4.281-2.473A1.3,1.3,0,0,0,329.849,365.823Z" transform="translate(-313.642 -334.45)" fill="#00223d"/>
                <path id="Trazado_95458" data-name="Trazado 95458" d="M346.736,359.776l-4.282,2.473a.358.358,0,0,0,0,.679l4.282,2.471a1.292,1.292,0,0,0,1.176,0l4.28-2.471a.358.358,0,0,0,0-.679l-4.28-2.473A1.3,1.3,0,0,0,346.736,359.776Z" transform="translate(-323.766 -332.307)" fill="#00223d"/>
                <path id="Trazado_95459" data-name="Trazado 95459" d="M357.21,353.728l-4.282,2.473a.358.358,0,0,0,0,.678l4.282,2.474a1.3,1.3,0,0,0,1.176,0l4.28-2.474a.357.357,0,0,0,0-.678l-4.28-2.473A1.3,1.3,0,0,0,357.21,353.728Z" transform="translate(-327.478 -330.164)" fill="#00223d"/>
                <path id="Trazado_95460" data-name="Trazado 95460" d="M367.683,347.682l-4.282,2.472a.358.358,0,0,0,0,.678l4.282,2.473a1.3,1.3,0,0,0,1.175,0l4.282-2.473a.358.358,0,0,0,0-.678l-4.281-2.472A1.294,1.294,0,0,0,367.683,347.682Z" transform="translate(-331.19 -328.021)" fill="#00223d"/>
                <path id="Trazado_95461" data-name="Trazado 95461" d="M378.157,341.636l-4.282,2.471a.358.358,0,0,0,0,.679l4.282,2.472a1.3,1.3,0,0,0,1.175,0l4.282-2.472a.359.359,0,0,0,0-.679l-4.282-2.471A1.3,1.3,0,0,0,378.157,341.636Z" transform="translate(-334.902 -325.878)" fill="#00223d"/>
                <path id="Trazado_95462" data-name="Trazado 95462" d="M388.63,335.588l-4.282,2.471a.359.359,0,0,0,0,.678l4.282,2.473a1.3,1.3,0,0,0,1.176,0l4.281-2.471a.359.359,0,0,0,0-.679l-4.281-2.472A1.3,1.3,0,0,0,388.63,335.588Z" transform="translate(-338.614 -323.735)" fill="#00223d"/>
                <path id="Trazado_95463" data-name="Trazado 95463" d="M399.1,329.541l-4.282,2.473a.358.358,0,0,0,0,.679l4.282,2.472a1.3,1.3,0,0,0,1.175,0l4.283-2.472a.359.359,0,0,0,0-.679l-4.283-2.473A1.3,1.3,0,0,0,399.1,329.541Z" transform="translate(-342.326 -321.592)" fill="#00223d"/>
                <path id="Trazado_95464" data-name="Trazado 95464" d="M409.579,323.494l-4.282,2.471a.359.359,0,0,0,0,.679l4.282,2.472a1.3,1.3,0,0,0,1.175,0l4.282-2.472a.358.358,0,0,0,0-.678l-4.282-2.472A1.3,1.3,0,0,0,409.579,323.494Z" transform="translate(-346.038 -319.449)" fill="#00223d"/>
                <path id="Trazado_95465" data-name="Trazado 95465" d="M420.052,317.446l-4.281,2.473a.358.358,0,0,0,0,.679l4.281,2.471a1.291,1.291,0,0,0,1.175,0l4.282-2.471a.358.358,0,0,0,0-.679l-4.282-2.473A1.3,1.3,0,0,0,420.052,317.446Z" transform="translate(-349.75 -317.305)" fill="#00223d"/>
              </g>
              <g id="Grupo_41948" data-name="Grupo 41948" transform="translate(26.253 16.022)">
                <path id="Trazado_95466" data-name="Trazado 95466" d="M352.218,378.738l-15.964,9.217a.358.358,0,0,0,0,.678l4.282,2.473a1.3,1.3,0,0,0,1.174,0l15.965-9.218a.358.358,0,0,0,0-.678l-4.282-2.472A1.3,1.3,0,0,0,352.218,378.738Z" transform="translate(-336.01 -347.365)" fill="#00223d"/>
                <path id="Trazado_95467" data-name="Trazado 95467" d="M369.1,372.691l-4.282,2.473a.358.358,0,0,0,0,.678l4.282,2.473a1.3,1.3,0,0,0,1.176,0l4.282-2.473a.358.358,0,0,0,0-.678l-4.283-2.473A1.3,1.3,0,0,0,369.1,372.691Z" transform="translate(-346.135 -345.222)" fill="#00223d"/>
                <path id="Trazado_95468" data-name="Trazado 95468" d="M399.863,348.5,375.3,362.687a.358.358,0,0,0,0,.679l4.282,2.472a1.3,1.3,0,0,0,1.175,0l24.568-14.184a.359.359,0,0,0,0-.679l-4.282-2.471A1.3,1.3,0,0,0,399.863,348.5Z" transform="translate(-349.847 -336.649)" fill="#00223d"/>
                <path id="Trazado_95469" data-name="Trazado 95469" d="M421.473,342.455l-4.282,2.472a.358.358,0,0,0,0,.679l4.282,2.471a1.292,1.292,0,0,0,1.174,0l4.283-2.471a.359.359,0,0,0,0-.679l-4.283-2.472A1.3,1.3,0,0,0,421.473,342.455Z" transform="translate(-364.694 -334.506)" fill="#00223d"/>
                <path id="Trazado_95470" data-name="Trazado 95470" d="M438.708,330.361l-11.042,6.376a.358.358,0,0,0,0,.679l4.282,2.471a1.3,1.3,0,0,0,1.175,0l11.043-6.375a.358.358,0,0,0,0-.678l-4.282-2.473A1.3,1.3,0,0,0,438.708,330.361Z" transform="translate(-368.406 -330.22)" fill="#00223d"/>
              </g>
              <g id="Grupo_41949" data-name="Grupo 41949" transform="translate(18.942 11.802)">
                <path id="Trazado_95471" data-name="Trazado 95471" d="M334.09,378.284l-9.161,5.29a.358.358,0,0,0,0,.678l4.283,2.473a1.3,1.3,0,0,0,1.176,0l9.159-5.289a.358.358,0,0,0,0-.679l-4.281-2.472A1.3,1.3,0,0,0,334.09,378.284Z" transform="translate(-324.686 -342.984)" fill="#00223d"/>
                <path id="Trazado_95472" data-name="Trazado 95472" d="M357.781,366.154l-4.281,2.472a.357.357,0,0,0,0,.678l4.281,2.473a1.3,1.3,0,0,0,1.176,0l4.282-2.473a.357.357,0,0,0,0-.678l-4.282-2.472A1.3,1.3,0,0,0,357.781,366.154Z" transform="translate(-334.811 -338.685)" fill="#00223d"/>
                <path id="Trazado_95473" data-name="Trazado 95473" d="M347.307,372.2l-4.281,2.472a.358.358,0,0,0,0,.678l4.281,2.473a1.3,1.3,0,0,0,1.175,0l4.282-2.473a.358.358,0,0,0,0-.678l-4.283-2.472A1.3,1.3,0,0,0,347.307,372.2Z" transform="translate(-331.099 -340.827)" fill="#00223d"/>
                <path id="Trazado_95474" data-name="Trazado 95474" d="M368.254,360.107l-4.282,2.471a.359.359,0,0,0,0,.679l4.282,2.472a1.3,1.3,0,0,0,1.176,0l4.281-2.472a.359.359,0,0,0,0-.679l-4.282-2.471A1.3,1.3,0,0,0,368.254,360.107Z" transform="translate(-338.523 -336.542)" fill="#00223d"/>
                <path id="Trazado_95475" data-name="Trazado 95475" d="M378.728,354.059l-4.281,2.473a.358.358,0,0,0,0,.679l4.282,2.472a1.3,1.3,0,0,0,1.175,0l4.281-2.472a.358.358,0,0,0,0-.679l-4.281-2.473A1.3,1.3,0,0,0,378.728,354.059Z" transform="translate(-342.234 -334.398)" fill="#00223d"/>
                <path id="Trazado_95476" data-name="Trazado 95476" d="M389.2,348.012l-4.282,2.473a.359.359,0,0,0,0,.679l4.282,2.472a1.3,1.3,0,0,0,1.175,0l4.283-2.472a.358.358,0,0,0,0-.679l-4.281-2.473A1.3,1.3,0,0,0,389.2,348.012Z" transform="translate(-345.947 -332.255)" fill="#00223d"/>
                <path id="Trazado_95477" data-name="Trazado 95477" d="M399.676,341.965l-4.282,2.472a.358.358,0,0,0,0,.679l4.282,2.471a1.3,1.3,0,0,0,1.175,0l4.282-2.471a.359.359,0,0,0,0-.679l-4.282-2.472A1.3,1.3,0,0,0,399.676,341.965Z" transform="translate(-349.658 -330.112)" fill="#00223d"/>
                <path id="Trazado_95478" data-name="Trazado 95478" d="M410.15,335.918l-4.283,2.472a.358.358,0,0,0,0,.679l4.282,2.473a1.3,1.3,0,0,0,1.176,0l4.281-2.473a.358.358,0,0,0,0-.679l-4.281-2.472A1.3,1.3,0,0,0,410.15,335.918Z" transform="translate(-353.37 -327.969)" fill="#00223d"/>
                <path id="Trazado_95479" data-name="Trazado 95479" d="M420.624,329.871l-4.282,2.472a.358.358,0,0,0,0,.679l4.282,2.473a1.3,1.3,0,0,0,1.176,0l4.281-2.472a.358.358,0,0,0,0-.679l-4.281-2.472A1.3,1.3,0,0,0,420.624,329.871Z" transform="translate(-357.082 -325.826)" fill="#00223d"/>
                <path id="Trazado_95480" data-name="Trazado 95480" d="M431.1,323.824l-4.282,2.471a.358.358,0,0,0,0,.679l4.282,2.473a1.3,1.3,0,0,0,1.175,0l4.283-2.473a.358.358,0,0,0,0-.679l-4.283-2.471A1.3,1.3,0,0,0,431.1,323.824Z" transform="translate(-360.794 -323.683)" fill="#00223d"/>
              </g>
            </g>
          </g>
          <g id="Grupo_151149" data-name="Grupo 151149" transform="translate(237.449 54.938)">
            <g id="Grupo_34836" data-name="Grupo 34836">
              <g id="Grupo_34835" data-name="Grupo 34835">
                <g id="Grupo_34834" data-name="Grupo 34834" style="isolation: isolate">
                  <g id="Grupo_34831" data-name="Grupo 34831" transform="translate(16.363 9.447)">
                    <path id="Trazado_85790" data-name="Trazado 85790" d="M208,320.859l1.392-.809-.053,18.8-1.392.809Z" transform="translate(-207.949 -320.05)" fill="#264d65"/>
                  </g>
                  <g id="Grupo_34832" data-name="Grupo 34832" transform="translate(0.053)">
                    <path id="Trazado_85791" data-name="Trazado 85791" d="M194.272,312.937l1.392-.809,16.363,9.447-1.392.809Z" transform="translate(-194.272 -312.128)" fill="#264d65"/>
                  </g>
                  <g id="Grupo_34833" data-name="Grupo 34833" transform="translate(0 0.809)">
                    <path id="Trazado_85792" data-name="Trazado 85792" d="M210.644,322.253l-.053,18.8-16.363-9.448.053-18.8Z" transform="translate(-194.227 -312.806)" fill="#21587b"/>
                  </g>
                </g>
              </g>
            </g>
            <g id="Grupo_34838" data-name="Grupo 34838" transform="translate(2.004 6.68)">
              <g id="Grupo_34837" data-name="Grupo 34837">
                <path id="Trazado_85793" data-name="Trazado 85793" d="M200.923,325.371c.563.324,1.021.061,1.021-.589v-2.393l4.221,2.437a2.214,2.214,0,0,1,1,1.727v4.261c0,.634-.448.893-1,.577l-1.189-.687.533,2.142c.051.21-.021.236-.162.057l-2.8-3.538a.777.777,0,0,1-.069-.1l-2.2-1.269a2.215,2.215,0,0,1-1-1.728v-1.841Z" transform="translate(-195.259 -316.833)" fill="#f5f5fd"/>
                <path id="Trazado_85794" data-name="Trazado 85794" d="M195.908,318.314v3.506a1.823,1.823,0,0,0,.82,1.421l.979.565-.439,1.256c-.043.124.017.213.134.2l2.305-.25a.1.1,0,0,0,.057-.02l1.808,1.045c.451.26.82.048.82-.473v-3.506a1.819,1.819,0,0,0-.82-1.421l-4.844-2.8C196.278,317.58,195.908,317.793,195.908,318.314Zm4.325,4.4c0-.334.234-.469.522-.3a1.154,1.154,0,0,1,.523.905c0,.334-.234.469-.523.3A1.158,1.158,0,0,1,200.233,322.714Zm-1.605-.927c0-.334.234-.469.522-.3a1.158,1.158,0,0,1,.523.906c0,.334-.235.469-.523.3A1.154,1.154,0,0,1,198.628,321.787Zm-1.606-.928c0-.333.235-.469.523-.3a1.158,1.158,0,0,1,.524.906c0,.334-.235.469-.524.3A1.158,1.158,0,0,1,197.022,320.859Z" transform="translate(-195.908 -317.729)" fill="#f5f5fd"/>
              </g>
            </g>
          </g>
          <g id="Grupo_151150" data-name="Grupo 151150" transform="translate(250.882 14.739)">
            <g id="Grupo_34845" data-name="Grupo 34845">
              <g id="Grupo_34844" data-name="Grupo 34844">
                <g id="Grupo_34843" data-name="Grupo 34843" style="isolation: isolate">
                  <g id="Grupo_34840" data-name="Grupo 34840" transform="translate(15.441 8.915)">
                    <path id="Trazado_85795" data-name="Trazado 85795" d="M218.491,286.656l1.314-.763-.05,17.742-1.314.763Z" transform="translate(-218.44 -285.893)" fill="#cba81f"/>
                  </g>
                  <g id="Grupo_34841" data-name="Grupo 34841" transform="translate(0.05)">
                    <path id="Trazado_85796" data-name="Trazado 85796" d="M205.534,279.18l1.314-.764,15.441,8.915-1.314.763Z" transform="translate(-205.534 -278.417)" fill="#cba81f"/>
                  </g>
                  <g id="Grupo_34842" data-name="Grupo 34842" transform="translate(0 0.764)">
                    <path id="Trazado_85797" data-name="Trazado 85797" d="M220.983,287.971l-.05,17.743L205.492,296.8l.05-17.742Z" transform="translate(-205.492 -279.057)" fill="#e2c140"/>
                  </g>
                </g>
              </g>
            </g>
            <g id="Grupo_34848" data-name="Grupo 34848" transform="translate(2.094 6.454)">
              <g id="Grupo_34847" data-name="Grupo 34847">
                <path id="Trazado_85798" data-name="Trazado 85798" d="M210.888,285.3c0,.837-.594,1.182-1.32.762l-1.271-.733,2.591-1.5Z" transform="translate(-207.046 -283.829)" fill="#f5f5fd"/>
                <g id="Grupo_34846" data-name="Grupo 34846" transform="translate(0 0.19)">
                  <path id="Trazado_85799" data-name="Trazado 85799" d="M210.936,296.722l5.093,2.941c.726.42,1.32.076,1.32-.762v-9.849a2.93,2.93,0,0,0-1.32-2.287l-4.812-2.777v1.468c0,1.051-.739,1.476-1.649.952l-1.271-.733v6.272a2.272,2.272,0,0,1,.594.246,4.809,4.809,0,0,1,2.173,3.765A2.169,2.169,0,0,1,210.936,296.722Zm5.352-5.233c0,.268-.222.359-.495.2l-5.939-3.428a1.025,1.025,0,0,1-.5-.774c0-.267.223-.359.5-.2l5.939,3.43A1.021,1.021,0,0,1,216.288,291.49Zm0,1.86c0,.268-.222.359-.495.2l-5.939-3.428a1.025,1.025,0,0,1-.5-.774c0-.268.223-.359.5-.2l5.939,3.428A1.023,1.023,0,0,1,216.288,293.35Zm0,1.816c0,.267-.222.359-.495.2l-5.939-3.43a1.025,1.025,0,0,1-.5-.773c0-.268.223-.359.5-.2l5.939,3.43A1.021,1.021,0,0,1,216.288,295.166Zm-4.884-.8c0-.267.223-.358.495-.2l3.895,2.249a1.023,1.023,0,0,1,.495.773c0,.268-.222.359-.495.2l-3.895-2.249A1.023,1.023,0,0,1,211.4,294.366Z" transform="translate(-207.046 -283.988)" fill="#f5f5fd"/>
                  <path id="Trazado_85800" data-name="Trazado 85800" d="M207.248,292.292a4.077,4.077,0,0,0,1.845,3.2c1.018.588,1.845.111,1.845-1.066a4.078,4.078,0,0,0-1.845-3.195C208.073,290.639,207.248,291.116,207.248,292.292Zm.909.237.708.409v-.793l.454.262v.793l.708.408v.577l-.708-.409v.792l-.454-.264v-.791l-.708-.409Z" transform="translate(-207.248 -282.643)" fill="#f5f5fd"/>
                </g>
              </g>
            </g>
          </g>
          <g id="Grupo_151151" data-name="Grupo 151151" transform="translate(221.943 20.869)">
            <g id="Grupo_34855" data-name="Grupo 34855">
              <g id="Grupo_34854" data-name="Grupo 34854">
                <g id="Grupo_34853" data-name="Grupo 34853" style="isolation: isolate">
                  <g id="Grupo_34850" data-name="Grupo 34850" transform="translate(16.245 9.38)">
                    <path id="Trazado_85801" data-name="Trazado 85801" d="M194.9,292.227l1.382-.8-.053,18.667-1.383.8Z" transform="translate(-194.847 -291.423)" fill="#199375"/>
                  </g>
                  <g id="Grupo_34851" data-name="Grupo 34851" transform="translate(0.053)">
                    <path id="Trazado_85802" data-name="Trazado 85802" d="M181.268,284.361l1.382-.8,16.245,9.38-1.382.8Z" transform="translate(-181.268 -283.558)" fill="#199375"/>
                  </g>
                  <g id="Grupo_34852" data-name="Grupo 34852" transform="translate(0 0.803)">
                    <path id="Trazado_85803" data-name="Trazado 85803" d="M197.522,293.611l-.053,18.667L181.224,302.9l.053-18.667Z" transform="translate(-181.224 -284.232)" fill="#2ec49f"/>
                  </g>
                </g>
              </g>
            </g>
            <g id="Grupo_34858" data-name="Grupo 34858" transform="translate(2.621 7.901)">
              <g id="Grupo_34857" data-name="Grupo 34857">
                <g id="Grupo_34856" data-name="Grupo 34856" transform="translate(2.799 2.242)">
                  <path id="Trazado_85804" data-name="Trazado 85804" d="M190.874,297.98l-1.834,1.058a.543.543,0,0,1-.561-.076,1.459,1.459,0,0,1-.562-.571l-1.833-3.176c-.289-.5-.289-1.041,0-1.207s.756.1,1.046.6l.467.81v-2.727c0-.562.395-.791.881-.509a1.948,1.948,0,0,1,.881,1.526v2.728l.467-.271c.289-.167.757.1,1.046.6S191.162,297.813,190.874,297.98Z" transform="translate(-185.75 -292.064)" fill="#f5f5fd"/>
                  <path id="Trazado_85805" data-name="Trazado 85805" d="M185.769,297.719c0-.543.383-.764.853-.493l3.753,2.167a1.888,1.888,0,0,1,.854,1.477c0,.544-.383.764-.854.492l-3.753-2.167A1.889,1.889,0,0,1,185.769,297.719Zm.853-.384c-.417-.241-.758-.044-.758.439a1.681,1.681,0,0,0,.758,1.314l3.753,2.167c.419.241.76.044.76-.438a1.681,1.681,0,0,0-.76-1.315Z" transform="translate(-185.769 -291.093)" fill="#f5f5fd"/>
                  <path id="Trazado_85806" data-name="Trazado 85806" d="M187.2,297.667l2.9,1.673a1.781,1.781,0,0,1,.806,1.4c0,.514-.36.723-.806.465l-2.9-1.673Z" transform="translate(-185.493 -290.986)" fill="#f5f5fd"/>
                </g>
                <path id="Trazado_85807" data-name="Trazado 85807" d="M183.422,294.129c0-3.52,2.479-4.952,5.528-3.192a12.24,12.24,0,0,1,5.528,9.576c0,3.521-2.48,4.952-5.528,3.192A12.232,12.232,0,0,1,183.422,294.129Zm.62.358a10.866,10.866,0,0,0,4.908,8.5c2.707,1.562,4.908.291,4.908-2.835a10.862,10.862,0,0,0-4.908-8.5C186.243,290.091,184.042,291.362,184.042,294.486Z" transform="translate(-183.422 -290.184)" fill="#f5f5fd"/>
              </g>
            </g>
          </g>
        </g>
      </g>
    </g>
  </g>
</svg>
