<svg xmlns="http://www.w3.org/2000/svg" width="199.246" height="56.031" viewBox="0 0 199.246 56.031">
  <g id="Grupo_909311" data-name="Grupo 909311" transform="translate(741.082 10082.694)">
    <path id="Trazado_622684" data-name="Trazado 622684" d="M5,0H192.965a5,5,0,0,1,5,5V50.706a5,5,0,0,1-5,5H5a5,5,0,0,1-5-5V5A5,5,0,0,1,5,0Z" transform="translate(-739.801 -10082.369)" fill="#1565c0"/>
    <g id="Trazado_622685" data-name="Trazado 622685" transform="translate(-741.082 -10082.694)" fill="#fff">
      <path d="M 31.19005584716797 55.20632171630859 L 4.999996185302734 55.20632171630859 C 2.518686056137085 55.20632171630859 0.4999960064888 53.18762969970703 0.4999960064888 50.70632171630859 L 0.4999960064888 5.000000953674316 C 0.4999960064888 2.518690824508667 2.518686056137085 0.5000008344650269 4.999996185302734 0.5000008344650269 L 31.19005584716797 0.5000008344650269 C 33.67136764526367 0.5000008344650269 35.69005584716797 2.518690824508667 35.69005584716797 5.000000953674316 L 35.69005584716797 50.70632171630859 C 35.69005584716797 53.18762969970703 33.67136764526367 55.20632171630859 31.19005584716797 55.20632171630859 Z" stroke="none"/>
      <path d="M 4.999996185302734 1 C 2.794387817382812 1 0.9999961853027344 2.794391632080078 0.9999961853027344 5 L 0.9999961853027344 50.70632171630859 C 0.9999961853027344 52.91193008422852 2.794387817382812 54.70632171630859 4.999996185302734 54.70632171630859 L 31.19005584716797 54.70632171630859 C 33.39566802978516 54.70632171630859 35.19005584716797 52.91193008422852 35.19005584716797 50.70632171630859 L 35.19005584716797 5 C 35.19005584716797 2.794391632080078 33.39566802978516 1 31.19005584716797 1 L 4.999996185302734 1 M 4.999996185302734 0 L 31.19005584716797 0 C 33.95147705078125 0 36.19005584716797 2.238571166992188 36.19005584716797 5 L 36.19005584716797 50.70632171630859 C 36.19005584716797 53.46773910522461 33.95147705078125 55.70632171630859 31.19005584716797 55.70632171630859 L 4.999996185302734 55.70632171630859 C 2.238574981689453 55.70632171630859 -3.814697265625e-06 53.46773910522461 -3.814697265625e-06 50.70632171630859 L -3.814697265625e-06 5 C -3.814697265625e-06 2.238571166992188 2.238574981689453 0 4.999996185302734 0 Z" stroke="none" fill="#1565c0"/>
    </g>
    <path id="Trazado_622686" data-name="Trazado 622686" d="M-63.461,0H-65.8V-11.375h2.344Zm4.1-8.453.07.977a2.951,2.951,0,0,1,2.43-1.133,2.453,2.453,0,0,1,2,.789,3.682,3.682,0,0,1,.672,2.359V0h-2.258V-5.419a1.47,1.47,0,0,0-.312-1.045A1.4,1.4,0,0,0-57.8-6.789a1.553,1.553,0,0,0-1.43.814V0h-2.258V-8.453Zm9.586-2.078v2.078h1.445V-6.8h-1.445v4.219a1.007,1.007,0,0,0,.18.672.9.9,0,0,0,.688.2,3.6,3.6,0,0,0,.664-.055V-.047a4.648,4.648,0,0,1-1.367.2,2.156,2.156,0,0,1-2.422-2.4V-6.8h-1.234V-8.453h1.234v-2.078ZM-43.18.156A4.15,4.15,0,0,1-46.207-.984a4.054,4.054,0,0,1-1.168-3.039v-.219a5.106,5.106,0,0,1,.492-2.277,3.612,3.612,0,0,1,1.395-1.547,3.914,3.914,0,0,1,2.059-.543A3.508,3.508,0,0,1-40.7-7.516a4.444,4.444,0,0,1,1,3.1v.922h-5.383a2.1,2.1,0,0,0,.66,1.328,2,2,0,0,0,1.395.5,2.437,2.437,0,0,0,2.039-.945l1.109,1.242A3.389,3.389,0,0,1-41.258-.246,4.511,4.511,0,0,1-43.18.156Zm-.258-6.945a1.411,1.411,0,0,0-1.09.455,2.357,2.357,0,0,0-.535,1.3h3.141v-.181a1.681,1.681,0,0,0-.406-1.165A1.456,1.456,0,0,0-43.437-6.789Zm9.766.453a6.134,6.134,0,0,0-.812-.062,1.654,1.654,0,0,0-1.68.867V0h-2.258V-8.453h2.133l.063,1.008a2.092,2.092,0,0,1,1.883-1.164,2.366,2.366,0,0,1,.7.1ZM-28.844.156A4.15,4.15,0,0,1-31.871-.984a4.054,4.054,0,0,1-1.168-3.039v-.219a5.106,5.106,0,0,1,.492-2.277,3.612,3.612,0,0,1,1.395-1.547,3.914,3.914,0,0,1,2.059-.543,3.508,3.508,0,0,1,2.73,1.094,4.444,4.444,0,0,1,1,3.1v.922H-30.75a2.1,2.1,0,0,0,.66,1.328,2,2,0,0,0,1.395.5,2.437,2.437,0,0,0,2.039-.945l1.109,1.242A3.389,3.389,0,0,1-26.922-.246,4.511,4.511,0,0,1-28.844.156ZM-29.1-6.789a1.411,1.411,0,0,0-1.09.455,2.357,2.357,0,0,0-.535,1.3h3.141v-.181a1.681,1.681,0,0,0-.406-1.165A1.456,1.456,0,0,0-29.1-6.789Zm9.594,4.453a.727.727,0,0,0-.41-.652,4.659,4.659,0,0,0-1.316-.426q-3.016-.633-3.016-2.562a2.323,2.323,0,0,1,.934-1.879,3.766,3.766,0,0,1,2.441-.754,4.053,4.053,0,0,1,2.574.758,2.388,2.388,0,0,1,.965,1.969h-2.258a1.092,1.092,0,0,0-.312-.8A1.322,1.322,0,0,0-20.883-7a1.351,1.351,0,0,0-.883.258.814.814,0,0,0-.312.656.7.7,0,0,0,.355.605,3.657,3.657,0,0,0,1.2.4A9.8,9.8,0,0,1-19.1-4.7,2.336,2.336,0,0,1-17.312-2.43,2.2,2.2,0,0,1-18.3-.559a4.28,4.28,0,0,1-2.562.715,4.47,4.47,0,0,1-1.887-.379,3.166,3.166,0,0,1-1.293-1.039,2.414,2.414,0,0,1-.469-1.426h2.141a1.179,1.179,0,0,0,.445.922,1.766,1.766,0,0,0,1.109.32,1.635,1.635,0,0,0,.98-.246A.766.766,0,0,0-19.508-2.336ZM-10.961,0a2.507,2.507,0,0,1-.227-.758A2.732,2.732,0,0,1-13.32.156a3,3,0,0,1-2.059-.719A2.312,2.312,0,0,1-16.2-2.375a2.389,2.389,0,0,1,1-2.062,4.915,4.915,0,0,1,2.879-.727h1.039v-.484a1.393,1.393,0,0,0-.3-.937,1.183,1.183,0,0,0-.949-.352,1.345,1.345,0,0,0-.895.273.929.929,0,0,0-.324.75h-2.258a2.268,2.268,0,0,1,.453-1.359,3,3,0,0,1,1.281-.98,4.669,4.669,0,0,1,1.859-.355,3.689,3.689,0,0,1,2.48.785,2.747,2.747,0,0,1,.918,2.207v3.664A4.041,4.041,0,0,0-8.68-.133V0Zm-1.867-1.57a1.945,1.945,0,0,0,.922-.223,1.462,1.462,0,0,0,.625-.6V-3.844h-.844q-1.7,0-1.8,1.172l-.008.133a.9.9,0,0,0,.3.7A1.153,1.153,0,0,0-12.828-1.57Zm10.3-4.766A6.134,6.134,0,0,0-3.344-6.4a1.654,1.654,0,0,0-1.68.867V0H-7.281V-8.453h2.133l.063,1.008A2.092,2.092,0,0,1-3.2-8.609a2.366,2.366,0,0,1,.7.1ZM7.438,0a2.507,2.507,0,0,1-.227-.758A2.732,2.732,0,0,1,5.078.156,3,3,0,0,1,3.02-.562,2.312,2.312,0,0,1,2.2-2.375a2.389,2.389,0,0,1,1-2.062,4.915,4.915,0,0,1,2.879-.727H7.117v-.484a1.393,1.393,0,0,0-.3-.937,1.183,1.183,0,0,0-.949-.352,1.345,1.345,0,0,0-.895.273.929.929,0,0,0-.324.75H2.391a2.268,2.268,0,0,1,.453-1.359,3,3,0,0,1,1.281-.98,4.669,4.669,0,0,1,1.859-.355,3.689,3.689,0,0,1,2.48.785,2.747,2.747,0,0,1,.918,2.207v3.664a4.041,4.041,0,0,0,.336,1.82V0ZM5.57-1.57a1.945,1.945,0,0,0,.922-.223,1.462,1.462,0,0,0,.625-.6V-3.844H6.273q-1.7,0-1.8,1.172l-.008.133a.9.9,0,0,0,.3.7A1.153,1.153,0,0,0,5.57-1.57ZM13.5,0H11.234V-12H13.5Zm9.359-1.664a1.481,1.481,0,0,0,1.016-.344,1.2,1.2,0,0,0,.406-.914H26.4a2.9,2.9,0,0,1-.469,1.574A3.093,3.093,0,0,1,24.668-.238,3.949,3.949,0,0,1,22.9.156,3.67,3.67,0,0,1,20.039-1,4.56,4.56,0,0,1,18.992-4.18v-.148a4.508,4.508,0,0,1,1.039-3.117,3.627,3.627,0,0,1,2.852-1.164,3.555,3.555,0,0,1,2.543.9A3.2,3.2,0,0,1,26.4-5.3H24.281a1.551,1.551,0,0,0-.406-1.072,1.354,1.354,0,0,0-1.031-.412,1.36,1.36,0,0,0-1.191.575,3.333,3.333,0,0,0-.4,1.866v.235a3.375,3.375,0,0,0,.4,1.878A1.377,1.377,0,0,0,22.859-1.664ZM30.07,0H27.8V-12H30.07Zm4.242,0H32.047V-8.453h2.266Zm-2.4-10.641a1.112,1.112,0,0,1,.34-.836,1.277,1.277,0,0,1,.926-.328,1.28,1.28,0,0,1,.922.328,1.105,1.105,0,0,1,.344.836A1.108,1.108,0,0,1,34.1-9.8a1.283,1.283,0,0,1-.918.328,1.283,1.283,0,0,1-.918-.328A1.108,1.108,0,0,1,31.914-10.641ZM40.063.156A4.15,4.15,0,0,1,37.035-.984a4.054,4.054,0,0,1-1.168-3.039v-.219a5.106,5.106,0,0,1,.492-2.277,3.612,3.612,0,0,1,1.395-1.547,3.914,3.914,0,0,1,2.059-.543,3.508,3.508,0,0,1,2.73,1.094,4.444,4.444,0,0,1,1,3.1v.922H38.156a2.1,2.1,0,0,0,.66,1.328,2,2,0,0,0,1.395.5,2.437,2.437,0,0,0,2.039-.945l1.109,1.242A3.389,3.389,0,0,1,41.984-.246,4.511,4.511,0,0,1,40.063.156ZM39.8-6.789a1.411,1.411,0,0,0-1.09.455,2.357,2.357,0,0,0-.535,1.3H41.32v-.181a1.681,1.681,0,0,0-.406-1.165A1.456,1.456,0,0,0,39.8-6.789ZM46.9-8.453l.07.977A2.951,2.951,0,0,1,49.4-8.609a2.453,2.453,0,0,1,2,.789,3.682,3.682,0,0,1,.672,2.359V0H49.813V-5.419A1.47,1.47,0,0,0,49.5-6.464a1.4,1.4,0,0,0-1.039-.325,1.553,1.553,0,0,0-1.43.814V0H44.773V-8.453Zm9.586-2.078v2.078H57.93V-6.8H56.484v4.219a1.007,1.007,0,0,0,.18.672.9.9,0,0,0,.688.2,3.6,3.6,0,0,0,.664-.055V-.047a4.648,4.648,0,0,1-1.367.2,2.156,2.156,0,0,1-2.422-2.4V-6.8H52.992V-8.453h1.234v-2.078ZM63.078.156A4.15,4.15,0,0,1,60.051-.984a4.054,4.054,0,0,1-1.168-3.039v-.219a5.106,5.106,0,0,1,.492-2.277A3.612,3.612,0,0,1,60.77-8.066a3.914,3.914,0,0,1,2.059-.543,3.508,3.508,0,0,1,2.73,1.094,4.444,4.444,0,0,1,1,3.1v.922H61.172a2.1,2.1,0,0,0,.66,1.328,2,2,0,0,0,1.395.5,2.437,2.437,0,0,0,2.039-.945l1.109,1.242A3.389,3.389,0,0,1,65-.246,4.511,4.511,0,0,1,63.078.156ZM62.82-6.789a1.411,1.411,0,0,0-1.09.455,2.357,2.357,0,0,0-.535,1.3h3.141v-.181a1.681,1.681,0,0,0-.406-1.165A1.456,1.456,0,0,0,62.82-6.789Z" transform="translate(-624.115 -10049.834)" fill="#fff"/>
    <path id="Trazado_622687" data-name="Trazado 622687" d="M1.69,0H-1.679V-16.352H1.69Z" transform="translate(-723.959 -10049.14)" fill="#12263f"/>
  </g>
</svg>
