<svg xmlns="http://www.w3.org/2000/svg" width="199.246" height="56.031" viewBox="0 0 199.246 56.031">
  <g id="Grupo_909310" data-name="Grupo 909310" transform="translate(534.164 10082.694)">
    <path id="Trazado_622680" data-name="Trazado 622680" d="M5,0H192.965a5,5,0,0,1,5,5V50.706a5,5,0,0,1-5,5H5a5,5,0,0,1-5-5V5A5,5,0,0,1,5,0Z" transform="translate(-532.883 -10082.369)" fill="#cb7304"/>
    <g id="Trazado_622681" data-name="Trazado 622681" transform="translate(-534.164 -10082.694)" fill="#fff">
      <path d="M 31.19005584716797 55.20632171630859 L 4.999996185302734 55.20632171630859 C 2.518686056137085 55.20632171630859 0.4999960064888 53.18762969970703 0.4999960064888 50.70632171630859 L 0.4999960064888 5.000000953674316 C 0.4999960064888 2.518690824508667 2.518686056137085 0.5000008344650269 4.999996185302734 0.5000008344650269 L 31.19005584716797 0.5000008344650269 C 33.67136764526367 0.5000008344650269 35.69005584716797 2.518690824508667 35.69005584716797 5.000000953674316 L 35.69005584716797 50.70632171630859 C 35.69005584716797 53.18762969970703 33.67136764526367 55.20632171630859 31.19005584716797 55.20632171630859 Z" stroke="none"/>
      <path d="M 4.999996185302734 1 C 2.794387817382812 1 0.9999961853027344 2.794391632080078 0.9999961853027344 5 L 0.9999961853027344 50.70632171630859 C 0.9999961853027344 52.91193008422852 2.794387817382812 54.70632171630859 4.999996185302734 54.70632171630859 L 31.19005584716797 54.70632171630859 C 33.39566802978516 54.70632171630859 35.19005584716797 52.91193008422852 35.19005584716797 50.70632171630859 L 35.19005584716797 5 C 35.19005584716797 2.794391632080078 33.39566802978516 1 31.19005584716797 1 L 4.999996185302734 1 M 4.999996185302734 0 L 31.19005584716797 0 C 33.95147705078125 0 36.19005584716797 2.238571166992188 36.19005584716797 5 L 36.19005584716797 50.70632171630859 C 36.19005584716797 53.46773910522461 33.95147705078125 55.70632171630859 31.19005584716797 55.70632171630859 L 4.999996185302734 55.70632171630859 C 2.238574981689453 55.70632171630859 -3.814697265625e-06 53.46773910522461 -3.814697265625e-06 50.70632171630859 L -3.814697265625e-06 5 C -3.814697265625e-06 2.238571166992188 2.238574981689453 0 4.999996185302734 0 Z" stroke="none" fill="#cb7304"/>
    </g>
    <path id="Trazado_622682" data-name="Trazado 622682" d="M-70.864,0V-12.086h3.719a5.647,5.647,0,0,1,2.851.718,5.007,5.007,0,0,1,1.963,2.042,6.3,6.3,0,0,1,.706,3.009v.556a6.316,6.316,0,0,1-.693,3A4.964,4.964,0,0,1-64.273-.73,5.69,5.69,0,0,1-67.12,0Zm2.49-10.069V-2h1.2a2.7,2.7,0,0,0,2.233-.955,4.314,4.314,0,0,0,.789-2.731v-.639a4.382,4.382,0,0,0-.764-2.793,2.7,2.7,0,0,0-2.233-.95ZM-55.839.166a4.409,4.409,0,0,1-3.217-1.212A4.308,4.308,0,0,1-60.3-4.275v-.232a5.426,5.426,0,0,1,.523-2.42,3.838,3.838,0,0,1,1.482-1.644A4.159,4.159,0,0,1-56.1-9.147a3.727,3.727,0,0,1,2.9,1.162,4.722,4.722,0,0,1,1.058,3.3v.979h-5.719a2.229,2.229,0,0,0,.7,1.411,2.12,2.12,0,0,0,1.482.531,2.589,2.589,0,0,0,2.167-1l1.179,1.32A3.6,3.6,0,0,1-53.8-.261,4.793,4.793,0,0,1-55.839.166Zm-.274-7.379a1.5,1.5,0,0,0-1.158.484,2.5,2.5,0,0,0-.569,1.384H-54.5v-.192a1.786,1.786,0,0,0-.432-1.238A1.547,1.547,0,0,0-56.113-7.213ZM-45.92-2.482a.773.773,0,0,0-.436-.693,4.95,4.95,0,0,0-1.4-.452q-3.2-.672-3.2-2.723a2.468,2.468,0,0,1,.992-2,4,4,0,0,1,2.594-.8,4.307,4.307,0,0,1,2.735.805A2.538,2.538,0,0,1-43.612-6.25h-2.4a1.161,1.161,0,0,0-.332-.851,1.405,1.405,0,0,0-1.038-.336,1.436,1.436,0,0,0-.938.274.865.865,0,0,0-.332.7.739.739,0,0,0,.378.643A3.885,3.885,0,0,0-47-5.4a10.407,10.407,0,0,1,1.511.4,2.482,2.482,0,0,1,1.9,2.416A2.343,2.343,0,0,1-44.642-.594a4.548,4.548,0,0,1-2.723.76,4.75,4.75,0,0,1-2-.4,3.363,3.363,0,0,1-1.374-1.1,2.565,2.565,0,0,1-.5-1.515h2.274a1.252,1.252,0,0,0,.473.979,1.877,1.877,0,0,0,1.179.34A1.737,1.737,0,0,0-46.273-1.8.814.814,0,0,0-45.92-2.482Zm11.961-1.926A5.387,5.387,0,0,1-34.9-1.083,3.021,3.021,0,0,1-37.445.166a2.8,2.8,0,0,1-2.2-.946V3.453h-2.4V-8.981h2.225l.083.88a2.819,2.819,0,0,1,2.274-1.046A3.041,3.041,0,0,1-34.88-7.919a5.532,5.532,0,0,1,.921,3.387Zm-2.4-.183a3.554,3.554,0,0,0-.444-1.94,1.445,1.445,0,0,0-1.291-.683,1.57,1.57,0,0,0-1.552.866v3.689a1.6,1.6,0,0,0,1.569.891Q-36.357-1.768-36.357-4.591ZM-28.339.166a4.409,4.409,0,0,1-3.217-1.212A4.308,4.308,0,0,1-32.8-4.275v-.232a5.426,5.426,0,0,1,.523-2.42,3.838,3.838,0,0,1,1.482-1.644A4.159,4.159,0,0,1-28.6-9.147a3.727,3.727,0,0,1,2.9,1.162,4.722,4.722,0,0,1,1.058,3.3v.979h-5.719a2.229,2.229,0,0,0,.7,1.411,2.12,2.12,0,0,0,1.482.531,2.589,2.589,0,0,0,2.167-1l1.179,1.32A3.6,3.6,0,0,1-26.3-.261,4.793,4.793,0,0,1-28.339.166Zm-.274-7.379a1.5,1.5,0,0,0-1.158.484,2.5,2.5,0,0,0-.569,1.384H-27v-.192a1.786,1.786,0,0,0-.432-1.238A1.547,1.547,0,0,0-28.613-7.213Zm10.376.481A6.517,6.517,0,0,0-19.1-6.8a1.757,1.757,0,0,0-1.785.921V0h-2.4V-8.981h2.266l.066,1.071a2.223,2.223,0,0,1,2-1.237,2.514,2.514,0,0,1,.747.108Zm4.441-4.458v2.208h1.536v1.76H-13.8v4.482a1.07,1.07,0,0,0,.191.714.959.959,0,0,0,.73.216,3.826,3.826,0,0,0,.706-.058V-.05a4.939,4.939,0,0,1-1.453.216,2.29,2.29,0,0,1-2.573-2.548V-7.222h-1.312v-1.76h1.312v-2.208ZM-5.719,0A2.664,2.664,0,0,1-5.96-.805,2.9,2.9,0,0,1-8.226.166,3.189,3.189,0,0,1-10.413-.6a2.456,2.456,0,0,1-.867-1.926,2.538,2.538,0,0,1,1.058-2.191,5.222,5.222,0,0,1,3.059-.772h1.1V-6a1.48,1.48,0,0,0-.32-1,1.257,1.257,0,0,0-1.009-.374,1.429,1.429,0,0,0-.95.291.987.987,0,0,0-.344.8h-2.4A2.41,2.41,0,0,1-10.6-7.728,3.182,3.182,0,0,1-9.239-8.77a4.961,4.961,0,0,1,1.976-.378,3.92,3.92,0,0,1,2.635.834,2.918,2.918,0,0,1,.975,2.345v3.893A4.294,4.294,0,0,0-3.3-.141V0ZM-7.7-1.668a2.066,2.066,0,0,0,.979-.237A1.554,1.554,0,0,0-6.06-2.54V-4.084h-.9q-1.8,0-1.917,1.245l-.008.141a.96.96,0,0,0,.315.739A1.225,1.225,0,0,0-7.7-1.668ZM3.237-6.732A6.517,6.517,0,0,0,2.374-6.8a1.757,1.757,0,0,0-1.785.921V0h-2.4V-8.981H.457L.523-7.911a2.223,2.223,0,0,1,2-1.237,2.514,2.514,0,0,1,.747.108Zm9.521,6.9A4.409,4.409,0,0,1,9.542-1.046,4.308,4.308,0,0,1,8.3-4.275v-.232a5.426,5.426,0,0,1,.523-2.42,3.838,3.838,0,0,1,1.482-1.644,4.159,4.159,0,0,1,2.187-.577,3.727,3.727,0,0,1,2.9,1.162,4.722,4.722,0,0,1,1.058,3.3v.979H10.733a2.229,2.229,0,0,0,.7,1.411,2.12,2.12,0,0,0,1.482.531,2.589,2.589,0,0,0,2.167-1l1.179,1.32A3.6,3.6,0,0,1,14.8-.261,4.793,4.793,0,0,1,12.758.166Zm-.274-7.379a1.5,1.5,0,0,0-1.158.484,2.5,2.5,0,0,0-.569,1.384h3.337v-.192a1.786,1.786,0,0,0-.432-1.238A1.547,1.547,0,0,0,12.484-7.213ZM20.345,0H17.938V-12.75h2.407Zm5.835-4.557A5.413,5.413,0,0,1,27.123-7.9,3.057,3.057,0,0,1,29.7-9.147a2.751,2.751,0,0,1,2.167.979V-12.75h2.407V0H32.107l-.116-.955A2.823,2.823,0,0,1,29.684.166a3.049,3.049,0,0,1-2.544-1.249A5.587,5.587,0,0,1,26.181-4.557Zm2.4.171a3.565,3.565,0,0,0,.44,1.943,1.432,1.432,0,0,0,1.278.675,1.6,1.6,0,0,0,1.569-.942V-6.271a1.582,1.582,0,0,0-1.552-.942Q28.58-7.213,28.58-4.386ZM40.267.166a4.409,4.409,0,0,1-3.217-1.212A4.308,4.308,0,0,1,35.81-4.275v-.232a5.426,5.426,0,0,1,.523-2.42,3.838,3.838,0,0,1,1.482-1.644A4.159,4.159,0,0,1,40-9.147a3.727,3.727,0,0,1,2.9,1.162,4.722,4.722,0,0,1,1.058,3.3v.979H38.242a2.229,2.229,0,0,0,.7,1.411,2.12,2.12,0,0,0,1.482.531,2.589,2.589,0,0,0,2.167-1l1.179,1.32A3.6,3.6,0,0,1,42.309-.261,4.793,4.793,0,0,1,40.267.166Zm-.274-7.379a1.5,1.5,0,0,0-1.158.484,2.5,2.5,0,0,0-.569,1.384H41.6v-.192a1.786,1.786,0,0,0-.432-1.238A1.547,1.547,0,0,0,39.993-7.213ZM50.187-2.482a.773.773,0,0,0-.436-.693,4.95,4.95,0,0,0-1.4-.452q-3.2-.672-3.2-2.723a2.468,2.468,0,0,1,.992-2,4,4,0,0,1,2.594-.8,4.307,4.307,0,0,1,2.735.805A2.538,2.538,0,0,1,52.494-6.25H50.1a1.161,1.161,0,0,0-.332-.851,1.405,1.405,0,0,0-1.038-.336,1.436,1.436,0,0,0-.938.274.865.865,0,0,0-.332.7.739.739,0,0,0,.378.643,3.885,3.885,0,0,0,1.274.423,10.407,10.407,0,0,1,1.511.4,2.482,2.482,0,0,1,1.9,2.416A2.343,2.343,0,0,1,51.465-.594a4.548,4.548,0,0,1-2.723.76,4.75,4.75,0,0,1-2-.4,3.363,3.363,0,0,1-1.374-1.1,2.565,2.565,0,0,1-.5-1.515H47.14a1.252,1.252,0,0,0,.473.979,1.877,1.877,0,0,0,1.179.34A1.737,1.737,0,0,0,49.834-1.8.814.814,0,0,0,50.187-2.482ZM58.2.166A4.409,4.409,0,0,1,54.98-1.046a4.308,4.308,0,0,1-1.241-3.229v-.232a5.426,5.426,0,0,1,.523-2.42,3.838,3.838,0,0,1,1.482-1.644,4.159,4.159,0,0,1,2.187-.577,3.727,3.727,0,0,1,2.9,1.162,4.722,4.722,0,0,1,1.058,3.3v.979H56.171a2.229,2.229,0,0,0,.7,1.411,2.12,2.12,0,0,0,1.482.531,2.589,2.589,0,0,0,2.167-1L61.7-1.453A3.6,3.6,0,0,1,60.239-.261,4.793,4.793,0,0,1,58.2.166Zm-.274-7.379a1.5,1.5,0,0,0-1.158.484A2.5,2.5,0,0,0,56.2-5.346h3.337v-.192A1.786,1.786,0,0,0,59.1-6.776,1.547,1.547,0,0,0,57.923-7.213Zm4.956,2.64a5.327,5.327,0,0,1,.515-2.382,3.768,3.768,0,0,1,1.482-1.619,4.323,4.323,0,0,1,2.245-.573,4.09,4.09,0,0,1,2.968,1.112A4.464,4.464,0,0,1,71.37-5.014l.017.614a4.694,4.694,0,0,1-1.154,3.316,4.011,4.011,0,0,1-3.1,1.249,4.031,4.031,0,0,1-3.1-1.245,4.777,4.777,0,0,1-1.158-3.387Zm2.4.17a3.357,3.357,0,0,0,.481,1.958,1.588,1.588,0,0,0,1.378.678A1.592,1.592,0,0,0,68.5-2.437a3.674,3.674,0,0,0,.49-2.141,3.324,3.324,0,0,0-.49-1.945,1.592,1.592,0,0,0-1.378-.69,1.566,1.566,0,0,0-1.361.686A3.736,3.736,0,0,0,65.277-4.4Z" transform="translate(-417.197 -10049.834)" fill="#fff"/>
    <path id="Trazado_622683" data-name="Trazado 622683" d="M-6.537,0V-17.773h5.469a8.3,8.3,0,0,1,4.193,1.056,7.363,7.363,0,0,1,2.887,3A9.262,9.262,0,0,1,7.05-9.29v.818A9.288,9.288,0,0,1,6.03-4.065,7.3,7.3,0,0,1,3.156-1.074,8.368,8.368,0,0,1-1.031,0Zm3.662-14.807V-2.942H-1.1a3.977,3.977,0,0,0,3.284-1.4,6.344,6.344,0,0,0,1.16-4.016V-9.3a6.444,6.444,0,0,0-1.123-4.108,3.963,3.963,0,0,0-3.284-1.4Z" transform="translate(-517.057 -10047.14)" fill="#12263f"/>
  </g>
</svg>
