<svg xmlns="http://www.w3.org/2000/svg" width="199.246" height="56.031" viewBox="0 0 199.246 56.031">
  <g id="Grupo_909312" data-name="Grupo 909312" transform="translate(948 10082.694)">
    <path id="Trazado_622676" data-name="Trazado 622676" d="M5,0H192.965a5,5,0,0,1,5,5V50.706a5,5,0,0,1-5,5H5a5,5,0,0,1-5-5V5A5,5,0,0,1,5,0Z" transform="translate(-946.719 -10082.369)" fill="#12263f"/>
    <g id="Trazado_622677" data-name="Trazado 622677" transform="translate(-948 -10082.694)" fill="#fff">
      <path d="M 31.19005584716797 55.20632171630859 L 4.999996185302734 55.20632171630859 C 2.518686056137085 55.20632171630859 0.4999960064888 53.18762969970703 0.4999960064888 50.70632171630859 L 0.4999960064888 5.000000953674316 C 0.4999960064888 2.518690824508667 2.518686056137085 0.5000008344650269 4.999996185302734 0.5000008344650269 L 31.19005584716797 0.5000008344650269 C 33.67136764526367 0.5000008344650269 35.69005584716797 2.518690824508667 35.69005584716797 5.000000953674316 L 35.69005584716797 50.70632171630859 C 35.69005584716797 53.18762969970703 33.67136764526367 55.20632171630859 31.19005584716797 55.20632171630859 Z" stroke="none"/>
      <path d="M 4.999996185302734 1 C 2.794387817382812 1 0.9999961853027344 2.794391632080078 0.9999961853027344 5 L 0.9999961853027344 50.70632171630859 C 0.9999961853027344 52.91193008422852 2.794387817382812 54.70632171630859 4.999996185302734 54.70632171630859 L 31.19005584716797 54.70632171630859 C 33.39566802978516 54.70632171630859 35.19005584716797 52.91193008422852 35.19005584716797 50.70632171630859 L 35.19005584716797 5 C 35.19005584716797 2.794391632080078 33.39566802978516 1 31.19005584716797 1 L 4.999996185302734 1 M 4.999996185302734 0 L 31.19005584716797 0 C 33.95147705078125 0 36.19005584716797 2.238571166992188 36.19005584716797 5 L 36.19005584716797 50.70632171630859 C 36.19005584716797 53.46773910522461 33.95147705078125 55.70632171630859 31.19005584716797 55.70632171630859 L 4.999996185302734 55.70632171630859 C 2.238574981689453 55.70632171630859 -3.814697265625e-06 53.46773910522461 -3.814697265625e-06 50.70632171630859 L -3.814697265625e-06 5 C -3.814697265625e-06 2.238571166992188 2.238574981689453 0 4.999996185302734 0 Z" stroke="none" fill="#12263f"/>
    </g>
    <path id="Trazado_622678" data-name="Trazado 622678" d="M-56.4-2.344h-4.109L-61.293,0h-2.492l4.234-11.375h2.172L-53.121,0h-2.492Zm-3.477-1.9h2.844L-58.465-8.5Zm10.242-6.289v2.078h1.445V-6.8h-1.445v4.219a1.007,1.007,0,0,0,.18.672.9.9,0,0,0,.688.2,3.6,3.6,0,0,0,.664-.055V-.047a4.648,4.648,0,0,1-1.367.2,2.156,2.156,0,0,1-2.422-2.4V-6.8h-1.234V-8.453h1.234v-2.078Zm7.453,4.2A6.134,6.134,0,0,0-43-6.4a1.654,1.654,0,0,0-1.68.867V0h-2.258V-8.453H-44.8l.063,1.008a2.092,2.092,0,0,1,1.883-1.164,2.366,2.366,0,0,1,.7.1ZM-36.434,0a2.507,2.507,0,0,1-.227-.758,2.732,2.732,0,0,1-2.133.914,3,3,0,0,1-2.059-.719,2.312,2.312,0,0,1-.816-1.812,2.389,2.389,0,0,1,1-2.062,4.915,4.915,0,0,1,2.879-.727h1.039v-.484a1.393,1.393,0,0,0-.3-.937A1.183,1.183,0,0,0-38-6.937a1.345,1.345,0,0,0-.895.273.929.929,0,0,0-.324.75H-41.48a2.268,2.268,0,0,1,.453-1.359,3,3,0,0,1,1.281-.98,4.669,4.669,0,0,1,1.859-.355,3.689,3.689,0,0,1,2.48.785,2.747,2.747,0,0,1,.918,2.207v3.664a4.041,4.041,0,0,0,.336,1.82V0ZM-38.3-1.57a1.945,1.945,0,0,0,.922-.223,1.462,1.462,0,0,0,.625-.6V-3.844H-37.6q-1.7,0-1.8,1.172l-.008.133a.9.9,0,0,0,.3.7A1.153,1.153,0,0,0-38.3-1.57ZM-28.863.156A4.15,4.15,0,0,1-31.891-.984a4.054,4.054,0,0,1-1.168-3.039v-.219a5.106,5.106,0,0,1,.492-2.277,3.612,3.612,0,0,1,1.395-1.547,3.914,3.914,0,0,1,2.059-.543,3.508,3.508,0,0,1,2.73,1.094,4.444,4.444,0,0,1,1,3.1v.922H-30.77a2.1,2.1,0,0,0,.66,1.328,2,2,0,0,0,1.395.5,2.437,2.437,0,0,0,2.039-.945l1.109,1.242A3.389,3.389,0,0,1-26.941-.246,4.511,4.511,0,0,1-28.863.156Zm-.258-6.945a1.411,1.411,0,0,0-1.09.455,2.357,2.357,0,0,0-.535,1.3h3.141v-.181a1.681,1.681,0,0,0-.406-1.165A1.456,1.456,0,0,0-29.121-6.789Zm9.766.453a6.134,6.134,0,0,0-.812-.062,1.654,1.654,0,0,0-1.68.867V0h-2.258V-8.453h2.133l.063,1.008a2.092,2.092,0,0,1,1.883-1.164,2.366,2.366,0,0,1,.7.1ZM-11.9,0h-2.266V-12H-11.9Zm6.758,0a2.507,2.507,0,0,1-.227-.758A2.732,2.732,0,0,1-7.5.156,3,3,0,0,1-9.562-.562a2.312,2.312,0,0,1-.816-1.812,2.389,2.389,0,0,1,1-2.062A4.915,4.915,0,0,1-6.5-5.164h1.039v-.484a1.393,1.393,0,0,0-.3-.937,1.183,1.183,0,0,0-.949-.352,1.345,1.345,0,0,0-.895.273.929.929,0,0,0-.324.75h-2.258a2.268,2.268,0,0,1,.453-1.359,3,3,0,0,1,1.281-.98A4.669,4.669,0,0,1-6.6-8.609a3.689,3.689,0,0,1,2.48.785A2.747,2.747,0,0,1-3.2-5.617v3.664a4.041,4.041,0,0,0,.336,1.82V0ZM-7.012-1.57a1.945,1.945,0,0,0,.922-.223,1.462,1.462,0,0,0,.625-.6V-3.844h-.844q-1.7,0-1.8,1.172l-.008.133a.9.9,0,0,0,.3.7A1.153,1.153,0,0,0-7.012-1.57ZM7.418,0a2.507,2.507,0,0,1-.227-.758A2.732,2.732,0,0,1,5.059.156,3,3,0,0,1,3-.562a2.312,2.312,0,0,1-.816-1.812,2.389,2.389,0,0,1,1-2.062,4.915,4.915,0,0,1,2.879-.727H7.1v-.484a1.393,1.393,0,0,0-.3-.937,1.183,1.183,0,0,0-.949-.352,1.345,1.345,0,0,0-.895.273.929.929,0,0,0-.324.75H2.371a2.268,2.268,0,0,1,.453-1.359,3,3,0,0,1,1.281-.98,4.669,4.669,0,0,1,1.859-.355,3.689,3.689,0,0,1,2.48.785,2.747,2.747,0,0,1,.918,2.207v3.664A4.041,4.041,0,0,0,9.7-.133V0ZM5.551-1.57a1.945,1.945,0,0,0,.922-.223,1.462,1.462,0,0,0,.625-.6V-3.844H6.254q-1.7,0-1.8,1.172l-.008.133a.9.9,0,0,0,.3.7A1.153,1.153,0,0,0,5.551-1.57Zm8.25-8.961v2.078h1.445V-6.8H13.8v4.219a1.007,1.007,0,0,0,.18.672.9.9,0,0,0,.688.2,3.6,3.6,0,0,0,.664-.055V-.047a4.648,4.648,0,0,1-1.367.2,2.156,2.156,0,0,1-2.422-2.4V-6.8H10.309V-8.453h1.234v-2.078ZM20.395.156A4.15,4.15,0,0,1,17.367-.984,4.054,4.054,0,0,1,16.2-4.023v-.219a5.106,5.106,0,0,1,.492-2.277,3.612,3.612,0,0,1,1.395-1.547,3.914,3.914,0,0,1,2.059-.543,3.508,3.508,0,0,1,2.73,1.094,4.444,4.444,0,0,1,1,3.1v.922H18.488a2.1,2.1,0,0,0,.66,1.328,2,2,0,0,0,1.395.5,2.437,2.437,0,0,0,2.039-.945l1.109,1.242A3.389,3.389,0,0,1,22.316-.246,4.511,4.511,0,0,1,20.395.156Zm-.258-6.945a1.411,1.411,0,0,0-1.09.455,2.357,2.357,0,0,0-.535,1.3h3.141v-.181a1.681,1.681,0,0,0-.406-1.165A1.456,1.456,0,0,0,20.137-6.789ZM27.23-8.453l.07.977a2.951,2.951,0,0,1,2.43-1.133,2.453,2.453,0,0,1,2,.789A3.682,3.682,0,0,1,32.4-5.461V0H30.145V-5.419a1.47,1.47,0,0,0-.312-1.045,1.4,1.4,0,0,0-1.039-.325,1.553,1.553,0,0,0-1.43.814V0H25.105V-8.453Zm10.4,6.789a1.481,1.481,0,0,0,1.016-.344,1.2,1.2,0,0,0,.406-.914h2.117A2.9,2.9,0,0,1,40.7-1.348,3.093,3.093,0,0,1,39.438-.238a3.949,3.949,0,0,1-1.77.395A3.67,3.67,0,0,1,34.809-1,4.56,4.56,0,0,1,33.762-4.18v-.148A4.508,4.508,0,0,1,34.8-7.445a3.627,3.627,0,0,1,2.852-1.164,3.555,3.555,0,0,1,2.543.9,3.2,3.2,0,0,1,.973,2.4H39.051a1.551,1.551,0,0,0-.406-1.072,1.354,1.354,0,0,0-1.031-.412,1.36,1.36,0,0,0-1.191.575,3.333,3.333,0,0,0-.4,1.866v.235a3.375,3.375,0,0,0,.4,1.878A1.377,1.377,0,0,0,37.629-1.664ZM44.84,0H42.574V-8.453H44.84Zm-2.4-10.641a1.112,1.112,0,0,1,.34-.836,1.277,1.277,0,0,1,.926-.328,1.28,1.28,0,0,1,.922.328,1.105,1.105,0,0,1,.344.836,1.108,1.108,0,0,1-.348.844,1.283,1.283,0,0,1-.918.328,1.283,1.283,0,0,1-.918-.328A1.108,1.108,0,0,1,42.441-10.641ZM46.348-4.3a5.013,5.013,0,0,1,.484-2.242A3.546,3.546,0,0,1,48.227-8.07a4.069,4.069,0,0,1,2.113-.539,3.849,3.849,0,0,1,2.793,1.047A4.2,4.2,0,0,1,54.34-4.719l.016.578A4.418,4.418,0,0,1,53.27-1.02,3.775,3.775,0,0,1,50.355.156a3.793,3.793,0,0,1-2.918-1.172A4.5,4.5,0,0,1,46.348-4.2Zm2.258.16A3.16,3.16,0,0,0,49.059-2.3a1.5,1.5,0,0,0,1.3.638,1.5,1.5,0,0,0,1.281-.63A3.457,3.457,0,0,0,52.1-4.309a3.128,3.128,0,0,0-.461-1.831,1.5,1.5,0,0,0-1.3-.649,1.474,1.474,0,0,0-1.281.646A3.516,3.516,0,0,0,48.605-4.144ZM50.785-12h2.461L51.082-9.578H49.246Zm7.039,3.547.07.977a2.951,2.951,0,0,1,2.43-1.133,2.453,2.453,0,0,1,2,.789A3.682,3.682,0,0,1,63-5.461V0H60.738V-5.419a1.47,1.47,0,0,0-.312-1.045,1.4,1.4,0,0,0-1.039-.325,1.553,1.553,0,0,0-1.43.814V0H55.7V-8.453Z" transform="translate(-831.033 -10049.834)" fill="#fff"/>
    <path id="Trazado_622679" data-name="Trazado 622679" d="M2.954-3.369H-2.954L-4.077,0H-7.659l6.087-16.352H1.55L7.67,0H4.088Zm-5-2.729H2.044L-.011-12.219Z" transform="translate(-930.639 -10049.14)" fill="#12263f"/>
  </g>
</svg>
