<?xml version="1.0" encoding="utf-8"?>
<!-- Generator: Adobe Illustrator 26.5.0, SVG Export Plug-In . SVG Version: 6.00 Build 0)  -->
<svg version="1.1" id="OBJECTS" xmlns="http://www.w3.org/2000/svg" xmlns:xlink="http://www.w3.org/1999/xlink" x="0px" y="0px"
	 viewBox="0 0 462.66 426.82" style="enable-background:new 0 0 462.66 426.82;" xml:space="preserve">
<style type="text/css">
	.st0{fill:#F5F5F5;}
	.st1{fill:#E0E0E0;}
	.st2{fill:#EBEBEB;}
	.st3{fill:#FFFFFF;}
	.st4{fill:#263238;}
	.st5{fill:#3FDDC7;}
	.st6{fill:#EBD800;}
	.st7{fill:#6276EF;}
	.st8{fill:none;stroke:#6276EF;stroke-miterlimit:10;}
	.st9{fill:#4D61BC;}
	.st10{fill:#E75526;}
	.st11{fill:#ED8CB1;}
	.st12{fill:none;stroke:#2D21A7;stroke-miterlimit:10;}
	.st13{fill:#252639;}
	.st14{fill:#FFBE9D;}
	.st15{fill:#F09F79;}
	.st16{fill:#EB996E;}
	.st17{fill:#6AEAE4;}
	.st18{fill:none;stroke:#FFFFFF;stroke-linecap:round;stroke-linejoin:round;stroke-miterlimit:10;}
</style>
<g>
	<g id="Grupo_909317" transform="translate(2832 6505.306)">
		<g id="Background_Complete" transform="translate(-2832 -6505.306)">
			<g id="Grupo_904351" transform="translate(220.43 136.54)">
				<g id="Grupo_904269" transform="translate(0 19.207)">
					<g id="Grupo_904268">
						<g id="Grupo_904180">
							<g id="Grupo_904179">
								<g id="Grupo_904178">
									<g id="Grupo_904177">
										<g id="Grupo_904176">
											<g id="Grupo_904175">
												<g id="Grupo_904174">
													<rect id="Rectángulo_304411" x="-3.87" y="123.36" class="st0" width="152.85" height="70.49"/>
												</g>
											</g>
										</g>
									</g>
								</g>
							</g>
						</g>
						<g id="Grupo_904187" transform="translate(2.016 2.137)">
							<g id="Grupo_904186">
								<g id="Grupo_904185">
									<g id="Grupo_904184">
										<g id="Grupo_904183">
											<g id="Grupo_904182">
												<g id="Grupo_904181">
													<path id="Trazado_621367" class="st1" d="M143.33,188.39H-2.38v-63.46h145.71L143.33,188.39z M-1.43,187.44h143.81
														v-61.56H-1.43L-1.43,187.44z"/>
												</g>
											</g>
										</g>
									</g>
								</g>
							</g>
						</g>
						<g id="Grupo_904194" transform="translate(88.079)">
							<g id="Grupo_904193">
								<g id="Grupo_904192">
									<g id="Grupo_904191">
										<g id="Grupo_904190">
											<g id="Grupo_904189">
												<g id="Grupo_904188">
													<rect id="Rectángulo_304412" x="60.9" y="123.36" class="st1" width="37.34" height="70.49"/>
												</g>
											</g>
										</g>
									</g>
								</g>
							</g>
						</g>
						<g id="Grupo_904202" transform="translate(2.183 13.234)">
							<g id="Grupo_904201">
								<g id="Grupo_904200">
									<g id="Grupo_904199">
										<g id="Grupo_904198">
											<g id="Grupo_904197">
												<g id="Grupo_904196">
													<g id="Grupo_904195">
														<path id="Trazado_621368" class="st1" d="M-2.08,133.47h144.76c0.11,0,0.19-0.09,0.19-0.19
															c0-0.11-0.09-0.19-0.19-0.19H-2.08c-0.11,0-0.19,0.09-0.19,0.19C-2.27,133.39-2.18,133.47-2.08,133.47L-2.08,133.47z"
															/>
													</g>
												</g>
											</g>
										</g>
									</g>
								</g>
							</g>
						</g>
						<g id="Grupo_904210" transform="translate(43.923 2.202)">
							<g id="Grupo_904209">
								<g id="Grupo_904208">
									<g id="Grupo_904207">
										<g id="Grupo_904206">
											<g id="Grupo_904205">
												<g id="Grupo_904204">
													<g id="Grupo_904203">
														<path id="Trazado_621369" class="st1" d="M29.04,144.31c0.4-6.38,0.42-12.77,0.05-19.15c0-0.11-0.09-0.2-0.2-0.2
															s-0.2,0.09-0.2,0.2c-0.37,6.38-0.35,12.77,0.05,19.15c0,0.08,0.07,0.15,0.15,0.15
															C28.97,144.46,29.04,144.39,29.04,144.31L29.04,144.31L29.04,144.31z"/>
													</g>
												</g>
											</g>
										</g>
									</g>
								</g>
							</g>
						</g>
						<g id="Grupo_904217" transform="translate(64.452 6.69)">
							<g id="Grupo_904216">
								<g id="Grupo_904215">
									<g id="Grupo_904214">
										<g id="Grupo_904213">
											<g id="Grupo_904212">
												<g id="Grupo_904211">
													<path id="Trazado_621370" class="st1" d="M47.47,130.25c0,1.09-0.88,1.97-1.97,1.97c-1.09,0-1.97-0.88-1.97-1.97
														c0-1.09,0.88-1.97,1.97-1.97C46.59,128.28,47.47,129.16,47.47,130.25C47.47,130.25,47.47,130.25,47.47,130.25z"/>
												</g>
											</g>
										</g>
									</g>
								</g>
							</g>
						</g>
						<g id="Grupo_904224" transform="translate(20.674 6.69)">
							<g id="Grupo_904223">
								<g id="Grupo_904222">
									<g id="Grupo_904221">
										<g id="Grupo_904220">
											<g id="Grupo_904219">
												<g id="Grupo_904218">
													<path id="Trazado_621371" class="st1" d="M15.28,130.25c0,1.09-0.88,1.97-1.97,1.97c-1.09,0-1.97-0.88-1.97-1.97
														c0-1.09,0.88-1.97,1.97-1.97S15.28,129.16,15.28,130.25C15.28,130.25,15.28,130.25,15.28,130.25z"/>
												</g>
											</g>
										</g>
									</g>
								</g>
							</g>
						</g>
						<g id="Grupo_904231" transform="translate(42.863 19.286)">
							<g id="Grupo_904230">
								<g id="Grupo_904229">
									<g id="Grupo_904228">
										<g id="Grupo_904227">
											<g id="Grupo_904226">
												<g id="Grupo_904225">
													<path id="Trazado_621372" class="st1" d="M31.6,139.51c0,1.09-0.88,1.97-1.97,1.97c-1.09,0-1.97-0.88-1.97-1.97
														c0-1.09,0.88-1.97,1.97-1.97l0,0C30.71,137.54,31.6,138.42,31.6,139.51z"/>
												</g>
											</g>
										</g>
									</g>
								</g>
							</g>
						</g>
						<g id="Grupo_904238" transform="translate(5.996 40.621)">
							<g id="Grupo_904237">
								<g id="Grupo_904236">
									<g id="Grupo_904235">
										<g id="Grupo_904234">
											<g id="Grupo_904233">
												<g id="Grupo_904232">
													<path id="Trazado_621373" class="st1" d="M8.41,153.23l-7.87,44.25h4.43l14.51-44.25H8.41z"/>
												</g>
											</g>
										</g>
									</g>
								</g>
							</g>
						</g>
						<g id="Grupo_904245" transform="translate(75.47 40.621)">
							<g id="Grupo_904244">
								<g id="Grupo_904243">
									<g id="Grupo_904242">
										<g id="Grupo_904241">
											<g id="Grupo_904240">
												<g id="Grupo_904239">
													<path id="Trazado_621374" class="st1" d="M62.69,153.23l6.58,44.33h-4.43l-13.22-44.33H62.69z"/>
												</g>
											</g>
										</g>
									</g>
								</g>
							</g>
						</g>
						<g id="Grupo_904252" transform="translate(92.497 40.621)">
							<g id="Grupo_904251">
								<g id="Grupo_904250">
									<g id="Grupo_904249">
										<g id="Grupo_904248">
											<g id="Grupo_904247">
												<g id="Grupo_904246">
													<path id="Trazado_621375" class="st1" d="M75.22,153.23l7.46,44.33h-4.43l-14.1-44.33H75.22z"/>
												</g>
											</g>
										</g>
									</g>
								</g>
							</g>
						</g>
						<g id="Grupo_904259" transform="translate(42.787 30.781)">
							<g id="Grupo_904258">
								<g id="Grupo_904257">
									<g id="Grupo_904256">
										<g id="Grupo_904255">
											<g id="Grupo_904254">
												<g id="Grupo_904253">
													<path id="Trazado_621376" class="st1" d="M31.54,147.96c0,1.09-0.88,1.97-1.97,1.97c-1.09,0-1.97-0.88-1.97-1.97
														c0-1.09,0.88-1.97,1.97-1.97C30.66,145.99,31.54,146.87,31.54,147.96C31.54,147.96,31.54,147.96,31.54,147.96z"/>
												</g>
											</g>
										</g>
									</g>
								</g>
							</g>
						</g>
						<g id="Grupo_904267" transform="translate(2.183 25.812)">
							<g id="Grupo_904266">
								<g id="Grupo_904265">
									<g id="Grupo_904264">
										<g id="Grupo_904263">
											<g id="Grupo_904262">
												<g id="Grupo_904261">
													<g id="Grupo_904260">
														<path id="Trazado_621377" class="st1" d="M-2.08,142.72h144.76c0.11-0.01,0.18-0.1,0.17-0.21
															c-0.01-0.09-0.08-0.16-0.17-0.17H-2.08c-0.11,0.01-0.18,0.1-0.17,0.21C-2.24,142.64-2.17,142.71-2.08,142.72z"/>
													</g>
												</g>
											</g>
										</g>
									</g>
								</g>
							</g>
						</g>
					</g>
				</g>
				<g id="Grupo_904350" transform="translate(34.836)">
					<g id="Grupo_904277">
						<g id="Grupo_904276">
							<g id="Grupo_904275">
								<g id="Grupo_904274">
									<g id="Grupo_904273">
										<g id="Grupo_904272">
											<g id="Grupo_904271">
												<g id="Grupo_904270">
													
														<rect id="Rectángulo_304413" x="21.78" y="109.35" transform="matrix(1 -5.270904e-03 5.270904e-03 1 -0.6006 0.2382)" class="st1" width="46.21" height="9.41"/>
												</g>
											</g>
										</g>
									</g>
								</g>
							</g>
						</g>
					</g>
					<g id="Grupo_904326" transform="translate(0.132 10.612)">
						<g id="Grupo_904285" transform="translate(0 0.059)">
							<g id="Grupo_904284">
								<g id="Grupo_904283">
									<g id="Grupo_904282">
										<g id="Grupo_904281">
											<g id="Grupo_904280">
												<g id="Grupo_904279">
													<g id="Grupo_904278">
														
															<rect id="Rectángulo_304414" x="21.89" y="117.21" transform="matrix(1 -5.288348e-03 5.288348e-03 1 -0.6579 0.2537)" class="st0" width="51.51" height="14.62"/>
													</g>
												</g>
											</g>
										</g>
									</g>
								</g>
							</g>
						</g>
						<g id="Grupo_904293" transform="translate(23.864)">
							<g id="Grupo_904292">
								<g id="Grupo_904291">
									<g id="Grupo_904290">
										<g id="Grupo_904289">
											<g id="Grupo_904288">
												<g id="Grupo_904287">
													<g id="Grupo_904286">
														<path id="Trazado_621378" class="st1" d="M39.65,131.65c-0.33-4.87-0.33-9.75,0-14.62
															C39.98,121.9,39.98,126.79,39.65,131.65z"/>
													</g>
												</g>
											</g>
										</g>
									</g>
								</g>
							</g>
						</g>
						<g id="Grupo_904301" transform="translate(25.111)">
							<g id="Grupo_904300">
								<g id="Grupo_904299">
									<g id="Grupo_904298">
										<g id="Grupo_904297">
											<g id="Grupo_904296">
												<g id="Grupo_904295">
													<g id="Grupo_904294">
														<path id="Trazado_621379" class="st1" d="M40.56,131.65c-0.33-4.87-0.33-9.75,0-14.62
															C40.9,121.9,40.9,126.79,40.56,131.65z"/>
													</g>
												</g>
											</g>
										</g>
									</g>
								</g>
							</g>
						</g>
						<g id="Grupo_904309" transform="translate(4.366)">
							<g id="Grupo_904308">
								<g id="Grupo_904307">
									<g id="Grupo_904306">
										<g id="Grupo_904305">
											<g id="Grupo_904304">
												<g id="Grupo_904303">
													<g id="Grupo_904302">
														<path id="Trazado_621380" class="st1" d="M25.31,131.65c-0.33-4.87-0.33-9.75,0-14.62
															C25.64,121.9,25.64,126.79,25.31,131.65z"/>
													</g>
												</g>
											</g>
										</g>
									</g>
								</g>
							</g>
						</g>
						<g id="Grupo_904317" transform="translate(5.613)">
							<g id="Grupo_904316">
								<g id="Grupo_904315">
									<g id="Grupo_904314">
										<g id="Grupo_904313">
											<g id="Grupo_904312">
												<g id="Grupo_904311">
													<g id="Grupo_904310">
														<path id="Trazado_621381" class="st1" d="M26.22,131.65c-0.33-4.87-0.33-9.75,0-14.62
															C26.56,121.9,26.56,126.79,26.22,131.65z"/>
													</g>
												</g>
											</g>
										</g>
									</g>
								</g>
							</g>
						</g>
						<g id="Grupo_904325" transform="translate(8.478 4.202)">
							<g id="Grupo_904324">
								<g id="Grupo_904323">
									<g id="Grupo_904322">
										<g id="Grupo_904321">
											<g id="Grupo_904320">
												<g id="Grupo_904319">
													<g id="Grupo_904318">
														<path id="Trazado_621382" class="st1" d="M28.08,120.38c0-0.14,5.2-0.25,11.61-0.25s11.61,0.11,11.61,0.25
															c0,0.14-5.2,0.25-11.61,0.25S28.08,120.52,28.08,120.38z"/>
													</g>
												</g>
											</g>
										</g>
									</g>
								</g>
							</g>
						</g>
					</g>
					<g id="Grupo_904349" transform="translate(4.35 5.201)">
						<g id="Grupo_904334">
							<g id="Grupo_904333">
								<g id="Grupo_904332">
									<g id="Grupo_904331">
										<g id="Grupo_904330">
											<g id="Grupo_904329">
												<g id="Grupo_904328">
													<g id="Grupo_904327">
														
															<rect id="Rectángulo_304415" x="24.97" y="113.22" transform="matrix(1 -5.288348e-03 5.288348e-03 1 -0.6229 0.3018)" class="st2" width="63.56" height="9.41"/>
													</g>
												</g>
											</g>
										</g>
									</g>
								</g>
							</g>
						</g>
						<g id="Grupo_904341" transform="translate(29.68 1.242)">
							<g id="Grupo_904340">
								<g id="Grupo_904339">
									<g id="Grupo_904338">
										<g id="Grupo_904337">
											<g id="Grupo_904336">
												<g id="Grupo_904335">
													<path id="Trazado_621383" class="st1" d="M49.78,120.05c-1.68,0.02-3.06-1.32-3.08-3c-0.02-1.68,1.32-3.06,3-3.08
														c1.68-0.02,3.06,1.32,3.08,3c0,0.01,0,0.03,0,0.04C52.79,118.68,51.45,120.04,49.78,120.05L49.78,120.05z"/>
												</g>
											</g>
										</g>
									</g>
								</g>
							</g>
						</g>
						<g id="Grupo_904348" transform="translate(2.133 2.454)">
							<g id="Grupo_904347">
								<g id="Grupo_904346">
									<g id="Grupo_904345">
										<g id="Grupo_904344">
											<g id="Grupo_904343">
												<g id="Grupo_904342">
													<rect id="Rectángulo_304416" x="26.52" y="114.86" class="st1" width="42.55" height="1.88"/>
												</g>
											</g>
										</g>
									</g>
								</g>
							</g>
						</g>
					</g>
				</g>
			</g>
			<g id="Grupo_904888" transform="translate(278.96 12.086)">
				<g id="Grupo_904875" transform="translate(50.376 0)">
					<g id="Grupo_904874">
						<rect id="Rectángulo_304434" x="76.22" y="17.71" class="st1" width="5.96" height="128.1"/>
					</g>
				</g>
				<g id="Grupo_904877" transform="translate(0.571 0.571)">
					<g id="Grupo_904876">
						<path id="Rectángulo_304435" class="st0" d="M39.77,18.13h85.17c0.1,0,0.18,0.08,0.18,0.18v126.94c0,0.1-0.08,0.18-0.18,0.18
							H39.77c-0.1,0-0.18-0.08-0.18-0.18V18.31C39.59,18.21,39.67,18.13,39.77,18.13z"/>
					</g>
				</g>
				<g id="Grupo_904880">
					<g id="Grupo_904879">
						<g id="Grupo_904878">
							<path id="Trazado_621443" class="st2" d="M126.59,146.99H39.26c-0.05,0-0.09-0.04-0.09-0.09c0,0,0,0,0,0V17.8
								c0-0.05,0.04-0.09,0.09-0.09h87.33c0.05,0,0.09,0.04,0.09,0.09v129.1C126.68,146.95,126.64,146.99,126.59,146.99z
								 M41.24,145.01h83.37c0.05,0,0.09-0.04,0.09-0.09c0,0,0,0,0,0V19.79c0-0.05-0.04-0.09-0.09-0.09H41.24
								c-0.05,0-0.09,0.04-0.09,0.09v125.14C41.16,144.97,41.19,145.01,41.24,145.01L41.24,145.01z"/>
						</g>
					</g>
				</g>
				<g id="Grupo_904882" transform="translate(5.533 5.096)">
					<g id="Grupo_904881">
						<path id="Rectángulo_304436" class="st3" d="M43.42,21.46h68.1c0.1,0,0.18,0.08,0.18,0.18v111.15c0,0.1-0.08,0.18-0.18,0.18
							h-68.1c-0.1,0-0.18-0.08-0.18-0.18V21.64C43.24,21.54,43.32,21.46,43.42,21.46z"/>
					</g>
				</g>
				<g id="Grupo_904884" transform="translate(14.138 23.312)">
					<g id="Grupo_904883">
						<path id="Rectángulo_304437" class="st2" d="M49.68,34.86h38.21c0.06,0,0.11,0.05,0.11,0.11v44.83
							c0,0.06-0.05,0.11-0.11,0.11H49.68c-0.06,0-0.11-0.05-0.11-0.11V34.97C49.57,34.91,49.62,34.86,49.68,34.86z"/>
					</g>
				</g>
				<g id="Grupo_904887" transform="translate(14.512 25.633)">
					<g id="Grupo_904886">
						<g id="Grupo_904885">
							<path id="Trazado_621444" class="st1" d="M84.59,72.07c0.05,0.15-1.85,0.98-5.46,0.55c-2.22-0.29-4.33-1.13-6.13-2.45
								c-2.46-1.83-4.15-4.5-4.77-7.5c-0.72-3.82,0.67-7.74,3.64-10.25c0.82-0.69,1.76-1.24,2.76-1.62c1.1-0.41,2.29-0.54,3.46-0.4
								c1.28,0.12,2.49,0.65,3.46,1.51c1.1,1.03,1.61,2.54,1.36,4.03c-0.26,1.32-0.93,2.53-1.9,3.46c-0.86,0.85-1.83,1.57-2.9,2.13
								c-2.12,1.18-4.48,1.85-6.91,1.97c-2.56,0.14-5.11-0.44-7.36-1.68c-2.32-1.29-4.21-3.25-5.42-5.62
								c-1.25-2.42-1.59-5.21-0.97-7.86c0.61-2.57,2.07-4.85,4.14-6.48c1.03-0.8,2.21-1.4,3.47-1.75c1.28-0.34,2.62-0.38,3.91-0.12
								c1.37,0.26,2.62,0.96,3.55,2c0.9,1.06,1.39,2.41,1.39,3.8c0.01,1.27-0.31,2.51-0.93,3.61c-0.57,1-1.31,1.89-2.19,2.63
								c-1.59,1.34-3.45,2.32-5.44,2.89c-1.86,0.54-3.81,0.69-5.73,0.44c-1.79-0.24-3.49-0.9-4.99-1.91
								c-2.6-1.71-4.34-4.46-4.76-7.54c-0.26-2.3,0.37-4.61,1.76-6.47c0.83-1.15,1.96-2.05,3.26-2.6c0.9-0.35,1.41-0.33,1.43-0.24
								c0.04,0.12-0.41,0.32-1.13,0.81c-1.04,0.71-1.9,1.64-2.54,2.73c-1,1.66-1.37,3.62-1.04,5.52c0.52,2.48,2.05,4.63,4.23,5.93
								c2.65,1.55,5.84,1.85,8.73,0.83c1.61-0.51,3.1-1.36,4.37-2.47c1.26-0.99,2.01-2.49,2.04-4.1c-0.01-1.5-1.14-2.74-2.63-2.91
								c-0.84-0.15-1.69-0.11-2.51,0.12c-0.86,0.26-1.67,0.68-2.37,1.24c-1.5,1.21-2.55,2.89-2.99,4.77
								c-0.44,1.93-0.18,3.96,0.73,5.71c0.93,1.81,2.36,3.3,4.14,4.3c1.74,0.96,3.71,1.42,5.69,1.32c1.96-0.08,3.87-0.6,5.59-1.53
								c0.82-0.42,1.57-0.95,2.23-1.57c0.55-0.49,0.94-1.13,1.13-1.85c0.11-0.54-0.06-1.1-0.46-1.49c-0.52-0.46-1.17-0.74-1.85-0.82
								c-0.73-0.11-1.48-0.05-2.18,0.19c-0.73,0.26-1.42,0.63-2.03,1.11c-2.35,1.88-3.53,4.86-3.09,7.84
								c0.41,2.53,1.71,4.83,3.66,6.49c1.53,1.27,3.33,2.17,5.27,2.63C82.61,72.17,84.56,71.8,84.59,72.07z"/>
						</g>
					</g>
				</g>
			</g>
		</g>
		<g id="Floor" transform="translate(-2805.521 -6283.619)">
			<g id="Grupo_904986">
				<g id="Grupo_904985">
					<path id="Trazado_621454" class="st4" d="M358.31,172.07c0,0.12-77.96,0.22-174.11,0.22c-96.18,0-174.12-0.1-174.12-0.22
						s77.94-0.22,174.12-0.22C280.34,171.84,358.31,171.94,358.31,172.07z"/>
				</g>
			</g>
		</g>
	</g>
	<g>
		<g>
			<path class="st5" d="M132.59,132.7c-2.9-4.35-7.35-6.87-14.21-6.87c-16.19,0-19.01,14.02-19.51,33.19
				C108.56,148.27,119.81,139.11,132.59,132.7z"/>
			<path class="st6" d="M106.08,169.42c8.51-10.16,18.24-21.02,30.12-27.52c-0.69-3.11-1.64-5.87-2.96-8.17
				c-2.28,1.13-4.52,2.35-6.71,3.67c-10.39,6.24-19.61,14.17-27.69,23.24c-0.07,3.57-0.07,7.3-0.07,11.14
				c0,1.99,0.13,3.95,0.36,5.87C101.45,174.91,103.78,172.17,106.08,169.42z"/>
			<path class="st5" d="M122.94,153.24c-7.18,6.53-13.46,13.98-19.6,21.48c-1.31,1.61-2.64,3.2-3.97,4.79
				c3.27,21.7,19.01,38.23,19.01,38.23S138,197.16,138,171.78c0-10.79,0-20.7-1.51-28.54C131.6,145.98,127.1,149.46,122.94,153.24z"
				/>
			<path class="st7" d="M164.75,199.11c-17.95,17.95-46.37,18.63-46.37,18.63s0.68-28.42,18.63-46.37s46.37-18.63,46.37-18.63
				S182.69,181.16,164.75,199.11z"/>
			<path class="st7" d="M99.75,171.37c17.95,17.95,18.63,46.37,18.63,46.37s-28.42-0.68-46.37-18.63s-18.63-46.37-18.63-46.37
				S81.81,153.42,99.75,171.37z"/>
		</g>
		<g>
			<path class="st7" d="M76.41,226.53h3.92v17.79h11.04v3.32H76.41V226.53z"/>
			<path class="st7" d="M92.57,237.09c0-6.24,4.82-10.85,11.37-10.85c6.54,0,11.37,4.58,11.37,10.85s-4.82,10.85-11.37,10.85
				C97.4,247.94,92.57,243.33,92.57,237.09z M111.36,237.09c0-4.31-3.17-7.42-7.42-7.42s-7.42,3.11-7.42,7.42
				c0,4.31,3.17,7.42,7.42,7.42S111.36,241.4,111.36,237.09z"/>
			<path class="st7" d="M133.88,236.85h3.71v8.41c-2.2,1.78-5.28,2.68-8.26,2.68c-6.54,0-11.37-4.55-11.37-10.85
				s4.82-10.85,11.43-10.85c3.53,0,6.48,1.18,8.47,3.44l-2.47,2.41c-1.66-1.66-3.56-2.41-5.82-2.41c-4.49,0-7.66,3.05-7.66,7.42
				c0,4.28,3.17,7.42,7.63,7.42c1.51,0,2.98-0.3,4.34-1.08V236.85z"/>
			<path class="st7" d="M141.24,237.09c0-6.24,4.82-10.85,11.37-10.85s11.37,4.58,11.37,10.85s-4.82,10.85-11.37,10.85
				S141.24,243.33,141.24,237.09z M160.02,237.09c0-4.31-3.17-7.42-7.42-7.42c-4.25,0-7.42,3.11-7.42,7.42
				c0,4.31,3.17,7.42,7.42,7.42C156.86,244.5,160.02,241.4,160.02,237.09z"/>
		</g>
	</g>
	<g>
		<rect x="82.37" y="8" class="st8" width="88.4" height="88.4"/>
		<rect x="92.02" y="17.65" class="st5" width="69.09" height="69.09"/>
		<polygon class="st9" points="92.02,86.75 161.11,86.75 161.11,51.35 130.58,71.53 110.28,60.12 92.02,77.29 		"/>
		<circle class="st6" cx="129.76" cy="48.29" r="10.75"/>
	</g>
	<g>
		<g>
			<rect x="79.95" y="290.51" class="st6" width="23.55" height="23.55"/>
			<rect x="103.51" y="290.51" class="st5" width="23.55" height="23.55"/>
			<rect x="127.06" y="290.51" class="st10" width="23.55" height="23.55"/>
			<rect x="150.62" y="290.51" class="st11" width="23.55" height="23.55"/>
		</g>
		<path class="st7" d="M88.44,309.78c0,7.63-6.19,13.82-13.82,13.82s-13.82-6.19-13.82-13.82s13.82-30.93,13.82-30.93
			S88.44,302.14,88.44,309.78z"/>
	</g>
	<g>
		<rect x="41.88" y="110.46" class="st12" width="153.01" height="153.01"/>
		<g>
			<rect x="35.56" y="256.84" class="st7" width="12.03" height="12.03"/>
			<rect x="188.57" y="256.84" class="st7" width="12.03" height="12.03"/>
			<rect x="35.56" y="104.44" class="st7" width="12.03" height="12.03"/>
			<rect x="188.57" y="104.44" class="st7" width="12.03" height="12.03"/>
		</g>
	</g>
	<g>
		<g>
			<path class="st13" d="M227.15,133.49c-0.21,0.25-3.81,16.34-1.53,18.38c2.28,2.04,8.12,0.8,13.88,0.39l1.06-18.78H227.15z"/>
			<g>
				<path class="st13" d="M226.84,223.49c0,0,10.37,1.65,18.99,1.65c8.62,0,22.18-2.74,22.18-2.74s17.37,26.98,29.67,73.15
					c11.69,43.92,21.94,108.67,17.37,117.42c-4.33,8.3-78.93,8.03-61.86,8.3c2.49,0.04-61.51-2.28-60.29-10.8
					c0,0,7.36-84.63,14.41-118.51C214.07,259.46,226.84,223.49,226.84,223.49z"/>
				<path class="st14" d="M237.13,138.87c0,0,0.56,9.22-3.07,11.92s-17.39,10.63-17.39,10.63s22.94,3.06,33.19,2.15
					s25.16-3.63,25.16-3.63s-7.26-4.6-15.13-8.83c-7.66-4.12-12.23-40.65-12.23-40.65L237.13,138.87z"/>
				<path class="st14" d="M305.01,266.96c0,0,1.23,4.05,2.22,6.4c0.98,2.34,4.77,3.47,7.38,2.11c2.61-1.36,2.68-5.09,0.45-7.42
					c-2.24-2.33-6.46-4.58-6.46-4.58L305.01,266.96z"/>
				<path class="st15" d="M244.57,118.43c1.79,10.78,1.19,22.8-8.81,30.11l1.47-13.92L244.57,118.43z"/>
				<path class="st16" d="M241.5,128.93c1.17,7.02,0.77,14.85-5.74,19.61l0.95-9.06L241.5,128.93z"/>
				<path class="st14" d="M310.37,264.99c0,0-12.74-45.33-20.95-72.65c-4.72,1.53-8.82,1.9-13.31,3.29
					c9.16,29.02,25.56,67.78,29.3,72.38c0.67,0.82,1.16,1.11,2.11,0.65l2.02-0.97C310.73,267.11,311.03,266.14,310.37,264.99z"/>
				<g>
					<path class="st14" d="M148.06,149.71c0,0-1.73-4.1-3.02-6.44c-1.28-2.34-5.36-3.1-7.94-1.39c-2.58,1.71-2.24,5.61,0.35,7.8
						s7.25,4.07,7.25,4.07L148.06,149.71z"/>
					<path class="st14" d="M181.68,176.94l-34.02-28.13c-0.86-0.81-1.23-0.21-2.12,0.56l-1.16,1.28c-0.88,0.77-1.04,2.07-0.38,3.02
						c0,0,28.71,34.03,31.21,35.66c4.17,2.73,7.68,2.28,11.83,0.99l17.7-7.84c-3.16-4.45-5.57-12.85-5.57-12.85L181.68,176.94z"/>
				</g>
				<path class="st17" d="M284,170.07c-3.39-7.68-6.07-12.66-15.34-14.51c-0.75-0.15-6.79,6.05-27.5,6.31
					c-13.47,0.17-13.52-7.03-19.65-4.25c-2.89,1.31-11.56,4.32-21.69,8.85c-0.86,0.38-1.36,1.31-1.17,2.24
					c1.15,5.63,3.33,10.7,6.3,15.22c0.53,0.81,1.58,1.11,2.48,0.73l14.74-6.18c0,0-0.64,12.86-0.69,19.15
					c-0.07,9.92-1.51,23.23,5.26,25.86c0,0,10.03,2.68,19.09,2.68c9.06,0,22.17-3.77,22.17-3.77c7-1.51,2.6-19.22,2.77-38.55
					c1.1,4.35,2.24,7.13,3.63,11.28c0.34,1.02,1.42,1.62,2.46,1.33c4.05-1.12,8.78-2.04,12.98-3.24c1.1-0.31,1.73-1.47,1.4-2.56
					C287.02,176.77,285.12,172.61,284,170.07z"/>
				<path class="st7" d="M269.16,220.86l-0.32,0.01C268.94,220.89,269.05,220.89,269.16,220.86z"/>
				<path class="st14" d="M232.2,138.88l4.96,0.26c5.12,0.27,9.53-3.7,9.8-8.82l1.02-19.54c0.27-5.12-3.7-9.53-8.82-9.8l-4.96-0.26
					c-5.12-0.27-9.53,3.7-9.8,8.82l-1.02,19.54C223.11,134.2,227.08,138.61,232.2,138.88z"/>
			</g>
			<path class="st13" d="M229.05,110.46c0,0,9.97,11.82,15.53,11.61c0,0,1.15,26.35,3.83,29.03c2.68,2.68,19.13,1.58,20.58-1.58
				c1.46-3.16-0.94-35.56-19.2-46.25c-7.38-4.32-26.97-6.38-25.71,12.15C224.09,115.41,226.99,113.12,229.05,110.46z"/>
			<path class="st13" d="M229.05,102.72c-3.89,2.13-10.15,10.15-5.17,16.68l1.21-7L229.05,102.72z"/>
			<path class="st18" d="M223.18,203.51c0,0,15.98,3.17,46.18-1.15"/>
			<path class="st18" d="M223.18,210.03c0,0,19.25,5,46.18-1.38"/>
			<circle class="st6" cx="246.69" cy="128.93" r="1.38"/>
		</g>
		<g>
			<g id="Grupo_905831_00000076591035493445835590000016067621814332210065_">
				<g id="Grupo_905830_00000117671669798900981800000001135555683282243978_">
					<g id="Grupo_905829_00000158741100071891102080000017136441486244924570_">
						<g id="Grupo_905828_00000065076444331374887770000009025400335816473994_">
							<g id="Grupo_905827_00000151536232745437938130000015417083428225155730_">
								<g id="Grupo_905826_00000105421918263319050960000005866561618828956831_">
									<g id="Grupo_905825_00000163770114241336332120000014293786500799291554_">
										<g id="Grupo_905824_00000099650915945061509160000007711932456943191193_">
											<g id="Grupo_905823_00000145049052337911646800000013834301988183135404_">
												<g id="Grupo_905822_00000145031631744533987920000011935999628041150626_">
													<g id="Grupo_905821_00000058554788860165428240000015910538902342770569_">
														<g id="Grupo_905820_00000134932737500398835350000005453205069764127886_">
															<g id="Grupo_905819_00000078748642293153505810000017854477676477691041_">
																<path id="Trazado_621758_00000031179142869079734600000000477686745915849889_" class="st4" d="M225.65,123.2
																	c-0.01,0.46,0.35,0.84,0.8,0.86c0.44,0.04,0.83-0.29,0.87-0.73c0-0.01,0-0.01,0-0.02c0.01-0.46-0.35-0.84-0.8-0.86
																	c-0.44-0.04-0.83,0.28-0.88,0.73C225.65,123.19,225.65,123.19,225.65,123.2z"/>
															</g>
														</g>
													</g>
												</g>
											</g>
										</g>
									</g>
								</g>
							</g>
						</g>
					</g>
				</g>
			</g>
			<g id="Grupo_905845_00000152964610845017660590000001188733137556053177_">
				<g id="Grupo_905844_00000049208831433470908210000003201905540850151869_">
					<g id="Grupo_905843_00000094610301837254518950000015307141560600592829_">
						<g id="Grupo_905842_00000160881288474251980150000000292012450501935521_">
							<g id="Grupo_905841_00000091711409313972471570000007313380583635199129_">
								<g id="Grupo_905840_00000132060749784731021740000009374366862620586171_">
									<g id="Grupo_905839_00000048476001871001679590000014232371233395474329_">
										<g id="Grupo_905838_00000170990801606512406400000010640304927071989634_">
											<g id="Grupo_905837_00000049925229079667149310000007020623328820788108_">
												<g id="Grupo_905836_00000049930686712129764830000007853125786226353803_">
													<g id="Grupo_905835_00000006680004792756757690000005904766258737570947_">
														<g id="Grupo_905834_00000013151091240772066330000014494509162089034417_">
															<g id="Grupo_905833_00000080920394954459203440000005841781864384236928_">
																<path id="Trazado_621759_00000112590791854721901750000009978980447256602010_" class="st4" d="M234.39,123.2
																	c-0.01,0.46,0.35,0.84,0.8,0.86c0.44,0.04,0.83-0.29,0.87-0.73c0-0.01,0-0.01,0-0.02c0.01-0.46-0.35-0.84-0.8-0.86
																	c-0.44-0.04-0.83,0.28-0.88,0.73C234.39,123.19,234.39,123.19,234.39,123.2z"/>
															</g>
														</g>
													</g>
												</g>
											</g>
										</g>
									</g>
								</g>
							</g>
						</g>
					</g>
				</g>
			</g>
			<g id="Grupo_905856_00000173138707123454081690000003902269859543667100_">
				<g id="Grupo_905855_00000037651809352167522110000002032120647193174676_">
					<g id="Grupo_905854_00000040550521450786195520000016994419551498543252_">
						<g id="Grupo_905853_00000174565085523052737830000008031368004589232273_">
							<g id="Grupo_905852_00000156565463376965634230000017503750339280543650_">
								<g id="Grupo_905851_00000085957523729228590040000000074160087353385350_">
									<g id="Grupo_905850_00000163778218081355819450000014832053149274331825_">
										<g id="Grupo_905849_00000032632427915482696530000016274498736741428124_">
											<g id="Grupo_905848_00000063618566491961836240000002118145143004504760_">
												<g id="Grupo_905847_00000085949630969343361280000009822655818317678472_">
													<path id="Trazado_621760_00000070102062205251852010000014486553425556981180_" class="st4" d="M224.74,121.66
														c0.1,0.11,0.76-0.34,1.67-0.31c0.91,0.02,1.56,0.51,1.66,0.4c0.05-0.05-0.05-0.25-0.33-0.47
														c-0.38-0.29-0.85-0.45-1.33-0.46c-0.47-0.02-0.94,0.12-1.33,0.38C224.79,121.42,224.69,121.61,224.74,121.66z"/>
												</g>
											</g>
										</g>
									</g>
								</g>
							</g>
						</g>
					</g>
				</g>
			</g>
			<g id="Grupo_905867_00000128480209713167188270000002554644302996921021_">
				<g id="Grupo_905866_00000121256520005249341390000017562423312013737392_">
					<g id="Grupo_905865_00000089564750911972871720000002122465636613436049_">
						<g id="Grupo_905864_00000101079567527551764270000009004543553450605477_">
							<g id="Grupo_905863_00000159442940996521498910000016419807170447377578_">
								<g id="Grupo_905862_00000019661204238354949720000016491548876225897108_">
									<g id="Grupo_905861_00000011748682955416070050000012643276284927048895_">
										<g id="Grupo_905860_00000176740440466837906010000002291188438360122543_">
											<g id="Grupo_905859_00000035507955798065890000000003680527296295917185_">
												<g id="Grupo_905858_00000115515633410766391330000003308979658221406851_">
													<path id="Trazado_621761_00000060750738246744556030000014397592263836504210_" class="st4" d="M233.38,121.88
														c0.11,0.11,0.75-0.37,1.66-0.37c0.91-0.01,1.58,0.45,1.68,0.34c0.05-0.05-0.06-0.25-0.35-0.46
														c-0.4-0.27-0.86-0.41-1.34-0.41c-0.47,0-0.94,0.15-1.32,0.43C233.42,121.63,233.33,121.83,233.38,121.88z"/>
												</g>
											</g>
										</g>
									</g>
								</g>
							</g>
						</g>
					</g>
				</g>
			</g>
			<g id="Grupo_905877_00000093151394265469673530000005463673731987596720_">
				<g id="Grupo_905876_00000123437229265984692000000007167662432923360428_">
					<g id="Grupo_905875_00000094619437491200003950000006422629492415994775_">
						<g id="Grupo_905874_00000147903644444606094620000004504323294422594235_">
							<g id="Grupo_905873_00000038409334283757582400000013044324241184215963_">
								<g id="Grupo_905872_00000042698569094669148040000011284335968983799944_">
									<g id="Grupo_905871_00000070833418961108136320000009086037702918842555_">
										<g id="Grupo_905870_00000146502054532421643070000018176897710758226332_">
											<g id="Grupo_905869_00000052095429654083377810000007780187480894087068_">
												<path id="Trazado_621762_00000181809099687051575970000005212445658188188061_" class="st4" d="M230.26,128.89
													c-0.48-0.15-0.98-0.24-1.48-0.27c-0.23-0.02-0.45-0.07-0.49-0.23c-0.02-0.24,0.03-0.48,0.16-0.69l0.69-1.77
													c0.95-2.52,1.65-4.59,1.54-4.63s-0.96,1.98-1.91,4.5c-0.23,0.62-0.45,1.21-0.66,1.78c-0.15,0.28-0.19,0.6-0.12,0.91
													c0.07,0.17,0.21,0.29,0.38,0.34c0.13,0.03,0.26,0.05,0.4,0.05C229.26,128.95,229.76,128.95,230.26,128.89z"/>
											</g>
										</g>
									</g>
								</g>
							</g>
						</g>
					</g>
				</g>
			</g>
			<g id="Grupo_905899_00000067233752019070131000000014712074674974229675_" transform="translate(18.904 17.369)">
				<g id="Grupo_905898_00000178180281487425649300000003967412211891262625_">
					<g id="Grupo_905897_00000049214867545440974540000003649211358590367628_">
						<g id="Grupo_905896_00000147921961675040569090000014945068794026997674_">
							<g id="Grupo_905895_00000181768999965289801630000017007704644289882028_">
								<g id="Grupo_905894_00000037653739917453910370000014789366895419898756_">
									<g id="Grupo_905893_00000107557550272467110720000010401305005280041383_">
										<g id="Grupo_905892_00000120561106161705131220000003128797841440879803_">
											<g id="Grupo_905891_00000163056560759210092520000005209175495109814971_">
												<path id="Trazado_621764_00000098941805416466108310000014408126886260569770_" class="st4" d="M214.25,102.63
													c0.09,0.25,1,0.13,2.07,0.26c1.07,0.11,1.93,0.42,2.07,0.2c0.06-0.11-0.09-0.34-0.44-0.58
													c-0.94-0.6-2.11-0.72-3.15-0.35C214.41,102.32,214.21,102.51,214.25,102.63z"/>
											</g>
										</g>
									</g>
								</g>
							</g>
						</g>
					</g>
				</g>
			</g>
			<g id="Grupo_905908_00000116200781450471307950000015074263702333315502_" transform="translate(3.299 14.577)">
				<g id="Grupo_905907_00000013896654229820387480000013316281178485421229_">
					<g id="Grupo_905906_00000165954319586520797500000014390520997453400243_">
						<g id="Grupo_905905_00000149348972277374094000000003617973890927131310_">
							<g id="Grupo_905904_00000079457170003055607690000008351746409303082940_">
								<g id="Grupo_905903_00000159439522748434678750000010267721737450644383_">
									<g id="Grupo_905902_00000181801333049379010660000007955815880810261412_">
										<g id="Grupo_905901_00000049184045507579927150000014137439853033492133_">
											<g id="Grupo_905900_00000012459283262157301240000008057295492976818878_">
												<path id="Trazado_621765_00000173132208757631012130000009170367324667418281_" class="st4" d="M221.65,104.8
													c0.16,0.21,0.79-0.01,1.54-0.02c0.75-0.04,1.39,0.14,1.54-0.08c0.06-0.11-0.04-0.31-0.32-0.51
													c-0.77-0.48-1.75-0.45-2.48,0.08C221.67,104.48,221.58,104.7,221.65,104.8z"/>
											</g>
										</g>
									</g>
								</g>
							</g>
						</g>
					</g>
				</g>
			</g>
		</g>
		<path class="st4" d="M229.32,132.79c0,0,3.54,1.28,4.87-0.83"/>
	</g>
</g>
</svg>
