<svg xmlns="http://www.w3.org/2000/svg" width="107.659" height="98.933" viewBox="0 0 107.659 98.933">
  <g id="mSQodr" transform="translate(-134.921 -1768.868)">
    <g id="Grupo_909237" data-name="Grupo 909237" transform="translate(134.921 1768.868)">
      <path id="Trazado_622557" data-name="Trazado 622557" d="M134.921,1785.924h2.316c12.855,0,25.711-.02,38.566.025,1.534.005,2.45-.2,3.067-1.924s2-3.176,3.135-4.888l-15.638-6.314,1.606-3.954c1.482.569,2.884,1.088,4.271,1.643,4.8,1.916,9.614,3.781,14.365,5.8a5.078,5.078,0,0,0,4.322-.027c5.56-2.321,11.175-4.507,16.772-6.74.54-.216,1.1-.395,1.814-.652l1.606,3.93-15.468,6.231c1.209,2.146,2.308,4.265,3.6,6.26.279.432,1.248.58,1.9.583,10.138.035,20.277.025,30.416.024H242.58v73.338h-8.463v8.5H216.741v-8.353H160.817v8.386H143.529v-8.447h-8.608Zm103.411,4.514H139.315v64.615h2.3q47.21,0,94.421.04c1.78,0,2.347-.416,2.34-2.294-.072-20.01-.045-40.021-.045-60.032Zm-43.969-4.585a5.414,5.414,0,0,0-5.393-4.2,5.589,5.589,0,0,0-5.874,4.2Zm-46.417,73.469v4.143H156.4a25.282,25.282,0,0,0-.042-3.108c-.049-.376-.557-.979-.872-.99C153,1859.284,150.5,1859.321,147.946,1859.321Zm81.647.127h-8.4v4.185h8.4Z" transform="translate(-134.921 -1768.868)" fill="#12263f"/>
      <path id="Trazado_622558" data-name="Trazado 622558" d="M244.989,1823.118v2.33c0,20.011-.027,40.021.045,60.032.007,1.878-.56,2.3-2.34,2.294q-47.21-.076-94.421-.04h-2.3v-64.615Zm-77.529,60.11h73.157v-55.911c-.737-.036-1.382-.095-2.027-.1q-34.467-.006-68.935-.039c-1.766,0-2.359.384-2.351,2.271.075,17.217.043,34.434.049,51.651C167.354,1881.812,167.423,1882.518,167.46,1883.228Zm-17.35-45.342a6.487,6.487,0,1,0,6.591-6.331A6.543,6.543,0,0,0,150.11,1837.885Zm2.282,23.833H160.8v-4.138h-8.407Zm.007,8.567h8.37v-4.067H152.4Zm8.394,4.559h-8.374v4.128h8.374Zm-8.38-21.774h8.353v-4.062h-8.353Z" transform="translate(-141.578 -1801.548)" fill="#fffae7"/>
      <path id="Trazado_622559" data-name="Trazado 622559" d="M267.352,1805.219H256.085a5.589,5.589,0,0,1,5.874-4.2A5.414,5.414,0,0,1,267.352,1805.219Z" transform="translate(-207.91 -1788.235)" fill="#b2ebf2"/>
      <path id="Trazado_622560" data-name="Trazado 622560" d="M167.68,1996.351c2.556,0,5.052-.036,7.545.045.315.01.823.614.872.99a25.278,25.278,0,0,1,.042,3.108H167.68Z" transform="translate(-154.655 -1905.898)" fill="#b2ebf2"/>
      <path id="Trazado_622561" data-name="Trazado 622561" d="M360.306,1996.683v4.185h-8.4v-4.185Z" transform="translate(-265.634 -1906.103)" fill="#b2ebf2"/>
      <path id="Trazado_622562" data-name="Trazado 622562" d="M199.78,1889.386c-.037-.71-.107-1.416-.107-2.123-.006-17.217.026-34.434-.049-51.651-.008-1.886.585-2.275,2.351-2.271q34.467.083,68.935.039c.645,0,1.29.059,2.027.095v55.911Zm68.766-4.234v-47.266H204.107v47.266Z" transform="translate(-173.898 -1807.706)" fill="#12263f"/>
      <path id="Trazado_622563" data-name="Trazado 622563" d="M156.376,1850.665a6.487,6.487,0,1,1,6.26,6.661A6.532,6.532,0,0,1,156.376,1850.665Zm8.93.589-.01-.877c-.835-.555-1.683-1.554-2.5-1.528-.7.023-1.755,1.132-1.938,1.925a1.682,1.682,0,0,0,1.963,2.083C163.712,1852.72,164.483,1851.816,165.306,1851.254Z" transform="translate(-147.845 -1814.327)" fill="#fb8c00"/>
      <path id="Trazado_622564" data-name="Trazado 622564" d="M162.118,1913.932v-4.138h8.407v4.138Z" transform="translate(-151.304 -1853.761)" fill="#12263f"/>
      <path id="Trazado_622565" data-name="Trazado 622565" d="M162.135,1935.586v-4.067h8.37v4.067Z" transform="translate(-151.315 -1866.848)" fill="#12263f"/>
      <path id="Trazado_622566" data-name="Trazado 622566" d="M170.56,1953.215v4.128h-8.374v-4.128Z" transform="translate(-151.345 -1879.918)" fill="#12263f"/>
      <path id="Trazado_622567" data-name="Trazado 622567" d="M162.172,1892.3v-4.062h8.353v4.062Z" transform="translate(-151.337 -1840.774)" fill="#12263f"/>
      <path id="Trazado_622568" data-name="Trazado 622568" d="M275.339,1892.036H210.9V1844.77h64.439Z" transform="translate(-180.69 -1814.591)" fill="#e8e8e8"/>
      <path id="Trazado_622569" data-name="Trazado 622569" d="M172.025,1858.1c-.823.562-1.594,1.466-2.483,1.6a1.682,1.682,0,0,1-1.963-2.083c.183-.794,1.241-1.9,1.938-1.925.815-.026,1.664.973,2.5,1.528Z" transform="translate(-154.563 -1821.171)" fill="#12263f"/>
    </g>
  </g>
</svg>
