<svg xmlns="http://www.w3.org/2000/svg" width="82.614" height="82.602" viewBox="0 0 82.614 82.602">
  <g id="VeeTqu" transform="translate(40.316 -516.563)">
    <g id="Grupo_909235" data-name="Grupo 909235" transform="translate(-40.316 516.563)">
      <path id="Trazado_622520" data-name="Trazado 622520" d="M-40.316,637.136V632.3c.4.54.856,1,1.61.724s.855-.891.818-1.581c-.012-.214,0-.43,0-.645q0-17.016,0-34.031c0-1.878.7-2.581,2.575-2.581q29.965,0,59.93,0c1.844,0,2.527.693,2.528,2.536q0,10.6,0,21.209,0,19.233-.007,38.466a7.734,7.734,0,0,0,1.676,5.091,2.149,2.149,0,0,1,.168.327h-.555q-30.53,0-61.06,0a5.017,5.017,0,0,1-5.256-5.284q-.005-9.274.005-18.548c0-.694-.091-1.317-.827-1.578S-39.924,636.577-40.316,637.136Zm34.928-40.342H-33.3c-1.472,0-1.822.341-1.822,1.787q0,10.323,0,20.647c0,1.478.337,1.824,1.785,1.824q27.952,0,55.9,0c1.476,0,1.816-.336,1.816-1.787q0-10.323,0-20.647c0-1.5-.331-1.824-1.859-1.824ZM-9.84,639.417q0-6.287,0-12.575c0-1.3-.376-1.68-1.675-1.68q-10.965,0-21.93,0c-1.3,0-1.674.372-1.674,1.681q0,12.535,0,25.069c0,1.363.36,1.725,1.716,1.725q10.925,0,21.85,0c1.35,0,1.713-.368,1.714-1.727Q-9.837,645.665-9.84,639.417ZM-5.3,656.445H-33.118c-.3,0-.593-.008-.886.019a1.112,1.112,0,0,0-1.086,1.1,1.112,1.112,0,0,0,.917,1.244,4.107,4.107,0,0,0,.959.072q27.861,0,55.722,0,1.9,0,1.866-1.263c-.022-.8-.6-1.173-1.85-1.173ZM9.391,630.36h-13.3c-1.277,0-1.888.41-1.863,1.248.025.809.607,1.184,1.847,1.184H22.512a4.943,4.943,0,0,0,.8-.023,1.14,1.14,0,0,0,1.045-1.145,1.152,1.152,0,0,0-1.029-1.24,3.69,3.69,0,0,0-.723-.022ZM9.3,648.434H22.6a4.177,4.177,0,0,0,.724-.02,1.205,1.205,0,0,0,.005-2.387A3.778,3.778,0,0,0,22.6,646h-26.6a3.909,3.909,0,0,0-.723.022,1.151,1.151,0,0,0-1.04,1.231,1.145,1.145,0,0,0,1.035,1.156,4.091,4.091,0,0,0,.724.021Zm.005-23.272q-6.809,0-13.618,0c-.886,0-1.429.45-1.456,1.157-.027.734.546,1.238,1.451,1.273.134.005.268,0,.4,0q13.215,0,26.43,0a3.58,3.58,0,0,0,1.031-.109,1.088,1.088,0,0,0,.81-1.236,1.113,1.113,0,0,0-1.032-1.063,6.352,6.352,0,0,0-.8-.022Q15.913,625.16,9.305,625.162ZM9.314,640.8q-6.567,0-13.134,0a7.037,7.037,0,0,0-.885.027,1.119,1.119,0,0,0-1.05,1.131,1.1,1.1,0,0,0,.877,1.193,3.393,3.393,0,0,0,.875.081q13.295.006,26.59,0a3.644,3.644,0,0,0,.8-.05,1.194,1.194,0,0,0-.135-2.364,7.859,7.859,0,0,0-.8-.019Zm-.021,12.84q6.849,0,13.7,0a1.231,1.231,0,0,0,1.383-1.15c.032-.709-.516-1.225-1.361-1.278-.134-.008-.268,0-.4,0q-13.295,0-26.59,0a3.285,3.285,0,0,0-.952.1,1.092,1.092,0,0,0-.819,1.23,1.117,1.117,0,0,0,1.026,1.071,6.086,6.086,0,0,0,.8.027Q2.685,653.641,9.292,653.638ZM9.22,637.991h5.163c2.877,0,5.755.006,8.632-.006a1.222,1.222,0,0,0,1.358-1.174,1.271,1.271,0,0,0-1.313-1.25c-.16-.013-.322-.007-.484-.007q-13.271,0-26.542,0a1.878,1.878,0,0,0-1.015.142,1.759,1.759,0,0,0-.738,1.029,1.446,1.446,0,0,0,.556,1.051,1.849,1.849,0,0,0,1.071.2Q2.564,638,9.22,637.991Z" transform="translate(40.316 -581.635)" fill="#e8e8e8"/>
      <path id="Trazado_622521" data-name="Trazado 622521" d="M-40.316,530.281a12.268,12.268,0,0,1,.843-1.711,4.148,4.148,0,0,1,3.4-1.868c.773-.027,1.547,0,2.432,0,0-1.035-.009-1.967,0-2.9.014-1.155-.037-2.318.086-3.462a4.282,4.282,0,0,1,4.093-3.757c.51-.023,1.022-.01,1.533-.01H9.18c.269,0,.539-.015.806.008a1.211,1.211,0,0,1,1.176,1.2,1.2,1.2,0,0,1-1.148,1.216c-.267.025-.537.009-.806.009H-28.625c-1.916,0-2.576.651-2.579,2.554,0,1.586,0,3.172.011,4.758a2.062,2.062,0,0,0,.091.353h1.069q27.225,0,54.451-.006a5.132,5.132,0,0,1,3.485.985,4.345,4.345,0,0,1,1.669,3.268c.017.376.012.753.012,1.129q0,23.55,0,47.1v1.107a19.882,19.882,0,0,0,2.2-.016,1.919,1.919,0,0,0,1.671-1.716,7.214,7.214,0,0,0,.053-1.045q0-11.13,0-22.26c0-.242,0-.484,0-.726.012-1.065.438-1.624,1.242-1.631.778-.007,1.232.584,1.233,1.651q.005,11.735,0,23.469a4.52,4.52,0,0,1-4.763,4.762c-.506,0-1.011,0-1.551,0a4.61,4.61,0,0,0-.066.526c0,2.823-.025,5.646.005,8.468a4.87,4.87,0,0,0,3.414,4.689,5.24,5.24,0,0,0,5.754-1.621,4.777,4.777,0,0,0,1.069-3.057c.007-1.721,0-3.441,0-5.162q0-32.421-.008-64.843a4.655,4.655,0,0,0-.2-1.5,1.873,1.873,0,0,0-1.987-1.195,1.943,1.943,0,0,0-1.65,1.816c-.021.321-.013.645-.013.967q0,12.945-.005,25.889a3.885,3.885,0,0,1-.115,1.112,1.075,1.075,0,0,1-1.23.813,1.127,1.127,0,0,1-1.089-1.009,6.552,6.552,0,0,1-.038-.965q0-12.662.008-25.324c0-1.088.129-2.176.2-3.341H33q-8.43,0-16.86,0a3.247,3.247,0,0,1-.8-.042A1.129,1.129,0,0,1,14.4,517.8a1.162,1.162,0,0,1,.994-1.2,3.791,3.791,0,0,1,.8-.028q10.648,0,21.3,0c3,0,4.8,1.813,4.8,4.835q0,35,0,70a7.366,7.366,0,0,1-6.176,7.62,1.267,1.267,0,0,0-.277.135H-33.862a10.036,10.036,0,0,1-3.8-1.759,8.252,8.252,0,0,1-2.654-4.532v-20.81c.392-.559.859-1,1.6-.738s.829.884.827,1.578q-.016,9.274-.005,18.548a5.017,5.017,0,0,0,5.256,5.284q30.53.013,61.06,0h.555a2.144,2.144,0,0,0-.168-.327,7.734,7.734,0,0,1-1.676-5.091q.02-19.233.007-38.466,0-10.6,0-21.209c0-1.844-.684-2.536-2.528-2.536q-29.965,0-59.93,0c-1.88,0-2.575.7-2.575,2.581q0,17.016,0,34.031c0,.215-.01.431,0,.645.037.69-.078,1.311-.818,1.581s-1.207-.184-1.61-.724Z" transform="translate(40.316 -516.563)" fill="#12263f"/>
      <path id="Trazado_622523" data-name="Trazado 622523" d="M21.551,610.349H49.462c1.529,0,1.859.324,1.859,1.824q0,10.323,0,20.647c0,1.451-.34,1.787-1.816,1.787q-27.952,0-55.9,0c-1.449,0-1.785-.346-1.785-1.824q0-10.323,0-20.647c0-1.446.35-1.786,1.822-1.787Zm27.272,21.741V612.846H-5.668v19.243Z" transform="translate(13.377 -595.19)" fill="#12263f"/>
      <path id="Trazado_622524" data-name="Trazado 622524" d="M17.1,800.11q0,6.247,0,12.495c0,1.359-.364,1.726-1.714,1.727q-10.925,0-21.85,0c-1.356,0-1.716-.362-1.716-1.725q0-12.534,0-25.069c0-1.31.372-1.681,1.674-1.681q10.965,0,21.93,0c1.3,0,1.674.375,1.675,1.68Q17.1,793.822,17.1,800.11Zm-22.731-.057c0,3.63.017,7.259-.015,10.888-.006.712.2.9.913.9q9.2-.042,18.394,0c.717,0,.912-.208.91-.908q-.032-10.848,0-21.7c0-.715-.217-.9-.92-.9q-9.2.041-18.394,0c-.721,0-.909.209-.9.906C-5.617,792.847-5.634,796.45-5.634,800.052Z" transform="translate(13.378 -742.328)" fill="#12263f"/>
      <path id="Trazado_622525" data-name="Trazado 622525" d="M21.786,979.411H49.607c1.248,0,1.828.37,1.85,1.173q.034,1.261-1.866,1.263-27.861,0-55.722,0a4.1,4.1,0,0,1-.959-.072,1.111,1.111,0,0,1-.917-1.244,1.112,1.112,0,0,1,1.086-1.1c.294-.027.591-.019.886-.019Z" transform="translate(13.233 -904.6)" fill="#12263f"/>
      <path id="Trazado_622526" data-name="Trazado 622526" d="M188.583,817.992H201.8a3.7,3.7,0,0,1,.723.022,1.152,1.152,0,0,1,1.029,1.24,1.14,1.14,0,0,1-1.045,1.145,4.943,4.943,0,0,1-.8.023H175.27c-1.24,0-1.822-.375-1.847-1.184-.025-.838.586-1.248,1.863-1.248Z" transform="translate(-138.876 -769.267)" fill="#12263f"/>
      <path id="Trazado_622527" data-name="Trazado 622527" d="M188.56,917.209h-13.3a4.079,4.079,0,0,1-.724-.021,1.2,1.2,0,0,1,.005-2.387,3.9,3.9,0,0,1,.723-.022h26.6a3.783,3.783,0,0,1,.723.023,1.205,1.205,0,0,1-.005,2.387,4.189,4.189,0,0,1-.724.02Z" transform="translate(-138.944 -850.41)" fill="#12263f"/>
      <path id="Trazado_622528" data-name="Trazado 622528" d="M188.5,785.849q6.608,0,13.215,0a6.352,6.352,0,0,1,.8.022,1.113,1.113,0,0,1,1.032,1.063,1.088,1.088,0,0,1-.81,1.236,3.58,3.58,0,0,1-1.031.109q-13.215.008-26.43,0c-.134,0-.269,0-.4,0-.906-.035-1.479-.539-1.451-1.273.026-.707.57-1.156,1.456-1.157Q181.691,785.844,188.5,785.849Z" transform="translate(-138.878 -742.323)" fill="#12263f"/>
      <path id="Trazado_622529" data-name="Trazado 622529" d="M188.568,882.6H201.7a7.824,7.824,0,0,1,.8.019,1.194,1.194,0,0,1,.135,2.364,3.637,3.637,0,0,1-.8.05q-13.295,0-26.59,0a3.393,3.393,0,0,1-.875-.081,1.1,1.1,0,0,1-.877-1.193,1.119,1.119,0,0,1,1.05-1.131,7.049,7.049,0,0,1,.885-.027Q182,882.594,188.568,882.6Z" transform="translate(-138.939 -823.434)" fill="#12263f"/>
      <path id="Trazado_622530" data-name="Trazado 622530" d="M188.535,949.4q-6.607,0-13.214,0a6.086,6.086,0,0,1-.8-.027,1.117,1.117,0,0,1-1.026-1.071,1.092,1.092,0,0,1,.819-1.23,3.279,3.279,0,0,1,.952-.1q13.295-.008,26.59,0c.134,0,.269,0,.4,0,.845.052,1.393.568,1.361,1.277a1.231,1.231,0,0,1-1.383,1.15Q195.384,949.413,188.535,949.4Z" transform="translate(-138.927 -877.401)" fill="#12263f"/>
      <path id="Trazado_622531" data-name="Trazado 622531" d="M188.658,852.589q-6.656,0-13.311-.008a1.849,1.849,0,0,1-1.071-.2,1.446,1.446,0,0,1-.556-1.051,1.76,1.76,0,0,1,.738-1.029,1.878,1.878,0,0,1,1.015-.142q13.271-.01,26.542,0c.161,0,.323-.007.484.007a1.271,1.271,0,0,1,1.313,1.25,1.222,1.222,0,0,1-1.358,1.174c-2.877.012-5.755.006-8.632.006Z" transform="translate(-139.123 -796.234)" fill="#12263f"/>
      <path id="Trazado_622532" data-name="Trazado 622532" d="M61.874,645.046H7.383V625.8H61.874Zm-18.125-8.511-.142,0c-.066-.2-.136-.4-.2-.609q-.973-3.154-1.945-6.308a1.316,1.316,0,0,0-1.312-1.1,1.3,1.3,0,0,0-1.225,1.1c-.126.438-.262.874-.4,1.31-.592,1.9-1.185,3.8-1.829,5.87-.1-.445-.162-.706-.215-.968-.416-2.079-.813-4.162-1.251-6.236a1.228,1.228,0,0,0-1.438-1.083,1.265,1.265,0,0,0-.974,1.59q1.065,5.412,2.148,10.82c.19.946.691,1.426,1.458,1.45a1.523,1.523,0,0,0,1.541-1.273c.551-1.74,1.08-3.486,1.624-5.228.171-.548.356-1.091.608-1.859.779,2.511,1.48,4.785,2.192,7.056.289.922.834,1.37,1.6,1.3a1.519,1.519,0,0,0,1.414-1.409c.4-2.055.822-4.105,1.234-6.157.312-1.552.631-3.1.93-4.659a1.267,1.267,0,0,0-.972-1.6,1.232,1.232,0,0,0-1.436.981c-.072.258-.114.525-.166.788Q44.371,633.423,43.749,636.535Zm-31.631-2.756c.354.492.573.787.781,1.088q2.268,3.283,4.53,6.569a1.419,1.419,0,0,0,2.688-.78c.01-.268,0-.538,0-.806-.027-2.1-.057-4.193-.079-6.289-.013-1.236,0-2.473-.026-3.709a1.276,1.276,0,0,0-1.282-1.364,1.248,1.248,0,0,0-1.183,1.362c-.01,1.344.013,2.688.018,4.032,0,1.034,0,2.068,0,3.3-.275-.366-.437-.566-.583-.777q-2.5-3.612-5-7.226a1.216,1.216,0,0,0-1.444-.6,1.158,1.158,0,0,0-.888,1.2c0,3.79-.011,7.58.007,11.37a1.193,1.193,0,0,0,1.307,1.222c.715-.052,1.148-.588,1.151-1.477C12.123,638.607,12.117,636.323,12.117,633.779Zm42.4,8.594c2.665.011,4.636-1.417,5.021-3.363s-.719-3.639-2.986-4.573c-.893-.368-1.787-.735-2.69-1.077-.56-.212-1.064-.448-.974-1.174.086-.7.583-.983,1.2-1.119a3.949,3.949,0,0,1,3.106.783,1.25,1.25,0,0,0,1.837-.278,1.225,1.225,0,0,0-.428-1.753,6.206,6.206,0,0,0-5.095-1.186,3.9,3.9,0,0,0-3.147,3.443c-.148,1.529.747,2.818,2.479,3.543,1.039.435,2.1.826,3.124,1.289.622.281,1.231.674,1.122,1.492a1.657,1.657,0,0,1-1.412,1.369,3.872,3.872,0,0,1-3.642-1.012c-.756-.66-1.449-.716-1.977-.14s-.445,1.263.3,1.965A6.455,6.455,0,0,0,54.514,642.373Zm-29.253-5.68c.948,0,1.853,0,2.758,0,1.044-.007,1.649-.46,1.665-1.235s-.584-1.247-1.626-1.271c-.4-.009-.807,0-1.21,0H25.217c0-.959.03-1.763-.011-2.563-.029-.563.22-.682.717-.666.859.028,1.72.015,2.581,0,.982-.011,1.545-.485,1.522-1.262-.021-.742-.581-1.21-1.506-1.218-1.425-.012-2.85-.015-4.274,0-1.049.011-1.5.482-1.507,1.554q-.011,5.4,0,10.805c0,1.081.448,1.529,1.509,1.536q2.137.015,4.274,0c.931-.005,1.484-.458,1.5-1.205.02-.78-.546-1.255-1.523-1.26-1.067-.006-2.134,0-3.242,0Z" transform="translate(0.327 -608.147)" fill="#fb8c00"/>
      <path id="Trazado_622533" data-name="Trazado 622533" d="M7.52,812.939c0-3.6.016-7.206-.014-10.808-.006-.7.181-.91.9-.907q9.2.044,18.394,0c.7,0,.922.181.92.9q-.034,10.848,0,21.7c0,.7-.193.911-.91.908q-9.2-.042-18.394,0c-.708,0-.919-.186-.913-.9C7.538,820.2,7.52,816.569,7.52,812.939Z" transform="translate(0.224 -755.215)" fill="#1565c0"/>
      <path id="Trazado_622534" data-name="Trazado 622534" d="M175.524,650.457q.623-3.112,1.246-6.224c.053-.263.095-.53.166-.788a1.232,1.232,0,0,1,1.436-.981,1.267,1.267,0,0,1,.972,1.6c-.3,1.555-.618,3.106-.93,4.659-.412,2.052-.836,4.1-1.234,6.157a1.519,1.519,0,0,1-1.414,1.409c-.764.074-1.309-.374-1.6-1.3-.712-2.271-1.413-4.545-2.192-7.056-.252.768-.437,1.311-.608,1.859-.543,1.742-1.073,3.488-1.624,5.228a1.523,1.523,0,0,1-1.541,1.272c-.767-.023-1.269-.5-1.458-1.45q-1.084-5.408-2.148-10.82a1.265,1.265,0,0,1,.974-1.59,1.228,1.228,0,0,1,1.438,1.083c.438,2.074.836,4.157,1.251,6.236.053.262.116.523.215.968.644-2.066,1.237-3.968,1.829-5.87.135-.436.271-.872.4-1.31a1.3,1.3,0,0,1,1.225-1.1,1.316,1.316,0,0,1,1.312,1.1q.971,3.154,1.945,6.308c.063.2.132.406.2.609Z" transform="translate(-131.449 -622.069)" fill="#12263f"/>
      <path id="Trazado_622535" data-name="Trazado 622535" d="M23.851,647.7c0,2.544.005,4.828,0,7.112,0,.888-.436,1.425-1.151,1.477a1.193,1.193,0,0,1-1.307-1.222c-.019-3.79-.011-7.58-.007-11.37a1.158,1.158,0,0,1,.888-1.2,1.216,1.216,0,0,1,1.444.6q2.5,3.612,5,7.226c.146.211.308.411.583.777,0-1.228,0-2.262,0-3.3,0-1.344-.028-2.688-.018-4.032a1.248,1.248,0,0,1,1.183-1.362,1.276,1.276,0,0,1,1.282,1.364c.029,1.236.012,2.473.026,3.709.022,2.1.052,4.193.079,6.289,0,.269.013.538,0,.806a1.419,1.419,0,0,1-2.688.78q-2.258-3.29-4.53-6.569C24.423,648.488,24.2,648.194,23.851,647.7Z" transform="translate(-11.407 -622.07)" fill="#12263f"/>
      <path id="Trazado_622536" data-name="Trazado 622536" d="M274.075,656.3a6.455,6.455,0,0,1-4.16-1.789c-.745-.7-.839-1.378-.3-1.965s1.221-.519,1.977.141a3.872,3.872,0,0,0,3.642,1.012,1.657,1.657,0,0,0,1.412-1.369c.109-.818-.5-1.212-1.122-1.492-1.026-.463-2.085-.854-3.124-1.289-1.732-.726-2.627-2.014-2.479-3.543a3.9,3.9,0,0,1,3.147-3.443,6.206,6.206,0,0,1,5.095,1.185,1.225,1.225,0,0,1,.428,1.753,1.25,1.25,0,0,1-1.837.278,3.948,3.948,0,0,0-3.106-.783c-.619.136-1.116.418-1.2,1.119-.09.726.414.962.974,1.174.9.342,1.8.709,2.69,1.078,2.267.934,3.37,2.629,2.986,4.573S276.74,656.309,274.075,656.3Z" transform="translate(-219.234 -622.071)" fill="#12263f"/>
      <path id="Trazado_622537" data-name="Trazado 622537" d="M104.883,650.522v3.215c1.107,0,2.175,0,3.242,0,.976.006,1.543.48,1.523,1.26-.019.747-.572,1.2-1.5,1.205q-2.137.011-4.274,0c-1.061-.007-1.507-.455-1.509-1.536q-.011-5.4,0-10.8c0-1.071.458-1.542,1.507-1.554,1.425-.016,2.85-.013,4.274,0,.925.008,1.485.475,1.506,1.218.022.777-.54,1.251-1.522,1.262-.86.01-1.721.023-2.581,0-.5-.016-.745.1-.717.666.041.8.011,1.6.011,2.563h1.631c.4,0,.807-.007,1.21,0,1.042.024,1.642.5,1.626,1.271s-.621,1.228-1.665,1.235C106.736,650.526,105.831,650.522,104.883,650.522Z" transform="translate(-79.296 -621.975)" fill="#12263f"/>
    </g>
  </g>
</svg>
