<svg xmlns="http://www.w3.org/2000/svg" width="80.191" height="80.186" viewBox="0 0 80.191 80.186">
  <g id="Pcfw7N" transform="translate(-19.112 -1027.661)">
    <g id="Grupo_909236" data-name="Grupo 909236" transform="translate(19.112 1027.661)">
      <path id="Trazado_622538" data-name="Trazado 622538" d="M28.985,1107.847a13.609,13.609,0,0,1-2.084-1.3,3.628,3.628,0,0,1-1.089-2.992c.012-.31,0-.62,0-.974-.575-.1-1.113-.164-1.633-.3a6.628,6.628,0,0,1-5.053-6.383c-.032-3.6-.009-7.2-.01-10.807q0-16.993,0-33.987c0-4.313,2.077-6.744,6.329-7.41a3.574,3.574,0,0,0,.377-.111c0-1.374-.036-2.753.009-4.129a3.928,3.928,0,0,1,3.457-3.758,3.99,3.99,0,0,1,4.234,2.531c.137.363.214.748.343,1.207,1.312-.194,2.621-.383,3.929-.581q12.72-1.93,25.44-3.866,11.055-1.685,22.108-3.381c2.165-.331,4.327-.677,6.5-.971.573-.078.843-.248.779-.867a3.324,3.324,0,0,1,.084-1.161,1.2,1.2,0,0,1,1.347-.948,1.154,1.154,0,0,1,1.19,1.13q.067,2.856,0,5.714a1.155,1.155,0,0,1-1.185,1.132,1.245,1.245,0,0,1-1.376-1.014,12.362,12.362,0,0,1-.129-1.4l-58.667,8.93v1.521h1.054q28.578,0,57.156,0a6.724,6.724,0,0,1,6.646,4.056,14.857,14.857,0,0,1,.563,1.691v47.305a6.993,6.993,0,0,1-5.2,5.64c-.043.012-.074.062-.136.116,0,.4.008.819,0,1.234a4.178,4.178,0,0,1-3.275,4.131H83.8a3.01,3.01,0,0,0-.336-.164,3.98,3.98,0,0,1-2.859-3.868c-.014-.411,0-.822,0-1.242H39.2a15.43,15.43,0,0,1-.1,1.932,4.166,4.166,0,0,1-3.221,3.343Zm30.184-8.008q16.522,0,33.043,0a4.066,4.066,0,0,0,4.421-4.441q0-22.281,0-44.563c0-2.851-1.609-4.475-4.457-4.476q-32.965-.005-65.93.006a5.872,5.872,0,0,0-1.621.2,3.985,3.985,0,0,0-2.837,4.115q0,22.242,0,44.484c0,3.113,1.558,4.681,4.652,4.681Zm-22.677,2.71h-8c0,.446-.016.857,0,1.266a1.283,1.283,0,0,0,1.321,1.351q2.659.045,5.32,0a1.314,1.314,0,0,0,1.352-1.336C36.515,1103.421,36.493,1103.008,36.493,1102.549Zm46.788-.007c0,.47-.017.861,0,1.249a1.3,1.3,0,0,0,1.378,1.377c1.747.025,3.494.02,5.241,0a1.278,1.278,0,0,0,1.353-1.162,9.779,9.779,0,0,0,.014-1.466ZM31.147,1043.63c0-1.386.034-2.707-.013-4.025a1.315,1.315,0,0,0-1.335-1.266,1.264,1.264,0,0,0-1.278,1.136c-.045,1.369-.014,2.74-.014,4.155Z" transform="translate(-19.112 -1027.661)" fill="#12263f"/>
      <path id="Trazado_622539" data-name="Trazado 622539" d="M73.543,1200.287H40.813c-3.095,0-4.652-1.567-4.652-4.681q0-22.242,0-44.484A3.985,3.985,0,0,1,39,1147.007a5.877,5.877,0,0,1,1.621-.2q32.965-.014,65.93-.006c2.848,0,4.457,1.625,4.457,4.476q0,22.282,0,44.563a4.066,4.066,0,0,1-4.421,4.441Q90.065,1200.29,73.543,1200.287Zm.054-50.8q-15.188,0-30.377,0a4.028,4.028,0,0,0-4.39,4.378q-.007,3.524,0,7.047c0,3.049,1.573,4.611,4.639,4.611H85.51q9.317,0,18.633,0a4,4,0,0,0,4.188-4.034c.032-2.662.016-5.325,0-7.987a3.95,3.95,0,0,0-1.214-2.879,4.393,4.393,0,0,0-3.3-1.144Q88.707,1149.5,73.6,1149.487ZM56.92,1168.2q-6.889,0-13.778,0a4.025,4.025,0,0,0-4.31,4.3q-.009,10.375,0,20.75a4.053,4.053,0,0,0,4.345,4.362q13.7.01,27.4,0a4.018,4.018,0,0,0,4.343-4.278q.027-10.414,0-20.828a4.015,4.015,0,0,0-4.378-4.31Q63.731,1168.192,56.92,1168.2Zm20.688,14.723A14.684,14.684,0,1,0,92.273,1168.2,14.767,14.767,0,0,0,77.609,1182.918Z" transform="translate(-33.485 -1128.109)" fill="#e8e8e8"/>
      <path id="Trazado_622540" data-name="Trazado 622540" d="M86.856,1504.926c0,.46.022.872,0,1.281a1.314,1.314,0,0,1-1.352,1.336q-2.66.041-5.32,0a1.283,1.283,0,0,1-1.321-1.351c-.02-.409,0-.82,0-1.266Z" transform="translate(-69.474 -1430.038)" fill="#12263f"/>
      <path id="Trazado_622541" data-name="Trazado 622541" d="M428.032,1504.883h7.99a9.779,9.779,0,0,1-.014,1.466,1.278,1.278,0,0,1-1.353,1.162c-1.747.019-3.494.024-5.241,0a1.3,1.3,0,0,1-1.378-1.377C428.015,1505.744,428.032,1505.353,428.032,1504.883Z" transform="translate(-363.863 -1430.002)" fill="#12263f"/>
      <path id="Trazado_622542" data-name="Trazado 622542" d="M81.575,1101.007h-2.64c0-1.415-.031-2.786.014-4.155a1.264,1.264,0,0,1,1.278-1.136,1.315,1.315,0,0,1,1.335,1.266C81.609,1098.3,81.575,1099.62,81.575,1101.007Z" transform="translate(-69.539 -1085.037)" fill="#12263f"/>
      <path id="Trazado_622543" data-name="Trazado 622543" d="M87.931,1163.865q15.11,0,30.22-.007a4.394,4.394,0,0,1,3.3,1.144,3.95,3.95,0,0,1,1.214,2.879c.014,2.662.03,5.325,0,7.987a4,4,0,0,1-4.188,4.034q-9.316.015-18.633,0H57.8c-3.066,0-4.638-1.563-4.639-4.611q0-3.524,0-7.047a4.028,4.028,0,0,1,4.39-4.378Q72.742,1163.857,87.931,1163.865Zm-21.361,13.37h51.49a4.943,4.943,0,0,0,.7-.017,1.253,1.253,0,0,0,1.2-1.152c.07-.924.018-1.857.018-2.823h-6.626c-.17.756-.571,1.288-1.366,1.3-.842.013-1.214-.589-1.426-1.339-2.054,0-4.088-.01-6.121.017a.739.739,0,0,0-.534.382,1.351,1.351,0,0,1-1.308.94,1.308,1.308,0,0,1-1.246-.908c-.071-.174-.29-.409-.444-.411-2.078-.027-4.157-.018-6.247-.018-.191.753-.552,1.3-1.311,1.334a1.332,1.332,0,0,1-1.416-1.1c-.035-.117-.328-.223-.5-.224-2.033-.015-4.066-.01-6.113-.01-.2.735-.558,1.312-1.357,1.339-.87.029-1.259-.585-1.462-1.31H75.92a1.38,1.38,0,0,1-1.254,1.306c-.929.087-1.287-.606-1.53-1.276H66.569Zm.01-6.737h6.566c.233-.688.567-1.29,1.44-1.268.823.021,1.158.576,1.36,1.269h6.586c.172-.68.488-1.187,1.232-1.262.945-.1,1.313.552,1.556,1.258h6.568c.176-.669.485-1.192,1.226-1.255a1.335,1.335,0,0,1,1.47,1.023c.051.139.362.254.554.256,1.853.019,3.706,0,5.559.021.41,0,.515-.212.735-.5a2.088,2.088,0,0,1,1.215-.775c.807-.114,1.156.535,1.356,1.228h6.59c.176-.681.5-1.188,1.241-1.257.936-.088,1.319.539,1.541,1.248H120c0-.689,0-1.335,0-1.981,0-1.574-.376-1.96-1.918-1.96q-25.327,0-50.655,0c-.276,0-.553.024-.851.038Zm-2.769,2.754H55.833c0,.772,0,1.5,0,2.22.008,1.289.466,1.757,1.738,1.761,1.774.005,3.549,0,5.323,0h.916ZM63.8,1170.5v-3.928c-2.308,0-4.565-.019-6.822.013a1.09,1.09,0,0,0-1.089,1.048c-.076.946-.021,1.9-.021,2.868Z" transform="translate(-47.819 -1142.487)" fill="#12263f"/>
      <path id="Trazado_622544" data-name="Trazado 622544" d="M71.251,1283.127q6.811,0,13.622,0a4.015,4.015,0,0,1,4.378,4.31q.023,10.414,0,20.828a4.018,4.018,0,0,1-4.343,4.278q-13.7.01-27.4,0a4.054,4.054,0,0,1-4.345-4.362q-.007-10.375,0-20.75a4.025,4.025,0,0,1,4.31-4.3Q64.361,1283.121,71.251,1283.127Zm-.025,2.669q-6.771,0-13.542,0c-1.434,0-1.853.425-1.853,1.876q0,10.139,0,20.277c0,1.5.414,1.923,1.9,1.923q13.5,0,27,0c1.407,0,1.841-.422,1.841-1.808q.005-10.217,0-20.434c0-1.438-.414-1.834-1.883-1.834Z" transform="translate(-47.816 -1243.04)" fill="#12263f"/>
      <path id="Trazado_622545" data-name="Trazado 622545" d="M300.313,1297.862a14.684,14.684,0,1,1,14.706,14.694A14.74,14.74,0,0,1,300.313,1297.862Zm19.487-11.121-3.422-.921c-.214.847-.667,1.42-1.387,1.284a5.089,5.089,0,0,1-1.527-.93l.081-.345-3.329.91.247.256a5.168,5.168,0,0,1-.808,1.523c-.6.552-1.262.145-1.982-.418l-2.488,2.444c.72.685.949,1.3.545,1.981-.389.659-1.017.739-1.84.52l-.9,3.384c.738.265,1.259.579,1.3,1.328.05.865-.535,1.224-1.309,1.513l.918,3.361c.794-.164,1.436-.118,1.823.556s.1,1.288-.418,1.9l2.41,2.488.149-.389a5.18,5.18,0,0,1,1.716-.056c.775.243.77,1.013.644,1.825l3.294.889c.927-1.757,1.845-1.752,3.015,0l3.274-.9a1.456,1.456,0,0,1,.476-1.792c.71-.475,1.324-.113,2.019.39l2.478-2.4c-.623-.636-.853-1.177-.58-1.806.355-.818,1.1-.816,1.934-.748l.867-3.334c-.768-.25-1.259-.59-1.292-1.336-.037-.83.512-1.191,1.3-1.483l-.912-3.374c-.841.218-1.459.121-1.852-.538-.415-.7-.117-1.287.49-1.931l-2.431-2.473c-.713.594-1.308.909-2,.471C319.659,1288.172,319.575,1287.551,319.8,1286.741Z" transform="translate(-256.189 -1243.053)" fill="#12263f"/>
      <path id="Trazado_622546" data-name="Trazado 622546" d="M138.611,1227.443v-3.973h6.566c.243.67.6,1.363,1.53,1.276a1.38,1.38,0,0,0,1.255-1.306h6.579c.2.725.592,1.34,1.462,1.31.8-.027,1.161-.6,1.357-1.339,2.046,0,4.08-.005,6.113.01.175,0,.469.107.5.224a1.332,1.332,0,0,0,1.416,1.1c.759-.035,1.12-.58,1.311-1.333,2.09,0,4.169-.009,6.247.018.154,0,.373.236.444.411a1.308,1.308,0,0,0,1.246.908,1.351,1.351,0,0,0,1.308-.939.739.739,0,0,1,.534-.382c2.033-.027,4.066-.017,6.121-.017.212.75.584,1.352,1.426,1.339.795-.012,1.2-.545,1.366-1.3h6.626c0,.966.053,1.9-.018,2.823a1.252,1.252,0,0,1-1.2,1.152,4.925,4.925,0,0,1-.7.017h-51.49Z" transform="translate(-119.86 -1192.695)" fill="#fffae7"/>
      <path id="Trazado_622547" data-name="Trazado 622547" d="M138.677,1184.931v-3.915c.3-.014.574-.038.851-.038q25.327,0,50.655,0c1.542,0,1.916.386,1.918,1.96,0,.646,0,1.292,0,1.981h-6.626c-.222-.709-.605-1.337-1.541-1.249-.74.07-1.066.577-1.241,1.258H176.1c-.2-.694-.55-1.342-1.356-1.228a2.087,2.087,0,0,0-1.215.775c-.221.287-.326.5-.735.5-1.853-.021-3.706,0-5.559-.021-.192,0-.5-.118-.554-.256a1.336,1.336,0,0,0-1.47-1.023c-.741.062-1.05.586-1.226,1.255h-6.568c-.243-.705-.611-1.353-1.556-1.257-.743.075-1.059.581-1.232,1.261h-6.586c-.2-.693-.537-1.248-1.36-1.269-.873-.022-1.207.58-1.44,1.268Z" transform="translate(-119.916 -1156.92)" fill="#fffae7"/>
      <path id="Trazado_622548" data-name="Trazado 622548" d="M78.157,1223.732v3.983h-.916c-1.775,0-3.549,0-5.323,0-1.272,0-1.731-.472-1.738-1.761,0-.724,0-1.448,0-2.22Z" transform="translate(-62.165 -1192.966)" fill="#d2e1f1"/>
      <path id="Trazado_622549" data-name="Trazado 622549" d="M78.247,1185.05H70.315c0-.966-.056-1.922.021-2.868a1.09,1.09,0,0,1,1.089-1.048c2.257-.032,4.515-.013,6.822-.013Z" transform="translate(-62.264 -1157.038)" fill="#d2e1f1"/>
      <path id="Trazado_622550" data-name="Trazado 622550" d="M85.58,1300.138H99.043c1.47,0,1.883.4,1.883,1.834q0,10.217,0,20.434c0,1.386-.434,1.808-1.841,1.808q-13.5,0-27,0c-1.481,0-1.9-.422-1.9-1.923q0-10.139,0-20.277c0-1.452.42-1.876,1.853-1.877Q78.809,1300.137,85.58,1300.138Zm9.794,8.743.2.1q0,.384,0,.767c0,2.974-.009,5.948.008,8.923a1.351,1.351,0,0,0,1.343,1.508c.8,0,1.317-.562,1.319-1.513.011-4.331,0-8.662.008-12.993a1.344,1.344,0,0,0-.8-1.4,1.382,1.382,0,0,0-1.626.412c-.654.674-1.331,1.326-1.989,2-.741.754-1.472,1.519-2.246,2.318-1.45-1.465-2.8-2.809-4.123-4.177a1.515,1.515,0,0,0-1.731-.567c-.711.279-.856.893-.854,1.6.012,4.2.006,8.4.006,12.6,0,.078,0,.157,0,.235a1.361,1.361,0,0,0,1.366,1.483,1.319,1.319,0,0,0,1.3-1.458c.011-3.026,0-6.053.005-9.079,0-.246,0-.491,0-.965,1.062,1.069,1.952,1.974,2.852,2.869a1.4,1.4,0,0,0,2.343,0C93.639,1310.669,94.5,1309.771,95.374,1308.882Zm-19.806-2.042h.9c1.409,0,2.818.014,4.226-.006a1.373,1.373,0,0,0,1.521-1.337,1.333,1.333,0,0,0-1.508-1.325q-3.17-.019-6.339,0a1.329,1.329,0,0,0-1.507,1.494q-.022,6.5,0,12.995a1.357,1.357,0,0,0,1.331,1.522c.8.007,1.32-.557,1.33-1.5.016-1.435,0-2.87.007-4.305,0-.274.028-.548.046-.878h.943c1.409,0,2.818.012,4.226-.007a1.324,1.324,0,0,0,1.471-1.285,1.358,1.358,0,0,0-1.479-1.376c-.834-.026-1.669-.007-2.5-.007H75.567Z" transform="translate(-62.17 -1257.384)" fill="#26aab7"/>
      <path id="Trazado_622551" data-name="Trazado 622551" d="M334.129,1301.141c-.225.81-.141,1.431.505,1.84.694.439,1.289.123,2-.471l2.431,2.473c-.607.644-.9,1.236-.49,1.931.393.659,1.01.756,1.852.538l.912,3.374c-.793.292-1.341.653-1.3,1.483.033.746.523,1.085,1.292,1.336l-.867,3.334c-.829-.068-1.579-.07-1.934.749-.273.629-.043,1.17.58,1.806l-2.478,2.4c-.695-.5-1.309-.865-2.019-.39a1.456,1.456,0,0,0-.476,1.792l-3.274.9c-1.17-1.748-2.088-1.753-3.015,0l-3.294-.889c.126-.812.131-1.582-.644-1.825a5.187,5.187,0,0,0-1.716.056l-.149.389-2.41-2.488c.519-.612.812-1.212.418-1.9s-1.029-.72-1.823-.556l-.918-3.361c.774-.288,1.359-.648,1.309-1.513-.043-.749-.564-1.064-1.3-1.328l.9-3.384c.823.219,1.451.14,1.84-.52.4-.685.176-1.3-.545-1.981L322,1302.5c.72.562,1.381.969,1.982.418a5.167,5.167,0,0,0,.808-1.523l-.247-.256,3.329-.91-.081.345a5.089,5.089,0,0,0,1.527.93c.72.135,1.173-.437,1.387-1.284Zm-11.468,11.085a6.668,6.668,0,1,0,6.66-6.676A6.663,6.663,0,0,0,322.661,1312.226Z" transform="translate(-270.519 -1257.453)" fill="#fb8c00"/>
      <path id="Trazado_622552" data-name="Trazado 622552" d="M174.366,1330.5c-.872.889-1.735,1.787-2.618,2.665a1.4,1.4,0,0,1-2.343,0c-.9-.895-1.79-1.8-2.852-2.869,0,.474,0,.719,0,.965,0,3.026.006,6.053-.005,9.079a1.319,1.319,0,0,1-1.3,1.458,1.361,1.361,0,0,1-1.366-1.483c0-.078,0-.157,0-.235,0-4.2.006-8.4-.006-12.6,0-.708.143-1.323.854-1.6a1.514,1.514,0,0,1,1.731.566c1.324,1.368,2.673,2.711,4.123,4.177.773-.8,1.5-1.563,2.246-2.318.658-.67,1.335-1.322,1.989-2a1.383,1.383,0,0,1,1.626-.412,1.344,1.344,0,0,1,.8,1.4c-.005,4.331,0,8.662-.008,12.993,0,.952-.52,1.512-1.319,1.513a1.351,1.351,0,0,1-1.343-1.508c-.017-2.974-.007-5.948-.008-8.923q0-.384,0-.767Z" transform="translate(-141.163 -1279.007)" fill="#12263f"/>
      <path id="Trazado_622553" data-name="Trazado 622553" d="M89.905,1328.457v3.984h2.666c.835,0,1.67-.018,2.5.007a1.358,1.358,0,0,1,1.479,1.376,1.324,1.324,0,0,1-1.471,1.285c-1.409.02-2.817.006-4.226.007h-.943c-.018.33-.045.6-.046.878,0,1.435.008,2.87-.007,4.305-.01.943-.529,1.507-1.33,1.5a1.357,1.357,0,0,1-1.331-1.521q-.018-6.5,0-12.995a1.329,1.329,0,0,1,1.507-1.495q3.17-.023,6.339,0a1.333,1.333,0,0,1,1.508,1.326,1.373,1.373,0,0,1-1.521,1.337c-1.409.02-2.817.006-4.226.006Z" transform="translate(-76.508 -1279)" fill="#12263f"/>
      <path id="Trazado_622554" data-name="Trazado 622554" d="M351.42,1340.865a6.668,6.668,0,1,1,6.632,6.695A6.69,6.69,0,0,1,351.42,1340.865Zm10.667.042a4,4,0,1,0-8-.055,4,4,0,1,0,8,.055Z" transform="translate(-299.277 -1286.092)" fill="#12263f"/>
      <path id="Trazado_622555" data-name="Trazado 622555" d="M376.429,1355.267a4,4,0,1,1-4.013-4.045A4.031,4.031,0,0,1,376.429,1355.267Zm-2.671-.013a1.328,1.328,0,0,0-2.655-.068,1.328,1.328,0,1,0,2.655.068Z" transform="translate(-313.619 -1300.452)" fill="#12263f"/>
      <path id="Trazado_622556" data-name="Trazado 622556" d="M388.108,1369.665a1.328,1.328,0,1,1-2.655-.068,1.328,1.328,0,0,1,2.655.068Z" transform="translate(-327.97 -1314.863)" fill="#12263f"/>
    </g>
  </g>
</svg>
